<svg width="22" height="22" viewBox="0 0 22 22" fill="none" xmlns="http://www.w3.org/2000/svg">
<path d="M17.0115 22C16.7973 21.9993 16.5839 21.9753 16.3748 21.9283C12.3931 21.086 8.72493 19.1111 5.79244 16.2309C2.92252 13.3443 0.932083 9.66907 0.0619434 5.64986C-0.0406571 5.14894 -0.0154749 4.62945 0.135067 4.14137C0.28561 3.65329 0.556445 3.21304 0.921518 2.86298L3.4684 0.356097C3.59849 0.230289 3.75306 0.133948 3.92202 0.0733612C4.09097 0.0127745 4.27053 -0.0106958 4.44896 0.00448221C4.63396 0.0242202 4.8125 0.085167 4.972 0.183037C5.13151 0.280906 5.26811 0.413322 5.3722 0.570973L8.55581 5.38289C8.6752 5.5696 8.73283 5.79057 8.72022 6.01328C8.70761 6.23599 8.62543 6.44868 8.48577 6.62005L6.8876 8.57347C7.5241 10.0141 8.4255 11.3161 9.54273 12.4087C10.6527 13.5409 11.9647 14.4449 13.4076 15.0718L15.3878 13.4635C15.5542 13.3291 15.7565 13.2496 15.9681 13.2357C16.1796 13.2217 16.3903 13.2739 16.5721 13.3854L21.3794 16.5629C21.5444 16.6637 21.6849 16.8013 21.7905 16.9654C21.8961 17.1296 21.964 17.3161 21.9891 17.5109C22.0142 17.7057 21.9959 17.9038 21.9355 18.0903C21.8751 18.2768 21.7742 18.447 21.6404 18.588L19.1572 21.1014C18.8752 21.3884 18.5404 21.6156 18.1721 21.7698C17.8038 21.924 17.4094 22.0022 17.0115 22ZM4.34708 1.29374L1.80019 3.80062C1.59482 3.99632 1.44279 4.24332 1.35906 4.51732C1.27533 4.79132 1.26279 5.08289 1.32265 5.36336C2.13175 9.13484 3.99161 12.586 6.67748 15.2997C9.43716 18.0095 12.8891 19.8671 16.6358 20.6586C16.9194 20.7192 17.2133 20.707 17.4911 20.6229C17.7689 20.5388 18.022 20.3855 18.2276 20.1768L20.7108 17.6634L16.0691 14.5965L13.9425 16.3285C13.8611 16.3944 13.7651 16.439 13.663 16.4583C13.5609 16.4776 13.4558 16.471 13.3567 16.4392C11.5909 15.7739 9.99063 14.7177 8.67042 13.3463C7.30488 12.0422 6.24491 10.4396 5.56959 8.65812C5.54102 8.55027 5.54007 8.43671 5.56683 8.32837C5.59359 8.22004 5.64717 8.12057 5.7224 8.03954L7.44155 5.93636L4.34708 1.29374Z" fill="#00B4E3"/>
</svg>
