<svg 
 xmlns="http://www.w3.org/2000/svg"
 xmlns:xlink="http://www.w3.org/1999/xlink"
 width="101px" height="73px">
<defs>
<filter id="Filter_0">
    <feFlood flood-color="rgb(164, 197, 140)" flood-opacity="1" result="floodOut" />
    <feComposite operator="atop" in="floodOut" in2="SourceGraphic" result="compOut" />
    <feBlend mode="normal" in="compOut" in2="SourceGraphic" />
</filter>

</defs>
<g filter="url(#Filter_0)">
<path fill-rule="evenodd"  fill="rgb(115, 115, 115)"
 d="M25.170,0.711 C30.163,0.631 35.345,0.757 39.438,1.784 C41.472,2.294 43.260,2.322 45.106,2.955 C46.455,3.419 47.895,4.036 49.112,4.713 C49.696,5.037 50.141,5.722 50.871,5.884 C51.212,5.402 51.738,5.234 52.239,4.908 C54.004,3.758 56.240,3.048 58.494,2.370 C59.351,2.112 60.042,2.211 60.937,1.980 C62.739,1.513 65.055,1.449 66.996,1.004 C67.517,1.004 68.038,1.004 68.559,1.004 C69.786,0.738 71.438,1.113 72.859,0.808 C73.754,0.616 75.482,0.609 76.377,0.808 C77.792,1.124 79.452,0.730 80.677,1.004 C81.198,1.004 81.719,1.004 82.240,1.004 C83.247,1.235 84.447,1.129 85.563,1.394 C88.134,2.004 90.841,2.318 93.087,3.151 C95.768,4.145 98.471,5.163 99.928,7.348 C100.778,8.624 100.612,10.869 100.612,13.010 C100.612,16.979 100.612,20.949 100.612,24.917 C100.612,34.742 100.612,44.570 100.612,54.395 C100.612,60.088 100.749,66.046 100.514,71.574 C99.957,72.019 99.682,72.637 98.853,72.844 C98.232,72.998 97.518,72.574 97.094,72.454 C95.922,72.122 94.614,72.127 93.478,71.868 C92.210,71.578 90.843,71.734 89.667,71.477 C89.179,71.477 88.690,71.477 88.201,71.477 C87.349,71.292 86.200,71.504 85.172,71.283 C83.300,70.878 80.808,70.991 78.722,70.989 C76.532,70.988 73.908,70.554 71.882,70.989 C71.027,71.173 69.878,70.930 69.145,71.087 C68.299,71.087 67.451,71.087 66.605,71.087 C65.471,71.330 63.884,71.239 62.793,71.477 C61.654,71.542 60.513,71.607 59.373,71.673 C57.387,72.119 55.187,71.986 53.119,72.454 C52.370,72.622 51.113,73.066 50.187,72.844 C47.682,72.243 44.654,72.253 42.076,71.673 C40.693,71.361 39.166,71.562 37.874,71.283 C36.474,71.217 35.073,71.152 33.672,71.087 C33.151,71.087 32.630,71.087 32.109,71.087 C30.814,70.810 28.341,70.767 27.027,70.989 C26.325,71.108 25.120,70.832 24.389,70.989 C22.141,71.022 19.893,71.054 17.646,71.087 C16.649,71.301 15.383,71.032 14.226,71.283 C11.582,71.853 8.499,71.656 6.017,72.258 C4.252,72.686 2.073,73.275 1.131,71.868 C0.515,70.949 0.838,68.510 0.838,67.085 C0.838,63.018 0.838,58.951 0.838,54.884 C0.838,39.528 0.838,24.168 0.838,8.812 C1.168,8.520 1.186,7.929 1.424,7.544 C1.759,7.001 2.384,6.264 2.890,5.884 C5.770,3.719 9.343,2.830 13.444,1.784 C16.127,1.100 19.140,1.416 21.946,0.808 C22.872,0.607 24.455,1.162 25.170,0.711 ZM23.509,4.908 C23.118,5.137 22.382,4.888 21.848,5.006 C20.663,5.266 19.394,5.008 18.134,5.298 C13.304,6.411 8.044,6.515 5.040,9.398 C5.040,23.647 5.040,37.901 5.040,52.151 C5.040,56.022 5.040,59.895 5.040,63.766 C5.040,64.594 4.857,67.753 5.040,68.061 C5.145,68.134 5.132,68.120 5.333,68.159 C6.037,67.698 7.222,67.977 8.167,67.768 C9.711,67.426 11.671,67.525 13.248,67.182 C13.867,67.182 14.486,67.182 15.105,67.182 C16.197,66.948 17.642,67.259 18.916,66.987 C20.903,66.564 23.489,66.792 25.757,66.792 C34.053,66.791 41.371,67.468 48.526,68.354 C48.942,67.087 48.624,64.324 48.624,62.790 C48.624,58.691 48.624,54.590 48.624,50.492 C48.624,36.860 48.624,23.225 48.624,9.593 C48.545,9.478 48.548,9.429 48.526,9.202 C42.472,5.345 33.449,4.983 23.509,4.908 ZM52.826,68.354 C54.624,68.240 56.773,67.963 58.494,67.573 C59.845,67.266 61.345,67.458 62.598,67.182 C63.152,67.182 63.706,67.182 64.259,67.182 C65.731,66.865 67.721,67.120 69.243,66.792 C71.816,66.792 74.390,66.792 76.963,66.792 C83.857,66.791 90.370,67.400 96.410,68.159 C96.410,48.541 96.410,28.918 96.410,9.300 C96.047,9.067 95.803,8.629 95.433,8.422 C94.415,7.855 93.383,7.685 92.208,7.250 C87.531,5.520 81.528,4.910 75.204,4.908 C70.756,4.907 66.324,4.940 62.696,5.884 C62.031,6.057 61.598,5.894 60.937,6.079 C57.956,6.916 54.772,7.532 52.826,9.398 C52.826,29.048 52.826,48.704 52.826,68.354 ZM14.910,22.477 C20.642,22.477 26.376,22.477 32.109,22.477 C35.309,22.477 38.184,21.722 38.167,25.113 C37.690,25.645 37.558,26.318 36.799,26.577 C35.587,26.990 32.900,26.675 31.425,26.675 C27.451,26.675 23.476,26.675 19.503,26.675 C16.221,26.675 13.317,27.435 13.346,23.942 C13.674,23.595 13.821,23.036 14.226,22.770 C14.459,22.617 14.718,22.650 14.910,22.477 ZM64.943,22.477 C70.676,22.477 76.410,22.477 82.142,22.477 C84.077,22.477 87.288,22.007 87.810,23.454 C88.941,24.602 87.648,26.578 86.247,26.577 C85.647,26.955 82.164,26.675 81.165,26.675 C76.801,26.675 72.435,26.675 68.070,26.675 C66.051,26.675 63.771,26.928 63.575,25.113 C62.644,23.954 64.440,22.913 64.943,22.477 ZM14.910,34.972 C20.642,34.972 26.376,34.972 32.109,34.972 C35.315,34.972 38.184,34.209 38.167,37.607 C37.687,38.143 37.558,38.803 36.799,39.071 C35.618,39.488 32.878,39.169 31.425,39.169 C27.451,39.169 23.476,39.169 19.503,39.169 C16.226,39.169 13.317,39.922 13.346,36.435 C13.647,36.119 13.769,35.619 14.128,35.362 C14.372,35.187 14.696,35.167 14.910,34.972 ZM65.041,34.972 C70.773,34.972 76.508,34.972 82.240,34.972 C85.215,34.972 88.184,34.376 88.201,37.412 C87.721,38.041 87.625,38.757 86.833,39.071 C85.804,39.479 83.066,39.169 81.752,39.169 C77.778,39.169 73.803,39.169 69.829,39.169 C67.483,39.169 63.806,39.745 63.575,37.607 C63.236,37.188 63.490,36.669 63.575,36.143 C63.806,35.964 63.852,35.638 64.064,35.460 C64.336,35.231 64.761,35.193 65.041,34.972 ZM14.910,47.465 C20.153,47.465 25.399,47.465 30.643,47.465 C32.630,47.465 34.617,47.465 36.604,47.465 C37.429,47.723 37.645,48.384 38.167,48.930 C38.180,50.351 37.805,51.211 36.799,51.565 C35.558,52.002 32.655,51.663 31.131,51.663 C27.353,51.663 23.574,51.663 19.796,51.663 C18.401,51.663 15.853,51.959 14.714,51.565 C14.018,51.324 13.801,50.677 13.346,50.199 C13.303,48.088 13.878,48.376 14.910,47.465 ZM65.041,47.465 C70.773,47.465 76.508,47.465 82.240,47.465 C85.220,47.465 88.184,46.864 88.201,49.906 C87.729,50.524 87.633,51.281 86.833,51.565 C85.677,51.975 82.982,51.663 81.556,51.663 C77.648,51.663 73.738,51.663 69.829,51.663 C67.483,51.663 63.806,52.239 63.575,50.101 C63.236,49.682 63.490,49.164 63.575,48.637 C63.789,48.472 63.784,48.235 63.966,48.051 C64.242,47.773 64.734,47.714 65.041,47.465 Z"/>
</g>
</svg>