<svg 
 xmlns="http://www.w3.org/2000/svg"
 xmlns:xlink="http://www.w3.org/1999/xlink"
 width="86px" height="73px">
<defs>
<filter id="Filter_0">
    <feFlood flood-color="rgb(164, 197, 140)" flood-opacity="1" result="floodOut" />
    <feComposite operator="atop" in="floodOut" in2="SourceGraphic" result="compOut" />
    <feBlend mode="normal" in="compOut" in2="SourceGraphic" />
</filter>

</defs>
<g filter="url(#Filter_0)">
<path fill-rule="evenodd"  fill="rgb(115, 115, 115)"
 d="M42.512,0.062 C43.900,0.033 44.548,0.670 45.441,1.137 C46.946,1.922 48.470,2.619 49.933,3.382 C53.949,5.478 58.024,7.250 62.043,9.340 C63.572,10.134 65.160,10.867 66.730,11.683 C67.200,11.927 67.793,12.403 68.293,12.562 C73.566,12.562 78.840,12.562 84.113,12.562 C84.351,12.840 84.680,12.926 84.894,13.246 C85.385,13.869 85.187,15.490 85.187,16.566 C85.187,19.430 85.187,22.296 85.187,25.160 C85.187,36.324 85.187,47.492 85.187,58.656 C85.187,61.781 85.187,64.906 85.187,68.031 C85.187,69.511 85.394,71.044 84.504,71.644 C83.694,72.282 81.152,71.937 79.816,71.937 C75.715,71.937 71.613,71.937 67.512,71.937 C51.563,71.937 35.609,71.937 19.660,71.937 C15.038,71.937 10.415,71.937 5.793,71.937 C4.182,71.937 1.620,72.285 1.008,71.254 C0.477,70.360 0.812,68.032 0.812,66.761 C0.812,62.986 0.812,59.209 0.812,55.434 C0.812,41.502 0.812,27.567 0.812,13.637 C1.174,13.264 1.514,12.924 1.887,12.562 C7.160,12.562 12.434,12.562 17.707,12.562 C18.075,12.443 18.532,12.059 18.879,11.878 C19.997,11.296 21.122,10.779 22.199,10.218 C25.511,8.493 28.889,6.942 32.160,5.238 C34.569,3.983 37.019,2.858 39.387,1.625 C40.359,1.118 41.747,0.802 42.512,0.062 ZM42.805,3.382 C42.094,4.208 39.865,4.879 38.801,5.433 C35.652,7.071 32.377,8.675 29.230,10.316 C28.485,10.705 25.111,12.082 24.836,12.562 C36.944,12.562 49.056,12.562 61.164,12.562 C61.164,12.497 61.164,12.432 61.164,12.367 C59.976,12.209 57.653,10.684 56.574,10.121 C53.333,8.429 50.052,7.022 46.809,5.336 C45.756,4.788 44.028,3.543 42.805,3.382 ZM3.937,15.687 C3.937,33.394 3.937,51.106 3.937,68.812 C29.976,68.812 56.023,68.812 82.062,68.812 C82.062,51.106 82.062,33.394 82.062,15.687 C56.023,15.687 29.976,15.687 3.937,15.687 ZM60.578,25.062 C66.613,24.990 69.594,27.482 71.613,31.410 C72.429,32.996 73.159,35.929 72.492,38.344 C72.130,39.653 71.615,41.010 70.930,42.054 C70.593,42.567 69.801,43.066 69.562,43.617 C69.562,49.573 69.562,55.532 69.562,61.488 C69.200,61.860 68.860,62.200 68.488,62.562 C67.937,62.560 67.484,62.575 67.121,62.367 C66.796,62.009 66.470,61.651 66.144,61.293 C65.168,60.349 64.191,59.404 63.215,58.461 C62.743,57.989 62.370,57.200 61.555,57.094 C59.829,58.851 58.104,60.609 56.379,62.367 C56.015,62.574 55.563,62.562 55.012,62.562 C54.855,62.375 54.842,62.509 54.621,62.367 C54.325,62.176 54.182,61.739 53.937,61.488 C53.937,55.532 53.937,49.573 53.937,43.617 C51.791,42.105 49.864,36.646 51.203,32.875 C52.063,30.452 53.488,28.385 55.402,27.015 C56.304,26.370 57.521,25.843 58.625,25.453 C59.219,25.242 60.086,25.386 60.578,25.062 ZM14.387,28.187 C24.086,28.187 33.789,28.187 43.488,28.187 C43.720,28.439 44.198,28.571 44.367,28.871 C44.817,29.669 44.443,30.655 43.879,31.019 C43.070,31.663 38.568,31.312 37.043,31.312 C31.054,31.312 25.063,31.312 19.074,31.312 C16.371,31.312 13.305,32.150 13.312,29.261 C13.485,29.118 13.462,28.943 13.605,28.773 C13.814,28.526 14.180,28.435 14.387,28.187 ZM60.773,28.187 C60.057,28.383 59.341,28.578 58.625,28.773 C56.716,29.712 55.110,31.306 54.328,33.363 C52.984,36.899 54.792,39.898 56.476,41.664 C56.639,41.892 56.802,42.119 56.965,42.348 C57.399,42.610 58.321,42.898 59.015,43.226 C59.792,43.593 61.373,44.144 62.726,43.812 C65.638,43.099 67.546,41.884 68.781,39.516 C71.445,34.404 67.609,29.603 63.703,28.383 C62.864,28.120 61.830,28.176 60.773,28.187 ZM14.387,34.437 C20.961,34.437 27.538,34.437 34.113,34.437 C35.234,34.810 35.543,36.575 34.504,37.269 C33.794,37.839 30.634,37.562 29.328,37.562 C25.487,37.562 21.645,37.562 17.805,37.562 C15.386,37.562 13.300,38.040 13.312,35.512 C13.674,35.139 14.014,34.799 14.387,34.437 ZM14.387,40.687 C20.961,40.687 27.538,40.687 34.113,40.687 C34.270,40.874 34.283,40.740 34.504,40.882 C34.800,41.073 34.942,41.511 35.187,41.761 C35.220,42.670 35.031,43.181 34.504,43.519 C33.794,44.089 30.634,43.812 29.328,43.812 C25.487,43.812 21.645,43.812 17.805,43.812 C15.386,43.812 13.300,44.290 13.312,41.761 C13.558,41.511 13.700,41.074 13.996,40.882 C14.216,40.740 14.230,40.874 14.387,40.687 ZM57.062,45.961 C57.062,49.671 57.062,53.383 57.062,57.094 C57.127,57.094 57.193,57.094 57.258,57.094 C57.932,56.054 59.121,55.230 59.992,54.359 C60.364,53.987 60.739,53.385 61.262,53.187 C61.587,53.187 61.913,53.187 62.238,53.187 C63.161,54.091 64.157,54.911 65.070,55.824 C65.484,56.239 65.840,56.879 66.437,57.094 C66.437,53.383 66.437,49.671 66.437,45.961 C64.803,46.216 62.943,47.485 60.578,46.937 C59.477,46.682 58.009,46.066 57.062,45.961 ZM18.195,55.726 C17.471,55.713 16.774,55.211 16.437,55.335 C16.195,55.619 16.084,56.126 15.754,56.312 C14.558,56.988 13.850,56.013 13.312,55.434 C13.217,52.500 14.415,50.289 15.656,48.597 C16.615,47.291 18.094,48.160 18.586,49.281 C19.261,49.067 19.694,49.004 20.441,49.183 C20.632,49.469 21.014,49.722 21.125,50.062 C21.125,51.625 21.125,53.187 21.125,54.750 C21.190,54.750 21.255,54.750 21.320,54.750 C21.320,54.685 21.320,54.619 21.320,54.554 C21.827,53.857 21.663,52.983 22.394,52.504 C22.682,52.264 23.023,52.208 23.566,52.210 C24.062,52.654 24.424,52.723 24.738,53.382 C25.226,53.057 25.715,52.732 26.203,52.406 C26.663,52.204 27.195,52.187 27.668,52.015 C27.906,51.374 28.176,50.871 29.035,50.843 C29.204,50.741 29.617,50.791 29.816,50.941 C30.324,51.101 30.676,51.548 30.695,52.210 C31.182,53.246 29.467,55.126 28.644,55.335 C28.100,55.474 27.760,55.080 27.277,55.335 C26.600,55.694 26.049,56.527 25.324,56.898 C24.785,57.174 23.989,57.062 23.469,57.386 C22.606,58.313 22.500,59.461 20.637,59.437 C20.492,59.267 20.319,59.286 20.148,59.144 C19.231,58.379 18.393,57.189 18.195,55.726 Z"/>
</g>
</svg>