<svg 
 xmlns="http://www.w3.org/2000/svg"
 xmlns:xlink="http://www.w3.org/1999/xlink"
 width="88px" height="88px">
<defs>
<filter id="Filter_0">
    <feFlood flood-color="rgb(164, 197, 140)" flood-opacity="1" result="floodOut" />
    <feComposite operator="atop" in="floodOut" in2="SourceGraphic" result="compOut" />
    <feBlend mode="normal" in="compOut" in2="SourceGraphic" />
</filter>

</defs>
<g filter="url(#Filter_0)">
<path fill-rule="evenodd"  fill="rgb(115, 115, 115)"
 d="M57.574,0.250 C57.900,0.250 58.225,0.250 58.551,0.250 C58.707,0.437 58.720,0.303 58.941,0.445 C59.237,0.636 59.380,1.073 59.625,1.324 C59.728,7.119 58.117,10.886 55.719,14.117 C55.218,14.791 54.722,15.571 54.059,16.070 C53.170,16.738 52.285,17.442 51.324,18.023 C50.906,18.276 50.326,18.319 50.055,18.706 C49.807,19.060 49.767,19.493 49.566,19.878 C48.843,21.271 48.251,22.690 47.515,24.175 C45.970,27.298 44.292,30.759 43.219,34.234 C43.284,34.234 43.349,34.234 43.414,34.234 C44.124,33.181 45.331,32.263 46.344,31.500 C47.055,30.964 47.675,30.177 48.394,29.644 C50.236,28.280 52.086,27.079 54.059,25.835 C55.357,25.017 56.524,23.710 58.551,23.687 C59.037,24.278 59.548,24.373 59.625,25.445 C59.030,26.259 58.916,27.344 58.453,28.277 C57.187,30.833 56.184,33.693 55.035,36.383 C55.133,36.383 55.230,36.383 55.328,36.383 C55.708,35.610 57.428,34.580 58.160,34.039 C60.328,32.434 62.244,30.371 64.410,28.766 C65.132,28.229 67.249,26.913 67.535,26.129 C67.699,25.694 67.230,24.272 67.437,23.394 C67.821,21.771 68.227,20.330 69.000,19.097 C70.363,16.925 72.642,15.338 75.348,14.508 C79.173,13.333 83.774,15.912 85.211,17.828 C86.017,18.903 86.890,20.165 87.359,21.539 C89.560,27.982 84.220,33.155 79.742,34.429 C77.981,34.931 76.165,34.292 74.566,34.234 C73.885,35.097 72.081,35.835 71.637,36.773 C73.260,36.773 75.095,37.360 76.519,37.750 C80.346,38.797 85.538,39.607 87.359,42.535 C87.947,43.480 87.750,45.417 87.750,46.929 C87.750,51.937 88.193,54.045 84.625,55.718 C84.713,60.024 83.384,63.879 82.086,66.949 C78.163,76.225 71.055,85.006 60.699,87.749 C54.905,87.749 49.110,87.749 43.316,87.749 C37.978,87.749 32.639,87.749 27.301,87.749 C26.021,87.369 24.583,86.968 23.394,86.383 C14.982,82.242 8.748,74.886 5.328,65.777 C4.506,63.588 4.142,61.188 3.570,58.746 C3.505,57.737 3.440,56.728 3.375,55.718 C3.114,55.588 2.854,55.458 2.594,55.328 C1.899,54.841 1.089,54.104 0.640,53.375 C-0.152,52.087 0.250,47.901 0.250,45.855 C0.250,45.009 0.250,44.162 0.250,43.316 C0.672,41.934 1.858,41.193 2.984,40.484 C6.443,38.306 11.045,37.694 15.680,36.578 C17.345,36.177 19.039,36.279 20.660,35.895 C21.278,35.748 22.228,35.981 22.516,35.504 C21.599,34.488 21.283,32.784 20.758,31.402 C19.587,28.324 18.974,24.901 18.023,21.441 C17.958,20.823 17.893,20.204 17.828,19.586 C17.339,17.556 16.910,15.840 19.683,15.874 C20.213,16.321 21.092,16.210 21.832,16.461 C23.621,17.066 25.486,17.759 27.105,18.609 C33.266,21.845 37.467,26.730 39.019,34.624 C39.247,34.624 39.475,34.624 39.703,34.624 C42.365,29.884 40.123,22.879 38.433,19.000 C31.776,18.803 27.145,15.359 24.371,11.187 C23.490,9.863 22.125,8.191 22.125,6.109 C22.400,5.800 22.450,5.468 22.808,5.230 C23.281,4.849 24.285,4.919 25.152,4.937 C26.923,4.974 28.787,5.312 30.230,5.718 C35.011,7.064 38.637,8.914 40.289,13.336 C40.598,14.164 40.674,15.200 40.875,16.070 C40.875,16.428 40.875,16.786 40.875,17.144 C41.400,18.462 42.298,19.905 42.828,21.343 C43.077,22.018 43.354,24.477 43.805,24.762 C43.884,24.245 44.199,23.873 44.391,23.492 C44.804,22.669 44.943,21.863 45.367,21.050 C45.895,20.039 46.708,18.862 47.125,17.828 C47.125,17.079 47.125,16.330 47.125,15.582 C47.591,13.546 47.622,11.507 48.297,9.722 C49.481,6.591 51.510,3.798 54.059,2.008 C54.657,1.587 55.452,1.123 56.109,0.836 C56.623,0.611 57.192,0.593 57.574,0.250 ZM56.109,4.352 C55.547,5.186 54.376,5.590 53.766,6.402 C52.158,8.539 50.486,11.164 50.445,14.801 C50.510,14.801 50.575,14.801 50.641,14.801 C51.255,13.996 52.368,13.569 52.984,12.750 C54.568,10.644 56.256,7.897 56.305,4.352 C56.240,4.352 56.174,4.352 56.109,4.352 ZM37.555,15.777 C37.401,10.897 31.131,8.697 26.324,8.160 C26.324,8.192 26.324,8.225 26.324,8.257 C26.292,8.257 26.259,8.257 26.226,8.257 C26.226,8.322 26.226,8.388 26.226,8.453 C26.538,8.703 26.578,9.099 26.812,9.429 C27.283,10.092 27.873,10.718 28.375,11.382 C29.831,13.312 34.273,15.623 37.555,15.777 ZM74.469,18.023 C74.633,19.033 75.370,19.909 75.836,20.660 C77.307,23.028 78.711,24.698 81.012,26.226 C81.504,26.553 83.491,27.995 83.941,27.594 C84.853,26.472 84.745,23.634 84.234,22.222 C83.261,19.533 81.980,18.391 79.058,17.633 C78.529,17.495 77.324,17.238 76.519,17.437 C75.855,17.601 75.151,17.913 74.469,18.023 ZM20.953,19.586 C20.984,21.478 21.817,24.299 22.320,25.934 C23.920,31.130 25.316,36.016 28.961,39.117 C29.570,39.635 30.112,40.474 30.816,40.875 C31.243,41.118 31.746,41.040 32.183,41.265 C32.716,41.540 33.096,42.061 33.746,42.242 C33.746,42.177 33.746,42.112 33.746,42.047 C33.074,41.197 32.811,39.990 32.281,39.019 C31.078,36.814 29.634,34.602 28.180,32.574 C27.309,31.361 25.253,29.752 25.250,27.886 C25.856,27.233 25.954,26.789 27.301,26.812 C29.890,29.414 32.053,32.609 34.039,35.796 C34.473,36.493 35.689,39.423 36.187,39.703 C36.187,38.726 36.187,37.750 36.187,36.773 C35.921,36.336 36.139,35.701 35.992,35.113 C35.597,33.528 35.301,31.798 34.625,30.426 C32.550,26.213 29.488,23.506 25.348,21.343 C24.134,20.709 22.593,19.676 20.953,19.586 ZM81.598,30.132 C80.592,29.948 79.777,29.172 79.058,28.667 C77.143,27.324 75.431,25.773 74.078,23.882 C73.613,23.233 72.361,20.430 71.734,20.269 C71.445,21.296 70.856,22.215 70.562,23.492 C70.380,24.288 70.616,25.402 70.758,25.934 C71.532,28.833 72.650,30.147 75.348,31.109 C76.059,31.362 77.430,31.768 78.570,31.500 C79.713,31.231 80.630,30.703 81.598,30.426 C81.598,30.328 81.598,30.230 81.598,30.132 ZM54.351,29.254 C53.385,30.236 51.966,30.885 50.836,31.695 C48.047,33.695 45.199,36.581 43.219,39.410 C42.089,41.024 40.919,42.756 40.875,45.465 C40.907,45.465 40.940,45.465 40.973,45.465 C40.973,45.497 40.973,45.530 40.973,45.562 C48.595,44.106 49.748,40.719 52.398,34.429 C53.091,32.787 54.081,31.007 54.547,29.254 C54.482,29.254 54.417,29.254 54.351,29.254 ZM42.437,50.249 C44.160,50.271 46.366,50.486 47.906,50.152 C48.591,50.004 49.518,50.344 50.055,50.054 C50.330,49.906 50.581,49.462 50.836,49.273 C52.019,48.396 53.095,47.399 54.254,46.539 C57.655,44.015 60.808,41.248 64.215,38.726 C64.616,38.429 65.706,37.640 65.973,37.261 C66.188,36.955 66.243,36.572 66.558,36.383 C66.902,36.175 67.317,36.211 67.633,35.992 C68.502,35.388 69.225,34.477 70.074,33.843 C70.563,33.479 71.411,33.078 71.637,32.476 C70.653,32.136 69.252,30.292 68.805,29.351 C67.313,30.222 66.164,31.660 64.801,32.671 C60.692,35.720 56.981,39.184 52.887,42.242 C51.224,43.483 49.871,45.235 48.101,46.344 C46.310,47.465 44.399,47.773 42.242,48.589 C42.408,49.051 42.442,49.586 42.437,50.249 ZM23.199,38.726 C22.733,39.001 22.069,38.774 21.441,38.922 C20.100,39.236 18.588,39.154 17.144,39.508 C13.802,40.326 10.315,40.768 7.379,41.851 C6.198,42.287 3.858,42.701 3.473,43.804 C3.066,44.554 6.285,46.277 7.476,45.953 C9.831,45.313 12.609,44.991 15.191,44.390 C15.517,44.390 15.842,44.390 16.168,44.390 C17.906,43.989 20.086,44.012 21.832,43.609 C22.190,43.609 22.548,43.609 22.906,43.609 C24.064,43.343 25.591,43.289 26.715,43.023 C27.387,42.864 27.905,43.145 28.277,42.730 C26.999,41.971 25.235,40.013 24.469,38.726 C24.045,38.726 23.622,38.726 23.199,38.726 ZM68.316,39.410 C67.746,39.979 67.018,40.390 66.363,40.875 C65.753,41.326 65.215,41.985 64.605,42.437 C64.197,42.740 63.660,42.935 63.434,43.414 C63.791,43.414 64.150,43.414 64.508,43.414 C65.332,43.918 68.291,43.711 69.488,44.000 C71.691,44.531 74.108,44.544 76.324,45.172 C77.513,45.508 78.966,45.985 80.133,46.246 C81.220,46.488 84.528,44.728 84.625,43.804 C84.397,43.544 84.169,43.284 83.941,43.023 C82.504,42.143 80.846,42.037 79.058,41.460 C75.848,40.425 71.980,39.871 68.316,39.410 ZM59.918,46.148 C59.362,46.674 58.684,47.056 58.062,47.516 C57.620,47.843 57.235,48.359 56.793,48.687 C56.326,49.034 55.585,49.318 55.328,49.859 C56.012,49.859 56.695,49.859 57.379,49.859 C58.194,49.371 61.341,49.738 62.555,49.469 C63.722,49.209 65.082,49.372 66.363,49.078 C68.594,48.566 71.079,48.450 73.297,48.004 C73.297,47.971 73.297,47.939 73.297,47.906 C73.199,47.874 73.101,47.841 73.004,47.808 C72.228,47.338 70.717,47.565 69.683,47.320 C67.451,46.790 64.698,46.858 62.359,46.344 C61.489,46.152 60.631,46.391 59.918,46.148 ZM22.125,46.734 C21.665,47.020 21.008,46.784 20.367,46.929 C18.534,47.347 16.020,47.688 14.019,47.711 C14.019,47.776 14.019,47.841 14.019,47.906 C16.200,48.231 18.382,48.557 20.562,48.882 C21.107,48.074 22.540,47.482 22.906,46.734 C22.646,46.734 22.385,46.734 22.125,46.734 ZM30.816,47.320 C30.488,47.529 30.115,47.393 29.644,47.516 C28.560,47.798 27.340,48.052 26.324,48.492 C24.013,49.494 22.146,51.156 21.148,53.473 C20.843,54.181 20.951,54.793 20.758,55.621 C20.584,56.365 20.319,58.013 20.562,59.039 C20.758,59.861 20.924,61.019 21.148,61.773 C21.577,63.217 21.810,64.467 22.320,65.679 C22.524,66.165 22.452,66.715 22.906,66.949 C23.365,65.494 24.627,64.216 25.445,63.043 C27.842,59.606 30.259,56.192 33.648,53.765 C34.474,53.174 35.604,52.567 36.578,52.203 C37.273,51.943 37.872,51.901 38.433,51.519 C38.726,51.161 39.019,50.803 39.312,50.445 C39.367,49.307 39.039,47.672 38.043,47.613 C37.224,48.258 35.251,48.740 34.234,49.273 C31.908,50.493 29.465,52.268 27.984,54.351 C26.983,55.760 27.143,58.044 24.762,58.062 C24.162,57.380 23.668,57.414 23.687,56.011 C24.178,55.454 24.271,54.507 24.664,53.863 C25.153,53.060 25.757,52.275 26.324,51.519 C26.899,50.754 28.558,49.256 29.351,48.687 C29.931,48.272 30.982,47.966 31.305,47.320 C31.142,47.320 30.979,47.320 30.816,47.320 ZM3.375,47.906 C3.364,49.288 3.235,50.988 3.473,52.203 C5.517,53.357 7.666,54.087 10.113,54.937 C11.299,55.349 12.607,55.397 13.726,55.718 C14.182,55.850 17.320,56.224 17.340,56.206 C17.695,55.782 17.455,55.208 17.633,54.546 C17.877,53.636 18.295,52.707 18.512,51.812 C18.479,51.812 18.446,51.812 18.414,51.812 C18.414,51.779 18.414,51.747 18.414,51.714 C16.996,51.688 15.528,51.349 14.312,51.031 C13.759,50.966 13.206,50.901 12.652,50.836 C10.618,50.284 8.431,49.991 6.500,49.273 C5.473,48.892 4.434,48.120 3.375,47.906 ZM84.430,47.906 C84.059,48.244 83.657,48.245 83.160,48.492 C81.180,49.475 78.666,49.962 76.324,50.640 C75.729,50.813 75.380,50.673 74.762,50.836 C72.771,51.359 70.302,51.504 68.219,52.008 C67.275,52.073 66.330,52.138 65.387,52.203 C63.936,52.541 61.980,52.451 60.504,52.789 C59.885,52.789 59.267,52.789 58.648,52.789 C57.792,52.979 56.513,52.880 55.621,53.082 C55.003,53.082 54.384,53.082 53.766,53.082 C52.972,53.258 51.750,52.977 50.836,53.179 C48.195,53.763 43.812,53.372 40.777,53.375 C39.878,54.494 38.546,54.647 37.164,55.328 C36.427,55.691 35.750,56.235 35.113,56.695 C34.655,57.026 33.955,57.301 33.746,57.867 C34.657,57.867 35.569,57.867 36.480,57.867 C37.135,58.276 38.557,57.784 39.410,57.965 C40.286,58.150 41.593,58.062 42.633,58.062 C44.553,58.062 46.474,58.062 48.394,58.062 C49.248,58.052 50.613,58.045 51.422,57.867 C53.005,57.518 54.800,57.982 56.207,57.672 C57.203,57.452 58.311,57.660 59.137,57.477 C59.690,57.477 60.243,57.477 60.797,57.477 C62.266,57.147 64.151,57.221 65.582,56.890 C66.988,56.565 68.312,56.834 69.683,56.500 C72.178,55.893 74.983,55.637 77.301,54.937 C77.797,54.788 78.075,54.894 78.570,54.742 C80.114,54.268 81.731,53.651 83.062,52.984 C83.651,52.690 84.294,52.642 84.527,52.008 C84.841,51.512 84.636,48.735 84.625,47.906 C84.560,47.906 84.495,47.906 84.430,47.906 ZM6.695,57.086 C6.350,58.159 6.992,60.237 7.281,61.187 C7.698,62.559 7.776,63.729 8.258,64.996 C8.995,66.933 10.050,68.769 10.992,70.464 C14.586,76.932 19.990,82.295 27.691,84.625 C33.778,84.625 39.866,84.625 45.953,84.625 C50.738,84.625 55.524,84.625 60.308,84.625 C68.797,82.036 74.368,75.904 78.082,68.511 C79.694,65.304 81.071,61.678 81.402,57.183 C81.370,57.183 81.337,57.183 81.305,57.183 C81.305,57.151 81.305,57.118 81.305,57.086 C78.643,58.202 75.333,58.493 72.320,59.234 C71.120,59.529 70.120,59.338 68.902,59.625 C66.410,60.211 63.390,60.016 60.797,60.601 C60.276,60.601 59.755,60.601 59.234,60.601 C57.830,60.911 55.929,60.856 54.449,60.992 C53.603,60.992 52.756,60.992 51.910,60.992 C50.181,61.370 47.454,61.187 45.465,61.187 C42.373,61.155 39.280,61.122 36.187,61.090 C35.425,60.921 34.239,61.187 33.355,60.992 C32.605,60.826 31.722,60.798 30.816,60.797 C30.266,61.757 29.393,62.543 28.765,63.434 C27.824,64.769 27.101,66.130 26.226,67.535 C25.895,68.067 25.360,68.643 25.055,69.195 C24.335,70.493 24.192,72.146 22.125,72.125 C20.178,70.154 19.176,66.396 18.219,63.434 C17.936,62.559 17.926,60.134 17.535,59.527 C17.535,59.495 17.535,59.462 17.535,59.429 C15.518,59.424 12.923,58.754 11.187,58.258 C9.590,57.801 8.063,57.719 6.695,57.086 ZM70.074,62.750 C70.400,62.750 70.725,62.750 71.051,62.750 C71.207,62.937 71.220,62.802 71.441,62.945 C71.737,63.136 71.880,63.574 72.125,63.824 C72.160,65.780 71.176,67.933 70.562,69.390 C68.508,74.269 66.450,77.995 61.871,80.328 C60.655,80.947 57.911,81.997 55.719,81.500 C53.569,81.012 51.608,80.624 49.859,79.742 C49.267,79.443 48.625,78.773 48.004,78.570 C47.288,78.570 46.571,78.570 45.855,78.570 C43.065,77.947 37.710,77.984 37.750,74.761 C38.356,74.108 38.454,73.665 39.801,73.687 C40.781,74.829 45.793,75.782 48.101,75.347 C48.637,73.910 51.070,72.422 52.301,71.539 C56.081,68.825 60.507,66.747 64.996,64.703 C66.326,64.097 67.727,63.692 69.000,63.140 C69.440,62.950 69.767,63.033 70.074,62.750 ZM68.023,66.851 C67.177,67.571 65.732,67.705 64.703,68.218 C61.882,69.628 58.969,70.916 56.402,72.515 C55.370,73.158 53.860,73.684 53.180,74.664 C53.342,74.664 53.505,74.664 53.668,74.664 C54.078,74.357 54.662,74.444 55.230,74.273 C56.427,73.913 57.377,73.399 58.844,73.492 C59.052,73.768 59.375,74.117 59.625,74.371 C59.656,75.071 59.586,75.333 59.430,75.933 C57.930,76.844 55.795,77.328 53.863,77.788 C53.863,77.854 53.863,77.919 53.863,77.984 C54.586,78.017 55.290,78.209 55.914,78.375 C57.095,78.688 58.752,78.254 59.527,77.984 C63.088,76.744 64.753,74.598 66.363,71.441 C66.869,70.449 67.370,69.281 67.828,68.218 C67.954,67.926 68.216,67.062 68.121,66.949 C68.121,66.916 68.121,66.884 68.121,66.851 C68.088,66.851 68.056,66.851 68.023,66.851 Z"/>
</g>
</svg>