<?xml version="1.0" standalone="no"?>
<!DOCTYPE svg PUBLIC "-//W3C//DTD SVG 1.1//EN" "http://www.w3.org/Graphics/SVG/1.1/DTD/svg11.dtd" >
<svg>
<metadata>
Created by FontForge 20090914 at Tue Apr 12 18:36:09 2016
 By www-data
&#194;&#169; 2005 Microsoft Corporation. All Rights Reserved.
</metadata>
<defs>
<font id="Corbel-Bold" horiz-adv-x="1080" >
  <font-face 
    font-family="Corbel"
    font-weight="700"
    font-stretch="normal"
    units-per-em="2048"
    panose-1="2 11 7 3 2 2 4 2 2 4"
    ascent="1523"
    descent="-525"
    x-height="969"
    cap-height="1338"
    bbox="-1138 -490.004 2365 1943"
    underline-thickness="120"
    underline-position="-130"
    unicode-range="U+000D-U+FB04"
  />
<missing-glyph horiz-adv-x="948" 
d="M948 1338v-1338h-948v1338h948zM855 91v1156h-762v-1156h762zM363 224v125h122v-125h-122zM715 896c0 -23.333 -3.16895 -43.999 -9.50195 -61.999s-14.666 -34.5 -24.999 -49.5s-22.166 -28.667 -35.499 -41s-27.333 -24.166 -42 -35.499l-48 -38.5
c-16 -13 -30.333 -27 -43 -42s-23 -32 -31 -51s-12 -40.833 -12 -65.5v-11h-88c-0.666992 4.66699 -1.16699 9.66699 -1.5 15s-0.5 9.66602 -0.5 12.999c0 33.333 5 61.833 15 85.5s22.5 44.334 37.5 62.001s31.833 33.5 50.5 47.5l53 41c21.333 16.667 39.333 34.667 54 54
s22 43.666 22 72.999c0 38 -14.833 67.5 -44.5 88.5s-68.834 31.5 -117.501 31.5c-33.333 0 -65.333 -4 -96 -12s-58 -17.333 -82 -28v84c23.333 12.667 51.333 22.834 84 30.501s65.334 11.5 98.001 11.5c40.667 0 77.167 -4.83301 109.5 -14.5
s59.833 -23.334 82.5 -41.001s40 -38.834 52 -63.501s18 -52 18 -82z" />
    <glyph glyph-name="uniFB00" unicode="ff" horiz-adv-x="1285" 
d="M787 969l-0.00195312 114.998c0 68 9.5 126.5 28.5 175.5s45.5 89.333 79.5 121s74 55 120 70s96 22.5 150 22.5c36.667 0 71.167 -3 103.5 -9s59.5 -12.667 81.5 -20v-188c-21.333 5.33301 -46 10.5 -74 15.5s-56.333 7.5 -85 7.5
c-26.667 0 -50.334 -3.33301 -71.001 -10s-38.167 -17.167 -52.5 -31.5s-25.166 -33.166 -32.499 -56.499s-11 -51.666 -11 -84.999v-127h269v-195h-269v-774h-237v774h-376v-774h-237v774h-164v195h164v125c0 65.333 9 121.833 27 169.5s43.167 87 75.5 118
s70.833 54 115.5 69s94 22.5 148 22.5c32.667 0 63.334 -2.33301 92.001 -7s53.667 -10.667 75 -18v-188c-21.333 5.33301 -43.5 9.83301 -66.5 13.5s-45.833 5.5 -68.5 5.5c-28 0 -52 -3.33301 -72 -10s-36.667 -17.334 -50 -32.001s-23.166 -33.667 -29.499 -57
s-9.5 -51.666 -9.5 -84.999v-126h376z" />
    <glyph glyph-name="uniFB01" unicode="fi" horiz-adv-x="1160" 
d="M787 774l-376.003 0.00195312v-774h-237v774h-164v195h164v89c0 74.667 13 138.167 39 190.5s60.333 95.166 103 128.499s91.5 57.666 146.5 72.999s111.5 23 169.5 23c47.333 0 92.833 -3.16699 136.5 -9.5s83.834 -14.166 120.501 -23.499v-188
c-33.333 7.33301 -69.166 13.666 -107.499 18.999s-77.833 8 -118.5 8c-32.667 0 -64.167 -3.5 -94.5 -10.5s-57.166 -18.667 -80.499 -35s-42 -38.5 -56 -66.5s-21 -63 -21 -105v-93h613v-969h-237v774z" />
    <glyph glyph-name="uniFB02" unicode="fl" horiz-adv-x="1164" 
d="M663 1279c-32 0 -63.1699 -3.49805 -93.5029 -10.498s-57.166 -18.667 -80.499 -35s-42.166 -38.5 -56.499 -66.5s-21.5 -63 -21.5 -105v-93h239v-195h-239v-774h-237v774h-164v195h164v89c0 74.667 13.167 138.167 39.5 190.5s61.5 95.166 105.5 128.499
s94.333 57.666 151 72.999s115 23 175 23c66 0 133.5 -5.5 202.5 -16.5s127.833 -23.833 176.5 -38.5v-1418h-237v1263c-39.333 10.667 -80.666 16 -123.999 16z" />
    <glyph glyph-name="uniFB03" unicode="ffi" horiz-adv-x="1773" 
d="M1400 774h-376.004v-774h-237v774h-376v-774h-237v774h-164v195h164v125c0 65.333 9 121.833 27 169.5s43.167 87 75.5 118s70.833 54 115.5 69s94 22.5 148 22.5c32.667 0 63.167 -2.33301 91.5 -7s53.5 -10.667 75.5 -18v-188
c-21.333 5.33301 -43.5 9.83301 -66.5 13.5s-45.833 5.5 -68.5 5.5c-28 0 -52 -3.33301 -72 -10s-36.667 -17.334 -50 -32.001s-23.166 -33.667 -29.499 -57s-9.5 -51.666 -9.5 -84.999v-126h376v88c0 74.667 13 138.334 39 191.001s60.333 95.667 103 129
s91.5 57.666 146.5 72.999s111.5 23 169.5 23c47.333 0 92.833 -3.16699 136.5 -9.5s83.834 -14.166 120.501 -23.499v-188c-34.667 7.33301 -71.167 13.666 -109.5 18.999s-77.166 8 -116.499 8c-32.667 0 -64.167 -3.5 -94.5 -10.5s-57.166 -18.667 -80.499 -35
s-42 -38.5 -56 -66.5s-21 -63 -21 -105v-93h613v-969h-237v774z" />
    <glyph glyph-name="uniFB04" unicode="ffl" horiz-adv-x="1777" 
d="M411 969l375.996 0.00195312v89c0 74.667 13.167 138.167 39.5 190.5s61.5 95.166 105.5 128.499s94.333 57.666 151 72.999s115 23 175 23c63.333 0 128.5 -5.16699 195.5 -15.5s128.167 -23.5 183.5 -39.5v-1418h-237v1263c-40 10.667 -81.333 16 -124 16
c-32 0 -63.167 -3.5 -93.5 -10.5s-57.166 -18.667 -80.499 -35s-42.166 -38.5 -56.499 -66.5s-21.5 -63 -21.5 -105v-93h239v-195h-239v-774h-237v774h-376v-774h-237v774h-164v195h164v125c0 65.333 9 121.833 27 169.5s43.167 87 75.5 118s70.833 54 115.5 69
s94 22.5 148 22.5c32 0 62.167 -2.33301 90.5 -7s53.833 -10.667 76.5 -18v-188c-21.333 5.33301 -43.666 9.83301 -66.999 13.5s-46 5.5 -68 5.5c-28 0 -52 -3.33301 -72 -10s-36.667 -17.334 -50 -32.001s-23.166 -33.667 -29.499 -57s-9.5 -51.666 -9.5 -84.999v-126z
" />
    <glyph glyph-name="f_b.liga" unicode="fb" horiz-adv-x="1783" 
d="M1024 1045c0 -28.667 -0.167969 -55.167 -0.500977 -79.5s-0.833008 -43.166 -1.5 -56.499h2c15.333 10.667 32 21 50 31s37.667 19 59 27s44.166 14.333 68.499 19s50.5 7 78.5 7c54 0 106.5 -9.66699 157.5 -29s96.167 -49.166 135.5 -89.499s70.833 -91.333 94.5 -153
s35.5 -135.167 35.5 -220.5c0 -90 -12.667 -168 -38 -234s-58.5 -120.667 -99.5 -164s-87.167 -75.5 -138.5 -96.5s-103 -31.5 -155 -31.5c-36.667 0 -69.667 4.5 -99 13.5s-55 20.167 -77 33.5s-40.5 27.333 -55.5 42s-26.833 27.667 -35.5 39h-4l-23 -103h-196
c1.33301 38 2.5 75.833 3.5 113.5s1.5 75.5 1.5 113.5v1036c-40 10.667 -81.333 16 -124 16c-32 0 -63.167 -3.5 -93.5 -10.5s-57.166 -18.667 -80.499 -35s-42.166 -38.5 -56.499 -66.5s-21.5 -63 -21.5 -105v-93h239v-195h-239v-774h-237v774h-164v195h164v89
c0 74.667 13.167 138.167 39.5 190.5s61.5 95.166 105.5 128.499s94.333 57.666 151 72.999s115 23 175 23c36 0 72.5 -1.66699 109.5 -5s72.167 -7.83301 105.5 -13.5s64 -11.667 92 -18s52 -12.5 72 -18.5v-373zM1458 489c0 66 -7.5 119.499 -22.5 160.499
s-33.833 73 -56.5 96s-47.5 38.5 -74.5 46.5s-52.5 12 -76.5 12c-34.667 0 -70 -7 -106 -21s-68.667 -32.667 -98 -56v-464c9.33301 -10.667 20.833 -21.834 34.5 -33.501s29 -22.334 46 -32.001s35.5 -17.667 55.5 -24s41.333 -9.5 64 -9.5
c38.667 0 72.5 7.83301 101.5 23.5s53.333 37.834 73 66.501s34.5 62.834 44.5 102.501s15 83.834 15 132.501z" />
    <glyph glyph-name="f_f_b.liga" unicode="ffb" horiz-adv-x="2396" 
d="M787 1058c0 74.667 13.1631 138.167 39.4961 190.5s61.5 95.166 105.5 128.499s94.333 57.666 151 72.999s115 23 175 23c36.667 0 73.334 -1.66699 110.001 -5s71.667 -7.83301 105 -13.5s64 -11.667 92 -18s52 -12.5 72 -18.5v-373
c0 -28.667 -0.166992 -55.167 -0.5 -79.5s-0.833008 -43.166 -1.5 -56.499h2c15.333 10.667 32 21 50 31s37.667 19 59 27s44.166 14.333 68.499 19s50.5 7 78.5 7c54 0 106.5 -9.66699 157.5 -29s96.167 -49.166 135.5 -89.499s70.833 -91.333 94.5 -153
s35.5 -135.167 35.5 -220.5c0 -90 -12.667 -168 -38 -234s-58.5 -120.667 -99.5 -164s-87.167 -75.5 -138.5 -96.5s-103 -31.5 -155 -31.5c-36.667 0 -69.667 4.5 -99 13.5s-55 20.167 -77 33.5s-40.5 27.333 -55.5 42s-26.833 27.667 -35.5 39h-4l-23 -103h-196
c1.33301 38 2.5 75.833 3.5 113.5s1.5 75.5 1.5 113.5v1036c-40 10.667 -81.333 16 -124 16c-32 0 -63.167 -3.5 -93.5 -10.5s-57.166 -18.667 -80.499 -35s-42.166 -38.5 -56.499 -66.5s-21.5 -63 -21.5 -105v-93h239v-195h-239v-774h-237v774h-376v-774h-237v774h-164v195
h164v125c0 65.333 9 121.833 27 169.5s43.167 87 75.5 118s70.833 54 115.5 69s94 22.5 148 22.5c32.667 0 63.334 -2.33301 92.001 -7s53.667 -10.667 75 -18v-188c-21.333 5.33301 -43.5 9.83301 -66.5 13.5s-45.833 5.5 -68.5 5.5c-28 0 -52 -3.33301 -72 -10
s-36.667 -17.334 -50 -32.001s-23.166 -33.667 -29.499 -57s-9.5 -51.666 -9.5 -84.999v-126h376v89zM2071 489c0 66 -7.5 119.499 -22.5 160.499s-33.833 73 -56.5 96s-47.5 38.5 -74.5 46.5s-52.5 12 -76.5 12c-34.667 0 -70 -7 -106 -21s-68.667 -32.667 -98 -56v-464
c9.33301 -10.667 20.833 -21.834 34.5 -33.501s29 -22.334 46 -32.001s35.5 -17.667 55.5 -24s41.333 -9.5 64 -9.5c38.667 0 72.5 7.83301 101.5 23.5s53.333 37.834 73 66.501s34.5 62.834 44.5 102.501s15 83.834 15 132.501z" />
    <glyph glyph-name="f_h.liga" unicode="fh" horiz-adv-x="1793" 
d="M1024 1053c0 -50 -0.836914 -91.168 -2.50391 -123.501s-4.5 -61.5 -8.5 -87.5h4c14 18.667 30.833 37 50.5 55s42 34.167 67 48.5s53 25.833 84 34.5s65.167 13 102.5 13c32 0 63 -3.16699 93 -9.5s58.333 -16.166 85 -29.499s50.834 -30.666 72.501 -51.999
s39.834 -46.666 54.501 -75.999c12.667 -25.333 22 -54 28 -86s9 -71 9 -117v-623h-237v591c0 28 -1.33301 52 -4 72s-7.33398 37 -14.001 51c-14 28.667 -34 49.167 -60 61.5s-55.667 18.5 -89 18.5c-46 0 -88.5 -10.833 -127.5 -32.5s-74.833 -53.167 -107.5 -94.5v-667
h-237v1263c-40 10.667 -81.333 16 -124 16c-32 0 -63.167 -3.5 -93.5 -10.5s-57.166 -18.667 -80.499 -35s-42.166 -38.5 -56.499 -66.5s-21.5 -63 -21.5 -105v-93h239v-195h-239v-774h-237v774h-164v195h164v89c0 74.667 13.167 138.167 39.5 190.5
s61.5 95.166 105.5 128.499s94.333 57.666 151 72.999s115 23 175 23c36.667 0 73.334 -1.66699 110.001 -5s71.667 -7.83301 105 -13.5s64 -11.667 92 -18s52 -12.5 72 -18.5v-365z" />
    <glyph glyph-name="f_f_h.liga" unicode="ffh" horiz-adv-x="2406" 
d="M1637 1053c0 -50 -0.833008 -91.167 -2.5 -123.5s-4.5 -61.5 -8.5 -87.5h4c14 18.667 30.833 37 50.5 55s42 34.167 67 48.5s53 25.833 84 34.5s65.167 13 102.5 13c32 0 63 -3.16699 93 -9.5s58.333 -16.166 85 -29.499s50.834 -30.666 72.5 -51.999
c21.667 -21.333 39.834 -46.666 54.501 -75.999c12.667 -25.333 22 -54 28 -86s9 -71 9 -117v-623h-237v591c0 25.333 -1.33301 48.666 -4 69.999s-7.33398 39 -14.001 53c-13.333 28 -32.833 48.333 -58.5 61s-55.834 19 -90.501 19c-46 0 -88.5 -10.833 -127.5 -32.5
s-74.833 -53.167 -107.5 -94.5v-667h-237v1263c-40 10.667 -81.333 16 -124 16c-32 0 -63.167 -3.5 -93.5 -10.5s-57.166 -18.667 -80.499 -35s-42.166 -38.5 -56.499 -66.5s-21.5 -63 -21.5 -105v-93h239v-195h-239v-774h-237v774h-376v-774h-237v774h-164v195h164v125
c0 65.333 9 121.833 27 169.5s43.167 87 75.5 118s70.833 54 115.5 69s94 22.5 148 22.5c31.333 0 61.666 -2.33301 90.999 -7s54.666 -10.667 75.999 -18v-188c-21.333 5.33301 -43.5 9.83301 -66.5 13.5s-45.833 5.5 -68.5 5.5c-28 0 -52 -3.33301 -72 -10
s-36.667 -17.334 -50 -32.001s-23.166 -33.667 -29.499 -57s-9.5 -51.666 -9.5 -84.999v-126h376v89c0 74.667 13.167 138.167 39.5 190.5s61.5 95.166 105.5 128.499s94.333 57.666 151 72.999s115 23 175 23c55.333 0 115 -4.33301 179 -13s130.667 -22.667 200 -42v-365z
" />
    <glyph glyph-name="f_j.liga" unicode="fj" horiz-adv-x="1160" 
d="M787 774l-376.004 0.00195312v-774h-237v774h-164v195h164v89c0 74.667 13 138.167 39 190.5s60.333 95.166 103 128.499s91.5 57.666 146.5 72.999s111.5 23 169.5 23c48 0 93.667 -3.16699 137 -9.5s83.333 -14.166 120 -23.499v-188
c-34 7.33301 -70.333 13.666 -109 18.999s-77.667 8 -117 8c-32.667 0 -64.167 -3.5 -94.5 -10.5s-57.166 -18.667 -80.499 -35s-42 -38.5 -56 -66.5s-21 -63 -21 -105v-93h613v-1096c0 -90.667 -14.333 -160.667 -43 -210c-30 -52 -74 -90.5 -132 -115.5
s-126.667 -37.5 -206 -37.5c-34 0 -65.833 2 -95.5 6s-56.5 9.66699 -80.5 17v194c20 -5.33301 43.333 -10.5 70 -15.5s52.334 -7.5 77.001 -7.5c32.667 0 60.834 3.66699 84.501 11s42.834 20 57.501 38c11.333 13.333 19.333 32 24 56s7 51.667 7 83v882z" />
    <glyph glyph-name="f_f_j.liga" unicode="ffj" horiz-adv-x="1773" 
d="M1400 774l-376.002 0.00292969v-774h-237v774h-376v-774h-237v774h-164v195h164v125c0 65.333 9 121.833 27 169.5s43.167 87 75.5 118s70.833 54 115.5 69s94 22.5 148 22.5c32.667 0 63.167 -2.33301 91.5 -7s53.5 -10.667 75.5 -18v-188
c-21.333 5.33301 -43.5 9.83301 -66.5 13.5s-45.833 5.5 -68.5 5.5c-28 0 -52 -3.33301 -72 -10s-36.667 -17.334 -50 -32.001s-23.166 -33.667 -29.499 -57s-9.5 -51.666 -9.5 -84.999v-126h376v89c0 74.667 13 138.167 39 190.5s60.333 95.166 103 128.499
s91.5 57.666 146.5 72.999s111.5 23 169.5 23c49.333 0 95.5 -3.16699 138.5 -9.5s82.5 -14.166 118.5 -23.499v-188c-33.333 7.33301 -69.5 13.666 -108.5 18.999s-78.167 8 -117.5 8c-32.667 0 -64.167 -3.5 -94.5 -10.5s-57.166 -18.667 -80.499 -35s-42 -38.5 -56 -66.5
s-21 -63 -21 -105v-93h613v-1096c0 -90.667 -14.333 -160.667 -43 -210c-30 -52 -73.833 -90.5 -131.5 -115.5s-126.5 -37.5 -206.5 -37.5c-34 0 -65.833 2 -95.5 6s-56.5 9.66699 -80.5 17v194c18.667 -5.33301 41.667 -10.5 69 -15.5s53.333 -7.5 78 -7.5
c32 0 60 3.66699 84 11s43.333 20 58 38c11.333 13.333 19.333 31.666 24 54.999s7 51.333 7 84v882z" />
    <glyph glyph-name="f_k.liga" unicode="fk" horiz-adv-x="1714" 
d="M1024 576l4.99609 0.00195312l369 393h293l-425 -455l428 -514h-287l-379 451h-4v-451h-237v1263c-40 10.667 -81.333 16 -124 16c-32 0 -63.167 -3.5 -93.5 -10.5s-57.166 -18.667 -80.499 -35s-42.166 -38.5 -56.499 -66.5s-21.5 -63 -21.5 -105v-93h239v-195h-239
v-774h-237v774h-164v195h164v89c0 74.667 13.167 138.167 39.5 190.5s61.5 95.166 105.5 128.499s94.333 57.666 151 72.999s115 23 175 23c58.667 0 120.334 -4.66699 185.001 -14s129.334 -23 194.001 -41v-842z" />
    <glyph glyph-name="f_f_k.liga" unicode="ffk" horiz-adv-x="2327" 
d="M1637 576l5 0.00195312l369 393h293l-425 -455l428 -514h-287l-379 451h-4v-451h-237v1263c-40 10.667 -81.333 16 -124 16c-32 0 -63.167 -3.5 -93.5 -10.5s-57.166 -18.667 -80.499 -35s-42.166 -38.5 -56.499 -66.5s-21.5 -63 -21.5 -105v-93h239v-195h-239v-774h-237
v774h-376v-774h-237v774h-164v195h164v125c0 65.333 9 121.833 27 169.5s43.167 87 75.5 118s70.833 54 115.5 69s94 22.5 148 22.5c31.333 0 61.666 -2.33301 90.999 -7s54.666 -10.667 75.999 -18v-188c-20.667 5.33301 -42.667 9.83301 -66 13.5s-46.333 5.5 -69 5.5
c-28 0 -52 -3.33301 -72 -10s-36.667 -17.334 -50 -32.001s-23.166 -33.667 -29.499 -57s-9.5 -51.666 -9.5 -84.999v-126h376v89c0 74.667 13.167 138.167 39.5 190.5s61.5 95.166 105.5 128.499s94.333 57.666 151 72.999s115 23 175 23
c67.333 0 135.666 -5.66699 204.999 -17s127.333 -24 174 -38v-842z" />
    <glyph glyph-name=".notdef" horiz-adv-x="948" 
d="M948 1338v-1338h-948v1338h948zM855 91v1156h-762v-1156h762zM363 224v125h122v-125h-122zM715 896c0 -23.333 -3.16895 -43.999 -9.50195 -61.999s-14.666 -34.5 -24.999 -49.5s-22.166 -28.667 -35.499 -41s-27.333 -24.166 -42 -35.499l-48 -38.5
c-16 -13 -30.333 -27 -43 -42s-23 -32 -31 -51s-12 -40.833 -12 -65.5v-11h-88c-0.666992 4.66699 -1.16699 9.66699 -1.5 15s-0.5 9.66602 -0.5 12.999c0 33.333 5 61.833 15 85.5s22.5 44.334 37.5 62.001s31.833 33.5 50.5 47.5l53 41c21.333 16.667 39.333 34.667 54 54
s22 43.666 22 72.999c0 38 -14.833 67.5 -44.5 88.5s-68.834 31.5 -117.501 31.5c-33.333 0 -65.333 -4 -96 -12s-58 -17.333 -82 -28v84c23.333 12.667 51.333 22.834 84 30.501s65.334 11.5 98.001 11.5c40.667 0 77.167 -4.83301 109.5 -14.5
s59.833 -23.334 82.5 -41.001s40 -38.834 52 -63.501s18 -52 18 -82z" />
    <glyph glyph-name="glyph1" horiz-adv-x="0" 
 />
    <glyph glyph-name="glyph1" horiz-adv-x="0" 
 />
    <glyph glyph-name="uni000D" unicode="&#xd;" horiz-adv-x="422" 
 />
    <glyph glyph-name="space" unicode=" " horiz-adv-x="422" 
 />
    <glyph glyph-name="space" unicode="&#xa0;" horiz-adv-x="422" 
 />
    <glyph glyph-name="exclam" unicode="!" horiz-adv-x="599" 
d="M432 1338l-24 -858h-217l-24 858h265zM165 267h269v-267h-269v267z" />
    <glyph glyph-name="quotedbl" unicode="&#x22;" horiz-adv-x="808" 
d="M321 787h-211v551h211v-551zM698 787h-211v551h211v-551z" />
    <glyph glyph-name="numbersign" unicode="#" horiz-adv-x="1361" 
d="M435 981l73 357h190l-73 -357h240l73 357h190l-73 -357h196v-182h-234l-53 -260h205v-182h-243l-73 -357h-190l73 357h-240l-73 -357h-190l73 357h-196v182h234l53 260h-205v182h243zM534 539h240l53 260h-240z" />
    <glyph glyph-name="dollar" unicode="$" 
d="M462 28c-65.333 2 -126.831 7.83301 -184.498 17.5s-105.5 23.167 -143.5 40.5v196c26 -9.33301 51.333 -17.5 76 -24.5s50 -13 76 -18s53.333 -9 82 -12s60 -4.83301 94 -5.5v219c-42 6 -83.667 14.167 -125 24.5s-78.5 25.833 -111.5 46.5s-59.833 48 -80.5 82
s-31 78 -31 132c0 44 8 83.167 24 117.5s39 64 69 89s66.5 45.167 109.5 60.5s91.5 26 145.5 32v103h159v-100c48.667 -2.66699 98.167 -8.16699 148.5 -16.5s96.5 -19.833 138.5 -34.5v-198c-102.667 33.333 -198.334 52 -287.001 56v-222
c42 -6.66699 83.5 -15.5 124.5 -26.5s77.667 -27 110 -48s58.666 -48.5 78.999 -82.5s30.5 -77.667 30.5 -131c0 -85.333 -29.833 -152.333 -89.5 -201s-144.5 -79 -254.5 -91v-103h-159v98zM333.002 736c0 -28 10.6689 -49.334 32.002 -64.001s53.666 -26 96.999 -34v192
c-48.667 -5.33301 -82.334 -16.166 -101.001 -32.499s-28 -36.833 -28 -61.5zM745.004 320.999c0 28 -10.167 49.167 -30.5 63.5s-51.5 25.166 -93.5 32.499v-188c82.667 10.667 124 41.334 124 92.001z" />
    <glyph glyph-name="percent" unicode="%" horiz-adv-x="1694" 
d="M1431 419c0 37.333 -1.66699 71.666 -5 102.999s-9 58.333 -17 81s-18.5 40.5 -31.5 53.5s-29.5 19.5 -49.5 19.5s-36.5 -6.5 -49.5 -19.5s-23.5 -30.833 -31.5 -53.5s-13.667 -49.667 -17 -81s-5 -65.666 -5 -102.999c0 -36.667 1.66699 -70.834 5 -102.501
s9 -58.834 17 -81.501s18.5 -40.5 31.5 -53.5s29.5 -19.5 49.5 -19.5s36.5 6.5 49.5 19.5s23.5 30.833 31.5 53.5s13.667 49.834 17 81.501s5 65.834 5 102.501zM1007 419c0 73.333 7.83301 137.166 23.5 191.499s37.667 99.5 66 135.5s62.166 62.833 101.499 80.5
s82.666 26.5 129.999 26.5s90.666 -8.83301 129.999 -26.5s73.166 -44.5 101.499 -80.5s50.333 -81.167 66 -135.5s23.5 -118.166 23.5 -191.499c0 -72.667 -7.83301 -136.167 -23.5 -190.5s-37.667 -99.5 -66 -135.5s-62.166 -63 -101.499 -81s-82.666 -27 -129.999 -27
s-90.666 9 -129.999 27s-73.166 45 -101.499 81s-50.333 81.167 -66 135.5s-23.5 117.833 -23.5 190.5zM1399 1273l-976 -1308l-130 100l976 1308zM469 929c0 37.333 -1.66699 71.666 -5 102.999s-9 58.333 -17 81s-18.5 40.5 -31.5 53.5s-29.5 19.5 -49.5 19.5
s-36.5 -6.5 -49.5 -19.5s-23.5 -30.833 -31.5 -53.5s-13.667 -49.667 -17 -81s-5 -65.666 -5 -102.999c0 -36.667 1.66699 -70.834 5 -102.501s9 -58.834 17 -81.501s18.5 -40.5 31.5 -53.5s29.5 -19.5 49.5 -19.5s36.5 6.5 49.5 19.5s23.5 30.833 31.5 53.5
s13.667 49.834 17 81.501s5 65.834 5 102.501zM45 929c0 73.333 7.83301 137.166 23.5 191.499s37.667 99.5 66 135.5s62.166 62.833 101.499 80.5s82.666 26.5 129.999 26.5s90.666 -8.83301 129.999 -26.5s73.166 -44.5 101.499 -80.5s50.333 -81.167 66 -135.5
s23.5 -118.166 23.5 -191.499c0 -72.667 -7.83301 -136.167 -23.5 -190.5s-37.667 -99.5 -66 -135.5s-62.166 -63 -101.499 -81s-82.666 -27 -129.999 -27s-90.666 9 -129.999 27s-73.166 45 -101.499 81s-50.333 81.167 -66 135.5s-23.5 117.833 -23.5 190.5z" />
    <glyph glyph-name="ampersand" unicode="&#x26;" horiz-adv-x="1417" 
d="M1268 714c-9.33301 -91.333 -28.166 -173.675 -56.499 -247.008s-63.833 -138.666 -106.5 -195.999l96 -99l80.5 -83.5l58 -60l27.5 -28.5h-338c-11.333 14.667 -24 29.834 -38 45.501l-56 61.5c-64.667 -44.667 -134 -77.834 -208 -99.501s-149 -32.5 -225 -32.5
c-61.333 0 -117.333 8.5 -168 25.5s-94 41 -130 72s-64 68.667 -84 113s-30 93.5 -30 147.5c0 46 7.16699 87.5 21.5 124.5s33.5 70.5 57.5 100.5s51.667 57.167 83 81.5s64 46.833 98 67.5c-25.333 24.667 -48.833 49.334 -70.5 74.001s-40.5 50.334 -56.5 77.001
s-28.5 54.834 -37.5 84.501s-13.5 61.834 -13.5 96.501c0 50.667 9 96 27 136s44 74 78 102s75.5 49.333 124.5 64s104.5 22 166.5 22s117.667 -6.66699 167 -20s91.166 -33.166 125.499 -59.499s60.833 -59 79.5 -98s28 -84.167 28 -135.5
c0 -45.333 -7 -86.166 -21 -122.499s-33 -69.166 -57 -98.499s-51.667 -56 -83 -80s-64 -46.667 -98 -68l112 -115l133 -137c22 38.667 40.167 81.667 54.5 129s23.833 99.333 28.5 156h231zM524 168.991c46 0 92.166 7 138.499 21s90.5 35.667 132.5 65l-77 79l-77 79
l-74.5 75.5l-68.5 69.5c-23.333 -14.667 -45 -30 -65 -46s-37.167 -33 -51.5 -51s-25.666 -37.333 -33.999 -58s-12.5 -43 -12.5 -67c0 -28 5 -52.333 15 -73s23.5 -38 40.5 -52s37 -24.5 60 -31.5s47.5 -10.5 73.5 -10.5zM416.999 1043.99
c0 -20 3.16895 -38.667 9.50195 -56s15.666 -34.5 27.999 -51.5s27.333 -34.167 45 -51.5l59.5 -57c23.333 14.667 45 29.667 65 45s37.333 31.666 52 48.999s26.167 35.833 34.5 55.5s12.5 40.834 12.5 63.501c0 38.667 -13.333 69.667 -40 93s-64.334 35 -113.001 35
c-24.667 0 -46.5 -3.33301 -65.5 -10s-35 -15.667 -48 -27s-22.833 -24.5 -29.5 -39.5s-10 -31.167 -10 -48.5z" />
    <glyph glyph-name="quotesingle" unicode="'" horiz-adv-x="431" 
d="M321 787h-211v551h211v-551z" />
    <glyph glyph-name="parenleft" unicode="(" horiz-adv-x="626" 
d="M100 519c0 75.333 6 146.167 18 212.5s27.833 128.333 47.5 186s42.167 110.667 67.5 159s51.333 91.666 78 129.999s52.834 71.5 78.501 99.5s48.5 50.667 68.5 68l128 -118c-36 -39.333 -70.333 -83.333 -103 -132s-61.5 -103.167 -86.5 -163.5
s-44.833 -127 -59.5 -200s-22 -153.5 -22 -241.5s7.33301 -168.5 22 -241.5s34.5 -139.667 59.5 -200s53.833 -114.833 86.5 -163.5s67 -92.667 103 -132l-128 -118c-20 17.333 -42.833 40 -68.5 68s-51.834 61.167 -78.501 99.5s-52.667 81.666 -78 129.999
s-47.833 101.333 -67.5 159s-35.5 119.834 -47.5 186.501s-18 137.334 -18 212.001z" />
    <glyph glyph-name="parenright" unicode=")" horiz-adv-x="626" 
d="M526 519c0 -74.667 -6.00098 -145.335 -18.001 -212.002s-27.833 -128.834 -47.5 -186.501s-42.167 -110.667 -67.5 -159s-51.333 -91.666 -78 -129.999s-52.667 -71.5 -78 -99.5s-48.333 -50.667 -69 -68l-128 118c36 39.333 70.333 83.333 103 132
s61.5 103.167 86.5 163.5s44.833 127 59.5 200s22 153.5 22 241.5s-7.33301 168.5 -22 241.5s-34.5 139.667 -59.5 200s-53.833 114.833 -86.5 163.5s-67 92.667 -103 132l128 118c20 -17.333 42.833 -40 68.5 -68s51.834 -61.167 78.501 -99.5s52.667 -81.666 78 -129.999
s47.833 -101.333 67.5 -159s35.5 -119.667 47.5 -186s18 -137.166 18 -212.499z" />
    <glyph glyph-name="asterisk" unicode="*" horiz-adv-x="1081" 
d="M593 962l158 100l171 59l59 -180l-171 -58l-188 -13l-1 -5l144 -120l114 -157l-153 -112l-113 158l-69 175h-7l-69 -175l-113 -158l-153 112l114 157l144 120l-1 5l-188 13l-171 58l59 180l171 -59l158 -100l4 4l-46 182v190h189v-190l-46 -182z" />
    <glyph glyph-name="plus" unicode="+" 
d="M114 627h326v344h200v-344h326v-191h-326v-343h-200v343h-326v191z" />
    <glyph glyph-name="comma" unicode="," horiz-adv-x="649" 
d="M202 267h277l-216 -678h-253z" />
    <glyph glyph-name="hyphen" unicode="-" horiz-adv-x="681" 
d="M120 608h441v-215h-441v215z" />
    <glyph glyph-name="hyphen" unicode="&#x2010;" horiz-adv-x="681" 
d="M120 608h441v-215h-441v215z" />
    <glyph glyph-name="hyphen" unicode="&#xad;" horiz-adv-x="681" 
d="M120 608h441v-215h-441v215z" />
    <glyph glyph-name="period" unicode="." horiz-adv-x="599" 
d="M165 267h269v-267h-269v267z" />
    <glyph glyph-name="slash" unicode="/" horiz-adv-x="603" 
d="M8 -249l380 1587h208l-380 -1587h-208z" />
    <glyph glyph-name="zero" unicode="0" horiz-adv-x="1055" 
d="M745 484c0 101.333 -18.667 179.166 -56 233.499s-91 81.5 -161 81.5c-70.667 0 -124.667 -27.167 -162 -81.5s-56 -132.166 -56 -233.499s18.667 -179.166 56 -233.499s91.333 -81.5 162 -81.5c70 0 123.667 27.167 161 81.5s56 132.166 56 233.499zM990 484
c0 -72.667 -9.83301 -140 -29.5 -202s-48.834 -115.667 -87.501 -161s-86.834 -81 -144.501 -107s-124.5 -39 -200.5 -39c-74.667 0 -140.667 13 -198 39s-105.666 61.667 -144.999 107s-69.166 99 -89.499 161s-30.5 129.333 -30.5 202s10.167 140 30.5 202
s50.166 115.833 89.499 161.5s87.666 81.334 144.999 107.001s123.333 38.5 198 38.5c76 0 142.833 -12.833 200.5 -38.5s105.834 -61.334 144.501 -107.001s67.834 -99.5 87.501 -161.5s29.5 -129.333 29.5 -202z" />
    <glyph glyph-name="one" unicode="1" horiz-adv-x="1013" 
d="M427 201v516l-337 -96v210l392 138h182v-768h282v-201h-836v201h317z" />
    <glyph glyph-name="two" unicode="2" horiz-adv-x="1022" 
d="M857 673c0 -48 -9.83398 -92.666 -29.501 -133.999s-46.667 -81 -81 -119s-75.166 -75.167 -122.499 -111.5s-98.666 -73.5 -153.999 -111.5v-4c92 5.33301 160.333 8 205 8h262v-201h-847v145l200 141.5c63.333 46.333 118.833 90.666 166.5 132.999
s85.5 83.5 113.5 123.5s42 79.333 42 118c0 23.333 -4.33301 43 -13 59s-20.834 29.167 -36.501 39.5s-34 17.833 -55 22.5s-43.833 7 -68.5 7c-48 0 -101 -7.66699 -159 -23s-118 -38 -180 -68v201c21.333 11.333 45.5 22.5 72.5 33.5s56.167 21 87.5 30
s64.833 16.333 100.5 22s72.5 8.5 110.5 8.5c56.667 0 108.667 -7 156 -21s88 -34.5 122 -61.5s60.5 -60.333 79.5 -100s28.5 -85.5 28.5 -137.5z" />
    <glyph glyph-name="three" unicode="3" horiz-adv-x="999" 
d="M859 627c0 -67.333 -14.6699 -127.334 -44.0029 -180.001s-76 -94 -140 -124v-4c31.333 -8.66699 60 -22 86 -40s48.5 -40 67.5 -66s33.833 -55.5 44.5 -88.5s16 -69.5 16 -109.5c0 -65.333 -10.5 -124.333 -31.5 -177s-52.833 -97.667 -95.5 -135
s-96.167 -66 -160.5 -86s-139.5 -30 -225.5 -30c-24 0 -49.333 1.16699 -76 3.5s-53.167 6 -79.5 11s-52 11.167 -77 18.5s-47.833 16 -68.5 26v206c37.333 -17.333 80.5 -32 129.5 -44s102.167 -18 159.5 -18c52 0 95.833 6 131.5 18s64.5 28.167 86.5 48.5
s37.833 44 47.5 71s14.5 55.5 14.5 85.5c0 44 -9.16699 80.5 -27.5 109.5s-44.5 50.833 -78.5 65.5c-17.333 7.33301 -37.166 12.5 -59.499 15.5s-49.166 4.5 -80.499 4.5h-156v201h106c30.667 0 58 1.5 82 4.5s45.667 8.5 65 16.5c38 15.333 67.333 38.833 88 70.5
s31 71.5 31 119.5c0 31.333 -6 57.833 -18 79.5s-28.333 39.167 -49 52.5s-45 23 -73 29s-55.667 9 -83 9c-56 0 -107.833 -5.5 -155.5 -16.5s-94.167 -25.833 -139.5 -44.5v205c43.333 16.667 91 30.667 143 42s113 17 183 17c68 0 129.167 -9.5 183.5 -28.5
s100.333 -45 138 -78s66.334 -71.667 86.001 -116s29.5 -92.166 29.5 -143.499z" />
    <glyph glyph-name="four" unicode="4" horiz-adv-x="1081" 
d="M318 195l2 -3c54 6 117.667 9 191 9h104v248h237v-248h174v-201h-174v-387h-237v387h-550v169l365 800h242z" />
    <glyph glyph-name="five" unicode="5" horiz-adv-x="1002" 
d="M385 445c18.667 0.666992 35.002 0.999023 49.002 0.999023c78 0 146.667 -9.83301 206 -29.5s108.666 -47.667 147.999 -84s69 -80 89 -131s30 -107.5 30 -169.5c0 -62.667 -11.5 -121.167 -34.5 -175.5s-56.833 -101.5 -101.5 -141.5s-99.667 -71.333 -165 -94
s-140 -34 -224 -34c-55.333 0 -107.666 5.33301 -156.999 16s-94.333 24.334 -135 41.001v207c50.667 -21.333 98.667 -36.833 144 -46.5s89 -14.5 131 -14.5c53.333 0 98.666 6 135.999 18s68 28.5 92 49.5s41.5 46 52.5 75s16.5 60.5 16.5 94.5
c0 36.667 -6 69.167 -18 97.5s-31.167 52.333 -57.5 72s-59.833 34.5 -100.5 44.5s-89.334 15 -146.001 15c-31.333 0 -64.833 -1.5 -100.5 -4.5s-74.167 -7.83301 -115.5 -14.5l103 732h679v-216h-477z" />
    <glyph glyph-name="six" unicode="6" horiz-adv-x="1127" 
d="M581 178c29.333 0 56.498 4.5 81.498 13.5s46.833 23 65.5 42s33.167 43.167 43.5 72.5s15.5 64 15.5 104c0 42.667 -5.66699 78 -17 106s-26.666 50.167 -45.999 66.5s-41.833 27.833 -67.5 34.5s-53.834 10 -84.501 10c-38.667 0 -78.167 -4.5 -118.5 -13.5
s-78.166 -22.5 -113.499 -40.5c0 -70 6 -130 18 -180s28.667 -90.833 50 -122.5s46.833 -55 76.5 -70s61.834 -22.5 96.501 -22.5zM600.998 830c60.667 0 117.33 -8.83105 169.997 -26.498s98.334 -43.834 137.001 -78.501s69 -77.167 91 -127.5s33 -108.5 33 -174.5
s-10.167 -126.333 -30.5 -181s-50 -101.834 -89 -141.501s-86.833 -70.5 -143.5 -92.5s-121 -33 -193 -33c-76 0 -143.667 14.167 -203 42.5s-109.666 68.833 -150.999 121.5s-72.833 116.167 -94.5 190.5s-32.5 157.833 -32.5 250.5c0 105.333 13 205.333 39 300
s64.5 177.834 115.5 249.501s113.833 128.5 188.5 170.5s161 63 259 63c55.333 0 106.333 -5.66699 153 -17s83 -23.333 109 -36v-204c-40 15.333 -80.5 28.166 -121.5 38.499s-81.833 15.5 -122.5 15.5c-41.333 0 -81.166 -7.16699 -119.499 -21.5s-73.333 -37 -105 -68
s-59.5 -70.833 -83.5 -119.5s-42 -107 -54 -175h4c74.667 34.667 156 52.667 244 54z" />
    <glyph glyph-name="seven" unicode="7" horiz-adv-x="1000" 
d="M59 753v216h865v-162l-566 -1194h-243l540 1140h-596z" />
    <glyph glyph-name="eight" unicode="8" horiz-adv-x="1138" 
d="M569 781c62.667 14 111.001 38.833 145.001 74.5s51 80.5 51 134.5c0 30 -5.16699 56.167 -15.5 78.5s-24.333 41 -42 56s-38.334 26.167 -62.001 33.5s-49.167 11 -76.5 11c-26.667 0 -52 -3.66699 -76 -11s-44.833 -18.5 -62.5 -33.5s-31.667 -33.667 -42 -56
s-15.5 -48.5 -15.5 -78.5c0 -54 17 -98.833 51 -134.5s82.333 -60.5 145 -74.5zM569.001 169c32 0 61.667 4.66699 89 14s51 22.833 71 40.5s35.667 39 47 64s17 52.833 17 83.5c0 34 -5.5 64 -16.5 90s-26.5 48.167 -46.5 66.5s-43.667 33 -71 44s-57.333 18.5 -90 22.5
c-32.667 -4 -62.667 -11.5 -90 -22.5s-51 -25.667 -71 -44s-35.5 -40.5 -46.5 -66.5s-16.5 -56 -16.5 -90c0 -30.667 5.66699 -58.5 17 -83.5s27 -46.333 47 -64s43.667 -31.167 71 -40.5s57 -14 89 -14zM569.001 -25c-70 0 -133.837 9.66699 -191.504 29
s-107 46.166 -148 80.499s-72.833 75.166 -95.5 122.499s-34 99.333 -34 156c0 44 5.83301 83.667 17.5 119s27.667 66.666 48 93.999s44.333 50.666 72 69.999s57.834 34.666 90.501 45.999v4c-62 27.333 -110.833 65.5 -146.5 114.5s-53.5 107.833 -53.5 176.5
c0 58.667 11.5 111.334 34.5 158.001s54.5 86.167 94.5 118.5s86.833 57 140.5 74s110.834 25.5 171.501 25.5s117.834 -8.5 171.501 -25.5s100.5 -41.667 140.5 -74s71.5 -71.833 94.5 -118.5s34.5 -99.334 34.5 -158.001c0 -68.667 -17.833 -127.5 -53.5 -176.5
s-84.5 -87.167 -146.5 -114.5v-4c32.667 -11.333 62.834 -26.666 90.501 -45.999s51.667 -42.666 72 -69.999s36.333 -58.666 48 -93.999s17.5 -75 17.5 -119c0 -56.667 -11.333 -108.667 -34 -156s-54.5 -88.166 -95.5 -122.499s-90.333 -61.166 -148 -80.499
s-121.5 -29 -191.5 -29z" />
    <glyph glyph-name="nine" unicode="9" horiz-adv-x="1128" 
d="M399 -210c108 0 194.003 32.002 258.003 96.002s105 165.667 123 305h-4c-34 -17.333 -73.333 -30.5 -118 -39.5s-91 -13.5 -139 -13.5c-59.333 0 -114.833 8.66699 -166.5 26s-96.5 43.166 -134.5 77.499s-68 77 -90 128s-33 109.833 -33 176.5
c0 63.333 10 122.166 30 176.499s49.167 101.5 87.5 141.5s85.5 71.5 141.5 94.5s120 34.5 192 34.5c78.667 0 148.167 -14 208.5 -42s111.166 -69 152.499 -123s72.666 -120.5 93.999 -199.5s32 -169.5 32 -271.5c0 -68 -4.83301 -134.333 -14.5 -199
s-25 -125.5 -46 -182.5s-47.667 -109.333 -80 -157s-71.333 -88.667 -117 -123s-98.167 -61 -157.5 -80s-126 -28.5 -200 -28.5c-56.667 0 -110.5 5.33301 -161.5 16s-95.833 25.667 -134.5 45v207c43.333 -21.333 89.666 -37.5 138.999 -48.5s95.333 -16.5 138 -16.5z
M549.003 341.002c40 0 80.8291 4.33301 122.496 13s80.167 22.334 115.5 41.001c-1.33301 72.667 -8.33301 134.167 -21 184.5s-29.667 91 -51 122s-46.666 53.5 -75.999 67.5s-61.666 21 -96.999 21c-29.333 0 -56.333 -4.66699 -81 -14s-46 -23.5 -64 -42.5
s-32 -42.833 -42 -71.5s-15 -62.334 -15 -101.001c0 -40.667 5 -75 15 -103s24.333 -50.667 43 -68s40.834 -29.833 66.501 -37.5s53.834 -11.5 84.501 -11.5z" />
    <glyph glyph-name="colon" unicode=":" horiz-adv-x="599" 
d="M165 267h269v-267h-269v267zM165 900h269v-267h-269v267z" />
    <glyph glyph-name="semicolon" unicode=";" horiz-adv-x="649" 
d="M202 267h277l-216 -678h-253zM193 900h269v-267h-269v267z" />
    <glyph glyph-name="less" unicode="&#x3c;" 
d="M114 639l852 384v-217l-628 -267v-4l628 -267v-217l-852 384v204z" />
    <glyph glyph-name="equal" unicode="=" 
d="M966 619h-852v191h852v-191zM966 234h-852v191h852v-191z" />
    <glyph glyph-name="greater" unicode="&#x3e;" 
d="M966 435l-852 -384v217l628 267v4l-628 267v217l852 -384v-204z" />
    <glyph glyph-name="question" unicode="?" horiz-adv-x="920" 
d="M830 1026c0 -39.333 -4.33105 -73.501 -12.998 -102.501s-20.334 -54.333 -35.001 -76s-31.5 -40.5 -50.5 -56.5s-38.833 -31 -59.5 -45l-70 -46c-23.333 -14.667 -44.333 -31.167 -63 -49.5s-33.834 -39.833 -45.501 -64.5s-17.5 -54.667 -17.5 -90v-16h-223
c-0.666992 6 -1.16699 13.5 -1.5 22.5s-0.5 16.167 -0.5 21.5c0 50 6.5 92.167 19.5 126.5s29.667 63.833 50 88.5s42.833 45.834 67.5 63.501s49 34.167 73 49.5l47.5 33.5c15 11 28.167 23.167 39.5 36.5s20.333 28 27 44s10 34.333 10 55
c0 44.667 -16.333 80.5 -49 107.5s-83.667 40.5 -153 40.5c-51.333 0 -101.833 -6.33301 -151.5 -19s-93.5 -27.667 -131.5 -45v193c20 9.33301 42.5 18 67.5 26s51 14.833 78 20.5s54.667 10.167 83 13.5s55.833 5 82.5 5c66 0 125 -7.83301 177 -23.5
s95.833 -38.167 131.5 -67.5s63 -64.833 82 -106.5s28.5 -88.167 28.5 -139.5zM235.002 266.999h269v-267h-269v267z" />
    <glyph glyph-name="at" unicode="@" horiz-adv-x="2098" 
d="M1260 125c-12.667 -14.667 -28.8311 -29.499 -48.498 -44.499s-41.834 -28.5 -66.501 -40.5s-51.834 -21.667 -81.501 -29s-60.834 -11 -93.501 -11c-44.667 0 -85.834 7 -123.501 21s-70.334 33.833 -98.001 59.5s-49.167 56.667 -64.5 93s-23 77.166 -23 122.499
c0 50 9 94.5 27 133.5s43.167 72 75.5 99s71 47.667 116 62s94.833 21.5 149.5 21.5c44.667 0 83 -2.66699 115 -8s59.667 -11 83 -17v37c0 21.333 -3.66699 42 -11 62s-19 37.667 -35 53s-37 27.666 -63 36.999s-57.667 14 -95 14c-46 0 -91.667 -5.16699 -137 -15.5
s-94.666 -25.5 -147.999 -45.5v176c19.333 9.33301 41 17.833 65 25.5s49.5 14.334 76.5 20.001s54.833 10.167 83.5 13.5s57.334 5 86.001 5c67.333 0 126.166 -8.16699 176.499 -24.5s92.166 -39 125.499 -68s58.5 -63.167 75.5 -102.5s25.5 -82 25.5 -128v-390
c0 -14.667 0.833008 -28 2.5 -40s5 -22.333 10 -31s11.833 -15.334 20.5 -20.001s19.667 -7 33 -7c31.333 0 60.666 9.33301 87.999 28s51 45.167 71 79.5s35.833 76.166 47.5 125.499s17.5 104.666 17.5 165.999c0 108 -18 202.333 -54 283s-84.833 148 -146.5 202
s-133.667 94.333 -216 121s-169.833 40 -262.5 40c-124.667 0 -231.667 -20.5 -321 -61.5s-162.5 -95.833 -219.5 -164.5s-99 -147.5 -126 -236.5s-40.5 -181.5 -40.5 -277.5c0 -102.667 15.333 -197.834 46 -285.501s76.834 -163.667 138.501 -228
s138.834 -114.666 231.501 -150.999s201 -54.5 325 -54.5c55.333 0 109.166 2.83301 161.499 8.5s101.833 13.167 148.5 22.5s89.834 19.833 129.501 31.5s74.167 23.834 103.5 36.501v-160c-30 -12 -65.833 -23.833 -107.5 -35.5s-86.667 -22 -135 -31
s-98.666 -16.167 -150.999 -21.5s-104.166 -8 -155.499 -8c-86 0 -168 8.5 -246 25.5s-150.833 42.333 -218.5 76s-129 75 -184 124s-101.833 105.667 -140.5 170s-68.667 135.833 -90 214.5s-32 164.334 -32 257.001c0 134.667 20.667 257.834 62 369.501
s100.333 207.5 177 287.5s169.5 142 278.5 186s231.167 66 366.5 66c124.667 0 239.167 -19.167 343.5 -57.5s194.333 -92.333 270 -162s134.667 -153.167 177 -250.5s63.5 -205.333 63.5 -324c0 -92 -11 -173.333 -33 -244s-52.667 -130.167 -92 -178.5
s-85.833 -84.833 -139.5 -109.5s-112.167 -37 -175.5 -37c-32.667 0 -60.667 3 -84 9s-43.5 14.5 -60.5 25.5s-31 24.167 -42 39.5s-20.167 32.333 -27.5 51h-4zM1227 418.001c-21.333 4.66699 -45.3311 9.16797 -71.998 13.501s-55.334 6.5 -86.001 6.5
c-54.667 0 -98.167 -10.667 -130.5 -32s-48.5 -55 -48.5 -101c0 -21.333 3.66699 -39.833 11 -55.5s17.166 -28.5 29.499 -38.5s26.833 -17.5 43.5 -22.5s34 -7.5 52 -7.5c22.667 0 44.167 3 64.5 9s39 13.667 56 23s32.333 19.666 46 30.999s25.167 22.333 34.5 33v141z
" />
    <glyph glyph-name="A" unicode="A" horiz-adv-x="1346" 
d="M926 341h-504l-131 -341h-261l531 1338h224l531 -1338h-259zM672 1016c-46.667 -140 -88.332 -257 -124.999 -351l-46 -119h346l-46 119c-36.667 94.667 -78.334 211.667 -125.001 351h-4z" />
    <glyph glyph-name="B" unicode="B" horiz-adv-x="1276" 
d="M1129 982c0 -58 -12.999 -111.168 -38.999 -159.501s-69 -88.5 -129 -120.5v-4c33.333 -11.333 63.833 -25.833 91.5 -43.5s51.334 -38.667 71.001 -63s35 -51.833 46 -82.5s16.5 -65 16.5 -103c0 -32.667 -5.16699 -67.667 -15.5 -105s-28.5 -73.5 -54.5 -108.5
s-60.667 -67.167 -104 -96.5s-98 -52.666 -164 -69.999c-16.667 -4 -34.834 -7.66699 -54.501 -11s-41.5 -6.16602 -65.5 -8.49902s-50.667 -4 -80 -5s-62.333 -1.5 -99 -1.5h-389v1338h465c99.333 0 179.333 -10 240 -30c45.333 -14.667 84.666 -33.834 117.999 -57.501
s60.833 -50 82.5 -79s37.667 -59.667 48 -92s15.5 -64.833 15.5 -97.5zM405.001 581.999l-0.000976562 -376.998h160c42.667 0 79.334 1.16699 110.001 3.5s57 6.16602 79 11.499c34 7.33301 62.333 17.166 85 29.499s41 26.333 55 42s24 33 30 52s9 39.167 9 60.5
c0 37.333 -10.333 70 -31 98s-53 49 -97 63c-19.333 6 -42 10.333 -68 13s-59.333 4 -100 4h-232zM626 787.001c66.667 0 116.332 6.66797 148.999 20.001c36.667 15.333 62.834 36.5 78.501 63.5s23.5 57.5 23.5 91.5c0 35.333 -9 66.833 -27 94.5s-48.667 48.167 -92 61.5
c-18 5.33301 -39 9.16602 -63 11.499s-53.667 3.5 -89 3.5h-201v-346h221z" />
    <glyph glyph-name="C" unicode="C" horiz-adv-x="1197" 
d="M811 1156c-66.667 0 -128.175 -11 -184.508 -33s-104.666 -54 -144.999 -96s-71.833 -93.833 -94.5 -155.5s-34 -132.167 -34 -211.5c0 -78.667 10.333 -147.834 31 -207.501s50.334 -109.5 89.001 -149.5s85.834 -70.167 141.501 -90.5s118.834 -30.5 189.501 -30.5
c50.667 0 102.334 4 155.001 12s102 19.667 148 35v-211c-46.667 -13.333 -97 -23.833 -151 -31.5s-110 -11.5 -168 -11.5c-113.333 0 -213 16.167 -299 48.5s-157.833 78 -215.5 137s-101 129.667 -130 212s-43.5 173.166 -43.5 272.499c0 102 15.5 196.667 46.5 284
s75.667 163 134 227s131.333 114.333 219 151s186.834 55.334 297.501 56.001c56.667 0 110.334 -3.83301 161.001 -11.5s96.334 -18.5 137.001 -32.5v-208c-53.333 16.667 -103 28.334 -149 35.001s-91 10 -135 10z" />
    <glyph glyph-name="D" unicode="D" horiz-adv-x="1411" 
d="M160 0l0.000976562 1338h354c31.333 0 63.166 -1 95.499 -3s63.833 -5 94.5 -9s60.334 -8.83301 89.001 -14.5s55 -12.5 79 -20.5c71.333 -22.667 134.333 -53.334 189 -92.001s100.5 -84.334 137.5 -137.001s65 -111.5 84 -176.5s28.5 -135.5 28.5 -211.5
c0 -72 -8 -139.5 -24 -202.5s-40.333 -120.5 -73 -172.5s-73.834 -97.833 -123.501 -137.5s-108.5 -72.167 -176.5 -97.5c-56.667 -21.333 -121 -37.333 -193 -48s-153 -16 -243 -16h-318zM506.001 205.002c143.333 0 255.333 19.667 336 59
c71.333 35.333 125.333 86.666 162 153.999s55 153.333 55 258c0 54.667 -6 104 -18 148s-29.333 83.167 -52 117.5s-50.167 63.833 -82.5 88.5s-68.833 45 -109.5 61c-38 14.667 -80.333 25.334 -127 32.001s-99 10 -157 10h-108v-928h101z" />
    <glyph glyph-name="E" unicode="E" horiz-adv-x="1163" 
d="M405 205h658v-205h-903v1338h867v-205h-622v-346h534v-205h-534v-377z" />
    <glyph glyph-name="F" unicode="F" horiz-adv-x="1067" 
d="M405 0h-245v1338h852v-205h-607v-346h519v-205h-519v-582z" />
    <glyph glyph-name="G" unicode="G" horiz-adv-x="1377" 
d="M992 511l-299.999 -0.000976562v205h545v-675c-20 -7.33301 -45.5 -15 -76.5 -23s-65.667 -15.167 -104 -21.5s-77.833 -11.5 -118.5 -15.5s-81 -6 -121 -6c-120 0 -224.833 16.167 -314.5 48.5s-164.334 77.833 -224.001 136.5s-104.334 128.5 -134.001 209.5
s-44.5 170.5 -44.5 268.5c0 69.333 7.83301 135.5 23.5 198.5s38.667 121.333 69 175s67.166 102.167 110.499 145.5s92.833 80.333 148.5 111s116.667 54.167 183 70.5s137.5 24.5 213.5 24.5c67.333 0 131.333 -4.83301 192 -14.5s110.334 -21.5 149.001 -35.5v-208
c-52 16.667 -104.5 29.334 -157.5 38.001s-106.5 13 -160.5 13c-72.667 0 -140.667 -10.833 -204 -32.5s-118.166 -53.667 -164.499 -96s-82.833 -94.5 -109.5 -156.5s-40 -133.667 -40 -215c0.666992 -158 42 -276.5 124 -355.5s198.333 -118.5 349 -118.5
c28 0 57 1.5 87 4.5s56.333 6.83301 79 11.5v313z" />
    <glyph glyph-name="H" unicode="H" horiz-adv-x="1430" 
d="M405 787h620v551h245v-1338h-245v582h-620v-582h-245v1338h245v-551z" />
    <glyph glyph-name="I" unicode="I" horiz-adv-x="565" 
d="M160 0v1338h245v-1338h-245z" />
    <glyph glyph-name="J" unicode="J" horiz-adv-x="824" 
d="M424 1338l245.001 -0.00195312v-989c0 -44 -3.16699 -81.833 -9.5 -113.5s-15.833 -59.5 -28.5 -83.5c-16.667 -32 -37.667 -59.167 -63 -81.5s-54 -40.666 -86 -54.999s-66.333 -24.666 -103 -30.999s-74.667 -9.5 -114 -9.5c-40.667 0 -80.167 3.33301 -118.5 10
s-70.5 15.334 -96.5 26.001v209c29.333 -12 60.666 -21.333 93.999 -28s66.333 -10 99 -10c63.333 0 109.333 14.667 138 44s43 72.666 43 129.999v982z" />
    <glyph glyph-name="K" unicode="K" horiz-adv-x="1294" 
d="M160 0v1338h245v-609h4l505 609h304l-558 -663l604 -675h-314l-541 604h-4v-604h-245z" />
    <glyph glyph-name="L" unicode="L" horiz-adv-x="1101" 
d="M405 1338v-1133h626v-205h-871v1338h245z" />
    <glyph glyph-name="M" unicode="M" horiz-adv-x="1692" 
d="M848 359c29.333 105.333 65.667 218.334 109 339.001l231 640h344v-1338h-245v678c0 99.333 4 214.666 12 345.999h-9l-40 -128c-15.333 -47.333 -31.333 -94 -48 -140l-277 -756h-158l-277 756c-16.667 46 -32.667 92.667 -48 140l-40 128h-9
c8 -123.333 12 -238.333 12 -345v-679h-245v1338h342l231 -637c38.667 -106 75 -220 109 -342h6z" />
    <glyph glyph-name="N" unicode="N" horiz-adv-x="1490" 
d="M857 716c96 -136.667 174 -258.001 234 -364.001h6c-8 174 -12 300.667 -12 380v606h245v-1338h-257l-436 616c-76.667 106.667 -156 230.334 -238 371.001h-6c8 -164 12 -291 12 -381v-606h-245v1338h257z" />
    <glyph glyph-name="O" unicode="O" horiz-adv-x="1504" 
d="M1151 669c0 81.333 -10 152.5 -30 213.5s-47.667 111.833 -83 152.5s-77.333 71 -126 91s-102 30 -160 30s-111.333 -10 -160 -30s-90.667 -50.333 -126 -91s-63 -91.5 -83 -152.5s-30 -132.167 -30 -213.5s10 -152.5 30 -213.5s47.667 -111.667 83 -152
s77.333 -70.666 126 -90.999s102 -30.5 160 -30.5s111.333 10.167 160 30.5s90.667 50.666 126 90.999s63 91 83 152s30 132.167 30 213.5zM1404 669c0 -102 -14.5 -195.5 -43.5 -280.5s-71.333 -158.167 -127 -219.5s-124 -109 -205 -143s-173.167 -51 -276.5 -51
s-195.5 17 -276.5 51s-149.333 81.667 -205 143s-98 134.5 -127 219.5s-43.5 178.5 -43.5 280.5s14.5 195.5 43.5 280.5s71.333 158.167 127 219.5s124 109 205 143s173.167 51 276.5 51s195.5 -17 276.5 -51s149.333 -81.667 205 -143s98 -134.5 127 -219.5
s43.5 -178.5 43.5 -280.5z" />
    <glyph glyph-name="P" unicode="P" horiz-adv-x="1230" 
d="M530 518c-22 0 -43.666 0.333984 -64.999 1.00098s-41.333 2 -60 4v-523h-245v1338h386c64.667 0 121.167 -2.83301 169.5 -8.5s91.5 -14.167 129.5 -25.5c91.333 -28 161.666 -72.667 210.999 -134s74 -139.333 74 -234c0 -64.667 -13.333 -122.834 -40 -174.501
s-65.667 -95.5 -117 -131.5s-114 -63.667 -188 -83s-159 -29 -255 -29zM405.001 729.001c14 -2 31.832 -3.5 53.499 -4.5s44.167 -1.5 67.5 -1.5c66 0 121.333 5.33301 166 16s80.667 25.5 108 44.5s47 42 59 69s18 56.5 18 88.5c0 39.333 -9 73.333 -27 102
s-49.333 51 -94 67c-23.333 8 -52.166 13.833 -86.499 17.5s-76.5 5.5 -126.5 5.5h-138v-404z" />
    <glyph glyph-name="Q" unicode="Q" horiz-adv-x="1557" 
d="M1151 669c0 81.333 -10 152.5 -30 213.5s-47.667 111.833 -83 152.5s-77.333 71 -126 91s-102 30 -160 30s-111.333 -10 -160 -30s-90.667 -50.333 -126 -91s-63 -91.5 -83 -152.5s-30 -132.167 -30 -213.5s10 -152.5 30 -213.5s47.667 -111.667 83 -152
s77.333 -70.666 126 -90.999s102 -30.5 160 -30.5s111.333 10.167 160 30.5s90.667 50.666 126 90.999s63 91 83 152s30 132.167 30 213.5zM1178 171c16.667 4.66699 35.668 9.00098 57.001 13.001s43.5 7.33301 66.5 10s46 4.66699 69 6s45.5 2 67.5 2h19v-213
c-35.333 3.33301 -78 6 -128 8s-103 3 -159 3c-42 0 -79.667 -1 -113 -3s-66.833 -4.16699 -100.5 -6.5s-68.667 -4.5 -105 -6.5s-71.833 -3 -106.5 -3c-104.667 0 -197 16.667 -277 50s-147.333 80.333 -202 141s-96 133.167 -124 217.5s-42 177.5 -42 279.5
s14.5 195.5 43.5 280.5s71.333 158.167 127 219.5s124 109 205 143s173.167 51 276.5 51s195.5 -17 276.5 -51s149.333 -81.333 205 -142s98 -132.834 127 -216.501s43.5 -175.167 43.5 -274.5c0 -52 -5 -102.667 -15 -152s-24.5 -95.333 -43.5 -138
s-42.833 -82.5 -71.5 -119.5s-61.334 -68.833 -98.001 -95.5z" />
    <glyph glyph-name="R" unicode="R" horiz-adv-x="1286" 
d="M1150 936c0 -93.333 -25.834 -172.5 -77.501 -237.5s-131.5 -113.167 -239.5 -144.5v-4l398 -550h-294l-364 518h-168v-518h-245v1338h407c67.333 0 130 -3.83301 188 -11.5s107.667 -19.167 149 -34.5c78.667 -30 139.334 -74.5 182.001 -133.5s64 -133.167 64 -222.5z
M525.999 723c56 0 103.499 2.5 142.499 7.5s71.833 12.5 98.5 22.5c49.333 18.667 83.5 44.167 102.5 76.5s28.5 69.5 28.5 111.5c0 36 -7.5 67.833 -22.5 95.5s-40.5 49.5 -76.5 65.5c-23.333 10.667 -52.666 18.5 -87.999 23.5s-79 7.5 -131 7.5h-175v-410h121z" />
    <glyph glyph-name="S" unicode="S" horiz-adv-x="1182" 
d="M818 384c0 34 -8.33203 61.5029 -24.999 82.5029s-39.334 38.167 -68.001 51.5s-60.834 24.166 -96.501 32.499s-73.167 16.5 -112.5 24.5c-52 11.333 -101.667 24.833 -149 40.5s-89 37.334 -125 65.001s-64.667 62.834 -86 105.501s-32 96 -32 160
c0 70.667 12.333 132.167 37 184.5s58.167 95.666 100.5 129.999s92 60 149 77s121.167 25.5 192.5 25.5s143 -7 215 -21s134 -32 186 -54v-210c-69.333 27.333 -135.833 47.166 -199.5 59.499s-123.5 18.5 -179.5 18.5c-80.667 0 -142.834 -14.667 -186.501 -44
s-65.5 -73.333 -65.5 -132c0 -34 7.16699 -62 21.5 -84s33.833 -40.167 58.5 -54.5s53 -25.833 85 -34.5s66 -16.667 102 -24c56.667 -12 110.834 -25.833 162.501 -41.5s97.5 -37.5 137.5 -65.5s71.667 -64.5 95 -109.5s35 -102.5 35 -172.5
c0 -72 -13.333 -134.333 -40 -187s-64.5 -96.167 -113.5 -130.5s-108.5 -59.833 -178.5 -76.5s-146.667 -25 -230 -25c-72.667 0 -144.167 7.16699 -214.5 21.5s-128.833 34.5 -175.5 60.5v207c66 -28.667 130.333 -49.5 193 -62.5s127.334 -19.5 194.001 -19.5
c38.667 0 76.667 3.16699 114 9.5s70.833 17.166 100.5 32.499s53.5 36.166 71.5 62.499s27 58.833 27 97.5z" />
    <glyph glyph-name="T" unicode="T" horiz-adv-x="1168" 
d="M707 0h-245v1133h-432v205h1108v-205h-431v-1133z" />
    <glyph glyph-name="U" unicode="U" horiz-adv-x="1434" 
d="M714 -25c-70 0 -132.999 6.83301 -188.999 20.5s-105.333 33.334 -148 59.001s-79 57 -109 94s-54 78.833 -72 125.5c-14.667 37.333 -25.167 78.666 -31.5 123.999s-9.5 96 -9.5 152v788h245v-766c0 -94.667 11.333 -168.667 34 -222
c25.333 -59.333 62.333 -102.166 111 -128.499s106 -39.5 172 -39.5s123.333 13.167 172 39.5s85.667 69.166 111 128.499c22.667 53.333 34 127.333 34 222v766h245v-788c0 -56 -3.16699 -106.667 -9.5 -152s-16.833 -86.666 -31.5 -123.999
c-18 -46.667 -42.167 -88.5 -72.5 -125.5s-67.333 -68.333 -111 -94s-93.834 -45.334 -150.501 -59.001s-120 -20.5 -190 -20.5z" />
    <glyph glyph-name="V" unicode="V" horiz-adv-x="1306" 
d="M656 327l53.5 155.5l69.5 190.5l248 665h259l-523 -1338h-220l-523 1338h261l248 -665l69.5 -190.5l53.5 -155.5h4z" />
    <glyph glyph-name="W" unicode="W" horiz-adv-x="1864" 
d="M929 986c-26 -124.667 -56 -253.334 -90 -386.001l-150 -600h-244l-425 1338h261l161 -533c48.667 -167.333 88 -318.666 118 -453.999h6c29.333 145.333 63.333 294.333 102 447l138 540h252l138 -540c38.667 -151.333 72.667 -300.333 102 -447h6
c36.667 160 76 311.333 118 454l161 533h261l-425 -1338h-244l-150 600c-34 135.333 -64 264 -90 386h-6z" />
    <glyph glyph-name="X" unicode="X" horiz-adv-x="1302" 
d="M513 1063c64.667 -94 110 -161.333 136 -202h5l135 201l191 276h282l-466 -658l486 -680h-278l-209 299l-142 208h-4l-142 -208l-209 -299h-278l486 680l-466 658h282z" />
    <glyph glyph-name="Y" unicode="Y" horiz-adv-x="1299" 
d="M651 762l356 576h272l-507 -799v-539h-245v539l-507 799h272l356 -576h3z" />
    <glyph glyph-name="Z" unicode="Z" horiz-adv-x="1231" 
d="M1132 1338v-133l-716 -1000h725v-205h-1051v132l717 1001h-699v205h1024z" />
    <glyph glyph-name="bracketleft" unicode="[" horiz-adv-x="646" 
d="M140 1338h446v-173h-241v-1291h241v-174h-446v1638z" />
    <glyph glyph-name="backslash" unicode="\" horiz-adv-x="603" 
d="M371 -249l-380 1587h208l380 -1587h-208z" />
    <glyph glyph-name="bracketright" unicode="]" horiz-adv-x="646" 
d="M506 -300h-446v174h241v1291h-241v173h446v-1638z" />
    <glyph glyph-name="asciicircum" unicode="^" 
d="M642 1363l384 -852h-217l-267 628h-4l-267 -628h-217l384 852h204z" />
    <glyph glyph-name="underscore" unicode="_" horiz-adv-x="1000" 
d="M0 -142h1000v-133h-1000v133z" />
    <glyph glyph-name="grave" unicode="`" horiz-adv-x="800" 
d="M458 1473l119 -349h-184l-165 349h230zM0 969z" />
    <glyph glyph-name="a" unicode="a" horiz-adv-x="1054" 
d="M700 103l-4.00098 -0.000976562c-13.333 -14 -29.333 -28.333 -48 -43s-40 -28.5 -64 -41.5s-50.667 -23.5 -80 -31.5s-61 -12 -95 -12c-46 0 -89 7.16699 -129 21.5s-74.333 35 -103 62s-51.167 59.667 -67.5 98s-24.5 81.166 -24.5 128.499c0 52 9.5 98.667 28.5 140
s45.5 76.333 79.5 105s74.667 50.5 122 65.5s99.666 22.5 156.999 22.5c42 0 80.667 -2.66699 116 -8s66.333 -11.666 93 -18.999v39c0 22.667 -3.83301 44.5 -11.5 65.5s-20 39.667 -37 56s-39.167 29.333 -66.5 39s-60.666 14.5 -99.999 14.5c-48 0 -96 -5.33301 -144 -16
s-100 -26.667 -156 -48v185c48.667 21.333 100.334 37.666 155.001 48.999s112 17.333 172 18c70.667 0 132.5 -8.66699 185.5 -26s97.333 -41.166 133 -71.499s62.334 -66.166 80.001 -107.499s26.5 -86.333 26.5 -135v-365c0 -64 0.666992 -119 2 -165
s2.66602 -87 3.99902 -123h-214zM680.999 412.999c-22.667 5.33301 -48.666 10.167 -77.999 14.5s-59 6.5 -89 6.5c-58 0 -103.833 -11.5 -137.5 -34.5s-50.5 -58.167 -50.5 -105.5c0 -22 3.83301 -41.167 11.5 -57.5s18 -29.833 31 -40.5s28.167 -18.667 45.5 -24
s35.666 -8 54.999 -8c24 0 46.667 3.16699 68 9.5s41 14.333 59 24s34.167 20.5 48.5 32.5s26.5 23.667 36.5 35v148z" />
    <glyph glyph-name="b" unicode="b" horiz-adv-x="1141" 
d="M1061 501c0 -87.333 -12.667 -164.669 -38 -232.002s-58.5 -122.666 -99.5 -165.999s-87.167 -75.5 -138.5 -96.5s-103 -31.5 -155 -31.5c-36.667 0 -69.667 4.5 -99 13.5s-55 20.167 -77 33.5s-40.5 27.333 -55.5 42s-26.833 27.667 -35.5 39h-4l-23 -103h-196
c1.33301 28.667 2.5 64.167 3.5 106.5s1.5 82.5 1.5 120.5v1221h237v-403c0 -28.667 -0.166992 -55.167 -0.5 -79.5s-0.833008 -43.166 -1.5 -56.499h2c15.333 10.667 32 21 50 31s37.667 19 59 27s44.333 14.333 69 19s50.667 7 78 7c54 0 106.5 -9.83301 157.5 -29.5
s96.333 -49.667 136 -90s71.167 -92 94.5 -155s35 -135.5 35 -217.5zM816 488.997c0 60.667 -7.33105 112.832 -21.998 156.499s-33.834 77 -57.501 100s-48.334 38.5 -74.001 46.5s-51.167 12 -76.5 12c-34.667 0 -70 -7 -106 -21s-68.667 -32.667 -98 -56v-464
c9.33301 -10.667 20.833 -21.834 34.5 -33.501s29 -22.334 46 -32.001s35.5 -17.667 55.5 -24s41.333 -9.5 64 -9.5c38.667 0 72.5 7.83301 101.5 23.5s53.333 37.834 73 66.501s34.5 62.834 44.5 102.501s15 83.834 15 132.501z" />
    <glyph glyph-name="c" unicode="c" horiz-adv-x="903" 
d="M828 21c-30 -12.667 -66.665 -23.5 -109.998 -32.5s-89 -13.5 -137 -13.5c-70 0 -135.333 10 -196 30s-113.667 50.333 -159 91s-81 92.167 -107 154.5s-39 135.166 -39 218.499c0 93.333 15 173.333 45 240s68.833 120.834 116.5 162.501s101.334 72.334 161.001 92.001
s118.5 29.5 176.5 29.5c43.333 0 85 -3.83301 125 -11.5s76.333 -18.167 109 -31.5v-193c-29.333 12.667 -60.5 22.834 -93.5 30.501s-68.5 11.5 -106.5 11.5s-74.333 -5.83301 -109 -17.5s-65.334 -30.167 -92.001 -55.5s-47.834 -58.833 -63.501 -100.5
s-23.5 -91.834 -23.5 -150.501c0 -42.667 6 -82.834 18 -120.501s29.5 -69.834 52.5 -96.501s52.333 -48.167 88 -64.5s77.834 -24.5 126.501 -24.5c43.333 0 82.666 4.33301 117.999 13s68.666 19.334 99.999 32.001v-193z" />
    <glyph glyph-name="d" unicode="d" horiz-adv-x="1142" 
d="M547 164c23.333 0 45.5 3.00098 66.5 9.00098s40.833 14 59.5 24s35.167 21 49.5 33s26.5 23.667 36.5 35v460c-28 22.667 -59.333 41.5 -94 56.5s-71.334 22.5 -110.001 22.5c-24.667 0 -50.5 -5 -77.5 -15s-51.667 -27 -74 -51s-41 -57.333 -56 -100
s-22.5 -97 -22.5 -163c0 -97.333 18.833 -173.333 56.5 -228s92.834 -82.334 165.501 -83.001zM80 465.001c0 84.667 11.668 160.169 35.001 226.502s55.166 122 95.499 167s86.5 78.667 138.5 101s106 33.5 162 33.5c26 0 50.667 -2.33301 74 -7s45.333 -11 66 -19
s40 -17 58 -27s34.667 -20.333 50 -31h2c-0.666992 13.333 -1.16699 32.166 -1.5 56.499s-0.5 50.833 -0.5 79.5v403h237v-1160c0 -64 0.666992 -119 2 -165s2.66602 -87 3.99902 -123h-214l-10 103h-4c-14 -16.667 -30.833 -33 -50.5 -49s-41.334 -29.833 -65.001 -41.5
s-49.667 -20.834 -78 -27.501s-59.166 -10 -92.499 -10c-52.667 0 -103.167 9.33301 -151.5 28s-91.666 47.5 -129.999 86.5s-69 90 -92 153s-34.5 137.167 -34.5 222.5z" />
    <glyph glyph-name="e" unicode="e" horiz-adv-x="1050" 
d="M629 166c46 0 94 4.66895 144 14.002s100.667 22.666 152 39.999v-189c-30.667 -13.333 -77.667 -26 -141 -38s-129 -18 -197 -18c-68.667 0 -133.834 8.83301 -195.501 26.5s-115.5 46.167 -161.5 85.5s-82.5 90.333 -109.5 153s-40.5 138.667 -40.5 228
c0 88 12.667 165 38 231s59.333 120.667 102 164s91.5 75.833 146.5 97.5s111.833 32.5 170.5 32.5c61.333 0 117.833 -9.33301 169.5 -28s96.334 -48 134.001 -88s67 -91.5 88 -154.5s31.5 -137.5 31.5 -223.5c-0.666992 -33.333 -1.66699 -61.666 -3 -84.999h-635
c3.33301 -44.667 13.333 -82.834 30 -114.501s38.5 -57.334 65.5 -77.001s58.5 -34 94.5 -43s75 -13.5 117 -13.5zM534 808.002c-30 0 -56.667 -5.5 -80 -16.5s-43.5 -26 -60.5 -45s-30.5 -41.167 -40.5 -66.5s-16.667 -52.333 -20 -81h381
c0 28.667 -3.83301 55.667 -11.5 81s-19 47.5 -34 66.5s-33.667 34 -56 45s-48.5 16.5 -78.5 16.5z" />
    <glyph glyph-name="f" unicode="f" horiz-adv-x="672" 
d="M737 1256c-26 6.66699 -52.832 12.166 -80.499 16.499s-53.834 6.5 -78.501 6.5c-26.667 0 -50.334 -3.16699 -71.001 -9.5s-38.167 -16.833 -52.5 -31.5s-25.166 -33.667 -32.499 -57s-11 -51.666 -11 -84.999v-127h269v-195h-269v-774h-237v774h-164v195h164v115
c0 68 9.5 126.5 28.5 175.5s45.5 89.333 79.5 121s74 55 120 70s96 22.5 150 22.5c33.333 0 66.5 -2.83301 99.5 -8.5s61.5 -12.5 85.5 -20.5v-188z" />
    <glyph glyph-name="g" unicode="g" horiz-adv-x="1126" 
d="M759 -25c0 13.333 0.168945 29.8379 0.501953 49.5049s1.16602 36.167 2.49902 49.5h-2c-14.667 -12 -31.5 -23.833 -50.5 -35.5s-39.833 -22.334 -62.5 -32.001s-47.667 -17.334 -75 -23.001s-55.333 -8.5 -84 -8.5c-51.333 0 -101.5 9.16699 -150.5 27.5
s-92.5 47.333 -130.5 87s-68.667 90.5 -92 152.5s-35 136.667 -35 224s11.833 163.833 35.5 229.5s55.167 120.5 94.5 164.5s84.5 77.167 135.5 99.5s103.5 33.5 157.5 33.5c59.333 0 112 -12.5 158 -37.5s83.667 -56.833 113 -95.5h4l10 109h208v-987
c0 -56.667 -4.66699 -105.334 -14 -146.001s-23 -76.667 -41 -108c-21.333 -36.667 -48.5 -68.667 -81.5 -96s-70.667 -50 -113 -68s-88.833 -31.5 -139.5 -40.5s-104.334 -13.5 -161.001 -13.5c-32 0 -63.333 1.16699 -94 3.5s-59.5 5.66602 -86.5 9.99902
s-51.667 9.33301 -74 15s-41.166 11.5 -56.499 17.5v193c44 -14.667 90.167 -25.834 138.5 -33.501s99.166 -11.5 152.499 -11.5c106 0 188 20.5 246 61.5s87 103.167 87 186.5v23zM547.002 164.005c24 0 46.6641 3.00195 67.9971 9.00195s41 13.667 59 23
s34.167 19.666 48.5 30.999s26.5 22.666 36.5 33.999v433c-25.333 30 -56.666 55 -93.999 75s-77 30.333 -119 31c-14.667 0 -30.167 -1.83301 -46.5 -5.5s-32.833 -10.167 -49.5 -19.5s-32.5 -21.833 -47.5 -37.5s-28.167 -35.5 -39.5 -59.5s-20.5 -52.667 -27.5 -86
s-10.5 -72 -10.5 -116c0 -48.667 4.66699 -92.167 14 -130.5s23.333 -71 42 -98s41.834 -47.667 69.501 -62s59.834 -21.5 96.501 -21.5z" />
    <glyph glyph-name="h" unicode="h" horiz-adv-x="1146" 
d="M377 1053c0 -50 -0.831055 -91.1738 -2.49805 -123.507s-4.5 -61.5 -8.5 -87.5h4c14 18.667 31.167 37.334 51.5 56.001s42.666 34.834 66.999 48.501s52 24.834 83 33.501s65.167 13 102.5 13c32 0 63.167 -3.16699 93.5 -9.5s58.666 -16.166 84.999 -29.499
s50.333 -30.666 72 -51.999s39.834 -46.666 54.501 -75.999c12.667 -25.333 22 -54 28 -86s9 -71 9 -117v-623h-237v591c0 30 -1.33301 54.5 -4 73.5s-7.33398 35.5 -14.001 49.5c-14 29.333 -34 50 -60 62s-55.667 18 -89 18c-46 -0.666992 -88.5 -11.667 -127.5 -33
s-74.833 -52.666 -107.5 -93.999v-667h-237v1448h237v-395z" />
    <glyph glyph-name="i" unicode="i" horiz-adv-x="509" 
d="M136 969h237v-969h-237v969zM130 1448h249v-257h-249v257z" />
    <glyph glyph-name="j" unicode="j" horiz-adv-x="538" 
d="M402 -127c0 -90.667 -14.334 -160.666 -43.001 -209.999c-30 -52 -74 -90.5 -132 -115.5s-126.667 -37.5 -206 -37.5c-35.333 0 -67.166 2 -95.499 6s-55.166 9.66699 -80.499 17v194c21.333 -6 45.166 -11.333 71.499 -16s51.5 -7 75.5 -7c32 0 60 3.66699 84 11
s43.333 20 58 38c11.333 13.333 19.333 31.666 24 54.999s7 51.333 7 84v1077h237v-1096zM158.999 1448h249v-257h-249v257z" />
    <glyph glyph-name="k" unicode="k" horiz-adv-x="1057" 
d="M140 1448h237v-872h5l369 393h293l-425 -455l428 -514h-287l-379 451h-4v-451h-237v1448z" />
    <glyph glyph-name="l" unicode="l" horiz-adv-x="517" 
d="M140 0v1448h237v-1448h-237z" />
    <glyph glyph-name="m" unicode="m" horiz-adv-x="1745" 
d="M1378 590c0 20.667 -0.668945 40.001 -2.00195 58.001s-3.66602 33.667 -6.99902 47c-7.33301 29.333 -21.666 53 -42.999 71s-51.333 27.333 -90 28c-20.667 0 -42 -3 -64 -9s-43.833 -14.5 -65.5 -25.5s-42.334 -24.333 -62.001 -40s-37.5 -33.167 -53.5 -52.5v-667
h-237v590c0 20.667 -0.666992 40 -2 58s-3.66602 33.667 -6.99902 47c-7.33301 29.333 -21.5 53 -42.5 71s-51.167 27.333 -90.5 28c-20.667 0 -42 -3 -64 -9s-43.833 -14.5 -65.5 -25.5s-42.334 -24.333 -62.001 -40s-37.5 -33.167 -53.5 -52.5v-667h-237v969h196l22 -135
h4c14 20 31.667 39.667 53 59s45.5 36.333 72.5 51s56.667 26.5 89 35.5s66.5 13.5 102.5 13.5c64 0 121.5 -14.167 172.5 -42.5s89.833 -72.5 116.5 -132.5h4c18.667 26 39.5 49.667 62.5 71s48.5 39.666 76.5 54.999s58.167 27.333 90.5 36s66.833 13 103.5 13
c69.333 -0.666992 127.5 -15.167 174.5 -43.5s83.167 -67.166 108.5 -116.499c6.66699 -12.667 12.334 -26.5 17.001 -41.5s8.5 -31.833 11.5 -50.5s5.16699 -39.334 6.5 -62.001s2 -48.667 2 -78v-601h-237v590z" />
    <glyph glyph-name="n" unicode="n" horiz-adv-x="1136" 
d="M348 834h4.00098c14 20 31.667 39.667 53 59s45.666 36.333 72.999 51s57.5 26.5 90.5 35.5s68.167 13.5 105.5 13.5c35.333 0 69.5 -4 102.5 -12s63.167 -20.5 90.5 -37.5s51.5 -39 72.5 -66s37.5 -59.167 49.5 -96.5c6.66699 -20.667 11.167 -43.167 13.5 -67.5
s3.5 -52.5 3.5 -84.5v-629h-237v592c0 26 -1 48.333 -3 67s-5.66699 35 -11 49c-12 30.667 -30.167 52.667 -54.5 66s-53.833 20 -88.5 20c-46 0 -90.167 -10.833 -132.5 -32.5s-79.833 -53.167 -112.5 -94.5v-667h-237v969h196z" />
    <glyph glyph-name="o" unicode="o" horiz-adv-x="1134" 
d="M809 484c0 51.333 -5.99805 96.666 -17.998 135.999s-28.667 72.333 -50 99s-47 46.667 -77 60s-62.667 20 -98 20c-34.667 0 -66.834 -6.66699 -96.501 -20s-55.167 -33.333 -76.5 -60s-38 -59.667 -50 -99s-18 -84.666 -18 -135.999s6 -96.666 18 -135.999
s28.833 -72.166 50.5 -98.499s47.334 -46.333 77.001 -60s62.167 -20.5 97.5 -20.5s67.666 6.83301 96.999 20.5s54.666 33.667 75.999 60s38 59.166 50 98.499s18 84.666 18 135.999zM1054 484c0 -76 -11.333 -145.333 -34 -208s-55.167 -116.334 -97.5 -161.001
s-93.5 -79.167 -153.5 -103.5s-127 -36.5 -201 -36.5c-76 0 -144.167 12.167 -204.5 36.5s-111.5 58.833 -153.5 103.5s-74.167 98.334 -96.5 161.001s-33.5 132 -33.5 208s11.333 145.333 34 208s55.167 116.334 97.5 161.001s93.5 79.167 153.5 103.5s127 36.5 201 36.5
c76 0 144.167 -12.167 204.5 -36.5s111.5 -58.833 153.5 -103.5s74.167 -98.334 96.5 -161.001s33.5 -132 33.5 -208z" />
    <glyph glyph-name="p" unicode="p" horiz-adv-x="1126" 
d="M584 803c-41.333 -0.666992 -80.667 -10.8379 -118 -30.5049s-70.333 -46.167 -99 -79.5v-432c10 -11.333 22 -22.666 36 -33.999s29.667 -21.666 47 -30.999s36.5 -17 57.5 -23s42.833 -9 65.5 -9c36.667 0 69.334 7.83301 98.001 23.5s52.5 37.834 71.5 66.501
s33.5 62.834 43.5 102.501s15 83.834 15 132.501c0 52 -5.16699 97.667 -15.5 137s-25 72 -44 98s-41.833 45.667 -68.5 59s-56.334 20 -89.001 20zM614.999 -25.0039c-52 0 -99.1709 9.5 -141.504 28.5s-77.5 42.5 -105.5 70.5h-4
c0.666992 -13.333 1.33398 -32.166 2.00098 -56.499s1 -50.833 1 -79.5v-403h-237v1434h208l10 -109h4c29.333 38.667 67 70.5 113 95.5s99.333 37.5 160 37.5c52.667 0 104.5 -9.83301 155.5 -29.5s96.167 -49.834 135.5 -90.501s70.833 -92 94.5 -154
s35.5 -135.667 35.5 -221c0 -90 -12.667 -167.833 -38 -233.5s-58.666 -120 -99.999 -163s-87.166 -74.833 -137.499 -95.5s-102.166 -31 -155.499 -31z" />
    <glyph glyph-name="q" unicode="q" horiz-adv-x="1126" 
d="M547 164c24 0 46.6631 3.00488 67.9961 9.00488s41 13.667 59 23s34.167 19.666 48.5 30.999s26.5 22.666 36.5 33.999v430c-24.667 30 -54.667 56.167 -90 78.5s-74 33.833 -116 34.5c-24 0 -49.167 -4.83301 -75.5 -14.5s-51.166 -26.834 -74.499 -51.501
s-42.166 -58.834 -56.499 -102.501s-21.5 -96.834 -21.5 -159.501c0 -48.667 4.66699 -92.167 14 -130.5s23.333 -71 42 -98s41.834 -47.667 69.501 -62s59.834 -21.5 96.501 -21.5zM777.996 860.005l10 109.002h208v-1434h-237v403c0 28.667 0.333008 55.167 1 79.5
s1.33398 43.166 2.00098 56.499h-2c-14.667 -12 -31.5 -23.833 -50.5 -35.5s-39.833 -22.334 -62.5 -32.001s-47.334 -17.334 -74.001 -23.001s-55 -8.5 -85 -8.5c-51.333 0 -101.5 9.16699 -150.5 27.5s-92.667 47.333 -131 87s-69 90.834 -92 153.501s-34.5 137 -34.5 223
c0 85.333 11.833 161.333 35.5 228s55.167 122 94.5 166s84.5 77.167 135.5 99.5s103.5 33.5 157.5 33.5c58 0 110.167 -12.167 156.5 -36.5s84.5 -56.5 114.5 -96.5h4z" />
    <glyph glyph-name="r" unicode="r" horiz-adv-x="716" 
d="M706 781l-20 0.00195312c-72.667 0 -136.5 -10.833 -191.5 -32.5s-97.5 -54.834 -127.5 -99.501v-649h-237v969h196l22 -135h4c28 49.333 66.5 88.166 115.5 116.499s107.833 42.5 176.5 42.5c24 0 44.667 -1.33301 62 -4v-208z" />
    <glyph glyph-name="s" unicode="s" horiz-adv-x="868" 
d="M559 281c0 20.667 -5.83398 37.6709 -17.501 51.0039s-27.167 24.5 -46.5 33.5s-41.5 16.833 -66.5 23.5l-78.5 20c-34.667 9.33301 -68 20.166 -100 32.499s-60.167 28.5 -84.5 48.5s-43.666 45.167 -57.999 75.5s-21.5 67.5 -21.5 111.5c0 54 9.66699 100.833 29 140.5
s45.5 72.5 78.5 98.5s71.333 45.333 115 58s89.834 19 138.501 19c59.333 0 115 -4.83301 167 -14.5s99 -22.167 141 -37.5v-193c-22 7.33301 -45.167 14.166 -69.5 20.499s-49 11.833 -74 16.5s-49.833 8.5 -74.5 11.5s-48 4.5 -70 4.5c-28 0 -51.667 -2.66699 -71 -8
s-35 -12.5 -47 -21.5s-20.667 -19.333 -26 -31s-8 -23.834 -8 -36.501c0 -22 5.83301 -40 17.5 -54s27.834 -25.333 48.501 -34s42.334 -15.834 65.001 -21.501l66 -16.5c33.333 -8 66.666 -17.667 99.999 -29s63.333 -27.166 90 -47.499s48.5 -46.666 65.5 -78.999
s25.5 -73.5 25.5 -123.5c0 -54.667 -10.333 -102.334 -31 -143.001s-49.5 -74.5 -86.5 -101.5s-81.333 -47 -133 -60s-108.5 -19.5 -170.5 -19.5c-61.333 0 -116.5 4.83301 -165.5 14.5s-89.5 21.834 -121.5 36.501v191c52 -19.333 100 -32.5 144 -39.5s85 -10.5 123 -10.5
c29.333 0 56.666 2.16699 81.999 6.5s47.166 11.166 65.499 20.499s32.833 21.166 43.5 35.499s16 31.5 16 51.5z" />
    <glyph glyph-name="t" unicode="t" horiz-adv-x="777" 
d="M722 1c-26.667 -8 -58.5 -14.332 -95.5 -18.999s-71.5 -7 -103.5 -7c-81.333 0 -147.833 13.167 -199.5 39.5s-88.167 64.166 -109.5 113.499c-15.333 35.333 -23 83.333 -23 144v502h-181v195h181v271h237v-271h280v-195h-280v-471c0 -37.333 5.66699 -65 17 -83
c20 -30.667 59.667 -46 119 -46c27.333 0 54.5 2.16699 81.5 6.5s52.5 9.83301 76.5 16.5v-196z" />
    <glyph glyph-name="u" unicode="u" horiz-adv-x="1116" 
d="M558 -25c-97.333 0 -178.001 16.501 -242.001 49.501s-112.333 77.5 -145 133.5c-17.333 30 -30.166 63 -38.499 99s-12.5 76 -12.5 120v592h237v-567c0 -32.667 2.33301 -60.834 7 -84.501s11.667 -44.167 21 -61.5c16 -29.333 38.667 -51.166 68 -65.499
s64.333 -21.5 105 -21.5c42.667 0 79.167 8 109.5 24s53.166 40.333 68.499 73c15.333 31.333 23 75 23 131v572h237v-592c0 -78.667 -13.667 -145 -41 -199c-15.333 -30.667 -35.166 -58.5 -59.499 -83.5s-53 -46.333 -86 -64s-70.333 -31.334 -112 -41.001
s-88.167 -14.5 -139.5 -14.5z" />
    <glyph glyph-name="v" unicode="v" horiz-adv-x="1006" 
d="M996 969l-375 -969h-235l-376 969h250l135 -370c38.667 -104 74 -208 106 -312h4c28 90 62.667 192 104 306l135 376h252z" />
    <glyph glyph-name="w" unicode="w" horiz-adv-x="1534" 
d="M765 706c-18.667 -96.667 -40.666 -190.333 -65.999 -281l-117 -425h-233l-339 969h250l125 -406c28.667 -94 54 -185 76 -273h4c18.667 85.333 41 176.333 67 273l111 406h250l109 -406c23.333 -86 45.666 -177 66.999 -273h4c22.667 90 48 181 76 273l125 406h250
l-339 -969h-233l-117 425c-26.667 95.333 -48.667 189 -66 281h-4z" />
    <glyph glyph-name="x" unicode="x" horiz-adv-x="1068" 
d="M532 337l-250 -337h-272l383 494l-360 475h279l226 -320l230 320h280l-370 -474l380 -495h-277z" />
    <glyph glyph-name="y" unicode="y" horiz-adv-x="1052" 
d="M10 969h253.999l145 -351c54.667 -133.333 93.334 -232 116.001 -296h4c16.667 50 52 142.667 106 278l150 369h257l-624 -1434h-234l222 519z" />
    <glyph glyph-name="z" unicode="z" horiz-adv-x="958" 
d="M554 774h-473v195h777v-147l-480 -627h515v-195h-828v134z" />
    <glyph glyph-name="braceleft" unicode="{" horiz-adv-x="625" 
d="M303 517c9.33301 -2 22.332 -7.66797 38.999 -17.001s33 -22.5 49 -39.5s29.833 -38 41.5 -63s17.5 -54.5 17.5 -88.5s-4.16699 -64.833 -12.5 -92.5s-18.166 -53.167 -29.499 -76.5l-40 -83c-12.667 -26 -19 -52 -19 -78c0 -46.667 17.167 -80.167 51.5 -100.5
s84.833 -30.5 151.5 -30.5h28v-173h-58c-60.667 0 -115.167 6.5 -163.5 19.5s-89 31.667 -122 56s-58.333 54 -76 89s-26.5 74.167 -26.5 117.5c0 21.333 2.16699 41.333 6.5 60s10 36.667 17 54s14.833 34 23.5 50l26 48c12 23.333 22.667 47.166 32 71.499
s14 50.833 14 79.5c0 22.667 -3.16699 41.667 -9.5 57s-16.333 27.5 -30 36.5s-31.5 15.333 -53.5 19s-48.667 5.5 -80 5.5v162c31.333 0 58 1.83301 80 5.5s39.833 10 53.5 19s23.667 21.167 30 36.5s9.5 34.333 9.5 57c0 31.333 -5.83301 61 -17.5 89
s-24.834 55.667 -39.501 83c-15.333 28.667 -29.5 58.334 -42.5 89.001s-19.5 64.667 -19.5 102c0 43.333 8.83301 82.5 26.5 117.5s43 64.667 76 89s73.667 43 122 56s102.833 19.5 163.5 19.5h58v-173h-28c-68.667 0 -119.667 -10.333 -153 -31s-50 -54 -50 -100
c0 -20.667 3.83301 -40.667 11.5 -60s16.834 -39.666 27.501 -60.999l22 -44c7.33301 -15.333 14 -31.5 20 -48.5s10.833 -35.167 14.5 -54.5s5.5 -40 5.5 -62c0 -34 -5.83301 -63.5 -17.5 -88.5s-25.5 -46 -41.5 -63s-32.333 -30.167 -49 -39.5s-29.667 -15 -39 -17v-4z
" />
    <glyph glyph-name="bar" unicode="|" horiz-adv-x="485" 
d="M345 -465h-205v1913h205v-1913z" />
    <glyph glyph-name="braceright" unicode="}" horiz-adv-x="625" 
d="M322 521c-9.33301 2 -22.334 7.66797 -39.001 17.001s-33 22.5 -49 39.5s-29.833 38 -41.5 63s-17.5 54.5 -17.5 88.5c0 22 1.83301 42.667 5.5 62s8.5 37.5 14.5 54.5s12.667 33.167 20 48.5l22 44c10.667 21.333 19.834 41.666 27.501 60.999s11.5 39.333 11.5 60
c0 46 -16.667 79.333 -50 100s-84.333 31 -153 31h-28v173h58c60.667 0 115.167 -6.5 163.5 -19.5s89 -31.667 122 -56s58.333 -54 76 -89s26.5 -74.167 26.5 -117.5c0 -37.333 -6.5 -71.333 -19.5 -102s-27.167 -60.334 -42.5 -89.001
c-14.667 -27.333 -27.834 -55 -39.501 -83s-17.5 -57.667 -17.5 -89c0 -22.667 3.16699 -41.667 9.5 -57s16.333 -27.5 30 -36.5s31.5 -15.333 53.5 -19s48.667 -5.5 80 -5.5v-162c-31.333 0 -58 -1.83301 -80 -5.5s-39.833 -10 -53.5 -19s-23.667 -21.167 -30 -36.5
s-9.5 -34.333 -9.5 -57c0 -28.667 4.66699 -55.167 14 -79.5s20 -48.166 32 -71.499l26 -48c8.66699 -16 16.5 -32.667 23.5 -50s12.667 -35.333 17 -54s6.5 -38.667 6.5 -60c0 -43.333 -8.83301 -82.5 -26.5 -117.5s-43 -64.667 -76 -89s-73.667 -43 -122 -56
s-102.833 -19.5 -163.5 -19.5h-58v173h28c66.667 0 117.167 10.167 151.5 30.5s51.5 53.833 51.5 100.5c0 26 -6.33301 52 -19 78l-40 83c-11.333 23.333 -21.166 48.833 -29.499 76.5s-12.5 58.5 -12.5 92.5s5.83301 63.5 17.5 88.5s25.5 46 41.5 63s32.333 30.167 49 39.5
s29.667 15 39 17v4z" />
    <glyph glyph-name="asciitilde" unicode="~" 
d="M85 445c32 58.667 70.498 102.5 115.498 131.5s98.5 43.5 160.5 43.5c34 0 66.833 -5.16699 98.5 -15.5s61.834 -21.5 90.501 -33.5c29.333 -12.667 57.333 -24 84 -34s52.667 -15 78 -15c34.667 0 62 7.5 82 22.5s38.667 36.167 56 63.5l144 -105
c-32 -58.667 -70.5 -102.5 -115.5 -131.5s-98.5 -43.5 -160.5 -43.5c-28.667 0 -56.667 3.83301 -84 11.5s-53.666 16.5 -78.999 26.5l-98.5 41c-31.667 12.667 -61.5 19 -89.5 19c-34.667 0 -62 -7.66699 -82 -23s-38.667 -36.333 -56 -63z" />
    <glyph glyph-name="exclamdown" unicode="&#xa1;" horiz-adv-x="599" 
d="M167 -387l24 876h217l24 -876h-265zM165 969h269v-267h-269v267z" />
    <glyph glyph-name="cent" unicode="&#xa2;" 
d="M589 128c-68 8 -129.336 23.8311 -184.003 47.498s-101.167 55.167 -139.5 94.5s-67.833 86.833 -88.5 142.5s-31 118.834 -31 189.501c0 70 9.83301 133.833 29.5 191.5s48.334 108 86.001 151s84 77.833 139 104.5s117.833 44.334 188.5 53.001v162h159v-159
c34 -2.66699 66.333 -7 97 -13s55.667 -13.333 75 -22v-194c-25.333 8.66699 -52.666 16.167 -81.999 22.5s-59.333 10.833 -90 13.5v-594c30.667 2 62.334 5.83301 95.001 11.5s61.667 13.167 87 22.5v-192c-24 -9.33301 -51.833 -17 -83.5 -23s-64.5 -10 -98.5 -12v-150
h-159v153zM381.997 605.998c0 -80.667 17.832 -143.332 53.499 -187.999s86.834 -74.334 153.501 -89.001v571c-31.333 -8 -59.833 -20 -85.5 -36s-47.5 -36 -65.5 -60s-31.833 -52.5 -41.5 -85.5s-14.5 -70.5 -14.5 -112.5z" />
    <glyph glyph-name="sterling" unicode="&#xa3;" 
d="M170 646l164 -0.000976562l11 85c16 120 57.167 210 123.5 270s156.166 90 269.499 90c22 0 43.833 -1.16699 65.5 -3.5s42.334 -5.66602 62.001 -9.99902s38 -9.5 55 -15.5s31.833 -12.333 44.5 -19v-202c-30.667 13.333 -63.667 24.5 -99 33.5s-70.333 13.5 -105 13.5
c-32 0 -58.833 -4.5 -80.5 -13.5s-39.5 -22 -53.5 -39s-24.833 -37.833 -32.5 -62.5s-13.5 -52.667 -17.5 -84l-6 -43h268v-201h-294l-31 -244h481v-201h-883v201h164l32 244h-138v201z" />
    <glyph glyph-name="currency" unicode="&#xa4;" 
d="M859 1124l135 -135l-135 -135c16 -27.333 28.333 -56.5 37 -87.5s13 -63.5 13 -97.5s-4.33301 -66.5 -13 -97.5s-21 -60.167 -37 -87.5l135 -134l-135 -135l-134 134c-56 -32.667 -118 -49 -186 -49s-129.667 16.333 -185 49l-134 -134l-135 135l134 134
c-32.667 55.333 -49 117 -49 185s16.333 130 49 186l-134 134l135 135l134 -135c27.333 16 56.5 28.333 87.5 37s63.5 13 97.5 13s66.5 -4.33301 97.5 -13s60.167 -21 87.5 -37zM333 669c0 -30 5.16699 -57.833 15.5 -83.5s24.666 -48 42.999 -67s40 -34 65 -45
s52.5 -16.5 82.5 -16.5s57.5 5.5 82.5 16.5s46.833 26 65.5 45s33.167 41.333 43.5 67s15.5 53.5 15.5 83.5s-5.16699 57.833 -15.5 83.5s-24.833 48.167 -43.5 67.5s-40.5 34.5 -65.5 45.5s-52.5 16.5 -82.5 16.5s-57.5 -5.5 -82.5 -16.5s-46.667 -26.167 -65 -45.5
s-32.666 -41.833 -42.999 -67.5s-15.5 -53.5 -15.5 -83.5z" />
    <glyph glyph-name="yen" unicode="&#xa5;" 
d="M900 86h-242v-112h-237v112h-242v161h242v117h-242v161h168l-291 541h239l242 -473h5l242 473h239l-291 -541h168v-161h-242v-117h242v-161z" />
    <glyph glyph-name="brokenbar" unicode="&#xa6;" horiz-adv-x="485" 
d="M345 720h-205v728h205v-728zM345 -465h-205v696h205v-696z" />
    <glyph glyph-name="section" unicode="&#xa7;" horiz-adv-x="920" 
d="M815 92c0 -75.333 -10.0029 -143.997 -30.0029 -205.997s-49 -115.167 -87 -159.5s-84.333 -78.666 -139 -102.999s-116.667 -36.5 -186 -36.5c-52.667 0 -103.834 5 -153.501 15s-92.834 22.667 -129.501 38v200c40 -15.333 82 -28 126 -38s83.667 -15 119 -15
c48.667 0 85.5 11.667 110.5 35s37.5 55.666 37.5 96.999c0 30 -6.83301 61 -20.5 93s-31.167 65.667 -52.5 101s-45.5 72.666 -72.5 111.999s-53.5 81 -79.5 125c-20 34.667 -39.333 71 -58 109s-35 78 -49 120s-25.167 86.167 -33.5 132.5s-12.5 95.166 -12.5 146.499
c0 75.333 10.167 144 30.5 206s49.5 115.167 87.5 159.5s84.333 78.666 139 102.999s116.334 36.5 185.001 36.5c52.667 0 103.834 -5 153.501 -15s92.834 -22.667 129.501 -38v-200c-40 15.333 -82 28 -126 38s-83.667 15 -119 15c-48.667 0 -85.5 -11.667 -110.5 -35
s-37.5 -55.666 -37.5 -96.999c0 -28 6 -57 18 -87s27.833 -61.333 47.5 -94s41.834 -67 66.501 -103s49.334 -74.333 74.001 -115c22 -36 43.333 -74 64 -114s39 -82.333 55 -127s28.833 -91.834 38.5 -141.501s14.5 -102.167 14.5 -157.5zM254.997 884.003
c0 -42 4.00488 -82.3359 12.0049 -121.003s18.667 -76.167 32 -112.5s28.666 -71.666 45.999 -105.999s35.666 -68.166 54.999 -101.499l77.5 -129c26.333 -42 50.166 -83.833 71.499 -125.5s38.666 -83.5 51.999 -125.5s20 -84.667 20 -128
c0 -22.667 -2 -45.334 -6 -68.001h14c13.333 26.667 22.666 57.5 27.999 92.5s8 70.5 8 106.5c0 42.667 -4.16699 83.834 -12.5 123.501s-19.333 78.167 -33 115.5s-29.5 73.5 -47.5 108.5s-37 69.5 -57 103.5l-76.5 126.5c-25.667 41 -48.834 82 -69.501 123
s-37.5 82 -50.5 123s-19.5 82.833 -19.5 125.5c0 22.667 2 45.334 6 68.001h-14c-13.333 -26.667 -22.666 -57.5 -27.999 -92.5s-8 -70.5 -8 -106.5z" />
    <glyph glyph-name="dieresis" unicode="&#xa8;" horiz-adv-x="800" 
d="M86 1412h218v-221h-218v221zM496 1412h218v-221h-218v221zM0 969z" />
    <glyph glyph-name="copyright" unicode="&#xa9;" horiz-adv-x="1686" 
d="M150 669c0 100 17.5 192.333 52.5 277s83.5 157.834 145.5 219.501s135.333 110 220 145s176.334 52.5 275.001 52.5s190.334 -17.5 275.001 -52.5s158 -83.333 220 -145s110.5 -134.834 145.5 -219.501s52.5 -177 52.5 -277s-17.5 -192.333 -52.5 -277
s-83.5 -157.834 -145.5 -219.501s-135.333 -110 -220 -145s-176.334 -52.5 -275.001 -52.5s-190.334 17.5 -275.001 52.5s-158 83.333 -220 145s-110.5 134.834 -145.5 219.501s-52.5 177 -52.5 277zM304 669c0 -75.333 13.167 -146.166 39.5 -212.499
s63.166 -124.333 110.499 -174s104 -88.834 170 -117.501s139 -43 219 -43s153 14.333 219 43s122.667 67.834 170 117.501s84.166 107.667 110.499 174s39.5 137.166 39.5 212.499s-13.167 146.166 -39.5 212.499s-63.166 124.333 -110.499 174s-104 88.834 -170 117.501
s-139 43 -219 43s-153 -14.333 -219 -43s-122.667 -67.834 -170 -117.501s-84.166 -107.667 -110.499 -174s-39.5 -137.166 -39.5 -212.499zM1046 302c-22 -8 -48.499 -14.334 -79.499 -19.001s-62.5 -7 -94.5 -7c-58.667 0 -112 8.5 -160 25.5s-89.167 41.667 -123.5 74
s-60.833 72.333 -79.5 120s-28 102.5 -28 164.5c0 60.667 9.83301 115.834 29.5 165.501s46.834 92.167 81.501 127.5s76 62.666 124 81.999s100 29 156 29c32 0 63.333 -2.5 94 -7.5s55 -11.833 73 -20.5v-165c-18.667 6.66699 -39.334 12 -62.001 16s-45.334 6 -68.001 6
c-30 0 -58.667 -4.66699 -86 -14s-51.333 -23.5 -72 -42.5s-37.167 -42.833 -49.5 -71.5s-18.5 -62.667 -18.5 -102c0 -38 5.5 -70.833 16.5 -98.5s26.667 -50.167 47 -67.5s44.666 -30.166 72.999 -38.499s59.5 -12.5 93.5 -12.5c10 0 20.833 0.5 32.5 1.5
s23.334 2.5 35.001 4.5s23.167 4.33301 34.5 7s21.333 5.66699 30 9z" />
    <glyph glyph-name="ordfeminine" unicode="&#xaa;" horiz-adv-x="815" 
d="M505 590l-4.00098 -0.00292969c-9.33301 -10.667 -20.166 -21.5 -32.499 -32.5s-26.333 -21.167 -42 -30.5s-33.5 -17 -53.5 -23s-42 -9 -66 -9c-38 0 -72 6 -102 18s-55.333 28.5 -76 49.5s-36.5 46.333 -47.5 76s-16.5 61.834 -16.5 96.501
c0 40 7.83301 74.833 23.5 104.5s36.5 54.167 62.5 73.5s55.5 33.666 88.5 42.999s66.833 14 101.5 14c24.667 0 50.167 -2.16699 76.5 -6.5s50.833 -10.166 73.5 -17.499v27c-0.666992 82 -50 123.333 -148 124c-33.333 0 -67.833 -3.66699 -103.5 -11
s-74.5 -19 -116.5 -35v169c51.333 14.667 99.166 24.667 143.499 30s78.833 8 103.5 8c62 0 114.833 -6.66699 158.5 -20s78.834 -32.833 105.501 -58.5s45.834 -57.167 57.501 -94.5s17.5 -79.666 17.5 -126.999v-229c0 -48 0.666992 -89.167 2 -123.5
s2.66602 -65.166 3.99902 -92.499h-199zM490.999 808.997c-14 4 -30.1699 7.66895 -48.5029 11.002s-34.833 5 -49.5 5c-19.333 0 -36.166 -2.5 -50.499 -7.5s-26.166 -11.833 -35.499 -20.5s-16.166 -18.334 -20.499 -29.001s-6.5 -21.667 -6.5 -33
c0 -22.667 7 -41.834 21 -57.501s35.667 -23.5 65 -23.5c26 0 50.333 6.5 73 19.5s40 27.5 52 43.5v92z" />
    <glyph glyph-name="guillemotleft" unicode="&#xab;" horiz-adv-x="1052" 
d="M75 474l286 386h203l-238 -386l238 -386h-203zM517 474l247 386h203l-199 -386l199 -386h-203z" />
    <glyph glyph-name="logicalnot" unicode="&#xac;" 
d="M966 627v-539h-200v348h-652v191h852z" />
    <glyph glyph-name="registered" unicode="&#xae;" horiz-adv-x="1270" 
d="M725 821l137 -200.999h-151l-120 189h-17v-189h-136v502h190c28.667 0 56.334 -2.66699 83.001 -8s50.167 -14 70.5 -26s36.666 -27.833 48.999 -47.5s18.5 -43.834 18.5 -72.501c0 -37.333 -11 -68 -33 -92s-52.333 -40.667 -91 -50v-5zM574 1028v-124.999h37
c32 0 55.833 5 71.5 15s23.5 26.667 23.5 50c0 17.333 -6 31.666 -18 42.999s-32 17 -60 17h-54zM140 869.002c0 71.333 12.833 137.166 38.5 197.499s60.667 112.5 105 156.5s96.666 78.333 156.999 103s125.166 37 194.499 37s134.166 -12.333 194.499 -37
s112.833 -59 157.5 -103s79.667 -96.167 105 -156.5s38 -126.166 38 -197.499s-12.667 -137.166 -38 -197.499s-60.333 -112.5 -105 -156.5s-97.167 -78.333 -157.5 -103s-125.166 -37 -194.499 -37s-134.166 12.333 -194.499 37s-112.666 59 -156.999 103
s-79.333 96.167 -105 156.5s-38.5 126.166 -38.5 197.499zM263 869.002c0 -53.333 8.83301 -103.166 26.5 -149.499s42.834 -86.833 75.501 -121.5s71.834 -61.834 117.501 -81.501s96.5 -29.5 152.5 -29.5s106.833 9.83301 152.5 29.5s84.834 46.834 117.501 81.501
s57.834 75.167 75.501 121.5s26.5 96.166 26.5 149.499s-8.83301 103.166 -26.5 149.499s-42.834 86.833 -75.501 121.5s-71.834 61.834 -117.501 81.501s-96.5 29.5 -152.5 29.5s-106.833 -9.83301 -152.5 -29.5s-84.834 -46.834 -117.501 -81.501
s-57.834 -75.167 -75.501 -121.5s-26.5 -96.166 -26.5 -149.499z" />
    <glyph glyph-name="macron" unicode="&#xaf;" horiz-adv-x="800" 
d="M120 1338h560v-167h-560v167zM0 969z" />
    <glyph glyph-name="macron" unicode="&#x2c9;" horiz-adv-x="800" 
d="M120 1338h560v-167h-560v167zM0 969z" />
    <glyph glyph-name="degree" unicode="&#xb0;" horiz-adv-x="836" 
d="M63 1012c0 50.667 9 97.5 27 140.5s43 80 75 111s69.667 55.333 113 73s90 26.5 140 26.5s96.667 -8.83301 140 -26.5s81 -42 113 -73s57 -68 75 -111s27 -89.833 27 -140.5s-9 -97.5 -27 -140.5s-43 -80 -75 -111s-69.667 -55.333 -113 -73s-90 -26.5 -140 -26.5
s-96.667 8.83301 -140 26.5s-81 42 -113 73s-57 68 -75 111s-27 89.833 -27 140.5zM258 1012c0 -23.333 4 -45.166 12 -65.499s19 -38 33 -53s30.833 -26.667 50.5 -35s41.167 -12.5 64.5 -12.5c24 0 45.833 4.16699 65.5 12.5s36.5 20 50.5 35s25 32.667 33 53
s12 42.166 12 65.499c0 24 -4 46.167 -12 66.5s-19 38 -33 53s-30.833 26.667 -50.5 35s-41.5 12.5 -65.5 12.5c-23.333 0 -44.833 -4.16699 -64.5 -12.5s-36.5 -20 -50.5 -35s-25 -32.667 -33 -53s-12 -42.5 -12 -66.5z" />
    <glyph glyph-name="plusminus" unicode="&#xb1;" 
d="M114 702h321v267h210v-267h321v-181h-321v-267h-210v267h-321v181zM966 0h-852v191h852v-191z" />
    <glyph glyph-name="uni00B2" unicode="&#xb2;" horiz-adv-x="687" 
d="M313 1363c42 0 81.166 -5.00293 117.499 -15.0029s67.833 -25 94.5 -45s47.667 -44.833 63 -74.5s23 -64.167 23 -103.5c0 -38 -6.16699 -73.5 -18.5 -106.5s-30.833 -66.5 -55.5 -100.5s-55.834 -69.833 -93.501 -107.5l-131.5 -126.5l1 -3c44.667 4 87.334 6 128.001 6
h201v-174h-593v139l149.5 150c43 44 78.833 83.833 107.5 119.5s50.334 67.834 65.001 96.501s22 55.334 22 80.001c0 58.667 -38.667 88 -116 88c-58 0 -129.333 -20.667 -214 -62v180c76.667 38.667 160 58.334 250 59.001z" />
    <glyph glyph-name="uni00B3" unicode="&#xb3;" horiz-adv-x="656" 
d="M593 1138c0 -42 -9.33105 -79.667 -27.998 -113s-48 -59.333 -88 -78v-4c39.333 -11.333 71.5 -32.333 96.5 -63s37.5 -71 37.5 -121c0 -82 -30.167 -146.5 -90.5 -193.5s-149.5 -70.5 -267.5 -70.5c-74.667 0 -142.667 11.667 -204 35v178
c23.333 -10.667 51.833 -19.667 85.5 -27s69.5 -11 107.5 -11c50.667 0 88.5 8.66699 113.5 26s37.5 41 37.5 71c0 17.333 -3.33301 31.5 -10 42.5s-16 20 -28 27s-26 11.833 -42 14.5s-33.333 4 -52 4h-108v166h81c18.667 0 36.5 1.66699 53.5 5s32 8.5 45 15.5
s23.333 16 31 27s11.5 24.5 11.5 40.5c0 27.333 -11.667 47.333 -35 60s-53.666 19 -90.999 19c-32.667 0 -64.834 -3.16699 -96.501 -9.5s-61.834 -15.166 -90.501 -26.499v176c74 23.333 146 35 216 35c101.333 0 179.166 -20.333 233.499 -61s81.5 -95.334 81.5 -164.001
z" />
    <glyph glyph-name="acute" unicode="&#xb4;" horiz-adv-x="800" 
d="M588 1473l-165 -349h-184l119 349h230zM0 968z" />
    <glyph glyph-name="uni00B5" unicode="&#xb5;" horiz-adv-x="1180" 
d="M1190 -2c-16 -4 -34.332 -7.00098 -54.999 -9.00098s-38 -3 -52 -3c-58.667 0 -105 15.667 -139 47s-55.667 74.333 -65 129h-4c-16.667 -34 -35.834 -62.833 -57.501 -86.5s-45 -43 -70 -58s-51 -25.833 -78 -32.5s-54.5 -10 -82.5 -10c-20 0 -40.5 2.33301 -61.5 7
s-41 11.5 -60 20.5s-36.5 20.5 -52.5 34.5s-29 30.333 -39 49h-5c1.33301 -13.333 3 -31.166 5 -53.499s4 -47.833 6 -76.5s3.66699 -60 5 -94s2 -69 2 -105v-222h-237v1434h237v-523c0 -27.333 0.833008 -51.5 2.5 -72.5s4.83398 -39.167 9.50098 -54.5
c13.333 -46 35.166 -80.167 65.499 -102.5s68.5 -33.5 114.5 -33.5c48 0 90.333 11.667 127 35s64 58.666 82 105.999c7.33301 20 12.833 43.833 16.5 71.5s5.5 60.834 5.5 99.501v474h237v-619c0 -25.333 1.16699 -48 3.5 -68s7 -36.833 14 -50.5s16.667 -24.167 29 -31.5
s28.5 -11 48.5 -11c16.667 0 32.667 1.66699 48 5v-196z" />
    <glyph glyph-name="paragraph" unicode="&#xb6;" horiz-adv-x="1224" 
d="M498 -387l-0.00195312 708.001c-60.667 12 -115.667 32.667 -165 62s-91.666 65.666 -126.999 108.999s-62.666 93 -81.999 149s-29 117 -29 183c0 76 12.833 145.5 38.5 208.5s61.667 117.167 108 162.5s101.5 80.5 165.5 105.5s140 37.5 228 37.5h429v-1725h-195v1538
h-176v-1538h-195z" />
    <glyph glyph-name="periodcentered" unicode="&#xb7;" horiz-adv-x="599" 
d="M165 625h269v-267h-269v267z" />
    <glyph glyph-name="periodcentered" unicode="&#x2219;" horiz-adv-x="599" 
d="M165 625h269v-267h-269v267z" />
    <glyph glyph-name="cedilla" unicode="&#xb8;" horiz-adv-x="800" 
d="M333 9l149.998 0.00390625l-35 -127c26.667 -4 51.334 -10.5 74.001 -19.5s42.334 -20.667 59.001 -35s29.667 -31 39 -50s14 -40.167 14 -63.5c0 -28 -6.5 -54.333 -19.5 -79s-32.5 -46.334 -58.5 -65.001s-58.333 -33.334 -97 -44.001s-83.667 -16 -135 -16
c-28 0 -54.833 1.83301 -80.5 5.5s-45.5 8.16699 -59.5 13.5v146c16 -5.33301 36.5 -9.5 61.5 -12.5s47.833 -4.5 68.5 -4.5c26 0 47.5 2 64.5 6s30.5 9.16699 40.5 15.5s17 13.166 21 20.499s6 14.666 6 21.999c0 20.667 -14.5 36 -43.5 46s-74.5 15.667 -136.5 17z" />
    <glyph glyph-name="uni00B9" unicode="&#xb9;" horiz-adv-x="695" 
d="M268 687v461l-211 -63v179l246 87h177v-664h176v-174h-586v174h198z" />
    <glyph glyph-name="ordmasculine" unicode="&#xba;" horiz-adv-x="876" 
d="M439 495c-56 0 -107 8.83301 -153 26.5s-85.333 43 -118 76s-58 73 -76 120s-27 99.833 -27 158.5s9.16699 111.5 27.5 158.5s44 87 77 120s72.333 58.5 118 76.5s95.834 27 150.501 27s104.834 -9 150.501 -27s85 -43.5 118 -76.5s58.667 -73 77 -120
s27.5 -99.833 27.5 -158.5s-8.83301 -111.5 -26.5 -158.5s-42.834 -87 -75.501 -120s-71.834 -58.333 -117.501 -76s-96.5 -26.5 -152.5 -26.5zM439 672c48 0 85.667 16.5 113 49.5s41 84.5 41 154.5s-14 121.667 -42 155s-65.667 50 -113 50s-85 -16.667 -113 -50
s-42 -85 -42 -155s14 -121.5 42 -154.5s66 -49.5 114 -49.5z" />
    <glyph glyph-name="guillemotright" unicode="&#xbb;" horiz-adv-x="1052" 
d="M691 88h-203l238 386l-238 386h203l286 -386zM288 88h-203l199 386l-199 386h203l247 -386z" />
    <glyph glyph-name="onequarter" unicode="&#xbc;" horiz-adv-x="1731" 
d="M268 687v461l-211 -63v179l246 87h177v-664h176v-174h-586v174h198zM1345 511c-34 -82.667 -61 -140.333 -81 -173l1 -3c32 3.33301 69.667 5 113 5h31v125h202v-125h100v-170h-100v-161h-202v161h-351v133l207 531h212zM1496 1273l-976 -1308l-130 100l976 1308z" />
    <glyph glyph-name="onehalf" unicode="&#xbd;" horiz-adv-x="1852" 
d="M268 687v461l-211 -63v179l246 87h177v-664h176v-174h-586v174h198zM1496 1273l-976 -1308l-130 100l976 1308zM1478 859c42 0 81.166 -5.00293 117.499 -15.0029s67.833 -25 94.5 -45s47.667 -44.833 63 -74.5s23 -64.167 23 -103.5c0 -38 -6.16699 -73.5 -18.5 -106.5
s-30.833 -66.5 -55.5 -100.5s-55.834 -69.833 -93.501 -107.5l-131.5 -126.5l1 -3c44.667 4 87.334 6 128.001 6h201v-174h-593v139l149.5 150c43 44 78.833 83.833 107.5 119.5s50.334 67.834 65.001 96.501s22 55.334 22 80.001c0 58.667 -38.667 88 -116 88
c-58 0 -129.333 -20.667 -214 -62v180c76.667 38.667 160 58.334 250 59.001z" />
    <glyph glyph-name="threequarters" unicode="&#xbe;" horiz-adv-x="1653" 
d="M1267 511c-34 -82.667 -61 -140.333 -81 -173l1 -3c32 3.33301 69.667 5 113 5h31v125h202v-125h100v-170h-100v-161h-202v161h-351v133l207 531h212zM1401 1273l-976 -1308l-130 100l976 1308zM593 1138c0 -42 -9.33105 -79.667 -27.998 -113s-48 -59.333 -88 -78v-4
c39.333 -11.333 71.5 -32.333 96.5 -63s37.5 -71 37.5 -121c0 -82 -30.167 -146.5 -90.5 -193.5s-149.5 -70.5 -267.5 -70.5c-74.667 0 -142.667 11.667 -204 35v178c23.333 -10.667 51.833 -19.667 85.5 -27s69.5 -11 107.5 -11c50.667 0 88.5 8.66699 113.5 26
s37.5 41 37.5 71c0 17.333 -3.33301 31.5 -10 42.5s-16 20 -28 27s-26 11.833 -42 14.5s-33.333 4 -52 4h-108v166h81c18.667 0 36.5 1.66699 53.5 5s32 8.5 45 15.5s23.333 16 31 27s11.5 24.5 11.5 40.5c0 27.333 -11.667 47.333 -35 60s-53.666 19 -90.999 19
c-32.667 0 -64.834 -3.16699 -96.501 -9.5s-61.834 -15.166 -90.501 -26.499v176c74 23.333 146 35 216 35c101.333 0 179.166 -20.333 233.499 -61s81.5 -95.334 81.5 -164.001z" />
    <glyph glyph-name="questiondown" unicode="&#xbf;" horiz-adv-x="920" 
d="M684 702h-269v267h269v-267zM89 -89c0 44 5.49902 81.998 16.499 113.998s25.333 60 43 84s37.834 45.333 60.501 64s45.334 36.334 68.001 53.001l62 46.5c20 15.667 37.667 33 53 52s27.666 40.5 36.999 64.5s14 52 14 84v16h223c0.666992 -6 1.16699 -13.5 1.5 -22.5
s0.5 -16.167 0.5 -21.5c0 -40.667 -4.5 -76.667 -13.5 -108s-21 -59 -36 -83s-32.167 -45 -51.5 -63s-39 -34.667 -59 -50l-63.5 -45.5c-21 -14.333 -39.667 -29.5 -56 -45.5s-29.5 -33.667 -39.5 -53s-15 -42 -15 -68c0 -44.667 16.333 -80.5 49 -107.5
s83.667 -40.5 153 -40.5c51.333 0 101.833 6.33301 151.5 19s93.5 27.667 131.5 45v-193c-20 -9.33301 -42.5 -18 -67.5 -26s-51 -14.833 -78 -20.5s-54.667 -10.167 -83 -13.5s-55.833 -5 -82.5 -5c-66 0 -125 7.33301 -177 22s-95.833 35.834 -131.5 63.501
s-63 61.5 -82 101.5s-28.5 85.667 -28.5 137z" />
    <glyph glyph-name="Agrave" unicode="&#xc0;" horiz-adv-x="1346" 
d="M926 341h-504l-131 -341h-261l531 1338h224l531 -1338h-259zM672 1016c-46.667 -140 -88.332 -257 -124.999 -351l-46 -119h346l-46 119c-36.667 94.667 -78.334 211.667 -125.001 351h-4zM640.002 1656l138 -247h-188l-190 247h240zM234.002 1338z" />
    <glyph glyph-name="Aacute" unicode="&#xc1;" horiz-adv-x="1346" 
d="M926 341h-504l-131 -341h-261l531 1338h224l531 -1338h-259zM672 1016c-46.667 -140 -88.332 -257 -124.999 -351l-46 -119h346l-46 119c-36.667 94.667 -78.334 211.667 -125.001 351h-4zM947.002 1656l-190 -247h-188l138 247h240zM391.002 1338z" />
    <glyph glyph-name="Acircumflex" unicode="&#xc2;" horiz-adv-x="1346" 
d="M926 341h-504l-131 -341h-261l531 1338h224l531 -1338h-259zM672 1016c-46.667 -140 -88.332 -257 -124.999 -351l-46 -119h346l-46 119c-36.667 94.667 -78.334 211.667 -125.001 351h-4zM572.002 1656h206l216 -247h-207l-110 126h-4l-111 -126h-206zM275.002 1338z
" />
    <glyph glyph-name="Atilde" unicode="&#xc3;" horiz-adv-x="1346" 
d="M926 341h-504l-131 -341h-261l531 1338h224l531 -1338h-259zM672 1016c-46.667 -140 -88.332 -257 -124.999 -351l-46 -119h346l-46 119c-36.667 94.667 -78.334 211.667 -125.001 351h-4zM524.002 1656c26 0 51.668 -4.49902 77.001 -13.499s49 -19.167 71 -30.5
c23.333 -12.667 45.166 -23.834 65.499 -33.501s37.833 -14.5 52.5 -14.5c18.667 0 31.834 6.33301 39.501 19s11.5 34.334 11.5 65.001h157c0.666992 -10 1 -21 1 -33c0 -25.333 -2.83301 -50.666 -8.5 -75.999s-15.667 -48.333 -30 -69s-33.333 -37 -57 -49
s-51.5 -18 -83.5 -18c-26.667 0 -52.334 4.5 -77.001 13.5s-48 19.167 -70 30.5l-65.5 33c-20.333 10 -38.166 15 -53.499 15c-18.667 0 -31.834 -6.33301 -39.501 -19s-11.5 -34.334 -11.5 -65.001h-157c-0.666992 10.667 -1 21.667 -1 33c0 26 2.83301 51.667 8.5 77
s15.667 48.166 30 68.499s33.333 36.5 57 48.5s51.5 18 83.5 18zM272.003 1339z" />
    <glyph glyph-name="Adieresis" unicode="&#xc4;" horiz-adv-x="1346" 
d="M926 341h-504l-131 -341h-261l531 1338h224l531 -1338h-259zM672 1016c-46.667 -140 -88.332 -257 -124.999 -351l-46 -119h346l-46 119c-36.667 94.667 -78.334 211.667 -125.001 351h-4zM354.002 1673h224v-225h-224v225zM766.002 1673h224v-225h-224v225z
M272.002 1338z" />
    <glyph glyph-name="Aring" unicode="&#xc5;" horiz-adv-x="1346" 
d="M926 341h-504l-131 -341h-261l531 1338h224l531 -1338h-259zM672 1016c-46.667 -140 -88.332 -257 -124.999 -351l-46 -119h346l-46 119c-36.667 94.667 -78.334 211.667 -125.001 351h-4zM671.002 1367c-36 0 -69.333 4.33301 -100 13s-57 21.5 -79 38.5
s-39.333 37.667 -52 62s-19 51.833 -19 82.5c0 31.333 6.33301 59 19 83s30 44.5 52 61.5s48.333 29.833 79 38.5s64 13 100 13s69.333 -4.33301 100 -13s57 -21.5 79 -38.5s39.333 -37.5 52 -61.5s19 -51.667 19 -83c0 -30.667 -6.33301 -58.167 -19 -82.5s-30 -45 -52 -62
s-48.333 -29.833 -79 -38.5s-64 -13 -100 -13zM671.002 1648c-28.667 0 -52.667 -7.16699 -72 -21.5s-29 -35.5 -29 -63.5s9.66699 -49.167 29 -63.5s43.333 -21.5 72 -21.5s52.667 7.16699 72 21.5s29 35.5 29 63.5s-9.66699 49.167 -29 63.5s-43.333 21.5 -72 21.5z
M271.002 1338z" />
    <glyph glyph-name="AE" unicode="&#xc6;" horiz-adv-x="1913" 
d="M1221 205h622v-205h-831l-48 341h-510l-168 -341h-261l668 1338h1040v-205h-642l49 -346h498v-205h-470zM555 546h380l-82 587h-8z" />
    <glyph glyph-name="Ccedilla" unicode="&#xc7;" horiz-adv-x="1197" 
d="M599 -7c-82.667 16.667 -155.174 44.002 -217.507 82.002s-114.333 85.167 -156 141.5s-73 120.666 -94 192.999s-31.5 150.833 -31.5 235.5c0 102 15.5 196.833 46.5 284.5s76.167 163.5 135.5 227.5s132.333 114.333 219 151s185.334 55 296.001 55
c58.667 0 112.834 -3.83301 162.501 -11.5s94.834 -18.5 135.501 -32.5v-208c-52.667 16.667 -102.667 28.334 -150 35.001s-92 10 -134 10c-66.667 0 -128.167 -11 -184.5 -33s-104.666 -54 -144.999 -96s-71.833 -93.833 -94.5 -155.5s-34 -132.167 -34 -211.5
c0 -78.667 10.333 -147.834 31 -207.501s50.334 -109.5 89.001 -149.5s85.834 -70.167 141.501 -90.5s118.834 -30.5 189.501 -30.5c53.333 0 107.333 4.5 162 13.5s101.667 20.167 141 33.5v-211c-46.667 -13.333 -97 -23.833 -151 -31.5s-110 -11.5 -168 -11.5
c-10.667 0 -20.334 0.166992 -29.001 0.5s-13.334 0.5 -14.001 0.5l-26 -94c27.333 -4 52.166 -10.5 74.499 -19.5s41.833 -20.667 58.5 -35s29.667 -31 39 -50s14 -40.167 14 -63.5c0 -28 -6.66699 -54.333 -20 -79s-32.833 -46.334 -58.5 -65.001
s-58.667 -33.334 -99 -44.001s-84.5 -16 -132.5 -16c-25.333 0 -51.5 1.83301 -78.5 5.5s-47.5 8.16699 -61.5 13.5v146c14.667 -4.66699 34.834 -8.66699 60.501 -12s48.834 -5 69.501 -5c24.667 0 45.834 2 63.501 6s31.5 9.16699 41.5 15.5s17 13.333 21 21
s6 14.834 6 21.501c0 20.667 -14.5 36 -43.5 46s-74.5 15.667 -136.5 17z" />
    <glyph glyph-name="Egrave" unicode="&#xc8;" horiz-adv-x="1163" 
d="M405 205h658v-205h-903v1338h867v-205h-622v-346h534v-205h-534v-377zM582 1656l138 -247h-188l-190 247h240zM176 1338z" />
    <glyph glyph-name="Eacute" unicode="&#xc9;" horiz-adv-x="1163" 
d="M405 205h658v-205h-903v1338h867v-205h-622v-346h534v-205h-534v-377zM852 1656l-190 -247h-188l138 247h240zM296 1338z" />
    <glyph glyph-name="Ecircumflex" unicode="&#xca;" horiz-adv-x="1163" 
d="M405 205h658v-205h-903v1338h867v-205h-622v-346h534v-205h-534v-377zM498 1656h206l216 -247h-207l-110 126h-4l-111 -126h-206zM201 1338z" />
    <glyph glyph-name="Edieresis" unicode="&#xcb;" horiz-adv-x="1163" 
d="M405 205h658v-205h-903v1338h867v-205h-622v-346h534v-205h-534v-377zM283 1673h224v-225h-224v225zM695 1673h224v-225h-224v225zM201 1338z" />
    <glyph glyph-name="Igrave" unicode="&#xcc;" horiz-adv-x="565" 
d="M160 0v1338h245v-1338h-245zM276 1656l138 -247h-188l-190 247h240zM-130 1338z" />
    <glyph glyph-name="Iacute" unicode="&#xcd;" horiz-adv-x="565" 
d="M160 0v1338h245v-1338h-245zM552 1656l-190 -247h-188l138 247h240zM-4 1338z" />
    <glyph glyph-name="Icircumflex" unicode="&#xce;" horiz-adv-x="565" 
d="M160 0v1338h245v-1338h-245zM187 1656h206l216 -247h-207l-110 126h-4l-111 -126h-206zM-110 1338z" />
    <glyph glyph-name="Idieresis" unicode="&#xcf;" horiz-adv-x="565" 
d="M160 0v1338h245v-1338h-245zM-28 1673h224v-225h-224v225zM384 1673h224v-225h-224v225zM-110 1338z" />
    <glyph glyph-name="Eth" unicode="&#xd0;" horiz-adv-x="1483" 
d="M60 787l171 0.00195312v551h355c31.333 0 63.166 -1 95.499 -3s63.833 -5 94.5 -9s60.334 -8.83301 89.001 -14.5s55 -12.5 79 -20.5c71.333 -22.667 134.333 -53.334 189 -92.001s100.5 -84.334 137.5 -137.001s65 -111.5 84 -176.5s28.5 -135.5 28.5 -211.5
c0 -72 -8 -139.5 -24 -202.5s-40.333 -120.5 -73 -172.5s-73.834 -97.833 -123.501 -137.5s-108.5 -72.167 -176.5 -97.5c-56.667 -21.333 -120.667 -37.333 -192 -48s-152.666 -16 -243.999 -16h-319v582h-171v205zM577 205.002c143.333 0 255.333 19.667 336 59
c71.333 35.333 125.333 86.666 162 153.999s55 153.333 55 258c0 54.667 -6 104 -18 148s-29.333 83.167 -52 117.5s-50.167 63.833 -82.5 88.5s-68.833 45 -109.5 61c-38 14.667 -80.333 25.334 -127 32.001s-99 10 -157 10h-108v-346h347v-205h-347v-377h101z" />
    <glyph glyph-name="Ntilde" unicode="&#xd1;" horiz-adv-x="1490" 
d="M857 716c96 -136.667 174 -258.001 234 -364.001h6c-8 174 -12 300.667 -12 380v606h245v-1338h-257l-436 616c-76.667 106.667 -156 230.334 -238 371.001h-6c8 -164 12 -291 12 -381v-606h-245v1338h257zM602 1656c26 0 51.668 -4.49902 77.001 -13.499
s49 -19.167 71 -30.5c23.333 -12.667 45.166 -23.834 65.499 -33.501s37.833 -14.5 52.5 -14.5c18.667 0 31.834 6.33301 39.501 19s11.5 34.334 11.5 65.001h157c0.666992 -10 1 -21 1 -33c0 -25.333 -2.83301 -50.666 -8.5 -75.999s-15.667 -48.333 -30 -69
s-33.333 -37 -57 -49s-51.5 -18 -83.5 -18c-26.667 0 -52.334 4.5 -77.001 13.5s-48 19.167 -70 30.5l-65.5 33c-20.333 10 -38.166 15 -53.499 15c-18.667 0 -31.834 -6.33301 -39.501 -19s-11.5 -34.334 -11.5 -65.001h-157c-0.666992 10.667 -1 21.667 -1 33
c0 26 2.83301 51.667 8.5 77s15.667 48.166 30 68.499s33.333 36.5 57 48.5s51.5 18 83.5 18zM350.001 1339z" />
    <glyph glyph-name="Ograve" unicode="&#xd2;" horiz-adv-x="1504" 
d="M1151 669c0 81.333 -10 152.5 -30 213.5s-47.667 111.833 -83 152.5s-77.333 71 -126 91s-102 30 -160 30s-111.333 -10 -160 -30s-90.667 -50.333 -126 -91s-63 -91.5 -83 -152.5s-30 -132.167 -30 -213.5s10 -152.5 30 -213.5s47.667 -111.667 83 -152
s77.333 -70.666 126 -90.999s102 -30.5 160 -30.5s111.333 10.167 160 30.5s90.667 50.666 126 90.999s63 91 83 152s30 132.167 30 213.5zM1404 669c0 -102 -14.5 -195.5 -43.5 -280.5s-71.333 -158.167 -127 -219.5s-124 -109 -205 -143s-173.167 -51 -276.5 -51
s-195.5 17 -276.5 51s-149.333 81.667 -205 143s-98 134.5 -127 219.5s-43.5 178.5 -43.5 280.5s14.5 195.5 43.5 280.5s71.333 158.167 127 219.5s124 109 205 143s173.167 51 276.5 51s195.5 -17 276.5 -51s149.333 -81.667 205 -143s98 -134.5 127 -219.5
s43.5 -178.5 43.5 -280.5zM710 1656l138 -247h-188l-190 247h240zM304 1338z" />
    <glyph glyph-name="Oacute" unicode="&#xd3;" horiz-adv-x="1504" 
d="M1151 669c0 81.333 -10 152.5 -30 213.5s-47.667 111.833 -83 152.5s-77.333 71 -126 91s-102 30 -160 30s-111.333 -10 -160 -30s-90.667 -50.333 -126 -91s-63 -91.5 -83 -152.5s-30 -132.167 -30 -213.5s10 -152.5 30 -213.5s47.667 -111.667 83 -152
s77.333 -70.666 126 -90.999s102 -30.5 160 -30.5s111.333 10.167 160 30.5s90.667 50.666 126 90.999s63 91 83 152s30 132.167 30 213.5zM1404 669c0 -102 -14.5 -195.5 -43.5 -280.5s-71.333 -158.167 -127 -219.5s-124 -109 -205 -143s-173.167 -51 -276.5 -51
s-195.5 17 -276.5 51s-149.333 81.667 -205 143s-98 134.5 -127 219.5s-43.5 178.5 -43.5 280.5s14.5 195.5 43.5 280.5s71.333 158.167 127 219.5s124 109 205 143s173.167 51 276.5 51s195.5 -17 276.5 -51s149.333 -81.667 205 -143s98 -134.5 127 -219.5
s43.5 -178.5 43.5 -280.5zM1032 1656l-190 -247h-188l138 247h240zM476 1338z" />
    <glyph glyph-name="Ocircumflex" unicode="&#xd4;" horiz-adv-x="1504" 
d="M1151 669c0 81.333 -10 152.5 -30 213.5s-47.667 111.833 -83 152.5s-77.333 71 -126 91s-102 30 -160 30s-111.333 -10 -160 -30s-90.667 -50.333 -126 -91s-63 -91.5 -83 -152.5s-30 -132.167 -30 -213.5s10 -152.5 30 -213.5s47.667 -111.667 83 -152
s77.333 -70.666 126 -90.999s102 -30.5 160 -30.5s111.333 10.167 160 30.5s90.667 50.666 126 90.999s63 91 83 152s30 132.167 30 213.5zM1404 669c0 -102 -14.5 -195.5 -43.5 -280.5s-71.333 -158.167 -127 -219.5s-124 -109 -205 -143s-173.167 -51 -276.5 -51
s-195.5 17 -276.5 51s-149.333 81.667 -205 143s-98 134.5 -127 219.5s-43.5 178.5 -43.5 280.5s14.5 195.5 43.5 280.5s71.333 158.167 127 219.5s124 109 205 143s173.167 51 276.5 51s195.5 -17 276.5 -51s149.333 -81.667 205 -143s98 -134.5 127 -219.5
s43.5 -178.5 43.5 -280.5zM649 1656h206l216 -247h-207l-110 126h-4l-111 -126h-206zM352 1338z" />
    <glyph glyph-name="Otilde" unicode="&#xd5;" horiz-adv-x="1504" 
d="M1151 669c0 81.333 -10 152.5 -30 213.5s-47.667 111.833 -83 152.5s-77.333 71 -126 91s-102 30 -160 30s-111.333 -10 -160 -30s-90.667 -50.333 -126 -91s-63 -91.5 -83 -152.5s-30 -132.167 -30 -213.5s10 -152.5 30 -213.5s47.667 -111.667 83 -152
s77.333 -70.666 126 -90.999s102 -30.5 160 -30.5s111.333 10.167 160 30.5s90.667 50.666 126 90.999s63 91 83 152s30 132.167 30 213.5zM1404 669c0 -102 -14.5 -195.5 -43.5 -280.5s-71.333 -158.167 -127 -219.5s-124 -109 -205 -143s-173.167 -51 -276.5 -51
s-195.5 17 -276.5 51s-149.333 81.667 -205 143s-98 134.5 -127 219.5s-43.5 178.5 -43.5 280.5s14.5 195.5 43.5 280.5s71.333 158.167 127 219.5s124 109 205 143s173.167 51 276.5 51s195.5 -17 276.5 -51s149.333 -81.667 205 -143s98 -134.5 127 -219.5
s43.5 -178.5 43.5 -280.5zM611 1656c26 0 51.668 -4.49902 77.001 -13.499s49 -19.167 71 -30.5c23.333 -12.667 45.166 -23.834 65.499 -33.501s37.833 -14.5 52.5 -14.5c18.667 0 31.834 6.33301 39.501 19s11.5 34.334 11.5 65.001h157c0.666992 -10 1 -21 1 -33
c0 -25.333 -2.83301 -50.666 -8.5 -75.999s-15.667 -48.333 -30 -69s-33.333 -37 -57 -49s-51.5 -18 -83.5 -18c-26.667 0 -52.334 4.5 -77.001 13.5s-48 19.167 -70 30.5l-65.5 33c-20.333 10 -38.166 15 -53.499 15c-18.667 0 -31.834 -6.33301 -39.501 -19
s-11.5 -34.334 -11.5 -65.001h-157c-0.666992 10.667 -1 21.667 -1 33c0 26 2.83301 51.667 8.5 77s15.667 48.166 30 68.499s33.333 36.5 57 48.5s51.5 18 83.5 18zM359.001 1339z" />
    <glyph glyph-name="Odieresis" unicode="&#xd6;" horiz-adv-x="1504" 
d="M1151 669c0 81.333 -10 152.5 -30 213.5s-47.667 111.833 -83 152.5s-77.333 71 -126 91s-102 30 -160 30s-111.333 -10 -160 -30s-90.667 -50.333 -126 -91s-63 -91.5 -83 -152.5s-30 -132.167 -30 -213.5s10 -152.5 30 -213.5s47.667 -111.667 83 -152
s77.333 -70.666 126 -90.999s102 -30.5 160 -30.5s111.333 10.167 160 30.5s90.667 50.666 126 90.999s63 91 83 152s30 132.167 30 213.5zM1404 669c0 -102 -14.5 -195.5 -43.5 -280.5s-71.333 -158.167 -127 -219.5s-124 -109 -205 -143s-173.167 -51 -276.5 -51
s-195.5 17 -276.5 51s-149.333 81.667 -205 143s-98 134.5 -127 219.5s-43.5 178.5 -43.5 280.5s14.5 195.5 43.5 280.5s71.333 158.167 127 219.5s124 109 205 143s173.167 51 276.5 51s195.5 -17 276.5 -51s149.333 -81.667 205 -143s98 -134.5 127 -219.5
s43.5 -178.5 43.5 -280.5zM437 1673h224v-225h-224v225zM849 1673h224v-225h-224v225zM355 1338z" />
    <glyph glyph-name="multiply" unicode="&#xd7;" 
d="M980 227l-135 -135l-306 305l-305 -305l-135 135l305 305l-305 306l135 135l305 -306l306 306l135 -135l-306 -306z" />
    <glyph glyph-name="Oslash" unicode="&#xd8;" horiz-adv-x="1504" 
d="M241 -25l-141.001 132.998l118 128c-38.667 58 -68 123.333 -88 196s-30 151.667 -30 237c0 102 14.5 195.5 43.5 280.5s71.333 158.167 127 219.5s124 109 205 143s173.167 51 276.5 51c80.667 0 154.334 -10.5 221.001 -31.5s126 -50.833 178 -89.5l112 121l141 -133
l-119 -128c39.333 -58.667 69 -124.167 89 -196.5s30 -151.166 30 -236.499c0 -102 -14.5 -195.5 -43.5 -280.5s-71.333 -158.167 -127 -219.5s-124 -109 -205 -143s-173.167 -51 -276.5 -51c-80.667 0 -154.5 10.333 -221.5 31s-126.5 50.334 -178.5 89.001zM1151 668.998
c0 48 -3.5 92.167 -10.5 132.5s-17.167 77.5 -30.5 111.5l-603 -650c33.333 -27.333 70.5 -47.666 111.5 -60.999s85.5 -20 133.5 -20c58 0 111.333 10.167 160 30.5s90.667 50.666 126 90.999s63 91 83 152s30 132.167 30 213.5zM751.999 1156
c-58 0 -111.333 -9.99902 -160 -29.999s-90.667 -50.333 -126 -91s-63 -91.5 -83 -152.5s-30 -132.167 -30 -213.5c0 -48 3.33301 -92.167 10 -132.5s16.667 -77.5 30 -111.5l603 650c-33.333 27.333 -70.5 47.666 -111.5 60.999s-85.167 20 -132.5 20z" />
    <glyph glyph-name="Ugrave" unicode="&#xd9;" horiz-adv-x="1434" 
d="M714 -25c-70 0 -132.999 6.83301 -188.999 20.5s-105.333 33.334 -148 59.001s-79 57 -109 94s-54 78.833 -72 125.5c-14.667 37.333 -25.167 78.666 -31.5 123.999s-9.5 96 -9.5 152v788h245v-766c0 -94.667 11.333 -168.667 34 -222
c25.333 -59.333 62.333 -102.166 111 -128.499s106 -39.5 172 -39.5s123.333 13.167 172 39.5s85.667 69.166 111 128.499c22.667 53.333 34 127.333 34 222v766h245v-788c0 -56 -3.16699 -106.667 -9.5 -152s-16.833 -86.666 -31.5 -123.999
c-18 -46.667 -42.167 -88.5 -72.5 -125.5s-67.333 -68.333 -111 -94s-93.834 -45.334 -150.501 -59.001s-120 -20.5 -190 -20.5zM692.001 1656l138 -247h-188l-190 247h240zM286.001 1338z" />
    <glyph glyph-name="Uacute" unicode="&#xda;" horiz-adv-x="1434" 
d="M714 -25c-70 0 -132.999 6.83301 -188.999 20.5s-105.333 33.334 -148 59.001s-79 57 -109 94s-54 78.833 -72 125.5c-14.667 37.333 -25.167 78.666 -31.5 123.999s-9.5 96 -9.5 152v788h245v-766c0 -94.667 11.333 -168.667 34 -222
c25.333 -59.333 62.333 -102.166 111 -128.499s106 -39.5 172 -39.5s123.333 13.167 172 39.5s85.667 69.166 111 128.499c22.667 53.333 34 127.333 34 222v766h245v-788c0 -56 -3.16699 -106.667 -9.5 -152s-16.833 -86.666 -31.5 -123.999
c-18 -46.667 -42.167 -88.5 -72.5 -125.5s-67.333 -68.333 -111 -94s-93.834 -45.334 -150.501 -59.001s-120 -20.5 -190 -20.5zM1003 1656l-190 -247h-188l138 247h240zM447.001 1338z" />
    <glyph glyph-name="Ucircumflex" unicode="&#xdb;" horiz-adv-x="1434" 
d="M714 -25c-70 0 -132.999 6.83301 -188.999 20.5s-105.333 33.334 -148 59.001s-79 57 -109 94s-54 78.833 -72 125.5c-14.667 37.333 -25.167 78.666 -31.5 123.999s-9.5 96 -9.5 152v788h245v-766c0 -94.667 11.333 -168.667 34 -222
c25.333 -59.333 62.333 -102.166 111 -128.499s106 -39.5 172 -39.5s123.333 13.167 172 39.5s85.667 69.166 111 128.499c22.667 53.333 34 127.333 34 222v766h245v-788c0 -56 -3.16699 -106.667 -9.5 -152s-16.833 -86.666 -31.5 -123.999
c-18 -46.667 -42.167 -88.5 -72.5 -125.5s-67.333 -68.333 -111 -94s-93.834 -45.334 -150.501 -59.001s-120 -20.5 -190 -20.5zM613.001 1656h206l216 -247h-207l-110 126h-4l-111 -126h-206zM316.001 1338z" />
    <glyph glyph-name="Udieresis" unicode="&#xdc;" horiz-adv-x="1434" 
d="M714 -25c-70 0 -132.999 6.83301 -188.999 20.5s-105.333 33.334 -148 59.001s-79 57 -109 94s-54 78.833 -72 125.5c-14.667 37.333 -25.167 78.666 -31.5 123.999s-9.5 96 -9.5 152v788h245v-766c0 -94.667 11.333 -168.667 34 -222
c25.333 -59.333 62.333 -102.166 111 -128.499s106 -39.5 172 -39.5s123.333 13.167 172 39.5s85.667 69.166 111 128.499c22.667 53.333 34 127.333 34 222v766h245v-788c0 -56 -3.16699 -106.667 -9.5 -152s-16.833 -86.666 -31.5 -123.999
c-18 -46.667 -42.167 -88.5 -72.5 -125.5s-67.333 -68.333 -111 -94s-93.834 -45.334 -150.501 -59.001s-120 -20.5 -190 -20.5zM400.001 1673h224v-225h-224v225zM812.001 1673h224v-225h-224v225zM318.001 1338z" />
    <glyph glyph-name="Yacute" unicode="&#xdd;" horiz-adv-x="1299" 
d="M651 762l356 576h272l-507 -799v-539h-245v539l-507 799h272l356 -576h3zM936 1656l-190 -247h-188l138 247h240zM380 1338z" />
    <glyph glyph-name="Thorn" unicode="&#xde;" horiz-adv-x="1230" 
d="M405 482c14 -2 31.832 -3.5 53.499 -4.5s44.167 -1.5 67.5 -1.5c64 0 118.833 5.33301 164.5 16s82 25.5 109 44.5s46.667 42 59 69s18.5 56.5 18.5 88.5c0 40 -9.16699 74.333 -27.5 103s-49.5 50.667 -93.5 66c-23.333 8 -52.166 13.833 -86.499 17.5
s-76.5 5.5 -126.5 5.5h-138v-404zM545.999 1091c64.667 0 121.166 -2.83203 169.499 -8.49902s91.5 -14.167 129.5 -25.5c91.333 -28 161.666 -72.833 210.999 -134.5s74 -139.5 74 -233.5c0 -64.667 -13.333 -122.834 -40 -174.501s-65.667 -95.5 -117 -131.5
s-114.166 -63.667 -188.499 -83s-158.833 -29 -253.5 -29c-25.333 0 -49.666 0.5 -72.999 1.5s-41 2.16699 -53 3.5v-276h-245v1338h245v-247h141z" />
    <glyph glyph-name="germandbls" unicode="&#xdf;" horiz-adv-x="1273" 
d="M1032 1173c0 -36 -5.66211 -68.5 -16.9951 -97.5s-25.5 -54.167 -42.5 -75.5s-35.333 -41 -55 -59s-38 -35.667 -55 -53s-31.167 -35.333 -42.5 -54s-17 -39.667 -17 -63c0 -19.333 5.16699 -36.333 15.5 -51s24.166 -28 41.499 -40s36.666 -23.333 57.999 -34l70 -35
c26 -13.333 51.5 -28.166 76.5 -44.499s47.333 -35.666 67 -57.999s35.667 -48.833 48 -79.5s18.5 -67 18.5 -109c0 -52.667 -9.83301 -100.167 -29.5 -142.5s-47.334 -78.5 -83.001 -108.5s-78.5 -53.167 -128.5 -69.5s-105.667 -24.5 -167 -24.5
c-54 0 -102.833 4.5 -146.5 13.5s-77.834 19.833 -102.501 32.5v191c42 -16 81.167 -27.5 117.5 -34.5s72.833 -10.5 109.5 -10.5c59.333 0 106.833 12.333 142.5 37s53.5 61 53.5 109c0 22.667 -5 42.167 -15 58.5s-23.5 30.833 -40.5 43.5s-36.167 24 -57.5 34l-67 31
c-26 12 -51.833 25 -77.5 39s-48.667 31.333 -69 52s-36.833 45.5 -49.5 74.5s-19 63.833 -19 104.5c0 38 5.66699 71.667 17 101s25.5 55.666 42.5 78.999s35.333 44.5 55 63.5s38 37.667 55 56s31.167 37.166 42.5 56.499s17 40 17 62c0 34 -13.833 61.167 -41.5 81.5
s-69.167 30.833 -124.5 31.5c-43.333 0 -81 -7.33301 -113 -22s-58.5 -35.5 -79.5 -62.5s-36.667 -59.333 -47 -97s-15.5 -79.5 -15.5 -125.5v-974h-237v983c0 73.333 11 140 33 200s53.833 111.5 95.5 154.5s93 76.333 154 100s129.833 35.5 206.5 35.5
c66 0 124.667 -8.33301 176 -25s93.666 -39 126.999 -67s58.333 -60 75 -96s25 -73.333 25 -112z" />
    <glyph glyph-name="agrave" unicode="&#xe0;" horiz-adv-x="1054" 
d="M700 103l-4.00098 -0.000976562c-13.333 -14 -29.333 -28.333 -48 -43s-40 -28.5 -64 -41.5s-50.667 -23.5 -80 -31.5s-61 -12 -95 -12c-46 0 -89 7.16699 -129 21.5s-74.333 35 -103 62s-51.167 59.667 -67.5 98s-24.5 81.166 -24.5 128.499c0 52 9.5 98.667 28.5 140
s45.5 76.333 79.5 105s74.667 50.5 122 65.5s99.666 22.5 156.999 22.5c42 0 80.667 -2.66699 116 -8s66.333 -11.666 93 -18.999v39c0 22.667 -3.83301 44.5 -11.5 65.5s-20 39.667 -37 56s-39.167 29.333 -66.5 39s-60.666 14.5 -99.999 14.5c-48 0 -96 -5.33301 -144 -16
s-100 -26.667 -156 -48v185c48.667 21.333 100.334 37.666 155.001 48.999s112 17.333 172 18c70.667 0 132.5 -8.66699 185.5 -26s97.333 -41.166 133 -71.499s62.334 -66.166 80.001 -107.499s26.5 -86.333 26.5 -135v-365c0 -64 0.666992 -119 2 -165
s2.66602 -87 3.99902 -123h-214zM680.999 412.999c-22.667 5.33301 -48.666 10.167 -77.999 14.5s-59 6.5 -89 6.5c-58 0 -103.833 -11.5 -137.5 -34.5s-50.5 -58.167 -50.5 -105.5c0 -22 3.83301 -41.167 11.5 -57.5s18 -29.833 31 -40.5s28.167 -18.667 45.5 -24
s35.666 -8 54.999 -8c24 0 46.667 3.16699 68 9.5s41 14.333 59 24s34.167 20.5 48.5 32.5s26.5 23.667 36.5 35v148zM500 1473l119 -349h-184l-165 349h230zM42 969z" />
    <glyph glyph-name="aacute" unicode="&#xe1;" horiz-adv-x="1054" 
d="M700 103l-4.00098 -0.000976562c-13.333 -14 -29.333 -28.333 -48 -43s-40 -28.5 -64 -41.5s-50.667 -23.5 -80 -31.5s-61 -12 -95 -12c-46 0 -89 7.16699 -129 21.5s-74.333 35 -103 62s-51.167 59.667 -67.5 98s-24.5 81.166 -24.5 128.499c0 52 9.5 98.667 28.5 140
s45.5 76.333 79.5 105s74.667 50.5 122 65.5s99.666 22.5 156.999 22.5c42 0 80.667 -2.66699 116 -8s66.333 -11.666 93 -18.999v39c0 22.667 -3.83301 44.5 -11.5 65.5s-20 39.667 -37 56s-39.167 29.333 -66.5 39s-60.666 14.5 -99.999 14.5c-48 0 -96 -5.33301 -144 -16
s-100 -26.667 -156 -48v185c48.667 21.333 100.334 37.666 155.001 48.999s112 17.333 172 18c70.667 0 132.5 -8.66699 185.5 -26s97.333 -41.166 133 -71.499s62.334 -66.166 80.001 -107.499s26.5 -86.333 26.5 -135v-365c0 -64 0.666992 -119 2 -165
s2.66602 -87 3.99902 -123h-214zM680.999 412.999c-22.667 5.33301 -48.666 10.167 -77.999 14.5s-59 6.5 -89 6.5c-58 0 -103.833 -11.5 -137.5 -34.5s-50.5 -58.167 -50.5 -105.5c0 -22 3.83301 -41.167 11.5 -57.5s18 -29.833 31 -40.5s28.167 -18.667 45.5 -24
s35.666 -8 54.999 -8c24 0 46.667 3.16699 68 9.5s41 14.333 59 24s34.167 20.5 48.5 32.5s26.5 23.667 36.5 35v148zM754 1473l-165 -349h-184l119 349h230zM166 968z" />
    <glyph glyph-name="acircumflex" unicode="&#xe2;" horiz-adv-x="1054" 
d="M700 103l-4.00098 -0.000976562c-13.333 -14 -29.333 -28.333 -48 -43s-40 -28.5 -64 -41.5s-50.667 -23.5 -80 -31.5s-61 -12 -95 -12c-46 0 -89 7.16699 -129 21.5s-74.333 35 -103 62s-51.167 59.667 -67.5 98s-24.5 81.166 -24.5 128.499c0 52 9.5 98.667 28.5 140
s45.5 76.333 79.5 105s74.667 50.5 122 65.5s99.666 22.5 156.999 22.5c42 0 80.667 -2.66699 116 -8s66.333 -11.666 93 -18.999v39c0 22.667 -3.83301 44.5 -11.5 65.5s-20 39.667 -37 56s-39.167 29.333 -66.5 39s-60.666 14.5 -99.999 14.5c-48 0 -96 -5.33301 -144 -16
s-100 -26.667 -156 -48v185c48.667 21.333 100.334 37.666 155.001 48.999s112 17.333 172 18c70.667 0 132.5 -8.66699 185.5 -26s97.333 -41.166 133 -71.499s62.334 -66.166 80.001 -107.499s26.5 -86.333 26.5 -135v-365c0 -64 0.666992 -119 2 -165
s2.66602 -87 3.99902 -123h-214zM680.999 412.999c-22.667 5.33301 -48.666 10.167 -77.999 14.5s-59 6.5 -89 6.5c-58 0 -103.833 -11.5 -137.5 -34.5s-50.5 -58.167 -50.5 -105.5c0 -22 3.83301 -41.167 11.5 -57.5s18 -29.833 31 -40.5s28.167 -18.667 45.5 -24
s35.666 -8 54.999 -8c24 0 46.667 3.16699 68 9.5s41 14.333 59 24s34.167 20.5 48.5 32.5s26.5 23.667 36.5 35v148zM422 1473h206l210 -349h-185l-126 212h-4l-126 -212h-185zM125 969z" />
    <glyph glyph-name="atilde" unicode="&#xe3;" horiz-adv-x="1054" 
d="M700 103l-4.00098 -0.000976562c-13.333 -14 -29.333 -28.333 -48 -43s-40 -28.5 -64 -41.5s-50.667 -23.5 -80 -31.5s-61 -12 -95 -12c-46 0 -89 7.16699 -129 21.5s-74.333 35 -103 62s-51.167 59.667 -67.5 98s-24.5 81.166 -24.5 128.499c0 52 9.5 98.667 28.5 140
s45.5 76.333 79.5 105s74.667 50.5 122 65.5s99.666 22.5 156.999 22.5c42 0 80.667 -2.66699 116 -8s66.333 -11.666 93 -18.999v39c0 22.667 -3.83301 44.5 -11.5 65.5s-20 39.667 -37 56s-39.167 29.333 -66.5 39s-60.666 14.5 -99.999 14.5c-48 0 -96 -5.33301 -144 -16
s-100 -26.667 -156 -48v185c48.667 21.333 100.334 37.666 155.001 48.999s112 17.333 172 18c70.667 0 132.5 -8.66699 185.5 -26s97.333 -41.166 133 -71.499s62.334 -66.166 80.001 -107.499s26.5 -86.333 26.5 -135v-365c0 -64 0.666992 -119 2 -165
s2.66602 -87 3.99902 -123h-214zM680.999 412.999c-22.667 5.33301 -48.666 10.167 -77.999 14.5s-59 6.5 -89 6.5c-58 0 -103.833 -11.5 -137.5 -34.5s-50.5 -58.167 -50.5 -105.5c0 -22 3.83301 -41.167 11.5 -57.5s18 -29.833 31 -40.5s28.167 -18.667 45.5 -24
s35.666 -8 54.999 -8c24 0 46.667 3.16699 68 9.5s41 14.333 59 24s34.167 20.5 48.5 32.5s26.5 23.667 36.5 35v148zM367 1406c27.333 0 53.334 -4.5 78.001 -13.5s48 -19.167 70 -30.5l65 -33c20 -10 37.667 -15 53 -15c18.667 0 31.834 6.33301 39.501 19
s11.5 34.334 11.5 65.001h157c0.666992 -8.66699 1 -21 1 -37c0 -19.333 -2.66699 -42.5 -8 -69.5s-15.333 -50.833 -30 -71.5s-33.834 -37 -57.501 -49s-51.5 -18 -83.5 -18c-26 0 -51.5 4.5 -76.5 13.5s-49.167 19.5 -72.5 31.5c-24.667 12.667 -47 23.667 -67 33
s-36.667 14 -50 14c-18.667 0 -31.834 -6.33301 -39.501 -19s-11.5 -34.334 -11.5 -65.001h-157c-0.666992 13.333 -1 22 -1 26c0 28.667 2.5 55.5 7.5 80.5s15 48.333 30 70s34.333 38.5 58 50.5s51.5 18 83.5 18zM156.001 969z" />
    <glyph glyph-name="adieresis" unicode="&#xe4;" horiz-adv-x="1054" 
d="M700 103l-4.00098 -0.000976562c-13.333 -14 -29.333 -28.333 -48 -43s-40 -28.5 -64 -41.5s-50.667 -23.5 -80 -31.5s-61 -12 -95 -12c-46 0 -89 7.16699 -129 21.5s-74.333 35 -103 62s-51.167 59.667 -67.5 98s-24.5 81.166 -24.5 128.499c0 52 9.5 98.667 28.5 140
s45.5 76.333 79.5 105s74.667 50.5 122 65.5s99.666 22.5 156.999 22.5c42 0 80.667 -2.66699 116 -8s66.333 -11.666 93 -18.999v39c0 22.667 -3.83301 44.5 -11.5 65.5s-20 39.667 -37 56s-39.167 29.333 -66.5 39s-60.666 14.5 -99.999 14.5c-48 0 -96 -5.33301 -144 -16
s-100 -26.667 -156 -48v185c48.667 21.333 100.334 37.666 155.001 48.999s112 17.333 172 18c70.667 0 132.5 -8.66699 185.5 -26s97.333 -41.166 133 -71.499s62.334 -66.166 80.001 -107.499s26.5 -86.333 26.5 -135v-365c0 -64 0.666992 -119 2 -165
s2.66602 -87 3.99902 -123h-214zM680.999 412.999c-22.667 5.33301 -48.666 10.167 -77.999 14.5s-59 6.5 -89 6.5c-58 0 -103.833 -11.5 -137.5 -34.5s-50.5 -58.167 -50.5 -105.5c0 -22 3.83301 -41.167 11.5 -57.5s18 -29.833 31 -40.5s28.167 -18.667 45.5 -24
s35.666 -8 54.999 -8c24 0 46.667 3.16699 68 9.5s41 14.333 59 24s34.167 20.5 48.5 32.5s26.5 23.667 36.5 35v148zM205 1412h218v-221h-218v221zM615 1412h218v-221h-218v221zM119 969z" />
    <glyph glyph-name="aring" unicode="&#xe5;" horiz-adv-x="1054" 
d="M700 103l-4.00098 -0.000976562c-13.333 -14 -29.333 -28.333 -48 -43s-40 -28.5 -64 -41.5s-50.667 -23.5 -80 -31.5s-61 -12 -95 -12c-46 0 -89 7.16699 -129 21.5s-74.333 35 -103 62s-51.167 59.667 -67.5 98s-24.5 81.166 -24.5 128.499c0 52 9.5 98.667 28.5 140
s45.5 76.333 79.5 105s74.667 50.5 122 65.5s99.666 22.5 156.999 22.5c42 0 80.667 -2.66699 116 -8s66.333 -11.666 93 -18.999v39c0 22.667 -3.83301 44.5 -11.5 65.5s-20 39.667 -37 56s-39.167 29.333 -66.5 39s-60.666 14.5 -99.999 14.5c-48 0 -96 -5.33301 -144 -16
s-100 -26.667 -156 -48v185c48.667 21.333 100.334 37.666 155.001 48.999s112 17.333 172 18c70.667 0 132.5 -8.66699 185.5 -26s97.333 -41.166 133 -71.499s62.334 -66.166 80.001 -107.499s26.5 -86.333 26.5 -135v-365c0 -64 0.666992 -119 2 -165
s2.66602 -87 3.99902 -123h-214zM680.999 412.999c-22.667 5.33301 -48.666 10.167 -77.999 14.5s-59 6.5 -89 6.5c-58 0 -103.833 -11.5 -137.5 -34.5s-50.5 -58.167 -50.5 -105.5c0 -22 3.83301 -41.167 11.5 -57.5s18 -29.833 31 -40.5s28.167 -18.667 45.5 -24
s35.666 -8 54.999 -8c24 0 46.667 3.16699 68 9.5s41 14.333 59 24s34.167 20.5 48.5 32.5s26.5 23.667 36.5 35v148zM509 1090c-36 0 -69.333 4.66699 -100 14s-57 22.833 -79 40.5s-39.333 39.167 -52 64.5s-19 54 -19 86s6.33301 60.667 19 86s30 46.833 52 64.5
s48.333 31.167 79 40.5s64 14 100 14s69.333 -4.66699 100 -14s57 -22.833 79 -40.5s39.333 -39.167 52 -64.5s19 -54 19 -86s-6.33301 -60.667 -19 -86s-30 -46.833 -52 -64.5s-48.333 -31.167 -79 -40.5s-64 -14 -100 -14zM509 1387c-28.667 0 -52.667 -7.83301 -72 -23.5
s-29 -38.5 -29 -68.5s9.66699 -52.833 29 -68.5s43.333 -23.5 72 -23.5s52.667 7.83301 72 23.5s29 38.5 29 68.5s-9.66699 52.833 -29 68.5s-43.333 23.5 -72 23.5zM109 969z" />
    <glyph glyph-name="ae" unicode="&#xe6;" horiz-adv-x="1635" 
d="M493 993c43.333 0 82.166 -3.99805 116.499 -11.998s64.666 -19.167 90.999 -33.5s49 -31.333 68 -51s34.833 -41.5 47.5 -65.5h4c38 52 84 92 138 120s114 42 180 42c57.333 0 110.666 -9.33301 159.999 -28s92.333 -48 129 -88s65.5 -91.167 86.5 -153.5
s31.5 -137.166 31.5 -224.499c0 -17.333 -0.5 -33 -1.5 -47s-1.5 -26.667 -1.5 -38h-635c3.33301 -44.667 13.333 -82.834 30 -114.501s38.5 -57.334 65.5 -77.001s58.5 -34 94.5 -43s75 -13.5 117 -13.5c46 0 93.833 4.66699 143.5 14s100.5 22.666 152.5 39.999v-189
c-20.667 -8 -44 -15.5 -70 -22.5s-53.667 -13 -83 -18s-59.666 -8.83301 -90.999 -11.5s-62.666 -4 -93.999 -4c-74 0 -142.333 10.833 -205 32.5s-116 55.5 -160 101.5h-4c-22.667 -18 -48 -35 -76 -51s-58 -30.167 -90 -42.5s-65.333 -22.166 -100 -29.499
s-70 -11 -106 -11c-52 0 -99.333 7.16699 -142 21.5s-79.167 35 -109.5 62s-53.666 59.667 -69.999 98s-24.5 81.166 -24.5 128.499c0 52 9.5 98.667 28.5 140s45.5 76.333 79.5 105s74.833 50.5 122.5 65.5s99.834 22.5 156.501 22.5c44 0 83.167 -2.83301 117.5 -8.5
s64.166 -11.834 89.499 -18.501h2v35c0 24 -3.83301 46.667 -11.5 68s-20 40.333 -37 57s-39.167 29.834 -66.5 39.501s-60.666 14.5 -99.999 14.5c-46 0 -93.333 -5.33301 -142 -16s-101.334 -26.667 -158.001 -48v185c48 21.333 100.5 37.833 157.5 49.5
s113.5 17.5 169.5 17.5zM469 164.002c26 0 51.334 3.16895 76.001 9.50195s47.5 14.166 68.5 23.499s39.833 19.5 56.5 30.5s30.334 20.833 41.001 29.5c-17.333 48 -28 100 -32 156c-22.667 5.33301 -48.834 10.166 -78.501 14.499s-58.5 6.5 -86.5 6.5
c-57.333 0 -103 -11.167 -137 -33.5s-51 -57.833 -51 -106.5c0 -22 3.83301 -41.167 11.5 -57.5s18 -29.833 31 -40.5s28.167 -18.667 45.5 -24s35.666 -8 54.999 -8zM1123 808.004c-30 0 -56.667 -5.5 -80 -16.5s-43.5 -26 -60.5 -45s-30.5 -41.167 -40.5 -66.5
s-16.667 -52.333 -20 -81h381c0 28.667 -3.83301 55.667 -11.5 81s-19 47.5 -34 66.5s-33.667 34 -56 45s-48.5 16.5 -78.5 16.5z" />
    <glyph glyph-name="ccedilla" unicode="&#xe7;" horiz-adv-x="903" 
d="M419 -5c-49.333 13.333 -94.8379 32.833 -136.505 58.5s-77.5 58.167 -107.5 97.5s-53.333 85.5 -70 138.5s-25 112.833 -25 179.5c0 94.667 15.167 175.167 45.5 241.5s69.5 120.5 117.5 162.5s101.5 72.5 160.5 91.5s117.5 28.5 175.5 28.5
c43.333 0 85 -3.83301 125 -11.5s76.333 -18.167 109 -31.5v-193c-29.333 12.667 -60.5 22.834 -93.5 30.501s-68.5 11.5 -106.5 11.5s-74.333 -5.66699 -109 -17s-65.167 -29.833 -91.5 -55.5s-47.5 -59 -63.5 -100s-24 -91.5 -24 -151.5
c0 -42.667 5.83301 -82.667 17.5 -120s29.334 -69.666 53.001 -96.999s53.334 -49 89.001 -65s77.5 -24 125.5 -24c42.667 0 82.334 4.5 119.001 13.5s69.667 19.5 99 31.5v-193c-28.667 -12 -64.5 -22.667 -107.5 -32s-89.5 -14 -139.5 -14h-19l-24 -93
c26.667 -4 51.334 -10.5 74.001 -19.5s42.334 -20.667 59.001 -35s29.667 -31 39 -50s14 -40.167 14 -63.5c0 -28 -6.5 -54.167 -19.5 -78.5s-32.5 -46 -58.5 -65s-58.833 -33.833 -98.5 -44.5s-84.167 -16 -133.5 -16c-25.333 0 -51.5 1.83301 -78.5 5.5
s-47.5 8.16699 -61.5 13.5v146c18 -5.33301 38.833 -9.5 62.5 -12.5s45.5 -4.5 65.5 -4.5c24.667 0 46.167 2 64.5 6s32.5 9.16699 42.5 15.5s17 13.166 21 20.499s6 14.666 6 21.999c0 20.667 -14.5 36 -43.5 46s-74.5 15.667 -136.5 17z" />
    <glyph glyph-name="egrave" unicode="&#xe8;" horiz-adv-x="1050" 
d="M526 1473l119 -349h-184l-165 349h230zM629 166c46 0 94 4.66895 144 14.002s100.667 22.666 152 39.999v-189c-30.667 -13.333 -77.667 -26 -141 -38s-129 -18 -197 -18c-68.667 0 -133.834 8.83301 -195.501 26.5s-115.5 46.167 -161.5 85.5s-82.5 90.333 -109.5 153
s-40.5 138.667 -40.5 228c0 88 12.667 165 38 231s59.333 120.667 102 164s91.5 75.833 146.5 97.5s111.833 32.5 170.5 32.5c61.333 0 117.833 -9.33301 169.5 -28s96.334 -48 134.001 -88s67 -91.5 88 -154.5s31.5 -137.5 31.5 -223.5
c-0.666992 -33.333 -1.66699 -61.666 -3 -84.999h-635c3.33301 -44.667 13.333 -82.834 30 -114.501s38.5 -57.334 65.5 -77.001s58.5 -34 94.5 -43s75 -13.5 117 -13.5zM534 808.002c-30 0 -56.667 -5.5 -80 -16.5s-43.5 -26 -60.5 -45s-30.5 -41.167 -40.5 -66.5
s-16.667 -52.333 -20 -81h381c0 28.667 -3.83301 55.667 -11.5 81s-19 47.5 -34 66.5s-33.667 34 -56 45s-48.5 16.5 -78.5 16.5z" />
    <glyph glyph-name="eacute" unicode="&#xe9;" horiz-adv-x="1050" 
d="M787 1473l-165 -349h-184l119 349h230zM629 166c46 0 94 4.66895 144 14.002s100.667 22.666 152 39.999v-189c-30.667 -13.333 -77.667 -26 -141 -38s-129 -18 -197 -18c-68.667 0 -133.834 8.83301 -195.501 26.5s-115.5 46.167 -161.5 85.5s-82.5 90.333 -109.5 153
s-40.5 138.667 -40.5 228c0 88 12.667 165 38 231s59.333 120.667 102 164s91.5 75.833 146.5 97.5s111.833 32.5 170.5 32.5c61.333 0 117.833 -9.33301 169.5 -28s96.334 -48 134.001 -88s67 -91.5 88 -154.5s31.5 -137.5 31.5 -223.5
c-0.666992 -33.333 -1.66699 -61.666 -3 -84.999h-635c3.33301 -44.667 13.333 -82.834 30 -114.501s38.5 -57.334 65.5 -77.001s58.5 -34 94.5 -43s75 -13.5 117 -13.5zM534 808.002c-30 0 -56.667 -5.5 -80 -16.5s-43.5 -26 -60.5 -45s-30.5 -41.167 -40.5 -66.5
s-16.667 -52.333 -20 -81h381c0 28.667 -3.83301 55.667 -11.5 81s-19 47.5 -34 66.5s-33.667 34 -56 45s-48.5 16.5 -78.5 16.5z" />
    <glyph glyph-name="ecircumflex" unicode="&#xea;" horiz-adv-x="1050" 
d="M428 1473h206l210 -349h-185l-126 212h-4l-126 -212h-185zM629 166c46 0 94 4.66895 144 14.002s100.667 22.666 152 39.999v-189c-30.667 -13.333 -77.667 -26 -141 -38s-129 -18 -197 -18c-68.667 0 -133.834 8.83301 -195.501 26.5s-115.5 46.167 -161.5 85.5
s-82.5 90.333 -109.5 153s-40.5 138.667 -40.5 228c0 88 12.667 165 38 231s59.333 120.667 102 164s91.5 75.833 146.5 97.5s111.833 32.5 170.5 32.5c61.333 0 117.833 -9.33301 169.5 -28s96.334 -48 134.001 -88s67 -91.5 88 -154.5s31.5 -137.5 31.5 -223.5
c-0.666992 -33.333 -1.66699 -61.666 -3 -84.999h-635c3.33301 -44.667 13.333 -82.834 30 -114.501s38.5 -57.334 65.5 -77.001s58.5 -34 94.5 -43s75 -13.5 117 -13.5zM534 808.002c-30 0 -56.667 -5.5 -80 -16.5s-43.5 -26 -60.5 -45s-30.5 -41.167 -40.5 -66.5
s-16.667 -52.333 -20 -81h381c0 28.667 -3.83301 55.667 -11.5 81s-19 47.5 -34 66.5s-33.667 34 -56 45s-48.5 16.5 -78.5 16.5z" />
    <glyph glyph-name="edieresis" unicode="&#xeb;" horiz-adv-x="1050" 
d="M221 1412h218v-221h-218v221zM631 1412h218v-221h-218v221zM629 166c46 0 94 4.66895 144 14.002s100.667 22.666 152 39.999v-189c-30.667 -13.333 -77.667 -26 -141 -38s-129 -18 -197 -18c-68.667 0 -133.834 8.83301 -195.501 26.5s-115.5 46.167 -161.5 85.5
s-82.5 90.333 -109.5 153s-40.5 138.667 -40.5 228c0 88 12.667 165 38 231s59.333 120.667 102 164s91.5 75.833 146.5 97.5s111.833 32.5 170.5 32.5c61.333 0 117.833 -9.33301 169.5 -28s96.334 -48 134.001 -88s67 -91.5 88 -154.5s31.5 -137.5 31.5 -223.5
c-0.666992 -33.333 -1.66699 -61.666 -3 -84.999h-635c3.33301 -44.667 13.333 -82.834 30 -114.501s38.5 -57.334 65.5 -77.001s58.5 -34 94.5 -43s75 -13.5 117 -13.5zM534 808.002c-30 0 -56.667 -5.5 -80 -16.5s-43.5 -26 -60.5 -45s-30.5 -41.167 -40.5 -66.5
s-16.667 -52.333 -20 -81h381c0 28.667 -3.83301 55.667 -11.5 81s-19 47.5 -34 66.5s-33.667 34 -56 45s-48.5 16.5 -78.5 16.5z" />
    <glyph glyph-name="igrave" unicode="&#xec;" horiz-adv-x="509" 
d="M136 969h237v-969h-237v969zM262 1473l119 -349h-184l-165 349h230zM-196 969z" />
    <glyph glyph-name="iacute" unicode="&#xed;" horiz-adv-x="509" 
d="M136 969h237v-969h-237v969zM504 1473l-165 -349h-184l119 349h230zM-84 968z" />
    <glyph glyph-name="icircumflex" unicode="&#xee;" horiz-adv-x="509" 
d="M136 969h237v-969h-237v969zM154 1473h206l210 -349h-185l-126 212h-4l-126 -212h-185zM-143 969z" />
    <glyph glyph-name="idieresis" unicode="&#xef;" horiz-adv-x="509" 
d="M136 969h237v-969h-237v969zM-50 1412h218v-221h-218v221zM360 1412h218v-221h-218v221zM-136 969z" />
    <glyph glyph-name="eth" unicode="&#xf0;" horiz-adv-x="1116" 
d="M939 1225l-161.998 -43.9961c35.333 -46 68.333 -95 99 -147s57.5 -106 80.5 -162s41.167 -114 54.5 -174s20 -121 20 -183c0 -86.667 -11.333 -163.667 -34 -231s-54.834 -123.833 -96.501 -169.5s-91.834 -80.334 -150.501 -104.001s-124 -35.5 -196 -35.5
c-72.667 0 -138.334 11.333 -197.001 34s-108.5 54.834 -149.5 96.501s-72.5 92.167 -94.5 151.5s-33 126 -33 200c0 65.333 10 127.166 30 185.499s48 109.166 84 152.499s78.833 77.666 128.5 102.999s103.167 38 160.5 38c52 0 97.167 -8.83301 135.5 -26.5
s70.833 -39.834 97.5 -66.501l4 2c-23.333 48.667 -50.333 95.667 -81 141s-63 89 -97 131l-275 -74l-51 162l202 55c-33.333 34.667 -67.166 67.667 -101.499 99s-68.833 61 -103.5 89h311c21.333 -18 43 -37.333 65 -58s44 -42.667 66 -66l233 64zM789.002 457.004
c0 43.333 -6.33398 82.8301 -19.001 118.497s-29.667 65.834 -51 90.501s-46.5 43.5 -75.5 56.5s-60.167 19.5 -93.5 19.5c-32 0 -61.667 -6.16699 -89 -18.5s-51 -30.5 -71 -54.5s-35.833 -54 -47.5 -90s-17.5 -76.667 -17.5 -122s5.66699 -86.166 17 -122.499
s27.333 -66.666 48 -90.999s45.334 -42.833 74.001 -55.5s60 -19 94 -19s65 6.33301 93 19s52.333 31.167 73 55.5s36.667 54.5 48 90.5s17 77 17 123z" />
    <glyph glyph-name="ntilde" unicode="&#xf1;" horiz-adv-x="1136" 
d="M348 834h4.00098c14 20 31.667 39.667 53 59s45.666 36.333 72.999 51s57.5 26.5 90.5 35.5s68.167 13.5 105.5 13.5c35.333 0 69.5 -4 102.5 -12s63.167 -20.5 90.5 -37.5s51.5 -39 72.5 -66s37.5 -59.167 49.5 -96.5c6.66699 -20.667 11.167 -43.167 13.5 -67.5
s3.5 -52.5 3.5 -84.5v-629h-237v592c0 26 -1 48.333 -3 67s-5.66699 35 -11 49c-12 30.667 -30.167 52.667 -54.5 66s-53.833 20 -88.5 20c-46 0 -90.167 -10.833 -132.5 -32.5s-79.833 -53.167 -112.5 -94.5v-667h-237v969h196zM423.001 1406
c27.333 0 53.334 -4.5 78.001 -13.5s48 -19.167 70 -30.5l65 -33c20 -10 37.667 -15 53 -15c18.667 0 31.834 6.33301 39.501 19s11.5 34.334 11.5 65.001h157c0.666992 -8.66699 1 -21 1 -37c0 -19.333 -2.66699 -42.5 -8 -69.5s-15.333 -50.833 -30 -71.5
s-33.834 -37 -57.501 -49s-51.5 -18 -83.5 -18c-26 0 -51.5 4.5 -76.5 13.5s-49.167 19.5 -72.5 31.5c-24.667 12.667 -47 23.667 -67 33s-36.667 14 -50 14c-18.667 0 -31.834 -6.33301 -39.501 -19s-11.5 -34.334 -11.5 -65.001h-157c-0.666992 13.333 -1 22 -1 26
c0 28.667 2.5 55.5 7.5 80.5s15 48.333 30 70s34.333 38.5 58 50.5s51.5 18 83.5 18zM212.002 969z" />
    <glyph glyph-name="ograve" unicode="&#xf2;" horiz-adv-x="1134" 
d="M809 484c0 51.333 -5.99805 96.666 -17.998 135.999s-28.667 72.333 -50 99s-47 46.667 -77 60s-62.667 20 -98 20c-34.667 0 -66.834 -6.66699 -96.501 -20s-55.167 -33.333 -76.5 -60s-38 -59.667 -50 -99s-18 -84.666 -18 -135.999s6 -96.666 18 -135.999
s28.833 -72.166 50.5 -98.499s47.334 -46.333 77.001 -60s62.167 -20.5 97.5 -20.5s67.666 6.83301 96.999 20.5s54.666 33.667 75.999 60s38 59.166 50 98.499s18 84.666 18 135.999zM1054 484c0 -76 -11.333 -145.333 -34 -208s-55.167 -116.334 -97.5 -161.001
s-93.5 -79.167 -153.5 -103.5s-127 -36.5 -201 -36.5c-76 0 -144.167 12.167 -204.5 36.5s-111.5 58.833 -153.5 103.5s-74.167 98.334 -96.5 161.001s-33.5 132 -33.5 208s11.333 145.333 34 208s55.167 116.334 97.5 161.001s93.5 79.167 153.5 103.5s127 36.5 201 36.5
c76 0 144.167 -12.167 204.5 -36.5s111.5 -58.833 153.5 -103.5s74.167 -98.334 96.5 -161.001s33.5 -132 33.5 -208zM541.002 1473l119 -349h-184l-165 349h230zM83.002 969z" />
    <glyph glyph-name="oacute" unicode="&#xf3;" horiz-adv-x="1134" 
d="M809 484c0 51.333 -5.99805 96.666 -17.998 135.999s-28.667 72.333 -50 99s-47 46.667 -77 60s-62.667 20 -98 20c-34.667 0 -66.834 -6.66699 -96.501 -20s-55.167 -33.333 -76.5 -60s-38 -59.667 -50 -99s-18 -84.666 -18 -135.999s6 -96.666 18 -135.999
s28.833 -72.166 50.5 -98.499s47.334 -46.333 77.001 -60s62.167 -20.5 97.5 -20.5s67.666 6.83301 96.999 20.5s54.666 33.667 75.999 60s38 59.166 50 98.499s18 84.666 18 135.999zM1054 484c0 -76 -11.333 -145.333 -34 -208s-55.167 -116.334 -97.5 -161.001
s-93.5 -79.167 -153.5 -103.5s-127 -36.5 -201 -36.5c-76 0 -144.167 12.167 -204.5 36.5s-111.5 58.833 -153.5 103.5s-74.167 98.334 -96.5 161.001s-33.5 132 -33.5 208s11.333 145.333 34 208s55.167 116.334 97.5 161.001s93.5 79.167 153.5 103.5s127 36.5 201 36.5
c76 0 144.167 -12.167 204.5 -36.5s111.5 -58.833 153.5 -103.5s74.167 -98.334 96.5 -161.001s33.5 -132 33.5 -208zM825.002 1473l-165 -349h-184l119 349h230zM237.002 968z" />
    <glyph glyph-name="ocircumflex" unicode="&#xf4;" horiz-adv-x="1134" 
d="M809 484c0 51.333 -5.99805 96.666 -17.998 135.999s-28.667 72.333 -50 99s-47 46.667 -77 60s-62.667 20 -98 20c-34.667 0 -66.834 -6.66699 -96.501 -20s-55.167 -33.333 -76.5 -60s-38 -59.667 -50 -99s-18 -84.666 -18 -135.999s6 -96.666 18 -135.999
s28.833 -72.166 50.5 -98.499s47.334 -46.333 77.001 -60s62.167 -20.5 97.5 -20.5s67.666 6.83301 96.999 20.5s54.666 33.667 75.999 60s38 59.166 50 98.499s18 84.666 18 135.999zM1054 484c0 -76 -11.333 -145.333 -34 -208s-55.167 -116.334 -97.5 -161.001
s-93.5 -79.167 -153.5 -103.5s-127 -36.5 -201 -36.5c-76 0 -144.167 12.167 -204.5 36.5s-111.5 58.833 -153.5 103.5s-74.167 98.334 -96.5 161.001s-33.5 132 -33.5 208s11.333 145.333 34 208s55.167 116.334 97.5 161.001s93.5 79.167 153.5 103.5s127 36.5 201 36.5
c76 0 144.167 -12.167 204.5 -36.5s111.5 -58.833 153.5 -103.5s74.167 -98.334 96.5 -161.001s33.5 -132 33.5 -208zM455.002 1473h206l210 -349h-185l-126 212h-4l-126 -212h-185zM158.002 969z" />
    <glyph glyph-name="otilde" unicode="&#xf5;" horiz-adv-x="1134" 
d="M809 484c0 51.333 -5.99805 96.666 -17.998 135.999s-28.667 72.333 -50 99s-47 46.667 -77 60s-62.667 20 -98 20c-34.667 0 -66.834 -6.66699 -96.501 -20s-55.167 -33.333 -76.5 -60s-38 -59.667 -50 -99s-18 -84.666 -18 -135.999s6 -96.666 18 -135.999
s28.833 -72.166 50.5 -98.499s47.334 -46.333 77.001 -60s62.167 -20.5 97.5 -20.5s67.666 6.83301 96.999 20.5s54.666 33.667 75.999 60s38 59.166 50 98.499s18 84.666 18 135.999zM1054 484c0 -76 -11.333 -145.333 -34 -208s-55.167 -116.334 -97.5 -161.001
s-93.5 -79.167 -153.5 -103.5s-127 -36.5 -201 -36.5c-76 0 -144.167 12.167 -204.5 36.5s-111.5 58.833 -153.5 103.5s-74.167 98.334 -96.5 161.001s-33.5 132 -33.5 208s11.333 145.333 34 208s55.167 116.334 97.5 161.001s93.5 79.167 153.5 103.5s127 36.5 201 36.5
c76 0 144.167 -12.167 204.5 -36.5s111.5 -58.833 153.5 -103.5s74.167 -98.334 96.5 -161.001s33.5 -132 33.5 -208zM414.002 1406c27.333 0 53.334 -4.5 78.001 -13.5s48 -19.167 70 -30.5l65 -33c20 -10 37.667 -15 53 -15c18.667 0 31.834 6.33301 39.501 19
s11.5 34.334 11.5 65.001h157c0.666992 -8.66699 1 -21 1 -37c0 -19.333 -2.66699 -42.5 -8 -69.5s-15.333 -50.833 -30 -71.5s-33.834 -37 -57.501 -49s-51.5 -18 -83.5 -18c-26 0 -51.5 4.5 -76.5 13.5s-49.167 19.5 -72.5 31.5c-24.667 12.667 -47 23.667 -67 33
s-36.667 14 -50 14c-18.667 0 -31.834 -6.33301 -39.501 -19s-11.5 -34.334 -11.5 -65.001h-157c-0.666992 13.333 -1 22 -1 26c0 28.667 2.5 55.5 7.5 80.5s15 48.333 30 70s34.333 38.5 58 50.5s51.5 18 83.5 18zM203.003 969z" />
    <glyph glyph-name="odieresis" unicode="&#xf6;" horiz-adv-x="1134" 
d="M809 484c0 51.333 -5.99805 96.666 -17.998 135.999s-28.667 72.333 -50 99s-47 46.667 -77 60s-62.667 20 -98 20c-34.667 0 -66.834 -6.66699 -96.501 -20s-55.167 -33.333 -76.5 -60s-38 -59.667 -50 -99s-18 -84.666 -18 -135.999s6 -96.666 18 -135.999
s28.833 -72.166 50.5 -98.499s47.334 -46.333 77.001 -60s62.167 -20.5 97.5 -20.5s67.666 6.83301 96.999 20.5s54.666 33.667 75.999 60s38 59.166 50 98.499s18 84.666 18 135.999zM1054 484c0 -76 -11.333 -145.333 -34 -208s-55.167 -116.334 -97.5 -161.001
s-93.5 -79.167 -153.5 -103.5s-127 -36.5 -201 -36.5c-76 0 -144.167 12.167 -204.5 36.5s-111.5 58.833 -153.5 103.5s-74.167 98.334 -96.5 161.001s-33.5 132 -33.5 208s11.333 145.333 34 208s55.167 116.334 97.5 161.001s93.5 79.167 153.5 103.5s127 36.5 201 36.5
c76 0 144.167 -12.167 204.5 -36.5s111.5 -58.833 153.5 -103.5s74.167 -98.334 96.5 -161.001s33.5 -132 33.5 -208zM250.002 1412h218v-221h-218v221zM660.002 1412h218v-221h-218v221zM164.002 969z" />
    <glyph glyph-name="divide" unicode="&#xf7;" 
d="M436 281h208v-207h-208v207zM436 989h208v-207h-208v207zM966 436h-852v191h852v-191z" />
    <glyph glyph-name="oslash" unicode="&#xf8;" horiz-adv-x="1134" 
d="M971 793c27.333 -42 48.001 -88.832 62.001 -140.499s21 -107.834 21 -168.501c0 -76 -11.333 -145.333 -34 -208s-55.167 -116.334 -97.5 -161.001s-93.5 -79.167 -153.5 -103.5s-127 -36.5 -201 -36.5c-58.667 0 -112.167 7 -160.5 21s-91.833 34.333 -130.5 61
l-78 -82l-119 111l83 88c-27.333 42 -48 88.833 -62 140.5s-21 108.167 -21 169.5c0 76 11.333 145.333 34 208s55.167 116.334 97.5 161.001s93.5 79.167 153.5 103.5s127 36.5 201 36.5c58 0 111.167 -7.16699 159.5 -21.5s92.166 -34.833 131.499 -61.5l78 83l119 -111z
M809.001 484.001c0 44.667 -4.66406 85.6689 -13.9971 123.002l-369 -391c39.333 -31.333 86.666 -47 141.999 -47c35.333 0 67.666 6.83301 96.999 20.5s54.666 33.667 75.999 60s38 59.166 50 98.499s18 84.666 18 135.999zM325.004 484.003
c0 -23.333 1.00098 -45.168 3.00098 -65.501s5.66699 -39.5 11 -57.5l368 391c-39.333 31.333 -86.333 47 -141 47c-34.667 0 -66.834 -6.66699 -96.501 -20s-55.167 -33.333 -76.5 -60s-38 -59.667 -50 -99s-18 -84.666 -18 -135.999z" />
    <glyph glyph-name="ugrave" unicode="&#xf9;" horiz-adv-x="1116" 
d="M558 -25c-97.333 0 -178.001 16.501 -242.001 49.501s-112.333 77.5 -145 133.5c-17.333 30 -30.166 63 -38.499 99s-12.5 76 -12.5 120v592h237v-567c0 -32.667 2.33301 -60.834 7 -84.501s11.667 -44.167 21 -61.5c16 -29.333 38.667 -51.166 68 -65.499
s64.333 -21.5 105 -21.5c42.667 0 79.167 8 109.5 24s53.166 40.333 68.499 73c15.333 31.333 23 75 23 131v572h237v-592c0 -78.667 -13.667 -145 -41 -199c-15.333 -30.667 -35.166 -58.5 -59.499 -83.5s-53 -46.333 -86 -64s-70.333 -31.334 -112 -41.001
s-88.167 -14.5 -139.5 -14.5zM534.999 1473l119 -349h-184l-165 349h230zM76.999 969.001z" />
    <glyph glyph-name="uacute" unicode="&#xfa;" horiz-adv-x="1116" 
d="M558 -25c-97.333 0 -178.001 16.501 -242.001 49.501s-112.333 77.5 -145 133.5c-17.333 30 -30.166 63 -38.499 99s-12.5 76 -12.5 120v592h237v-567c0 -32.667 2.33301 -60.834 7 -84.501s11.667 -44.167 21 -61.5c16 -29.333 38.667 -51.166 68 -65.499
s64.333 -21.5 105 -21.5c42.667 0 79.167 8 109.5 24s53.166 40.333 68.499 73c15.333 31.333 23 75 23 131v572h237v-592c0 -78.667 -13.667 -145 -41 -199c-15.333 -30.667 -35.166 -58.5 -59.499 -83.5s-53 -46.333 -86 -64s-70.333 -31.334 -112 -41.001
s-88.167 -14.5 -139.5 -14.5zM813.999 1473l-165 -349h-184l119 349h230zM225.999 968.001z" />
    <glyph glyph-name="ucircumflex" unicode="&#xfb;" horiz-adv-x="1116" 
d="M558 -25c-97.333 0 -178.001 16.501 -242.001 49.501s-112.333 77.5 -145 133.5c-17.333 30 -30.166 63 -38.499 99s-12.5 76 -12.5 120v592h237v-567c0 -32.667 2.33301 -60.834 7 -84.501s11.667 -44.167 21 -61.5c16 -29.333 38.667 -51.166 68 -65.499
s64.333 -21.5 105 -21.5c42.667 0 79.167 8 109.5 24s53.166 40.333 68.499 73c15.333 31.333 23 75 23 131v572h237v-592c0 -78.667 -13.667 -145 -41 -199c-15.333 -30.667 -35.166 -58.5 -59.499 -83.5s-53 -46.333 -86 -64s-70.333 -31.334 -112 -41.001
s-88.167 -14.5 -139.5 -14.5zM457.999 1473h206l210 -349h-185l-126 212h-4l-126 -212h-185zM160.999 969.001z" />
    <glyph glyph-name="udieresis" unicode="&#xfc;" horiz-adv-x="1116" 
d="M558 -25c-97.333 0 -178.001 16.501 -242.001 49.501s-112.333 77.5 -145 133.5c-17.333 30 -30.166 63 -38.499 99s-12.5 76 -12.5 120v592h237v-567c0 -32.667 2.33301 -60.834 7 -84.501s11.667 -44.167 21 -61.5c16 -29.333 38.667 -51.166 68 -65.499
s64.333 -21.5 105 -21.5c42.667 0 79.167 8 109.5 24s53.166 40.333 68.499 73c15.333 31.333 23 75 23 131v572h237v-592c0 -78.667 -13.667 -145 -41 -199c-15.333 -30.667 -35.166 -58.5 -59.499 -83.5s-53 -46.333 -86 -64s-70.333 -31.334 -112 -41.001
s-88.167 -14.5 -139.5 -14.5zM241.999 1412h218v-221h-218v221zM651.999 1412h218v-221h-218v221zM155.999 969.001z" />
    <glyph glyph-name="yacute" unicode="&#xfd;" horiz-adv-x="1052" 
d="M10 969h253.999l145 -351c54.667 -133.333 93.334 -232 116.001 -296h4c16.667 50 52 142.667 106 278l150 369h257l-624 -1434h-234l222 519zM784.999 1473l-165 -349h-184l119 349h230zM196.999 968z" />
    <glyph glyph-name="thorn" unicode="&#xfe;" horiz-adv-x="1126" 
d="M801 484c0 48.667 -5.00195 92.6631 -15.002 131.996s-24.5 73 -43.5 101s-42.667 49.5 -71 64.5s-61.166 22.5 -98.499 22.5c-22.667 0 -44.5 -3 -65.5 -9s-40.167 -13.667 -57.5 -23s-33 -19.666 -47 -30.999s-26 -22.666 -36 -33.999v-446
c10 -11.333 22 -22.666 36 -33.999s29.667 -21.666 47 -30.999s36.5 -17 57.5 -23s42.833 -9 65.5 -9c36.667 0 69.334 7.5 98.001 22.5s52.5 36.5 71.5 64.5s33.5 61.667 43.5 101s15 83.333 15 132zM1046 491.996c0 -88.667 -12.834 -166.002 -38.501 -232.002
s-58.834 -120 -99.501 -162s-86.334 -73 -137.001 -93s-101 -30 -151 -30c-55.333 0 -104.166 9.5 -146.499 28.5s-77.5 42.5 -105.5 70.5h-4c0.666992 -13.333 1.33398 -32.166 2.00098 -56.499s1 -50.833 1 -79.5v-403h-237v1913h237v-418
c0 -28.667 -0.333008 -55.167 -1 -79.5s-1.33398 -43.166 -2.00098 -56.499h4c28 28 63 51.5 105 70.5s91 28.5 147 28.5c50 0 100.333 -9.83301 151 -29.5s96.334 -50 137.001 -91s73.834 -93.333 99.501 -157s38.5 -138.167 38.5 -223.5z" />
    <glyph glyph-name="ydieresis" unicode="&#xff;" horiz-adv-x="1052" 
d="M10 969h253.999l145 -351c54.667 -133.333 93.334 -232 116.001 -296h4c16.667 50 52 142.667 106 278l150 369h257l-624 -1434h-234l222 519zM212.999 1412h218v-221h-218v221zM622.999 1412h218v-221h-218v221zM126.999 969z" />
    <glyph glyph-name="Amacron" unicode="&#x100;" horiz-adv-x="1346" 
d="M926 341h-504l-131 -341h-261l531 1338h224l531 -1338h-259zM672 1016c-46.667 -140 -88.332 -257 -124.999 -351l-46 -119h346l-46 119c-36.667 94.667 -78.334 211.667 -125.001 351h-4zM391.002 1617h560v-169h-560v169zM271.002 1338z" />
    <glyph glyph-name="amacron" unicode="&#x101;" horiz-adv-x="1054" 
d="M700 103l-4.00098 -0.000976562c-13.333 -14 -29.333 -28.333 -48 -43s-40 -28.5 -64 -41.5s-50.667 -23.5 -80 -31.5s-61 -12 -95 -12c-46 0 -89 7.16699 -129 21.5s-74.333 35 -103 62s-51.167 59.667 -67.5 98s-24.5 81.166 -24.5 128.499c0 52 9.5 98.667 28.5 140
s45.5 76.333 79.5 105s74.667 50.5 122 65.5s99.666 22.5 156.999 22.5c42 0 80.667 -2.66699 116 -8s66.333 -11.666 93 -18.999v39c0 22.667 -3.83301 44.5 -11.5 65.5s-20 39.667 -37 56s-39.167 29.333 -66.5 39s-60.666 14.5 -99.999 14.5c-48 0 -96 -5.33301 -144 -16
s-100 -26.667 -156 -48v185c48.667 21.333 100.334 37.666 155.001 48.999s112 17.333 172 18c70.667 0 132.5 -8.66699 185.5 -26s97.333 -41.166 133 -71.499s62.334 -66.166 80.001 -107.499s26.5 -86.333 26.5 -135v-365c0 -64 0.666992 -119 2 -165
s2.66602 -87 3.99902 -123h-214zM680.999 412.999c-22.667 5.33301 -48.666 10.167 -77.999 14.5s-59 6.5 -89 6.5c-58 0 -103.833 -11.5 -137.5 -34.5s-50.5 -58.167 -50.5 -105.5c0 -22 3.83301 -41.167 11.5 -57.5s18 -29.833 31 -40.5s28.167 -18.667 45.5 -24
s35.666 -8 54.999 -8c24 0 46.667 3.16699 68 9.5s41 14.333 59 24s34.167 20.5 48.5 32.5s26.5 23.667 36.5 35v148zM236 1338h560v-167h-560v167zM116 969z" />
    <glyph glyph-name="Abreve" unicode="&#x102;" horiz-adv-x="1346" 
d="M926 341h-504l-131 -341h-261l531 1338h224l531 -1338h-259zM672 1016c-46.667 -140 -88.332 -257 -124.999 -351l-46 -119h346l-46 119c-36.667 94.667 -78.334 211.667 -125.001 351h-4zM672.002 1568c32.667 0 60.6729 8.66699 84.0059 26s38.666 46 45.999 86h206
c-4.66699 -43.333 -15.334 -82.166 -32.001 -116.499s-39.334 -63.5 -68.001 -87.5s-62.667 -42.333 -102 -55s-84 -19 -134 -19s-94.667 6.33301 -134 19s-73.333 31 -102 55s-51.334 53.167 -68.001 87.5s-27.334 73.166 -32.001 116.499h206
c7.33301 -40 22.666 -68.667 45.999 -86s51.333 -26 84 -26zM272.008 1338z" />
    <glyph glyph-name="abreve" unicode="&#x103;" horiz-adv-x="1054" 
d="M700 103l-4.00098 -0.000976562c-13.333 -14 -29.333 -28.333 -48 -43s-40 -28.5 -64 -41.5s-50.667 -23.5 -80 -31.5s-61 -12 -95 -12c-46 0 -89 7.16699 -129 21.5s-74.333 35 -103 62s-51.167 59.667 -67.5 98s-24.5 81.166 -24.5 128.499c0 52 9.5 98.667 28.5 140
s45.5 76.333 79.5 105s74.667 50.5 122 65.5s99.666 22.5 156.999 22.5c42 0 80.667 -2.66699 116 -8s66.333 -11.666 93 -18.999v39c0 22.667 -3.83301 44.5 -11.5 65.5s-20 39.667 -37 56s-39.167 29.333 -66.5 39s-60.666 14.5 -99.999 14.5c-48 0 -96 -5.33301 -144 -16
s-100 -26.667 -156 -48v185c48.667 21.333 100.334 37.666 155.001 48.999s112 17.333 172 18c70.667 0 132.5 -8.66699 185.5 -26s97.333 -41.166 133 -71.499s62.334 -66.166 80.001 -107.499s26.5 -86.333 26.5 -135v-365c0 -64 0.666992 -119 2 -165
s2.66602 -87 3.99902 -123h-214zM680.999 412.999c-22.667 5.33301 -48.666 10.167 -77.999 14.5s-59 6.5 -89 6.5c-58 0 -103.833 -11.5 -137.5 -34.5s-50.5 -58.167 -50.5 -105.5c0 -22 3.83301 -41.167 11.5 -57.5s18 -29.833 31 -40.5s28.167 -18.667 45.5 -24
s35.666 -8 54.999 -8c24 0 46.667 3.16699 68 9.5s41 14.333 59 24s34.167 20.5 48.5 32.5s26.5 23.667 36.5 35v148zM522 1256c39.333 0 70.833 13.833 94.5 41.5s38.167 70.834 43.5 129.501h203c-2 -48.667 -10.5 -93.667 -25.5 -135s-36.667 -77 -65 -107
s-63.333 -53.333 -105 -70s-90.167 -25 -145.5 -25c-54.667 0 -103 8.33301 -145 25s-77.167 40 -105.5 70s-50 65.667 -65 107s-23.5 86.333 -25.5 135h203c5.33301 -58.667 19.833 -101.834 43.5 -129.501s55.167 -41.5 94.5 -41.5zM122 969z" />
    <glyph glyph-name="Aogonek" unicode="&#x104;" horiz-adv-x="1346" 
d="M1316 0c-39.333 -16.667 -74.6699 -35.334 -106.003 -56.001s-58.166 -42.334 -80.499 -65.001s-39.5 -45.5 -51.5 -68.5s-18 -44.833 -18 -65.5c0 -24 7.5 -41.667 22.5 -53s36.5 -17 64.5 -17c38 0 78 7.66699 120 23v-162
c-19.333 -6.66699 -43.666 -12.667 -72.999 -18s-61 -8 -95 -8s-65.5 3.83301 -94.5 11.5s-54.167 19.334 -75.5 35.001s-38.166 35.334 -50.499 59.001s-18.5 51.5 -18.5 83.5c0.666992 56 17 107.833 49 155.5s81.333 96.167 148 145.5l-131 341h-504l-131 -341h-261
l531 1338h224zM671.996 1016c-46.667 -140 -88.332 -257 -124.999 -351l-46 -119h346l-46 119c-36.667 94.667 -78.334 211.667 -125.001 351h-4z" />
    <glyph glyph-name="aogonek" unicode="&#x105;" horiz-adv-x="1054" 
d="M681 413c-22.667 5.33301 -48.666 10.167 -77.999 14.5s-59 6.5 -89 6.5c-58.667 0 -104.667 -11.5 -138 -34.5s-50 -58.167 -50 -105.5c0 -22 3.83301 -41.167 11.5 -57.5s18 -29.833 31 -40.5s28.167 -18.667 45.5 -24s35.666 -8 54.999 -8c24 0 46.667 3.16699 68 9.5
s41 14.333 59 24s34.167 20.5 48.5 32.5s26.5 23.667 36.5 35v148zM700.001 103.001l-3.99707 -0.00195312c-13.333 -13.333 -29.333 -27.5 -48 -42.5s-39.834 -28.833 -63.501 -41.5s-50 -23.167 -79 -31.5s-60.833 -12.5 -95.5 -12.5c-46.667 0 -90 7.16699 -130 21.5
s-74.333 35 -103 62s-51.167 59.667 -67.5 98s-24.5 81.166 -24.5 128.499c0 52 9.5 98.667 28.5 140s45.5 76.333 79.5 105s74.667 50.5 122 65.5s99.666 22.5 156.999 22.5c44 0 83.5 -2.83301 118.5 -8.5s65.167 -11.834 90.5 -18.501v39
c0 23.333 -3.83301 45.333 -11.5 66s-20 39.167 -37 55.5s-39.167 29.333 -66.5 39s-60.666 14.5 -99.999 14.5c-48 0 -96 -5.33301 -144 -16s-100 -26.667 -156 -48v185c20 9.33301 42.667 18.166 68 26.499s52.166 15.5 80.499 21.5s57.666 10.667 87.999 14
s60.5 5 90.5 5c70.667 0 132.667 -8.66699 186 -26s97.666 -41.166 132.999 -71.499s61.833 -66.166 79.5 -107.499s26.5 -86.333 26.5 -135v-365c0 -64 0.666992 -119 2 -165s2.66602 -87 3.99902 -123c-30.667 -22 -59.167 -43.667 -85.5 -65
s-49.166 -42.666 -68.499 -63.999s-34.5 -42.5 -45.5 -63.5s-16.5 -41.833 -16.5 -62.5c0.666992 -25.333 8.5 -43.333 23.5 -54s34.5 -16 58.5 -16c41.333 0 83 7.66699 125 23v-162c-19.333 -6.66699 -43.333 -12.667 -72 -18s-60.667 -8 -96 -8
c-34 0 -65.5 3.83301 -94.5 11.5s-54.167 19.334 -75.5 35.001s-38.166 35.334 -50.499 59.001s-18.5 51.5 -18.5 83.5c0 56 16.667 107.5 50 154.5s84 95.833 152 146.5z" />
    <glyph glyph-name="Cacute" unicode="&#x106;" horiz-adv-x="1197" 
d="M811 1156c-66.667 0 -128.175 -11 -184.508 -33s-104.666 -54 -144.999 -96s-71.833 -93.833 -94.5 -155.5s-34 -132.167 -34 -211.5c0 -78.667 10.333 -147.834 31 -207.501s50.334 -109.5 89.001 -149.5s85.834 -70.167 141.501 -90.5s118.834 -30.5 189.501 -30.5
c50.667 0 102.334 4 155.001 12s102 19.667 148 35v-211c-46.667 -13.333 -97 -23.833 -151 -31.5s-110 -11.5 -168 -11.5c-113.333 0 -213 16.167 -299 48.5s-157.833 78 -215.5 137s-101 129.667 -130 212s-43.5 173.166 -43.5 272.499c0 102 15.5 196.667 46.5 284
s75.667 163 134 227s131.333 114.333 219 151s186.834 55.334 297.501 56.001c56.667 0 110.334 -3.83301 161.001 -11.5s96.334 -18.5 137.001 -32.5v-208c-53.333 16.667 -103 28.334 -149 35.001s-91 10 -135 10zM1022.99 1656l-190 -247h-188l138 247h240zM466.992 1338
z" />
    <glyph glyph-name="cacute" unicode="&#x107;" horiz-adv-x="903" 
d="M828 21c-30 -12.667 -66.665 -23.5 -109.998 -32.5s-89 -13.5 -137 -13.5c-70 0 -135.333 10 -196 30s-113.667 50.333 -159 91s-81 92.167 -107 154.5s-39 135.166 -39 218.499c0 93.333 15 173.333 45 240s68.833 120.834 116.5 162.501s101.334 72.334 161.001 92.001
s118.5 29.5 176.5 29.5c43.333 0 85 -3.83301 125 -11.5s76.333 -18.167 109 -31.5v-193c-29.333 12.667 -60.5 22.834 -93.5 30.501s-68.5 11.5 -106.5 11.5s-74.333 -5.83301 -109 -17.5s-65.334 -30.167 -92.001 -55.5s-47.834 -58.833 -63.501 -100.5
s-23.5 -91.834 -23.5 -150.501c0 -42.667 6 -82.834 18 -120.501s29.5 -69.834 52.5 -96.501s52.333 -48.167 88 -64.5s77.834 -24.5 126.501 -24.5c43.333 0 82.666 4.33301 117.999 13s68.666 19.334 99.999 32.001v-193zM791.002 1473l-165 -349h-184l119 349h230z
M203.002 968z" />
    <glyph glyph-name="Ccircumflex" unicode="&#x108;" horiz-adv-x="1197" 
d="M811 1156c-66.667 0 -128.175 -11 -184.508 -33s-104.666 -54 -144.999 -96s-71.833 -93.833 -94.5 -155.5s-34 -132.167 -34 -211.5c0 -78.667 10.333 -147.834 31 -207.501s50.334 -109.5 89.001 -149.5s85.834 -70.167 141.501 -90.5s118.834 -30.5 189.501 -30.5
c50.667 0 102.334 4 155.001 12s102 19.667 148 35v-211c-46.667 -13.333 -97 -23.833 -151 -31.5s-110 -11.5 -168 -11.5c-113.333 0 -213 16.167 -299 48.5s-157.833 78 -215.5 137s-101 129.667 -130 212s-43.5 173.166 -43.5 272.499c0 102 15.5 196.667 46.5 284
s75.667 163 134 227s131.333 114.333 219 151s186.834 55.334 297.501 56.001c56.667 0 110.334 -3.83301 161.001 -11.5s96.334 -18.5 137.001 -32.5v-208c-53.333 16.667 -103 28.334 -149 35.001s-91 10 -135 10zM646.992 1656h206l216 -247h-207l-110 126h-4l-111 -126
h-206zM349.992 1338z" />
    <glyph glyph-name="ccircumflex" unicode="&#x109;" horiz-adv-x="903" 
d="M828 21c-30 -12.667 -66.665 -23.5 -109.998 -32.5s-89 -13.5 -137 -13.5c-70 0 -135.333 10 -196 30s-113.667 50.333 -159 91s-81 92.167 -107 154.5s-39 135.166 -39 218.499c0 93.333 15 173.333 45 240s68.833 120.834 116.5 162.501s101.334 72.334 161.001 92.001
s118.5 29.5 176.5 29.5c43.333 0 85 -3.83301 125 -11.5s76.333 -18.167 109 -31.5v-193c-29.333 12.667 -60.5 22.834 -93.5 30.501s-68.5 11.5 -106.5 11.5s-74.333 -5.83301 -109 -17.5s-65.334 -30.167 -92.001 -55.5s-47.834 -58.833 -63.501 -100.5
s-23.5 -91.834 -23.5 -150.501c0 -42.667 6 -82.834 18 -120.501s29.5 -69.834 52.5 -96.501s52.333 -48.167 88 -64.5s77.834 -24.5 126.501 -24.5c43.333 0 82.666 4.33301 117.999 13s68.666 19.334 99.999 32.001v-193zM428.002 1473h206l210 -349h-185l-126 212h-4
l-126 -212h-185zM131.002 969z" />
    <glyph glyph-name="Cdotaccent" unicode="&#x10a;" horiz-adv-x="1197" 
d="M811 1156c-66.667 0 -128.175 -11 -184.508 -33s-104.666 -54 -144.999 -96s-71.833 -93.833 -94.5 -155.5s-34 -132.167 -34 -211.5c0 -78.667 10.333 -147.834 31 -207.501s50.334 -109.5 89.001 -149.5s85.834 -70.167 141.501 -90.5s118.834 -30.5 189.501 -30.5
c50.667 0 102.334 4 155.001 12s102 19.667 148 35v-211c-46.667 -13.333 -97 -23.833 -151 -31.5s-110 -11.5 -168 -11.5c-113.333 0 -213 16.167 -299 48.5s-157.833 78 -215.5 137s-101 129.667 -130 212s-43.5 173.166 -43.5 272.499c0 102 15.5 196.667 46.5 284
s75.667 163 134 227s131.333 114.333 219 151s186.834 55.334 297.501 56.001c56.667 0 110.334 -3.83301 161.001 -11.5s96.334 -18.5 137.001 -32.5v-208c-53.333 16.667 -103 28.334 -149 35.001s-91 10 -135 10zM635.992 1705h249v-257h-249v257zM361.992 1338z" />
    <glyph glyph-name="cdotaccent" unicode="&#x10b;" horiz-adv-x="903" 
d="M828 21c-30 -12.667 -66.665 -23.5 -109.998 -32.5s-89 -13.5 -137 -13.5c-70 0 -135.333 10 -196 30s-113.667 50.333 -159 91s-81 92.167 -107 154.5s-39 135.166 -39 218.499c0 93.333 15 173.333 45 240s68.833 120.834 116.5 162.501s101.334 72.334 161.001 92.001
s118.5 29.5 176.5 29.5c43.333 0 85 -3.83301 125 -11.5s76.333 -18.167 109 -31.5v-193c-29.333 12.667 -60.5 22.834 -93.5 30.501s-68.5 11.5 -106.5 11.5s-74.333 -5.83301 -109 -17.5s-65.334 -30.167 -92.001 -55.5s-47.834 -58.833 -63.501 -100.5
s-23.5 -91.834 -23.5 -150.501c0 -42.667 6 -82.834 18 -120.501s29.5 -69.834 52.5 -96.501s52.333 -48.167 88 -64.5s77.834 -24.5 126.501 -24.5c43.333 0 82.666 4.33301 117.999 13s68.666 19.334 99.999 32.001v-193zM406.002 1448h249v-257h-249v257zM132.002 969z
" />
    <glyph glyph-name="Ccaron" unicode="&#x10c;" horiz-adv-x="1197" 
d="M811 1156c-66.667 0 -128.175 -11 -184.508 -33s-104.666 -54 -144.999 -96s-71.833 -93.833 -94.5 -155.5s-34 -132.167 -34 -211.5c0 -78.667 10.333 -147.834 31 -207.501s50.334 -109.5 89.001 -149.5s85.834 -70.167 141.501 -90.5s118.834 -30.5 189.501 -30.5
c50.667 0 102.334 4 155.001 12s102 19.667 148 35v-211c-46.667 -13.333 -97 -23.833 -151 -31.5s-110 -11.5 -168 -11.5c-113.333 0 -213 16.167 -299 48.5s-157.833 78 -215.5 137s-101 129.667 -130 212s-43.5 173.166 -43.5 272.499c0 102 15.5 196.667 46.5 284
s75.667 163 134 227s131.333 114.333 219 151s186.834 55.334 297.501 56.001c56.667 0 110.334 -3.83301 161.001 -11.5s96.334 -18.5 137.001 -32.5v-208c-53.333 16.667 -103 28.334 -149 35.001s-91 10 -135 10zM856.992 1410h-206l-216 247h207l110 -126h4l111 126h206
zM353.992 1338z" />
    <glyph glyph-name="ccaron" unicode="&#x10d;" horiz-adv-x="903" 
d="M828 21c-30 -12.667 -66.665 -23.5 -109.998 -32.5s-89 -13.5 -137 -13.5c-70 0 -135.333 10 -196 30s-113.667 50.333 -159 91s-81 92.167 -107 154.5s-39 135.166 -39 218.499c0 93.333 15 173.333 45 240s68.833 120.834 116.5 162.501s101.334 72.334 161.001 92.001
s118.5 29.5 176.5 29.5c43.333 0 85 -3.83301 125 -11.5s76.333 -18.167 109 -31.5v-193c-29.333 12.667 -60.5 22.834 -93.5 30.501s-68.5 11.5 -106.5 11.5s-74.333 -5.83301 -109 -17.5s-65.334 -30.167 -92.001 -55.5s-47.834 -58.833 -63.501 -100.5
s-23.5 -91.834 -23.5 -150.501c0 -42.667 6 -82.834 18 -120.501s29.5 -69.834 52.5 -96.501s52.333 -48.167 88 -64.5s77.834 -24.5 126.501 -24.5c43.333 0 82.666 4.33301 117.999 13s68.666 19.334 99.999 32.001v-193zM638.002 1124h-206l-210 349h185l126 -212h4
l126 212h185zM135.002 969z" />
    <glyph glyph-name="Dcaron" unicode="&#x10e;" horiz-adv-x="1411" 
d="M160 0l0.000976562 1338h354c31.333 0 63.166 -1 95.499 -3s63.833 -5 94.5 -9s60.334 -8.83301 89.001 -14.5s55 -12.5 79 -20.5c71.333 -22.667 134.333 -53.334 189 -92.001s100.5 -84.334 137.5 -137.001s65 -111.5 84 -176.5s28.5 -135.5 28.5 -211.5
c0 -72 -8 -139.5 -24 -202.5s-40.333 -120.5 -73 -172.5s-73.834 -97.833 -123.501 -137.5s-108.5 -72.167 -176.5 -97.5c-56.667 -21.333 -121 -37.333 -193 -48s-153 -16 -243 -16h-318zM506.001 205.002c143.333 0 255.333 19.667 336 59
c71.333 35.333 125.333 86.666 162 153.999s55 153.333 55 258c0 54.667 -6 104 -18 148s-29.333 83.167 -52 117.5s-50.167 63.833 -82.5 88.5s-68.833 45 -109.5 61c-38 14.667 -80.333 25.334 -127 32.001s-99 10 -157 10h-108v-928h101zM785.001 1410h-206l-216 247h207
l110 -126h4l111 126h206zM282.001 1338z" />
    <glyph glyph-name="dcaron" unicode="&#x10f;" horiz-adv-x="1142" 
d="M547 164c23.333 0 45.5 3.00098 66.5 9.00098s40.833 14 59.5 24s35.167 21 49.5 33s26.5 23.667 36.5 35v460c-28 22.667 -59.333 41.5 -94 56.5s-71.334 22.5 -110.001 22.5c-24.667 0 -50.5 -5 -77.5 -15s-51.667 -27 -74 -51s-41 -57.333 -56 -100
s-22.5 -97 -22.5 -163c0 -97.333 18.833 -173.333 56.5 -228s92.834 -82.334 165.501 -83.001zM80 465.001c0 84.667 11.668 160.169 35.001 226.502s55.166 122 95.499 167s86.5 78.667 138.5 101s106 33.5 162 33.5c26 0 50.667 -2.33301 74 -7s45.333 -11 66 -19
s40 -17 58 -27s34.667 -20.333 50 -31h2c-0.666992 13.333 -1.16699 32.166 -1.5 56.499s-0.5 50.833 -0.5 79.5v403h237v-1160c0 -64 0.666992 -119 2 -165s2.66602 -87 3.99902 -123h-214l-10 103h-4c-14 -16.667 -30.833 -33 -50.5 -49s-41.334 -29.833 -65.001 -41.5
s-49.667 -20.834 -78 -27.501s-59.166 -10 -92.499 -10c-52.667 0 -103.167 9.33301 -151.5 28s-91.666 47.5 -129.999 86.5s-69 90 -92 153s-34.5 137.167 -34.5 222.5zM1170 1217c0 21.333 -7.33398 36.8311 -22.001 46.498s-33.667 14.5 -57 14.5v169
c12 0.666992 23.333 1 34 1c70.667 0 126.5 -15.5 167.5 -46.5s61.5 -75.5 61.5 -133.5c0 -34 -6.66699 -68.333 -20 -103s-31.666 -67.667 -54.999 -99h-179c19.333 26.667 35.833 53.334 49.5 80.001s20.5 50.334 20.5 71.001z" />
    <glyph glyph-name="Dcroat" unicode="&#x110;" horiz-adv-x="1483" 
d="M60 787l171 0.00195312v551h355c31.333 0 63.166 -1 95.499 -3s63.833 -5 94.5 -9s60.334 -8.83301 89.001 -14.5s55 -12.5 79 -20.5c71.333 -22.667 134.333 -53.334 189 -92.001s100.5 -84.334 137.5 -137.001s65 -111.5 84 -176.5s28.5 -135.5 28.5 -211.5
c0 -72 -8 -139.5 -24 -202.5s-40.333 -120.5 -73 -172.5s-73.834 -97.833 -123.501 -137.5s-108.5 -72.167 -176.5 -97.5c-56.667 -21.333 -120.667 -37.333 -192 -48s-152.666 -16 -243.999 -16h-319v582h-171v205zM577 205.002c143.333 0 255.333 19.667 336 59
c71.333 35.333 125.333 86.666 162 153.999s55 153.333 55 258c0 54.667 -6 104 -18 148s-29.333 83.167 -52 117.5s-50.167 63.833 -82.5 88.5s-68.833 45 -109.5 61c-38 14.667 -80.333 25.334 -127 32.001s-99 10 -157 10h-108v-346h347v-205h-347v-377h101z" />
    <glyph glyph-name="dcroat" unicode="&#x111;" horiz-adv-x="1142" 
d="M759 1291v157.001h237v-157h140v-185h-140v-818c0 -64 0.666992 -119 2 -165s2.66602 -87 3.99902 -123h-214l-10 103h-4c-14.667 -17.333 -31.5 -33.666 -50.5 -48.999s-40.167 -28.833 -63.5 -40.5s-49.166 -21 -77.499 -28s-59.833 -10.5 -94.5 -10.5
c-51.333 0 -101.5 9.16699 -150.5 27.5s-92.5 47.166 -130.5 86.499s-68.667 90.333 -92 153s-35 137 -35 223c0 87.333 11.833 163.833 35.5 229.5s55.5 120.5 95.5 164.5s86 77.333 138 100s106 34 162 34c26 0 50.667 -2.33301 74 -7s45.333 -11 66 -19s40 -17 58 -27
s34.667 -20.333 50 -31h2c-0.666992 13.333 -1.16699 32.166 -1.5 56.499s-0.5 50.833 -0.5 79.5v61h-253v185h253zM547 164.001c24 0 46.667 3.16602 68 9.49902s41 14.333 59 24s34 20.334 48 32.001s26.333 23.5 37 35.5v460c-28 22.667 -59.333 41.5 -94 56.5
s-70.667 22.5 -108 22.5c-26 0 -52.5 -5.16699 -79.5 -15.5s-51.833 -27.5 -74.5 -51.5s-41.334 -57.5 -56.001 -100.5s-22 -96.833 -22 -161.5c0 -97.333 18.833 -173.5 56.5 -228.5s92.834 -82.5 165.501 -82.5z" />
    <glyph glyph-name="Emacron" unicode="&#x112;" horiz-adv-x="1163" 
d="M405 205h658v-205h-903v1338h867v-205h-622v-346h534v-205h-534v-377zM303 1617h560v-169h-560v169zM183 1338z" />
    <glyph glyph-name="emacron" unicode="&#x113;" horiz-adv-x="1050" 
d="M255 1338h560v-167h-560v167zM629 166c46 0 94 4.66895 144 14.002s100.667 22.666 152 39.999v-189c-30.667 -13.333 -77.667 -26 -141 -38s-129 -18 -197 -18c-68.667 0 -133.834 8.83301 -195.501 26.5s-115.5 46.167 -161.5 85.5s-82.5 90.333 -109.5 153
s-40.5 138.667 -40.5 228c0 88 12.667 165 38 231s59.333 120.667 102 164s91.5 75.833 146.5 97.5s111.833 32.5 170.5 32.5c61.333 0 117.833 -9.33301 169.5 -28s96.334 -48 134.001 -88s67 -91.5 88 -154.5s31.5 -137.5 31.5 -223.5
c-0.666992 -33.333 -1.66699 -61.666 -3 -84.999h-635c3.33301 -44.667 13.333 -82.834 30 -114.501s38.5 -57.334 65.5 -77.001s58.5 -34 94.5 -43s75 -13.5 117 -13.5zM534 808.002c-30 0 -56.667 -5.5 -80 -16.5s-43.5 -26 -60.5 -45s-30.5 -41.167 -40.5 -66.5
s-16.667 -52.333 -20 -81h381c0 28.667 -3.83301 55.667 -11.5 81s-19 47.5 -34 66.5s-33.667 34 -56 45s-48.5 16.5 -78.5 16.5z" />
    <glyph glyph-name="Ebreve" unicode="&#x114;" horiz-adv-x="1163" 
d="M405 205h658v-205h-903v1338h867v-205h-622v-346h534v-205h-534v-377zM592 1568c32.667 0 60.6729 8.66699 84.0059 26s38.666 46 45.999 86h206c-4.66699 -43.333 -15.334 -82.166 -32.001 -116.499s-39.334 -63.5 -68.001 -87.5s-62.667 -42.333 -102 -55
s-84 -19 -134 -19s-94.667 6.33301 -134 19s-73.333 31 -102 55s-51.334 53.167 -68.001 87.5s-27.334 73.166 -32.001 116.499h206c7.33301 -40 22.666 -68.667 45.999 -86s51.333 -26 84 -26zM192.006 1338z" />
    <glyph glyph-name="ebreve" unicode="&#x115;" horiz-adv-x="1050" 
d="M532 1256c39.333 0 70.833 13.833 94.5 41.5s38.167 70.834 43.5 129.501h203c-2 -48.667 -10.5 -93.667 -25.5 -135s-36.667 -77 -65 -107s-63.333 -53.333 -105 -70s-90.167 -25 -145.5 -25c-54.667 0 -103 8.33301 -145 25s-77.167 40 -105.5 70s-50 65.667 -65 107
s-23.5 86.333 -25.5 135h203c5.33301 -58.667 19.833 -101.834 43.5 -129.501s55.167 -41.5 94.5 -41.5zM629 166c46 0 94 4.66895 144 14.002s100.667 22.666 152 39.999v-189c-30.667 -13.333 -77.667 -26 -141 -38s-129 -18 -197 -18
c-68.667 0 -133.834 8.83301 -195.501 26.5s-115.5 46.167 -161.5 85.5s-82.5 90.333 -109.5 153s-40.5 138.667 -40.5 228c0 88 12.667 165 38 231s59.333 120.667 102 164s91.5 75.833 146.5 97.5s111.833 32.5 170.5 32.5c61.333 0 117.833 -9.33301 169.5 -28
s96.334 -48 134.001 -88s67 -91.5 88 -154.5s31.5 -137.5 31.5 -223.5c-0.666992 -33.333 -1.66699 -61.666 -3 -84.999h-635c3.33301 -44.667 13.333 -82.834 30 -114.501s38.5 -57.334 65.5 -77.001s58.5 -34 94.5 -43s75 -13.5 117 -13.5zM534 808.002
c-30 0 -56.667 -5.5 -80 -16.5s-43.5 -26 -60.5 -45s-30.5 -41.167 -40.5 -66.5s-16.667 -52.333 -20 -81h381c0 28.667 -3.83301 55.667 -11.5 81s-19 47.5 -34 66.5s-33.667 34 -56 45s-48.5 16.5 -78.5 16.5z" />
    <glyph glyph-name="Edotaccent" unicode="&#x116;" horiz-adv-x="1163" 
d="M405 205h658v-205h-903v1338h867v-205h-622v-346h534v-205h-534v-377zM472 1705h249v-257h-249v257zM198 1338z" />
    <glyph glyph-name="edotaccent" unicode="&#x117;" horiz-adv-x="1050" 
d="M409 1448h249v-257h-249v257zM629 166c46 0 94 4.66895 144 14.002s100.667 22.666 152 39.999v-189c-30.667 -13.333 -77.667 -26 -141 -38s-129 -18 -197 -18c-68.667 0 -133.834 8.83301 -195.501 26.5s-115.5 46.167 -161.5 85.5s-82.5 90.333 -109.5 153
s-40.5 138.667 -40.5 228c0 88 12.667 165 38 231s59.333 120.667 102 164s91.5 75.833 146.5 97.5s111.833 32.5 170.5 32.5c61.333 0 117.833 -9.33301 169.5 -28s96.334 -48 134.001 -88s67 -91.5 88 -154.5s31.5 -137.5 31.5 -223.5
c-0.666992 -33.333 -1.66699 -61.666 -3 -84.999h-635c3.33301 -44.667 13.333 -82.834 30 -114.501s38.5 -57.334 65.5 -77.001s58.5 -34 94.5 -43s75 -13.5 117 -13.5zM534 808.002c-30 0 -56.667 -5.5 -80 -16.5s-43.5 -26 -60.5 -45s-30.5 -41.167 -40.5 -66.5
s-16.667 -52.333 -20 -81h381c0 28.667 -3.83301 55.667 -11.5 81s-19 47.5 -34 66.5s-33.667 34 -56 45s-48.5 16.5 -78.5 16.5z" />
    <glyph glyph-name="Eogonek" unicode="&#x118;" horiz-adv-x="1163" 
d="M160 0l-0.00195312 1338h867v-205h-622v-346h534v-205h-534v-377h658v-205c-27.333 -20 -53.5 -40.833 -78.5 -62.5s-47 -43.167 -66 -64.5s-34.167 -42.833 -45.5 -64.5s-17 -42.834 -17 -63.501c0 -22 6.83301 -39.167 20.5 -51.5s35.167 -18.5 64.5 -18.5
c39.333 0 80 7.66699 122 23v-162c-21.333 -7.33301 -46.666 -13.5 -75.999 -18.5s-60 -7.5 -92 -7.5c-34 0 -65.5 3.83301 -94.5 11.5s-54.167 19.334 -75.5 35.001s-38.166 35.334 -50.499 59.001s-18.5 51.5 -18.5 83.5c0 56 16.333 107.167 49 153.5
s82 94.166 148 143.499v4h-693z" />
    <glyph glyph-name="eogonek" unicode="&#x119;" horiz-adv-x="1050" 
d="M642 -20c-4.66699 -1.33301 -13.332 -2.50098 -25.999 -3.50098s-26.667 -1.5 -42 -1.5c-64.667 0 -126.667 8.83301 -186 26.5s-111.833 46.167 -157.5 85.5s-82.167 90.333 -109.5 153s-41 138.667 -41 228c0 88 12.667 165 38 231s59.333 120.667 102 164
s91.5 75.833 146.5 97.5s111.833 32.5 170.5 32.5c61.333 0 118 -9.33301 170 -28s96.667 -48 134 -88s66.5 -91.167 87.5 -153.5s31.5 -137.166 31.5 -224.499c0 -23.333 -1 -51.666 -3 -84.999h-635c3.33301 -44.667 13.333 -82.834 30 -114.501
s38.5 -57.334 65.5 -77.001s58.5 -34 94.5 -43s75 -13.5 117 -13.5c46 0 94 4.66699 144 14s100.667 22.666 152 39.999v-180c-36.667 -24 -70.5 -49 -101.5 -75s-57.833 -51.833 -80.5 -77.5s-40.334 -50.667 -53.001 -75s-19 -46.833 -19 -67.5
c0 -24.667 7.66699 -42.5 23 -53.5s36 -16.5 62 -16.5c38 0 78.667 7.66699 122 23v-162c-19.333 -6.66699 -43.833 -12.667 -73.5 -18s-61.167 -8 -94.5 -8c-34 0 -65.5 3.83301 -94.5 11.5s-54.167 19.334 -75.5 35.001s-38.166 35.334 -50.499 59.001
s-18.5 51.5 -18.5 83.5c0 51.333 14.167 98.833 42.5 142.5s71.166 88.5 128.499 134.5v4zM534.002 807.999c-30 0 -56.667 -5.5 -80 -16.5s-43.5 -26 -60.5 -45s-30.5 -41.167 -40.5 -66.5s-16.667 -52.333 -20 -81h381c0 28.667 -3.83301 55.667 -11.5 81
s-19 47.5 -34 66.5s-33.667 34 -56 45s-48.5 16.5 -78.5 16.5z" />
    <glyph glyph-name="Ecaron" unicode="&#x11a;" horiz-adv-x="1163" 
d="M405 205h658v-205h-903v1338h867v-205h-622v-346h534v-205h-534v-377zM698 1410h-206l-216 247h207l110 -126h4l111 126h206zM195 1338z" />
    <glyph glyph-name="ecaron" unicode="&#x11b;" horiz-adv-x="1050" 
d="M644 1124h-206l-210 349h185l126 -212h4l126 212h185zM629 166c46 0 94 4.66895 144 14.002s100.667 22.666 152 39.999v-189c-30.667 -13.333 -77.667 -26 -141 -38s-129 -18 -197 -18c-68.667 0 -133.834 8.83301 -195.501 26.5s-115.5 46.167 -161.5 85.5
s-82.5 90.333 -109.5 153s-40.5 138.667 -40.5 228c0 88 12.667 165 38 231s59.333 120.667 102 164s91.5 75.833 146.5 97.5s111.833 32.5 170.5 32.5c61.333 0 117.833 -9.33301 169.5 -28s96.334 -48 134.001 -88s67 -91.5 88 -154.5s31.5 -137.5 31.5 -223.5
c-0.666992 -33.333 -1.66699 -61.666 -3 -84.999h-635c3.33301 -44.667 13.333 -82.834 30 -114.501s38.5 -57.334 65.5 -77.001s58.5 -34 94.5 -43s75 -13.5 117 -13.5zM534 808.002c-30 0 -56.667 -5.5 -80 -16.5s-43.5 -26 -60.5 -45s-30.5 -41.167 -40.5 -66.5
s-16.667 -52.333 -20 -81h381c0 28.667 -3.83301 55.667 -11.5 81s-19 47.5 -34 66.5s-33.667 34 -56 45s-48.5 16.5 -78.5 16.5z" />
    <glyph glyph-name="Gcircumflex" unicode="&#x11c;" horiz-adv-x="1377" 
d="M992 511l-299.999 -0.000976562v205h545v-675c-20 -7.33301 -45.5 -15 -76.5 -23s-65.667 -15.167 -104 -21.5s-77.833 -11.5 -118.5 -15.5s-81 -6 -121 -6c-120 0 -224.833 16.167 -314.5 48.5s-164.334 77.833 -224.001 136.5s-104.334 128.5 -134.001 209.5
s-44.5 170.5 -44.5 268.5c0 69.333 7.83301 135.5 23.5 198.5s38.667 121.333 69 175s67.166 102.167 110.499 145.5s92.833 80.333 148.5 111s116.667 54.167 183 70.5s137.5 24.5 213.5 24.5c67.333 0 131.333 -4.83301 192 -14.5s110.334 -21.5 149.001 -35.5v-208
c-52 16.667 -104.5 29.334 -157.5 38.001s-106.5 13 -160.5 13c-72.667 0 -140.667 -10.833 -204 -32.5s-118.166 -53.667 -164.499 -96s-82.833 -94.5 -109.5 -156.5s-40 -133.667 -40 -215c0.666992 -158 42 -276.5 124 -355.5s198.333 -118.5 349 -118.5
c28 0 57 1.5 87 4.5s56.333 6.83301 79 11.5v313zM659.001 1656h206l216 -247h-207l-110 126h-4l-111 -126h-206zM362.001 1338z" />
    <glyph glyph-name="gcircumflex" unicode="&#x11d;" horiz-adv-x="1126" 
d="M460 1473h206l210 -349h-185l-126 212h-4l-126 -212h-185zM759 -25c0 13.333 0.168945 29.8379 0.501953 49.5049s1.16602 36.167 2.49902 49.5h-2c-14.667 -12 -31.5 -23.833 -50.5 -35.5s-39.833 -22.334 -62.5 -32.001s-47.667 -17.334 -75 -23.001
s-55.333 -8.5 -84 -8.5c-51.333 0 -101.5 9.16699 -150.5 27.5s-92.5 47.333 -130.5 87s-68.667 90.5 -92 152.5s-35 136.667 -35 224s11.833 163.833 35.5 229.5s55.167 120.5 94.5 164.5s84.5 77.167 135.5 99.5s103.5 33.5 157.5 33.5c59.333 0 112 -12.5 158 -37.5
s83.667 -56.833 113 -95.5h4l10 109h208v-987c0 -56.667 -4.66699 -105.334 -14 -146.001s-23 -76.667 -41 -108c-21.333 -36.667 -48.5 -68.667 -81.5 -96s-70.667 -50 -113 -68s-88.833 -31.5 -139.5 -40.5s-104.334 -13.5 -161.001 -13.5c-32 0 -63.333 1.16699 -94 3.5
s-59.5 5.66602 -86.5 9.99902s-51.667 9.33301 -74 15s-41.166 11.5 -56.499 17.5v193c44 -14.667 90.167 -25.834 138.5 -33.501s99.166 -11.5 152.499 -11.5c106 0 188 20.5 246 61.5s87 103.167 87 186.5v23zM547.002 164.005c24 0 46.6641 3.00195 67.9971 9.00195
s41 13.667 59 23s34.167 19.666 48.5 30.999s26.5 22.666 36.5 33.999v433c-25.333 30 -56.666 55 -93.999 75s-77 30.333 -119 31c-14.667 0 -30.167 -1.83301 -46.5 -5.5s-32.833 -10.167 -49.5 -19.5s-32.5 -21.833 -47.5 -37.5s-28.167 -35.5 -39.5 -59.5
s-20.5 -52.667 -27.5 -86s-10.5 -72 -10.5 -116c0 -48.667 4.66699 -92.167 14 -130.5s23.333 -71 42 -98s41.834 -47.667 69.501 -62s59.834 -21.5 96.501 -21.5z" />
    <glyph glyph-name="Gbreve" unicode="&#x11e;" horiz-adv-x="1377" 
d="M992 511l-299.999 -0.000976562v205h545v-675c-20 -7.33301 -45.5 -15 -76.5 -23s-65.667 -15.167 -104 -21.5s-77.833 -11.5 -118.5 -15.5s-81 -6 -121 -6c-120 0 -224.833 16.167 -314.5 48.5s-164.334 77.833 -224.001 136.5s-104.334 128.5 -134.001 209.5
s-44.5 170.5 -44.5 268.5c0 69.333 7.83301 135.5 23.5 198.5s38.667 121.333 69 175s67.166 102.167 110.499 145.5s92.833 80.333 148.5 111s116.667 54.167 183 70.5s137.5 24.5 213.5 24.5c67.333 0 131.333 -4.83301 192 -14.5s110.334 -21.5 149.001 -35.5v-208
c-52 16.667 -104.5 29.334 -157.5 38.001s-106.5 13 -160.5 13c-72.667 0 -140.667 -10.833 -204 -32.5s-118.166 -53.667 -164.499 -96s-82.833 -94.5 -109.5 -156.5s-40 -133.667 -40 -215c0.666992 -158 42 -276.5 124 -355.5s198.333 -118.5 349 -118.5
c28 0 57 1.5 87 4.5s56.333 6.83301 79 11.5v313zM718.001 1568c32.667 0 60.6729 8.66699 84.0059 26s38.666 46 45.999 86h206c-4.66699 -43.333 -15.334 -82.166 -32.001 -116.499s-39.334 -63.5 -68.001 -87.5s-62.667 -42.333 -102 -55s-84 -19 -134 -19
s-94.667 6.33301 -134 19s-73.333 31 -102 55s-51.334 53.167 -68.001 87.5s-27.334 73.166 -32.001 116.499h206c7.33301 -40 22.666 -68.667 45.999 -86s51.333 -26 84 -26zM318.007 1338z" />
    <glyph glyph-name="gbreve" unicode="&#x11f;" horiz-adv-x="1126" 
d="M575 1256c39.333 0 70.833 13.833 94.5 41.5s38.167 70.834 43.5 129.501h203c-2 -48.667 -10.5 -93.667 -25.5 -135s-36.667 -77 -65 -107s-63.333 -53.333 -105 -70s-90.167 -25 -145.5 -25c-54.667 0 -103 8.33301 -145 25s-77.167 40 -105.5 70s-50 65.667 -65 107
s-23.5 86.333 -25.5 135h203c5.33301 -58.667 19.833 -101.834 43.5 -129.501s55.167 -41.5 94.5 -41.5zM759 -25c0 13.333 0.168945 29.8379 0.501953 49.5049s1.16602 36.167 2.49902 49.5h-2c-14.667 -12 -31.5 -23.833 -50.5 -35.5s-39.833 -22.334 -62.5 -32.001
s-47.667 -17.334 -75 -23.001s-55.333 -8.5 -84 -8.5c-51.333 0 -101.5 9.16699 -150.5 27.5s-92.5 47.333 -130.5 87s-68.667 90.5 -92 152.5s-35 136.667 -35 224s11.833 163.833 35.5 229.5s55.167 120.5 94.5 164.5s84.5 77.167 135.5 99.5s103.5 33.5 157.5 33.5
c59.333 0 112 -12.5 158 -37.5s83.667 -56.833 113 -95.5h4l10 109h208v-987c0 -56.667 -4.66699 -105.334 -14 -146.001s-23 -76.667 -41 -108c-21.333 -36.667 -48.5 -68.667 -81.5 -96s-70.667 -50 -113 -68s-88.833 -31.5 -139.5 -40.5s-104.334 -13.5 -161.001 -13.5
c-32 0 -63.333 1.16699 -94 3.5s-59.5 5.66602 -86.5 9.99902s-51.667 9.33301 -74 15s-41.166 11.5 -56.499 17.5v193c44 -14.667 90.167 -25.834 138.5 -33.501s99.166 -11.5 152.499 -11.5c106 0 188 20.5 246 61.5s87 103.167 87 186.5v23zM547.002 164.005
c24 0 46.6641 3.00195 67.9971 9.00195s41 13.667 59 23s34.167 19.666 48.5 30.999s26.5 22.666 36.5 33.999v433c-25.333 30 -56.666 55 -93.999 75s-77 30.333 -119 31c-14.667 0 -30.167 -1.83301 -46.5 -5.5s-32.833 -10.167 -49.5 -19.5s-32.5 -21.833 -47.5 -37.5
s-28.167 -35.5 -39.5 -59.5s-20.5 -52.667 -27.5 -86s-10.5 -72 -10.5 -116c0 -48.667 4.66699 -92.167 14 -130.5s23.333 -71 42 -98s41.834 -47.667 69.501 -62s59.834 -21.5 96.501 -21.5z" />
    <glyph glyph-name="Gdotaccent" unicode="&#x120;" horiz-adv-x="1377" 
d="M992 511l-299.999 -0.000976562v205h545v-675c-20 -7.33301 -45.5 -15 -76.5 -23s-65.667 -15.167 -104 -21.5s-77.833 -11.5 -118.5 -15.5s-81 -6 -121 -6c-120 0 -224.833 16.167 -314.5 48.5s-164.334 77.833 -224.001 136.5s-104.334 128.5 -134.001 209.5
s-44.5 170.5 -44.5 268.5c0 69.333 7.83301 135.5 23.5 198.5s38.667 121.333 69 175s67.166 102.167 110.499 145.5s92.833 80.333 148.5 111s116.667 54.167 183 70.5s137.5 24.5 213.5 24.5c67.333 0 131.333 -4.83301 192 -14.5s110.334 -21.5 149.001 -35.5v-208
c-52 16.667 -104.5 29.334 -157.5 38.001s-106.5 13 -160.5 13c-72.667 0 -140.667 -10.833 -204 -32.5s-118.166 -53.667 -164.499 -96s-82.833 -94.5 -109.5 -156.5s-40 -133.667 -40 -215c0.666992 -158 42 -276.5 124 -355.5s198.333 -118.5 349 -118.5
c28 0 57 1.5 87 4.5s56.333 6.83301 79 11.5v313zM634.001 1705h249v-257h-249v257zM360.001 1338z" />
    <glyph glyph-name="gdotaccent" unicode="&#x121;" horiz-adv-x="1126" 
d="M441 1448h249v-257h-249v257zM759 -25c0 13.333 0.168945 29.8379 0.501953 49.5049s1.16602 36.167 2.49902 49.5h-2c-14.667 -12 -31.5 -23.833 -50.5 -35.5s-39.833 -22.334 -62.5 -32.001s-47.667 -17.334 -75 -23.001s-55.333 -8.5 -84 -8.5
c-51.333 0 -101.5 9.16699 -150.5 27.5s-92.5 47.333 -130.5 87s-68.667 90.5 -92 152.5s-35 136.667 -35 224s11.833 163.833 35.5 229.5s55.167 120.5 94.5 164.5s84.5 77.167 135.5 99.5s103.5 33.5 157.5 33.5c59.333 0 112 -12.5 158 -37.5s83.667 -56.833 113 -95.5h4
l10 109h208v-987c0 -56.667 -4.66699 -105.334 -14 -146.001s-23 -76.667 -41 -108c-21.333 -36.667 -48.5 -68.667 -81.5 -96s-70.667 -50 -113 -68s-88.833 -31.5 -139.5 -40.5s-104.334 -13.5 -161.001 -13.5c-32 0 -63.333 1.16699 -94 3.5s-59.5 5.66602 -86.5 9.99902
s-51.667 9.33301 -74 15s-41.166 11.5 -56.499 17.5v193c44 -14.667 90.167 -25.834 138.5 -33.501s99.166 -11.5 152.499 -11.5c106 0 188 20.5 246 61.5s87 103.167 87 186.5v23zM547.002 164.005c24 0 46.6641 3.00195 67.9971 9.00195s41 13.667 59 23
s34.167 19.666 48.5 30.999s26.5 22.666 36.5 33.999v433c-25.333 30 -56.666 55 -93.999 75s-77 30.333 -119 31c-14.667 0 -30.167 -1.83301 -46.5 -5.5s-32.833 -10.167 -49.5 -19.5s-32.5 -21.833 -47.5 -37.5s-28.167 -35.5 -39.5 -59.5s-20.5 -52.667 -27.5 -86
s-10.5 -72 -10.5 -116c0 -48.667 4.66699 -92.167 14 -130.5s23.333 -71 42 -98s41.834 -47.667 69.501 -62s59.834 -21.5 96.501 -21.5z" />
    <glyph glyph-name="Gcommaaccent" unicode="&#x122;" horiz-adv-x="1377" 
d="M992 511l-299.999 -0.000976562v205h545v-675c-20 -7.33301 -45.5 -15 -76.5 -23s-65.667 -15.167 -104 -21.5s-77.833 -11.5 -118.5 -15.5s-81 -6 -121 -6c-120 0 -224.833 16.167 -314.5 48.5s-164.334 77.833 -224.001 136.5s-104.334 128.5 -134.001 209.5
s-44.5 170.5 -44.5 268.5c0 69.333 7.83301 135.5 23.5 198.5s38.667 121.333 69 175s67.166 102.167 110.499 145.5s92.833 80.333 148.5 111s116.667 54.167 183 70.5s137.5 24.5 213.5 24.5c67.333 0 131.333 -4.83301 192 -14.5s110.334 -21.5 149.001 -35.5v-208
c-52 16.667 -104.5 29.334 -157.5 38.001s-106.5 13 -160.5 13c-72.667 0 -140.667 -10.833 -204 -32.5s-118.166 -53.667 -164.499 -96s-82.833 -94.5 -109.5 -156.5s-40 -133.667 -40 -215c0.666992 -158 42 -276.5 124 -355.5s198.333 -118.5 349 -118.5
c28 0 57 1.5 87 4.5s56.333 6.83301 79 11.5v313zM750.001 -339.001c0 21.333 -7.33301 36.832 -22 46.499s-33.667 14.5 -57 14.5v169c12 0.666992 23.667 1 35 1c69.333 0 124.666 -15.667 165.999 -47s62 -77.666 62 -138.999c0 -32 -6.66699 -65.167 -20 -99.5
s-31.666 -66.5 -54.999 -96.5h-179c20 28 36.667 54.833 50 80.5s20 49.167 20 70.5z" />
    <glyph glyph-name="gcommaaccent" unicode="&#x123;" horiz-adv-x="1126" 
d="M594 1322c0 -21.333 7.33301 -36.832 22 -46.499s33.667 -14.5 57 -14.5v-169c-10 -0.666992 -19.667 -1 -29 -1c-71.333 0 -128.166 15.167 -170.499 45.5s-63.5 75.166 -63.5 134.499c0 34 6.66699 68.333 20 103s31.666 67.667 54.999 99h179
c-19.333 -28 -35.833 -54.833 -49.5 -80.5s-20.5 -49.167 -20.5 -70.5zM759 -24.999c0 13.333 0.168945 29.8379 0.501953 49.5049s1.16602 36.167 2.49902 49.5h-2c-14.667 -12 -31.5 -23.833 -50.5 -35.5s-39.833 -22.334 -62.5 -32.001s-47.667 -17.334 -75 -23.001
s-55.333 -8.5 -84 -8.5c-51.333 0 -101.5 9.16699 -150.5 27.5s-92.5 47.333 -130.5 87s-68.667 90.5 -92 152.5s-35 136.667 -35 224s11.833 163.833 35.5 229.5s55.167 120.5 94.5 164.5s84.5 77.167 135.5 99.5s103.5 33.5 157.5 33.5c59.333 0 112 -12.5 158 -37.5
s83.667 -56.833 113 -95.5h4l10 109h208v-987c0 -56.667 -4.66699 -105.334 -14 -146.001s-23 -76.667 -41 -108c-21.333 -36.667 -48.5 -68.667 -81.5 -96s-70.667 -50 -113 -68s-88.833 -31.5 -139.5 -40.5s-104.334 -13.5 -161.001 -13.5c-32 0 -63.333 1.16699 -94 3.5
s-59.5 5.66602 -86.5 9.99902s-51.667 9.33301 -74 15s-41.166 11.5 -56.499 17.5v193c44 -14.667 90.167 -25.834 138.5 -33.501s99.166 -11.5 152.499 -11.5c106 0 188 20.5 246 61.5s87 103.167 87 186.5v23zM547.002 164.006c24 0 46.6641 3.00195 67.9971 9.00195
s41 13.667 59 23s34.167 19.666 48.5 30.999s26.5 22.666 36.5 33.999v433c-25.333 30 -56.666 55 -93.999 75s-77 30.333 -119 31c-14.667 0 -30.167 -1.83301 -46.5 -5.5s-32.833 -10.167 -49.5 -19.5s-32.5 -21.833 -47.5 -37.5s-28.167 -35.5 -39.5 -59.5
s-20.5 -52.667 -27.5 -86s-10.5 -72 -10.5 -116c0 -48.667 4.66699 -92.167 14 -130.5s23.333 -71 42 -98s41.834 -47.667 69.501 -62s59.834 -21.5 96.501 -21.5z" />
    <glyph glyph-name="Hcircumflex" unicode="&#x124;" horiz-adv-x="1430" 
d="M405 787h620v551h245v-1338h-245v582h-620v-582h-245v1338h245v-551zM611 1656h206l216 -247h-207l-110 126h-4l-111 -126h-206zM314 1338z" />
    <glyph glyph-name="hcircumflex" unicode="&#x125;" horiz-adv-x="1146" 
d="M377 1053c0 -50 -0.831055 -91.1738 -2.49805 -123.507s-4.5 -61.5 -8.5 -87.5h4c14 18.667 31.167 37.334 51.5 56.001s42.666 34.834 66.999 48.501s52 24.834 83 33.501s65.167 13 102.5 13c32 0 63.167 -3.16699 93.5 -9.5s58.666 -16.166 84.999 -29.499
s50.333 -30.666 72 -51.999s39.834 -46.666 54.501 -75.999c12.667 -25.333 22 -54 28 -86s9 -71 9 -117v-623h-237v591c0 30 -1.33301 54.5 -4 73.5s-7.33398 35.5 -14.001 49.5c-14 29.333 -34 50 -60 62s-55.667 18 -89 18c-46 -0.666992 -88.5 -11.667 -127.5 -33
s-74.833 -52.666 -107.5 -93.999v-667h-237v1448h237v-395zM163.002 1766.99h206l216 -247h-207l-110 126h-4l-111 -126h-206z" />
    <glyph glyph-name="Hbar" unicode="&#x126;" horiz-adv-x="1430" 
d="M0 1175h160v163h245v-163h620v163h245v-163h158v-197h-158v-978h-245v582h-620v-582h-245v978h-160v197zM1025 787v191h-620v-191h620z" />
    <glyph glyph-name="hbar" unicode="&#x127;" horiz-adv-x="1146" 
d="M377 1291h299.002v-185h-299v-53c0 -50 -0.833008 -91.167 -2.5 -123.5s-4.5 -61.5 -8.5 -87.5h4c14 18.667 30.833 37 50.5 55s42 34.167 67 48.5s53 25.833 84 34.5s65.167 13 102.5 13c32 0 63.167 -3.33301 93.5 -10s58.666 -16.5 84.999 -29.5
s50.333 -30.167 72 -51.5s39.834 -46.666 54.501 -75.999c12.667 -25.333 22 -54.333 28 -87s9 -71.334 9 -116.001v-623h-237v591c0 30 -1.33301 54.5 -4 73.5s-7.33398 35.5 -14.001 49.5c-14.667 29.333 -34.834 50 -60.501 62s-55.167 18 -88.5 18
c-46 0 -88.5 -10.833 -127.5 -32.5s-74.833 -53.167 -107.5 -94.5v-667h-237v1106h-140v185h140v157h237v-157z" />
    <glyph glyph-name="Itilde" unicode="&#x128;" horiz-adv-x="565" 
d="M160 0v1338h245v-1338h-245zM145 1656c26 0 51.668 -4.49902 77.001 -13.499s49 -19.167 71 -30.5c23.333 -12.667 45.166 -23.834 65.499 -33.501s37.833 -14.5 52.5 -14.5c18.667 0 31.834 6.33301 39.501 19s11.5 34.334 11.5 65.001h157c0.666992 -10 1 -21 1 -33
c0 -25.333 -2.83301 -50.666 -8.5 -75.999s-15.667 -48.333 -30 -69s-33.333 -37 -57 -49s-51.5 -18 -83.5 -18c-26.667 0 -52.334 4.5 -77.001 13.5s-48 19.167 -70 30.5l-65.5 33c-20.333 10 -38.166 15 -53.499 15c-18.667 0 -31.834 -6.33301 -39.501 -19
s-11.5 -34.334 -11.5 -65.001h-157c-0.666992 10.667 -1 21.667 -1 33c0 26 2.83301 51.667 8.5 77s15.667 48.166 30 68.499s33.333 36.5 57 48.5s51.5 18 83.5 18zM-106.999 1339z" />
    <glyph glyph-name="itilde" unicode="&#x129;" horiz-adv-x="509" 
d="M136 969h237v-969h-237v969zM118 1406c27.333 0 53.334 -4.5 78.001 -13.5s48 -19.167 70 -30.5l65 -33c20 -10 37.667 -15 53 -15c18.667 0 31.834 6.33301 39.501 19s11.5 34.334 11.5 65.001h157c0.666992 -8.66699 1 -21 1 -37c0 -19.333 -2.66699 -42.5 -8 -69.5
s-15.333 -50.833 -30 -71.5s-33.834 -37 -57.501 -49s-51.5 -18 -83.5 -18c-26 0 -51.5 4.5 -76.5 13.5s-49.167 19.5 -72.5 31.5c-24.667 12.667 -47 23.667 -67 33s-36.667 14 -50 14c-18.667 0 -31.834 -6.33301 -39.501 -19s-11.5 -34.334 -11.5 -65.001h-157
c-0.666992 13.333 -1 22 -1 26c0 28.667 2.5 55.5 7.5 80.5s15 48.333 30 70s34.333 38.5 58 50.5s51.5 18 83.5 18zM-92.999 969z" />
    <glyph glyph-name="Imacron" unicode="&#x12a;" horiz-adv-x="565" 
d="M160 0v1338h245v-1338h-245zM11 1617h560v-169h-560v169zM-109 1338z" />
    <glyph glyph-name="imacron" unicode="&#x12b;" horiz-adv-x="509" 
d="M136 969h237v-969h-237v969zM-17 1338h560v-167h-560v167zM-137 969z" />
    <glyph glyph-name="Ibreve" unicode="&#x12c;" horiz-adv-x="565" 
d="M160 0v1338h245v-1338h-245zM290 1568c32.667 0 60.6729 8.66699 84.0059 26s38.666 46 45.999 86h206c-4.66699 -43.333 -15.334 -82.166 -32.001 -116.499s-39.334 -63.5 -68.001 -87.5s-62.667 -42.333 -102 -55s-84 -19 -134 -19s-94.667 6.33301 -134 19
s-73.333 31 -102 55s-51.334 53.167 -68.001 87.5s-27.334 73.166 -32.001 116.499h206c7.33301 -40 22.666 -68.667 45.999 -86s51.333 -26 84 -26zM-109.994 1338z" />
    <glyph glyph-name="ibreve" unicode="&#x12d;" horiz-adv-x="509" 
d="M136 969h237v-969h-237v969zM262 1256c39.333 0 70.833 13.833 94.5 41.5s38.167 70.834 43.5 129.501h203c-2 -48.667 -10.5 -93.667 -25.5 -135s-36.667 -77 -65 -107s-63.333 -53.333 -105 -70s-90.167 -25 -145.5 -25c-54.667 0 -103 8.33301 -145 25
s-77.167 40 -105.5 70s-50 65.667 -65 107s-23.5 86.333 -25.5 135h203c5.33301 -58.667 19.833 -101.834 43.5 -129.501s55.167 -41.5 94.5 -41.5zM-138 969z" />
    <glyph glyph-name="Iogonek" unicode="&#x12e;" horiz-adv-x="565" 
d="M160 1338l244.999 0.000976562v-1338c-31.333 -17.333 -59 -36.333 -83 -57s-44.333 -42 -61 -64s-29.167 -43.833 -37.5 -65.5s-12.5 -41.5 -12.5 -59.5c0 -15.333 2.5 -28 7.5 -38s11.667 -18 20 -24s18 -10.333 29 -13s22.833 -4 35.5 -4c37.333 0 77 7.66699 119 23
v-162c-19.333 -6.66699 -42.833 -12.667 -70.5 -18s-59.167 -8 -94.5 -8c-37.333 0 -71.166 4.5 -101.499 13.5s-56.166 22.167 -77.499 39.5s-37.833 38.666 -49.5 63.999s-17.5 54.333 -17.5 87c0 30 3.66699 57.833 11 83.5s17.666 50 30.999 73s29 45.167 47 66.5
s38 42.333 60 63v1338z" />
    <glyph glyph-name="iogonek" unicode="&#x12f;" horiz-adv-x="509" 
d="M130 1448h249v-257h-249v257zM136 969l236.999 0.000976562v-969c-62 -39.333 -108.5 -81 -139.5 -125s-46.5 -84.333 -46.5 -121c0 -15.333 2.5 -28 7.5 -38s11.667 -18 20 -24s18 -10.333 29 -13s22.5 -4 34.5 -4c38 0 78 7.66699 120 23v-162
c-19.333 -6.66699 -43.333 -12.667 -72 -18s-59.667 -8 -93 -8c-37.333 0 -71.166 4.5 -101.499 13.5s-56.166 22.167 -77.499 39.5s-37.833 38.666 -49.5 63.999s-17.5 54.333 -17.5 87c0 30 3.66699 57.833 11 83.5s17.666 50 30.999 73s29 45.167 47 66.5
s38 42.333 60 63v969z" />
    <glyph glyph-name="Idotaccent" unicode="&#x130;" horiz-adv-x="565" 
d="M160 0v1338h245v-1338h-245zM167 1705h249v-257h-249v257zM-107 1338z" />
    <glyph glyph-name="dotlessi" unicode="&#x131;" horiz-adv-x="509" 
d="M136 969h237v-969h-237v969z" />
    <glyph glyph-name="IJ" unicode="&#x132;" horiz-adv-x="1337" 
d="M160 0v1338h245v-1338h-245zM937 1338l245.001 -0.00195312v-989c0 -44 -3.16699 -81.833 -9.5 -113.5s-15.833 -59.5 -28.5 -83.5c-16.667 -32 -37.667 -59.167 -63 -81.5s-54 -40.666 -86 -54.999s-66.333 -24.666 -103 -30.999s-74.667 -9.5 -114 -9.5
c-40.667 0 -80.167 3.33301 -118.5 10s-70.5 15.334 -96.5 26.001v209c29.333 -12 60.666 -21.333 93.999 -28s66.333 -10 99 -10c63.333 0 109.333 14.667 138 44s43 72.666 43 129.999v982z" />
    <glyph glyph-name="ij" unicode="&#x133;" horiz-adv-x="1022" 
d="M136 969h237v-969h-237v969zM130 1448h249v-257h-249v257zM886 -127c0 -90.667 -14.334 -160.666 -43.001 -209.999c-30 -52 -74 -90.5 -132 -115.5s-126.667 -37.5 -206 -37.5c-35.333 0 -67.166 2 -95.499 6s-55.166 9.66699 -80.499 17v194
c21.333 -6 45.166 -11.333 71.499 -16s51.5 -7 75.5 -7c32 0 60 3.66699 84 11s43.333 20 58 38c11.333 13.333 19.333 31.666 24 54.999s7 51.333 7 84v1077h237v-1096zM642.999 1448h249v-257h-249v257z" />
    <glyph glyph-name="Jcircumflex" unicode="&#x134;" horiz-adv-x="824" 
d="M424 1338l245.001 -0.00195312v-989c0 -44 -3.16699 -81.833 -9.5 -113.5s-15.833 -59.5 -28.5 -83.5c-16.667 -32 -37.667 -59.167 -63 -81.5s-54 -40.666 -86 -54.999s-66.333 -24.666 -103 -30.999s-74.667 -9.5 -114 -9.5c-40.667 0 -80.167 3.33301 -118.5 10
s-70.5 15.334 -96.5 26.001v209c29.333 -12 60.666 -21.333 93.999 -28s66.333 -10 99 -10c63.333 0 109.333 14.667 138 44s43 72.666 43 129.999v982zM443.001 1656h206l216 -247h-207l-110 126h-4l-111 -126h-206zM146.001 1338z" />
    <glyph glyph-name="jcircumflex" unicode="&#x135;" horiz-adv-x="538" 
d="M402 -127c0 -90.667 -14.333 -160.666 -43 -209.999c-30 -52 -74 -90.5 -132 -115.5s-126.667 -37.5 -206 -37.5c-34 0 -65.5 2 -94.5 6s-56.167 9.66699 -81.5 17v194c20 -5.33301 43 -10.5 69 -15.5s52 -7.5 78 -7.5c32 0 60 3.66699 84 11s43.333 20 58 38
c11.333 13.333 19.333 31.666 24 54.999s7 51.333 7 84v1077h237v-1096zM181 1473h206l210 -349h-185l-126 212h-4l-126 -212h-185z" />
    <glyph glyph-name="Kcommaaccent" unicode="&#x136;" horiz-adv-x="1294" 
d="M160 0v1338h245v-609h4l505 609h304l-558 -663l604 -675h-314l-541 604h-4v-604h-245zM635 -339c0 21.333 -7.33301 36.832 -22 46.499s-33.667 14.5 -57 14.5v169c12 0.666992 23.667 1 35 1c69.333 0 124.666 -15.667 165.999 -47s62 -77.666 62 -138.999
c0 -32 -6.66699 -65.167 -20 -99.5s-31.666 -66.5 -54.999 -96.5h-179c20 28 36.667 54.833 50 80.5s20 49.167 20 70.5z" />
    <glyph glyph-name="kcommaaccent" unicode="&#x137;" horiz-adv-x="1067" 
d="M140 1448h237v-872h5l369 393h293l-425 -455l428 -514h-287l-379 451h-4v-451h-237v1448zM516 -339c0 21.333 -7.33301 36.832 -22 46.499s-33.667 14.5 -57 14.5v169c12 0.666992 23.667 1 35 1c69.333 0 124.666 -15.667 165.999 -47s62 -77.666 62 -138.999
c0 -32 -6.66699 -65.167 -20 -99.5s-31.666 -66.5 -54.999 -96.5h-179c20 28 36.667 54.833 50 80.5s20 49.167 20 70.5z" />
    <glyph glyph-name="kgreenlandic" unicode="&#x138;" horiz-adv-x="1057" 
d="M130 969h237v-399h5l369 399h293l-425 -461l428 -508h-287l-379 445h-4v-445h-237v969z" />
    <glyph glyph-name="Lacute" unicode="&#x139;" horiz-adv-x="1101" 
d="M405 1338v-1133h626v-205h-871v1338h245zM550 1656l-190 -247h-188l138 247h240zM-6 1338z" />
    <glyph glyph-name="lacute" unicode="&#x13a;" horiz-adv-x="517" 
d="M140 0v1448h237v-1448h-237zM532 1766l-190 -247h-188l138 247h240z" />
    <glyph glyph-name="Lcommaaccent" unicode="&#x13b;" horiz-adv-x="1101" 
d="M405 1338v-1133h626v-205h-871v1338h245zM583 -339c0 21.333 -7.33301 36.832 -22 46.499s-33.667 14.5 -57 14.5v169c12 0.666992 23.667 1 35 1c69.333 0 124.666 -15.667 165.999 -47s62 -77.666 62 -138.999c0 -32 -6.66699 -65.167 -20 -99.5
s-31.666 -66.5 -54.999 -96.5h-179c20 28 36.667 54.833 50 80.5s20 49.167 20 70.5z" />
    <glyph glyph-name="lcommaaccent" unicode="&#x13c;" horiz-adv-x="517" 
d="M140 0v1448h237v-1448h-237zM228 -339c0 21.333 -7.33301 36.832 -22 46.499s-33.667 14.5 -57 14.5v169c12 0.666992 23.667 1 35 1c69.333 0 124.666 -15.667 165.999 -47s62 -77.666 62 -138.999c0 -32 -6.66699 -65.167 -20 -99.5s-31.666 -66.5 -54.999 -96.5h-179
c20 28 36.667 54.833 50 80.5s20 49.167 20 70.5z" />
    <glyph glyph-name="Lcaron" unicode="&#x13d;" horiz-adv-x="1101" 
d="M405 1338v-1133h626v-205h-871v1338h245zM672 1116c0 21.333 -7.33398 36.8311 -22.001 46.498s-33.667 14.5 -57 14.5v169c12 0.666992 23.333 1 34 1c70.667 0 126.5 -15.5 167.5 -46.5s61.5 -75.5 61.5 -133.5c0 -34 -6.66699 -68.333 -20 -103
s-31.666 -67.667 -54.999 -99h-179c19.333 26.667 35.833 53.334 49.5 80.001s20.5 50.334 20.5 71.001z" />
    <glyph glyph-name="lcaron" unicode="&#x13e;" horiz-adv-x="517" 
d="M140 0v1448h237v-1448h-237zM560 1217c0 21.333 -7.33398 36.8311 -22.001 46.498s-33.667 14.5 -57 14.5v169c12 0.666992 23.333 1 34 1c70.667 0 126.5 -15.5 167.5 -46.5s61.5 -75.5 61.5 -133.5c0 -34 -6.66699 -68.333 -20 -103s-31.666 -67.667 -54.999 -99h-179
c19.333 26.667 35.833 53.334 49.5 80.001s20.5 50.334 20.5 71.001z" />
    <glyph glyph-name="Ldot" unicode="&#x13f;" horiz-adv-x="1101" 
d="M405 1338v-1133h626v-205h-871v1338h245zM625 880h249v-257h-249v257z" />
    <glyph glyph-name="ldot" unicode="&#x140;" horiz-adv-x="766" 
d="M140 0v1448h237v-1448h-237zM533 823h249v-257h-249v257z" />
    <glyph glyph-name="Lslash" unicode="&#x141;" horiz-adv-x="1101" 
d="M751 736l-346 -129v-402h626v-205h-871v517l-146 -54v210l146 54v611h245v-521l346 129v-210z" />
    <glyph glyph-name="lslash" unicode="&#x142;" horiz-adv-x="517" 
d="M140 0v555l-138 -82v216l138 82v677h237v-540l158 94v-216l-158 -94v-692h-237z" />
    <glyph glyph-name="Nacute" unicode="&#x143;" horiz-adv-x="1490" 
d="M857 716c96 -136.667 174 -258.001 234 -364.001h6c-8 174 -12 300.667 -12 380v606h245v-1338h-257l-436 616c-76.667 106.667 -156 230.334 -238 371.001h-6c8 -164 12 -291 12 -381v-606h-245v1338h257zM1020 1656l-190 -247h-188l138 247h240zM464 1338z" />
    <glyph glyph-name="nacute" unicode="&#x144;" horiz-adv-x="1136" 
d="M348 834h4.00098c14 20 31.667 39.667 53 59s45.666 36.333 72.999 51s57.5 26.5 90.5 35.5s68.167 13.5 105.5 13.5c35.333 0 69.5 -4 102.5 -12s63.167 -20.5 90.5 -37.5s51.5 -39 72.5 -66s37.5 -59.167 49.5 -96.5c6.66699 -20.667 11.167 -43.167 13.5 -67.5
s3.5 -52.5 3.5 -84.5v-629h-237v592c0 26 -1 48.333 -3 67s-5.66699 35 -11 49c-12 30.667 -30.167 52.667 -54.5 66s-53.833 20 -88.5 20c-46 0 -90.167 -10.833 -132.5 -32.5s-79.833 -53.167 -112.5 -94.5v-667h-237v969h196zM870.001 1473l-165 -349h-184l119 349h230z
M282.001 968z" />
    <glyph glyph-name="Ncommaaccent" unicode="&#x145;" horiz-adv-x="1490" 
d="M857 716c96 -136.667 174 -258.001 234 -364.001h6c-8 174 -12 300.667 -12 380v606h245v-1338h-257l-436 616c-76.667 106.667 -156 230.334 -238 371.001h-6c8 -164 12 -291 12 -381v-606h-245v1338h257zM709 -339.001c0 21.333 -7.33301 36.832 -22 46.499
s-33.667 14.5 -57 14.5v169c12 0.666992 23.667 1 35 1c69.333 0 124.666 -15.667 165.999 -47s62 -77.666 62 -138.999c0 -32 -6.66699 -65.167 -20 -99.5s-31.666 -66.5 -54.999 -96.5h-179c20 28 36.667 54.833 50 80.5s20 49.167 20 70.5z" />
    <glyph glyph-name="ncommaaccent" unicode="&#x146;" horiz-adv-x="1136" 
d="M348 834h4.00098c14 20 31.667 39.667 53 59s45.666 36.333 72.999 51s57.5 26.5 90.5 35.5s68.167 13.5 105.5 13.5c35.333 0 69.5 -4 102.5 -12s63.167 -20.5 90.5 -37.5s51.5 -39 72.5 -66s37.5 -59.167 49.5 -96.5c6.66699 -20.667 11.167 -43.167 13.5 -67.5
s3.5 -52.5 3.5 -84.5v-629h-237v592c0 26 -1 48.333 -3 67s-5.66699 35 -11 49c-12 30.667 -30.167 52.667 -54.5 66s-53.833 20 -88.5 20c-46 0 -90.167 -10.833 -132.5 -32.5s-79.833 -53.167 -112.5 -94.5v-667h-237v969h196zM537.001 -339
c0 21.333 -7.33301 36.832 -22 46.499s-33.667 14.5 -57 14.5v169c12 0.666992 23.667 1 35 1c69.333 0 124.666 -15.667 165.999 -47s62 -77.666 62 -138.999c0 -32 -6.66699 -65.167 -20 -99.5s-31.666 -66.5 -54.999 -96.5h-179c20 28 36.667 54.833 50 80.5
s20 49.167 20 70.5z" />
    <glyph glyph-name="Ncaron" unicode="&#x147;" horiz-adv-x="1490" 
d="M857 716c96 -136.667 174 -258.001 234 -364.001h6c-8 174 -12 300.667 -12 380v606h245v-1338h-257l-436 616c-76.667 106.667 -156 230.334 -238 371.001h-6c8 -164 12 -291 12 -381v-606h-245v1338h257zM849 1410h-206l-216 247h207l110 -126h4l111 126h206zM346 1338
z" />
    <glyph glyph-name="ncaron" unicode="&#x148;" horiz-adv-x="1136" 
d="M348 834h4.00098c14 20 31.667 39.667 53 59s45.666 36.333 72.999 51s57.5 26.5 90.5 35.5s68.167 13.5 105.5 13.5c35.333 0 69.5 -4 102.5 -12s63.167 -20.5 90.5 -37.5s51.5 -39 72.5 -66s37.5 -59.167 49.5 -96.5c6.66699 -20.667 11.167 -43.167 13.5 -67.5
s3.5 -52.5 3.5 -84.5v-629h-237v592c0 26 -1 48.333 -3 67s-5.66699 35 -11 49c-12 30.667 -30.167 52.667 -54.5 66s-53.833 20 -88.5 20c-46 0 -90.167 -10.833 -132.5 -32.5s-79.833 -53.167 -112.5 -94.5v-667h-237v969h196zM697.001 1124h-206l-210 349h185l126 -212h4
l126 212h185zM194.001 969z" />
    <glyph glyph-name="napostrophe" unicode="&#x149;" horiz-adv-x="1136" 
d="M348 834h4.00098c14 20 31.667 39.667 53 59s45.666 36.333 72.999 51s57.5 26.5 90.5 35.5s68.167 13.5 105.5 13.5c35.333 0 69.5 -4 102.5 -12s63.167 -20.5 90.5 -37.5s51.5 -39 72.5 -66s37.5 -59.167 49.5 -96.5c6.66699 -20.667 11.167 -43.167 13.5 -67.5
s3.5 -52.5 3.5 -84.5v-629h-237v592c0 26 -1 48.333 -3 67s-5.66699 35 -11 49c-12 30.667 -30.167 52.667 -54.5 66s-53.833 20 -88.5 20c-46 0 -90.167 -10.833 -132.5 -32.5s-79.833 -53.167 -112.5 -94.5v-667h-237v969h196zM61.001 1217
c0 21.333 -7.33398 36.8311 -22.001 46.498s-33.667 14.5 -57 14.5v169c12 0.666992 23.333 1 34 1c70.667 0 126.5 -15.5 167.5 -46.5s61.5 -75.5 61.5 -133.5c0 -34 -6.66699 -68.333 -20 -103s-31.666 -67.667 -54.999 -99h-179c19.333 26.667 35.833 53.334 49.5 80.001
s20.5 50.334 20.5 71.001zM25 968.998z" />
    <glyph glyph-name="Eng" unicode="&#x14a;" horiz-adv-x="1490" 
d="M1330 1338l-0.000976562 -1401c0 -112.667 -29.667 -199 -89 -259s-152.666 -90.333 -279.999 -91c-12.667 0 -26.5 0.5 -41.5 1.5s-28.167 2.5 -39.5 4.5v199c16.667 -3.33301 34 -5 52 -5c32 0 58.333 3.5 79 10.5s37 17.5 49 31.5s20.5 31.667 25.5 53s7.5 46 7.5 74
v19l-456 641c-76.667 106.667 -156 230.334 -238 371.001h-6c8 -164 12 -291 12 -381v-606h-245v1338h257l440 -622c96 -136.667 174 -258 234 -364h6c-8 174 -12 300.667 -12 380v606h245z" />
    <glyph glyph-name="eng" unicode="&#x14b;" horiz-adv-x="1136" 
d="M637 -413c-12.667 0 -26.5 0.500977 -41.5 1.50098s-28.167 2.5 -39.5 4.5v193c16.667 -3.33301 34 -5 52 -5c32 0 58.333 3.83301 79 11.5s37 18.834 49 33.501s20.5 33 25.5 55s7.5 47 7.5 75v636c0 27.333 -1 50.166 -3 68.499s-5.66699 34.166 -11 47.499
c-12 31.333 -30.333 53.5 -55 66.5s-54 19.5 -88 19.5c-46 0 -90.167 -10.833 -132.5 -32.5s-79.833 -53.167 -112.5 -94.5v-667h-237v969h196l22 -135h4c14 20 31.667 39.667 53 59s45.666 36.333 72.999 51s57.5 26.5 90.5 35.5s68.167 13.5 105.5 13.5
c35.333 0 69.5 -4 102.5 -12s63.167 -20.5 90.5 -37.5s51.5 -39 72.5 -66s37.5 -59.167 49.5 -96.5c6.66699 -20.667 11.167 -43.167 13.5 -67.5s3.5 -52.5 3.5 -84.5v-692c0 -112 -29.667 -198.333 -89 -259s-152.666 -91 -279.999 -91z" />
    <glyph glyph-name="Omacron" unicode="&#x14c;" horiz-adv-x="1504" 
d="M1151 669c0 81.333 -10 152.5 -30 213.5s-47.667 111.833 -83 152.5s-77.333 71 -126 91s-102 30 -160 30s-111.333 -10 -160 -30s-90.667 -50.333 -126 -91s-63 -91.5 -83 -152.5s-30 -132.167 -30 -213.5s10 -152.5 30 -213.5s47.667 -111.667 83 -152
s77.333 -70.666 126 -90.999s102 -30.5 160 -30.5s111.333 10.167 160 30.5s90.667 50.666 126 90.999s63 91 83 152s30 132.167 30 213.5zM1404 669c0 -102 -14.5 -195.5 -43.5 -280.5s-71.333 -158.167 -127 -219.5s-124 -109 -205 -143s-173.167 -51 -276.5 -51
s-195.5 17 -276.5 51s-149.333 81.667 -205 143s-98 134.5 -127 219.5s-43.5 178.5 -43.5 280.5s14.5 195.5 43.5 280.5s71.333 158.167 127 219.5s124 109 205 143s173.167 51 276.5 51s195.5 -17 276.5 -51s149.333 -81.667 205 -143s98 -134.5 127 -219.5
s43.5 -178.5 43.5 -280.5zM474 1617h560v-169h-560v169zM354 1338z" />
    <glyph glyph-name="omacron" unicode="&#x14d;" horiz-adv-x="1134" 
d="M809 484c0 51.333 -5.99805 96.666 -17.998 135.999s-28.667 72.333 -50 99s-47 46.667 -77 60s-62.667 20 -98 20c-34.667 0 -66.834 -6.66699 -96.501 -20s-55.167 -33.333 -76.5 -60s-38 -59.667 -50 -99s-18 -84.666 -18 -135.999s6 -96.666 18 -135.999
s28.833 -72.166 50.5 -98.499s47.334 -46.333 77.001 -60s62.167 -20.5 97.5 -20.5s67.666 6.83301 96.999 20.5s54.666 33.667 75.999 60s38 59.166 50 98.499s18 84.666 18 135.999zM1054 484c0 -76 -11.333 -145.333 -34 -208s-55.167 -116.334 -97.5 -161.001
s-93.5 -79.167 -153.5 -103.5s-127 -36.5 -201 -36.5c-76 0 -144.167 12.167 -204.5 36.5s-111.5 58.833 -153.5 103.5s-74.167 98.334 -96.5 161.001s-33.5 132 -33.5 208s11.333 145.333 34 208s55.167 116.334 97.5 161.001s93.5 79.167 153.5 103.5s127 36.5 201 36.5
c76 0 144.167 -12.167 204.5 -36.5s111.5 -58.833 153.5 -103.5s74.167 -98.334 96.5 -161.001s33.5 -132 33.5 -208zM286.002 1338h560v-167h-560v167zM166.002 969z" />
    <glyph glyph-name="Obreve" unicode="&#x14e;" horiz-adv-x="1504" 
d="M1151 669c0 81.333 -10 152.5 -30 213.5s-47.667 111.833 -83 152.5s-77.333 71 -126 91s-102 30 -160 30s-111.333 -10 -160 -30s-90.667 -50.333 -126 -91s-63 -91.5 -83 -152.5s-30 -132.167 -30 -213.5s10 -152.5 30 -213.5s47.667 -111.667 83 -152
s77.333 -70.666 126 -90.999s102 -30.5 160 -30.5s111.333 10.167 160 30.5s90.667 50.666 126 90.999s63 91 83 152s30 132.167 30 213.5zM1404 669c0 -102 -14.5 -195.5 -43.5 -280.5s-71.333 -158.167 -127 -219.5s-124 -109 -205 -143s-173.167 -51 -276.5 -51
s-195.5 17 -276.5 51s-149.333 81.667 -205 143s-98 134.5 -127 219.5s-43.5 178.5 -43.5 280.5s14.5 195.5 43.5 280.5s71.333 158.167 127 219.5s124 109 205 143s173.167 51 276.5 51s195.5 -17 276.5 -51s149.333 -81.667 205 -143s98 -134.5 127 -219.5
s43.5 -178.5 43.5 -280.5zM753 1568c32.667 0 60.6729 8.66699 84.0059 26s38.666 46 45.999 86h206c-4.66699 -43.333 -15.334 -82.166 -32.001 -116.499s-39.334 -63.5 -68.001 -87.5s-62.667 -42.333 -102 -55s-84 -19 -134 -19s-94.667 6.33301 -134 19
s-73.333 31 -102 55s-51.334 53.167 -68.001 87.5s-27.334 73.166 -32.001 116.499h206c7.33301 -40 22.666 -68.667 45.999 -86s51.333 -26 84 -26zM353.006 1338z" />
    <glyph glyph-name="obreve" unicode="&#x14f;" horiz-adv-x="1134" 
d="M809 484c0 51.333 -5.99805 96.666 -17.998 135.999s-28.667 72.333 -50 99s-47 46.667 -77 60s-62.667 20 -98 20c-34.667 0 -66.834 -6.66699 -96.501 -20s-55.167 -33.333 -76.5 -60s-38 -59.667 -50 -99s-18 -84.666 -18 -135.999s6 -96.666 18 -135.999
s28.833 -72.166 50.5 -98.499s47.334 -46.333 77.001 -60s62.167 -20.5 97.5 -20.5s67.666 6.83301 96.999 20.5s54.666 33.667 75.999 60s38 59.166 50 98.499s18 84.666 18 135.999zM1054 484c0 -76 -11.333 -145.333 -34 -208s-55.167 -116.334 -97.5 -161.001
s-93.5 -79.167 -153.5 -103.5s-127 -36.5 -201 -36.5c-76 0 -144.167 12.167 -204.5 36.5s-111.5 58.833 -153.5 103.5s-74.167 98.334 -96.5 161.001s-33.5 132 -33.5 208s11.333 145.333 34 208s55.167 116.334 97.5 161.001s93.5 79.167 153.5 103.5s127 36.5 201 36.5
c76 0 144.167 -12.167 204.5 -36.5s111.5 -58.833 153.5 -103.5s74.167 -98.334 96.5 -161.001s33.5 -132 33.5 -208zM566.002 1256c39.333 0 70.833 13.833 94.5 41.5s38.167 70.834 43.5 129.501h203c-2 -48.667 -10.5 -93.667 -25.5 -135s-36.667 -77 -65 -107
s-63.333 -53.333 -105 -70s-90.167 -25 -145.5 -25c-54.667 0 -103 8.33301 -145 25s-77.167 40 -105.5 70s-50 65.667 -65 107s-23.5 86.333 -25.5 135h203c5.33301 -58.667 19.833 -101.834 43.5 -129.501s55.167 -41.5 94.5 -41.5zM166.002 969z" />
    <glyph glyph-name="Ohungarumlaut" unicode="&#x150;" horiz-adv-x="1504" 
d="M1151 669c0 81.333 -10 152.5 -30 213.5s-47.667 111.833 -83 152.5s-77.333 71 -126 91s-102 30 -160 30s-111.333 -10 -160 -30s-90.667 -50.333 -126 -91s-63 -91.5 -83 -152.5s-30 -132.167 -30 -213.5s10 -152.5 30 -213.5s47.667 -111.667 83 -152
s77.333 -70.666 126 -90.999s102 -30.5 160 -30.5s111.333 10.167 160 30.5s90.667 50.666 126 90.999s63 91 83 152s30 132.167 30 213.5zM1404 669c0 -102 -14.5 -195.5 -43.5 -280.5s-71.333 -158.167 -127 -219.5s-124 -109 -205 -143s-173.167 -51 -276.5 -51
s-195.5 17 -276.5 51s-149.333 81.667 -205 143s-98 134.5 -127 219.5s-43.5 178.5 -43.5 280.5s14.5 195.5 43.5 280.5s71.333 158.167 127 219.5s124 109 205 143s173.167 51 276.5 51s195.5 -17 276.5 -51s149.333 -81.667 205 -143s98 -134.5 127 -219.5
s43.5 -178.5 43.5 -280.5zM880 1656l-190 -247h-188l138 247h240zM1207 1656l-207 -247h-192l155 247h244zM448 1338z" />
    <glyph glyph-name="ohungarumlaut" unicode="&#x151;" horiz-adv-x="1134" 
d="M809 484c0 51.333 -5.99805 96.666 -17.998 135.999s-28.667 72.333 -50 99s-47 46.667 -77 60s-62.667 20 -98 20c-34.667 0 -66.834 -6.66699 -96.501 -20s-55.167 -33.333 -76.5 -60s-38 -59.667 -50 -99s-18 -84.666 -18 -135.999s6 -96.666 18 -135.999
s28.833 -72.166 50.5 -98.499s47.334 -46.333 77.001 -60s62.167 -20.5 97.5 -20.5s67.666 6.83301 96.999 20.5s54.666 33.667 75.999 60s38 59.166 50 98.499s18 84.666 18 135.999zM1054 484c0 -76 -11.333 -145.333 -34 -208s-55.167 -116.334 -97.5 -161.001
s-93.5 -79.167 -153.5 -103.5s-127 -36.5 -201 -36.5c-76 0 -144.167 12.167 -204.5 36.5s-111.5 58.833 -153.5 103.5s-74.167 98.334 -96.5 161.001s-33.5 132 -33.5 208s11.333 145.333 34 208s55.167 116.334 97.5 161.001s93.5 79.167 153.5 103.5s127 36.5 201 36.5
c76 0 144.167 -12.167 204.5 -36.5s111.5 -58.833 153.5 -103.5s74.167 -98.334 96.5 -161.001s33.5 -132 33.5 -208zM660.002 1473l-165 -349h-184l119 349h230zM988.002 1473l-187 -349h-190l141 349h236zM244.002 969z" />
    <glyph glyph-name="OE" unicode="&#x152;" horiz-adv-x="2144" 
d="M1386 205h658v-205h-893v138h-4c-46.667 -50.667 -103.334 -90.5 -170.001 -119.5s-146.334 -43.5 -239.001 -43.5c-99.333 0 -188.5 17 -267.5 51s-146 81.667 -201 143s-97 134.5 -126 219.5s-43.5 178.5 -43.5 280.5s14.5 195.5 43.5 280.5
s70.833 158.167 125.5 219.5s121.334 109 200.001 143s167.334 51 266.001 51c92 0 172 -14.5 240 -43.5s125.333 -69.167 172 -120.5h4v139h857v-205h-622v-346h534v-205h-534v-377zM1151 669c0 81.333 -10 152.5 -30 213.5s-47.667 111.833 -83 152.5s-77.333 71 -126 91
s-102 30 -160 30s-111.333 -10 -160 -30s-90.667 -50.333 -126 -91s-63 -91.5 -83 -152.5s-30 -132.167 -30 -213.5s10 -152.5 30 -213.5s47.667 -111.667 83 -152s77.333 -70.666 126 -90.999s102 -30.5 160 -30.5s111.333 10.167 160 30.5s90.667 50.666 126 90.999
s63 91 83 152s30 132.167 30 213.5z" />
    <glyph glyph-name="oe" unicode="&#x153;" horiz-adv-x="1779" 
d="M1358 166c46 0 93.9961 4.66992 143.996 14.0029s100.667 22.666 152 39.999v-189c-20.667 -8 -44 -15.5 -70 -22.5s-53.5 -13 -82.5 -18s-58.667 -8.83301 -89 -11.5s-60.5 -4 -90.5 -4c-42 0 -82.667 3.83301 -122 11.5s-76.166 19.167 -110.499 34.5
s-65.666 34.666 -93.999 57.999s-52.5 50.666 -72.5 81.999h-4c-19.333 -27.333 -41.666 -52.333 -66.999 -75s-53.666 -42.334 -84.999 -59.001s-65.666 -29.5 -102.999 -38.5s-77.333 -13.5 -120 -13.5c-69.333 0 -132.5 12.167 -189.5 36.5s-105.833 58.833 -146.5 103.5
s-72.167 98.334 -94.5 161.001s-33.5 132 -33.5 208s11.5 145.333 34.5 208s55.333 116.334 97 161.001s91.5 79.167 149.5 103.5s122.333 36.5 193 36.5c83.333 0 155.833 -17.333 217.5 -52s112.5 -81 152.5 -139h4c19.333 31.333 41.5 58.833 66.5 82.5
s52.167 43.5 81.5 59.5s60.166 28.167 92.499 36.5s64.833 12.5 97.5 12.5c61.333 0 118 -9.33301 170 -28s96.667 -48 134 -88s66.5 -91.167 87.5 -153.5s31.5 -137.166 31.5 -224.499c0 -24 -1 -52.333 -3 -85h-635c3.33301 -44.667 13.333 -82.834 30 -114.501
s38.5 -57.334 65.5 -77.001s58.5 -34 94.5 -43s75 -13.5 117 -13.5zM808.996 484.003c0 51.333 -5.99805 96.666 -17.998 135.999s-28.667 72.333 -50 99s-47 46.667 -77 60s-62.667 20 -98 20c-34.667 0 -66.834 -6.66699 -96.501 -20s-55.167 -33.333 -76.5 -60
s-38 -59.667 -50 -99s-18 -84.666 -18 -135.999s6 -96.666 18 -135.999s28.833 -72.166 50.5 -98.499s47.334 -46.333 77.001 -60s62.167 -20.5 97.5 -20.5s67.666 6.83301 96.999 20.5s54.666 33.667 75.999 60s38 59.166 50 98.499s18 84.666 18 135.999zM1263 808.003
c-30 0 -56.667 -5.5 -80 -16.5s-43.5 -26 -60.5 -45s-30.5 -41.167 -40.5 -66.5s-16.667 -52.333 -20 -81h381c0 28.667 -3.83301 55.667 -11.5 81s-19 47.5 -34 66.5s-33.667 34 -56 45s-48.5 16.5 -78.5 16.5z" />
    <glyph glyph-name="Racute" unicode="&#x154;" horiz-adv-x="1286" 
d="M1150 936c0 -93.333 -25.834 -172.5 -77.501 -237.5s-131.5 -113.167 -239.5 -144.5v-4l398 -550h-294l-364 518h-168v-518h-245v1338h407c67.333 0 130 -3.83301 188 -11.5s107.667 -19.167 149 -34.5c78.667 -30 139.334 -74.5 182.001 -133.5s64 -133.167 64 -222.5z
M525.999 723c56 0 103.499 2.5 142.499 7.5s71.833 12.5 98.5 22.5c49.333 18.667 83.5 44.167 102.5 76.5s28.5 69.5 28.5 111.5c0 36 -7.5 67.833 -22.5 95.5s-40.5 49.5 -76.5 65.5c-23.333 10.667 -52.666 18.5 -87.999 23.5s-79 7.5 -131 7.5h-175v-410h121z
M891.998 1656l-190 -247h-188l138 247h240zM335.998 1338z" />
    <glyph glyph-name="racute" unicode="&#x155;" horiz-adv-x="716" 
d="M665 1473l-165 -349h-184l119 349h230zM706 781l-20 0.00195312c-72.667 0 -136.5 -10.833 -191.5 -32.5s-97.5 -54.834 -127.5 -99.501v-649h-237v969h196l22 -135h4c28 49.333 66.5 88.166 115.5 116.499s107.833 42.5 176.5 42.5c24 0 44.667 -1.33301 62 -4v-208z
" />
    <glyph glyph-name="Rcommaaccent" unicode="&#x156;" horiz-adv-x="1286" 
d="M1150 936c0 -93.333 -25.834 -172.5 -77.501 -237.5s-131.5 -113.167 -239.5 -144.5v-4l398 -550h-294l-364 518h-168v-518h-245v1338h407c67.333 0 130 -3.83301 188 -11.5s107.667 -19.167 149 -34.5c78.667 -30 139.334 -74.5 182.001 -133.5s64 -133.167 64 -222.5z
M525.999 723c56 0 103.499 2.5 142.499 7.5s71.833 12.5 98.5 22.5c49.333 18.667 83.5 44.167 102.5 76.5s28.5 69.5 28.5 111.5c0 36 -7.5 67.833 -22.5 95.5s-40.5 49.5 -76.5 65.5c-23.333 10.667 -52.666 18.5 -87.999 23.5s-79 7.5 -131 7.5h-175v-410h121z
M613.998 -339c0 21.333 -7.33301 36.832 -22 46.499s-33.667 14.5 -57 14.5v169c12 0.666992 23.667 1 35 1c69.333 0 124.666 -15.667 165.999 -47s62 -77.666 62 -138.999c0 -32 -6.66699 -65.167 -20 -99.5s-31.666 -66.5 -54.999 -96.5h-179
c20 28 36.667 54.833 50 80.5s20 49.167 20 70.5z" />
    <glyph glyph-name="rcommaaccent" unicode="&#x157;" horiz-adv-x="716" 
d="M218 -339c0 21.333 -7.33301 36.832 -22 46.499s-33.667 14.5 -57 14.5v169c12 0.666992 23.667 1 35 1c69.333 0 124.666 -15.667 165.999 -47s62 -77.666 62 -138.999c0 -32 -6.66699 -65.167 -20 -99.5s-31.666 -66.5 -54.999 -96.5h-179c20 28 36.667 54.833 50 80.5
s20 49.167 20 70.5zM706 780.999l-20 0.00195312c-72.667 0 -136.5 -10.833 -191.5 -32.5s-97.5 -54.834 -127.5 -99.501v-649h-237v969h196l22 -135h4c28 49.333 66.5 88.166 115.5 116.499s107.833 42.5 176.5 42.5c24 0 44.667 -1.33301 62 -4v-208z" />
    <glyph glyph-name="Rcaron" unicode="&#x158;" horiz-adv-x="1286" 
d="M1150 936c0 -93.333 -25.834 -172.5 -77.501 -237.5s-131.5 -113.167 -239.5 -144.5v-4l398 -550h-294l-364 518h-168v-518h-245v1338h407c67.333 0 130 -3.83301 188 -11.5s107.667 -19.167 149 -34.5c78.667 -30 139.334 -74.5 182.001 -133.5s64 -133.167 64 -222.5z
M525.999 723c56 0 103.499 2.5 142.499 7.5s71.833 12.5 98.5 22.5c49.333 18.667 83.5 44.167 102.5 76.5s28.5 69.5 28.5 111.5c0 36 -7.5 67.833 -22.5 95.5s-40.5 49.5 -76.5 65.5c-23.333 10.667 -52.666 18.5 -87.999 23.5s-79 7.5 -131 7.5h-175v-410h121z
M729.998 1410h-206l-216 247h207l110 -126h4l111 126h206zM226.998 1338z" />
    <glyph glyph-name="rcaron" unicode="&#x159;" horiz-adv-x="716" 
d="M534 1124h-206l-210 349h185l126 -212h4l126 212h185zM706 781l-20 0.00195312c-72.667 0 -136.5 -10.833 -191.5 -32.5s-97.5 -54.834 -127.5 -99.501v-649h-237v969h196l22 -135h4c28 49.333 66.5 88.166 115.5 116.499s107.833 42.5 176.5 42.5
c24 0 44.667 -1.33301 62 -4v-208z" />
    <glyph glyph-name="Sacute" unicode="&#x15a;" horiz-adv-x="1182" 
d="M818 384c0 34 -8.33203 61.5029 -24.999 82.5029s-39.334 38.167 -68.001 51.5s-60.834 24.166 -96.501 32.499s-73.167 16.5 -112.5 24.5c-52 11.333 -101.667 24.833 -149 40.5s-89 37.334 -125 65.001s-64.667 62.834 -86 105.501s-32 96 -32 160
c0 70.667 12.333 132.167 37 184.5s58.167 95.666 100.5 129.999s92 60 149 77s121.167 25.5 192.5 25.5s143 -7 215 -21s134 -32 186 -54v-210c-69.333 27.333 -135.833 47.166 -199.5 59.499s-123.5 18.5 -179.5 18.5c-80.667 0 -142.834 -14.667 -186.501 -44
s-65.5 -73.333 -65.5 -132c0 -34 7.16699 -62 21.5 -84s33.833 -40.167 58.5 -54.5s53 -25.833 85 -34.5s66 -16.667 102 -24c56.667 -12 110.834 -25.833 162.501 -41.5s97.5 -37.5 137.5 -65.5s71.667 -64.5 95 -109.5s35 -102.5 35 -172.5
c0 -72 -13.333 -134.333 -40 -187s-64.5 -96.167 -113.5 -130.5s-108.5 -59.833 -178.5 -76.5s-146.667 -25 -230 -25c-72.667 0 -144.167 7.16699 -214.5 21.5s-128.833 34.5 -175.5 60.5v207c66 -28.667 130.333 -49.5 193 -62.5s127.334 -19.5 194.001 -19.5
c38.667 0 76.667 3.16699 114 9.5s70.833 17.166 100.5 32.499s53.5 36.166 71.5 62.499s27 58.833 27 97.5zM884.001 1656l-190 -247h-188l138 247h240zM328.001 1338z" />
    <glyph glyph-name="sacute" unicode="&#x15b;" horiz-adv-x="868" 
d="M700 1473l-165 -349h-184l119 349h230zM559 281c0 20.667 -5.83398 37.6709 -17.501 51.0039s-27.167 24.5 -46.5 33.5s-41.5 16.833 -66.5 23.5l-78.5 20c-34.667 9.33301 -68 20.166 -100 32.499s-60.167 28.5 -84.5 48.5s-43.666 45.167 -57.999 75.5
s-21.5 67.5 -21.5 111.5c0 54 9.66699 100.833 29 140.5s45.5 72.5 78.5 98.5s71.333 45.333 115 58s89.834 19 138.501 19c59.333 0 115 -4.83301 167 -14.5s99 -22.167 141 -37.5v-193c-22 7.33301 -45.167 14.166 -69.5 20.499s-49 11.833 -74 16.5
s-49.833 8.5 -74.5 11.5s-48 4.5 -70 4.5c-28 0 -51.667 -2.66699 -71 -8s-35 -12.5 -47 -21.5s-20.667 -19.333 -26 -31s-8 -23.834 -8 -36.501c0 -22 5.83301 -40 17.5 -54s27.834 -25.333 48.501 -34s42.334 -15.834 65.001 -21.501l66 -16.5
c33.333 -8 66.666 -17.667 99.999 -29s63.333 -27.166 90 -47.499s48.5 -46.666 65.5 -78.999s25.5 -73.5 25.5 -123.5c0 -54.667 -10.333 -102.334 -31 -143.001s-49.5 -74.5 -86.5 -101.5s-81.333 -47 -133 -60s-108.5 -19.5 -170.5 -19.5
c-61.333 0 -116.5 4.83301 -165.5 14.5s-89.5 21.834 -121.5 36.501v191c52 -19.333 100 -32.5 144 -39.5s85 -10.5 123 -10.5c29.333 0 56.666 2.16699 81.999 6.5s47.166 11.166 65.499 20.499s32.833 21.166 43.5 35.499s16 31.5 16 51.5z" />
    <glyph glyph-name="Scircumflex" unicode="&#x15c;" horiz-adv-x="1182" 
d="M818 384c0 34 -8.33203 61.5029 -24.999 82.5029s-39.334 38.167 -68.001 51.5s-60.834 24.166 -96.501 32.499s-73.167 16.5 -112.5 24.5c-52 11.333 -101.667 24.833 -149 40.5s-89 37.334 -125 65.001s-64.667 62.834 -86 105.501s-32 96 -32 160
c0 70.667 12.333 132.167 37 184.5s58.167 95.666 100.5 129.999s92 60 149 77s121.167 25.5 192.5 25.5s143 -7 215 -21s134 -32 186 -54v-210c-69.333 27.333 -135.833 47.166 -199.5 59.499s-123.5 18.5 -179.5 18.5c-80.667 0 -142.834 -14.667 -186.501 -44
s-65.5 -73.333 -65.5 -132c0 -34 7.16699 -62 21.5 -84s33.833 -40.167 58.5 -54.5s53 -25.833 85 -34.5s66 -16.667 102 -24c56.667 -12 110.834 -25.833 162.501 -41.5s97.5 -37.5 137.5 -65.5s71.667 -64.5 95 -109.5s35 -102.5 35 -172.5
c0 -72 -13.333 -134.333 -40 -187s-64.5 -96.167 -113.5 -130.5s-108.5 -59.833 -178.5 -76.5s-146.667 -25 -230 -25c-72.667 0 -144.167 7.16699 -214.5 21.5s-128.833 34.5 -175.5 60.5v207c66 -28.667 130.333 -49.5 193 -62.5s127.334 -19.5 194.001 -19.5
c38.667 0 76.667 3.16699 114 9.5s70.833 17.166 100.5 32.499s53.5 36.166 71.5 62.499s27 58.833 27 97.5zM505.001 1656h206l216 -247h-207l-110 126h-4l-111 -126h-206zM208.001 1338z" />
    <glyph glyph-name="scircumflex" unicode="&#x15d;" horiz-adv-x="868" 
d="M346 1473h206l210 -349h-185l-126 212h-4l-126 -212h-185zM559 281c0 20.667 -5.83398 37.6709 -17.501 51.0039s-27.167 24.5 -46.5 33.5s-41.5 16.833 -66.5 23.5l-78.5 20c-34.667 9.33301 -68 20.166 -100 32.499s-60.167 28.5 -84.5 48.5
s-43.666 45.167 -57.999 75.5s-21.5 67.5 -21.5 111.5c0 54 9.66699 100.833 29 140.5s45.5 72.5 78.5 98.5s71.333 45.333 115 58s89.834 19 138.501 19c59.333 0 115 -4.83301 167 -14.5s99 -22.167 141 -37.5v-193c-22 7.33301 -45.167 14.166 -69.5 20.499
s-49 11.833 -74 16.5s-49.833 8.5 -74.5 11.5s-48 4.5 -70 4.5c-28 0 -51.667 -2.66699 -71 -8s-35 -12.5 -47 -21.5s-20.667 -19.333 -26 -31s-8 -23.834 -8 -36.501c0 -22 5.83301 -40 17.5 -54s27.834 -25.333 48.501 -34s42.334 -15.834 65.001 -21.501l66 -16.5
c33.333 -8 66.666 -17.667 99.999 -29s63.333 -27.166 90 -47.499s48.5 -46.666 65.5 -78.999s25.5 -73.5 25.5 -123.5c0 -54.667 -10.333 -102.334 -31 -143.001s-49.5 -74.5 -86.5 -101.5s-81.333 -47 -133 -60s-108.5 -19.5 -170.5 -19.5
c-61.333 0 -116.5 4.83301 -165.5 14.5s-89.5 21.834 -121.5 36.501v191c52 -19.333 100 -32.5 144 -39.5s85 -10.5 123 -10.5c29.333 0 56.666 2.16699 81.999 6.5s47.166 11.166 65.499 20.499s32.833 21.166 43.5 35.499s16 31.5 16 51.5z" />
    <glyph glyph-name="Scedilla" unicode="&#x15e;" horiz-adv-x="1182" 
d="M818 384c0 34 -8.33691 61.499 -25.0039 82.499s-39 38.167 -67 51.5s-60.167 24.166 -96.5 32.499s-74.166 16.5 -113.499 24.5c-52 11.333 -101.667 24.833 -149 40.5s-89 37.334 -125 65.001s-64.667 62.834 -86 105.501s-32 96 -32 160
c0 70.667 12.333 132.167 37 184.5s58.167 95.666 100.5 129.999s92 60 149 77s117.833 25.5 182.5 25.5c34.667 0 70 -1.5 106 -4.5s71.833 -7.66699 107.5 -14s70.167 -14.166 103.5 -23.499s64.666 -20.333 93.999 -33v-210c-69.333 28 -135.833 48 -199.5 60
s-123.5 18 -179.5 18c-80.667 0 -142.834 -14.667 -186.501 -44s-65.5 -73.333 -65.5 -132c0 -34 7.16699 -62 21.5 -84s33.833 -40.167 58.5 -54.5s53 -25.833 85 -34.5s66 -16.667 102 -24c56.667 -12 110.834 -25.833 162.501 -41.5s97.334 -37.5 137.001 -65.5
s71.334 -64.5 95.001 -109.5s35.5 -102.5 35.5 -172.5c0 -65.333 -10.833 -122.666 -32.5 -171.999s-53 -91 -94 -125s-90.5 -60.833 -148.5 -80.5s-123.667 -32.167 -197 -37.5l-26 -97c27.333 -4 52.166 -10.5 74.499 -19.5s41.833 -20.667 58.5 -35s29.667 -31 39 -50
s14 -40.167 14 -63.5c0 -28 -6.5 -54.167 -19.5 -78.5s-32.5 -46 -58.5 -65s-58.833 -33.833 -98.5 -44.5s-84.167 -16 -133.5 -16c-26 0 -52.167 1.83301 -78.5 5.5s-46.833 8.16699 -61.5 13.5v146c14.667 -4.66699 34.834 -8.66699 60.501 -12s48.167 -5 67.5 -5
c26 0 47.833 2 65.5 6s31.334 9.16699 41.001 15.5s16.667 13 21 20s6.5 14.5 6.5 22.5c0 20.667 -14.5 36 -43.5 46s-74.5 15.667 -136.5 17l57 192c-28 2 -57 5 -87 9s-59.5 9.33301 -88.5 16s-56.5 14.5 -82.5 23.5s-49.667 19.5 -71 31.5v207
c66 -28.667 130.333 -49.5 193 -62.5s127.334 -19.5 194.001 -19.5c38.667 0 76.667 3.16699 114 9.5s70.833 17.166 100.5 32.499s53.5 36 71.5 62s27 58.667 27 98z" />
    </font>
</defs>
</svg>
