<svg width="27" height="25" viewBox="0 0 27 25" fill="none" xmlns="http://www.w3.org/2000/svg">
<path d="M3.82812 12.9032C3.52625 12.9032 3.28125 13.1482 3.28125 13.45C3.28125 13.7519 3.52625 13.9969 3.82812 13.9969C4.13 13.9969 4.375 13.7519 4.375 13.45C4.375 13.1482 4.13 12.9032 3.82812 12.9032Z" fill="#00B4E3"/>
<path d="M27 14.8172C27 14.045 26.6422 13.3551 26.0841 12.9036C26.7953 12.3293 27.1067 11.4403 26.9666 10.5797C26.7763 9.4101 25.6888 8.52816 24.4367 8.52816C23.8333 8.52816 19.869 8.52816 19.2273 8.52816L19.3894 8.0416C20.3163 5.26173 19.4555 2.29132 17.4155 0.553517C16.2761 -0.429436 14.3322 -0.101694 13.7351 1.52455C13.6934 1.63786 13.6905 1.76178 13.7267 1.87701C14.181 3.32196 14.1874 4.29354 13.7489 5.2305C13.2943 6.20224 12.3161 7.22255 10.4781 8.64218C10.037 8.98289 9.65132 9.19113 9.27841 9.39255C8.69095 9.70979 8.13319 10.011 7.55657 10.7156H6.5625V10.1687C6.5625 9.86669 6.31766 9.62185 6.01562 9.62185H0.546875C0.244836 9.62185 0 9.86669 0 10.1687V24.3875C0 24.6895 0.244836 24.9344 0.546875 24.9344H6.01562C6.31766 24.9344 6.5625 24.6895 6.5625 24.3875V22.7469H8.62987C10.2198 24.1592 12.2605 24.9344 14.4011 24.9344C15.6633 24.9344 19.8694 24.9344 21.2578 24.9344C22.6181 24.9344 23.7188 23.8339 23.7188 22.4734C23.7188 21.9679 23.5654 21.4975 23.3029 21.1062H23.4453C24.8056 21.1062 25.9062 20.0058 25.9062 18.6453C25.9062 18.0741 25.7101 17.5483 25.3825 17.1302C26.317 16.7902 27 15.8905 27 14.8172ZM5.46875 23.8407H1.09375V10.7157H5.46875V23.8407ZM24.5391 16.1844C24.0072 16.1844 19.85 16.1844 19.2891 16.1844C18.9871 16.1844 18.7422 16.4292 18.7422 16.7313C18.7422 17.0333 18.9871 17.2782 19.2891 17.2782H23.4453C24.1992 17.2782 24.8125 17.8915 24.8125 18.6453C24.8125 19.4011 24.2013 20.0125 23.4453 20.0125C21.9114 20.0125 20.5416 20.0125 19.2891 20.0125C18.9871 20.0125 18.7422 20.2574 18.7422 20.5594C18.7422 20.8614 18.9871 21.1063 19.2891 21.1063H21.2578C22.0117 21.1063 22.625 21.7196 22.625 22.4735C22.625 23.2292 22.0138 23.8407 21.2578 23.8407C19.8266 23.8407 15.5742 23.8407 14.4011 23.8407C12.4654 23.8407 10.6236 23.116 9.21486 21.8004C9.11358 21.7058 8.98014 21.6532 8.84156 21.6532H6.5625V11.8094H7.82438C7.99823 11.8094 8.16169 11.7268 8.26477 11.5868C8.75805 10.9167 9.19435 10.6811 9.79827 10.355C10.1905 10.1431 10.6351 9.903 11.1469 9.50788C14.8911 6.61574 15.7479 4.84381 14.8306 1.74658C15.1932 1.04937 16.0977 0.861299 16.74 1.41605C18.4831 2.93975 19.1158 5.40468 18.3519 7.69587L18.0746 8.52827H17.375C17.073 8.52827 16.8281 8.7731 16.8281 9.07514C16.8281 9.37718 17.073 9.62202 17.375 9.62202C18.2148 9.62202 23.574 9.62202 24.4368 9.62202C25.1585 9.62202 25.7819 10.1093 25.8871 10.7555C26.0296 11.6305 25.3572 12.3564 24.5391 12.3564C23.9788 12.3564 19.8227 12.3564 19.2891 12.3564C18.9871 12.3564 18.7422 12.6012 18.7422 12.9033C18.7422 13.2053 18.9871 13.4501 19.2891 13.4501C19.821 13.4501 23.9782 13.4501 24.5391 13.4501C25.293 13.4501 25.9063 14.0635 25.9063 14.8173C25.9062 15.5729 25.295 16.1844 24.5391 16.1844Z" fill="#00B4E3"/>
<path d="M3.82812 15.0907C3.52609 15.0907 3.28125 15.3355 3.28125 15.6375V21.1063C3.28125 21.4083 3.52609 21.6532 3.82812 21.6532C4.13016 21.6532 4.375 21.4083 4.375 21.1063V15.6375C4.375 15.3355 4.13016 15.0907 3.82812 15.0907Z" fill="#00B4E3"/>
</svg>
