<svg width="28" height="28" viewBox="0 0 28 28" fill="none" xmlns="http://www.w3.org/2000/svg">
<path d="M18.4533 8.90656C13.1873 8.90656 8.90656 13.1873 8.90656 18.4533C8.90656 21.5539 10.4262 24.4708 12.9702 26.2632L13.6159 26.7197H2.42147C1.79245 26.7197 1.28032 26.2076 1.28032 25.5785V23.7972C1.28032 23.1682 1.79245 22.6561 2.42147 22.6561H6.87475C7.22545 22.6561 7.51491 22.3666 7.51491 22.0159C7.51491 21.6652 7.22545 21.3757 6.87475 21.3757H5.09344C4.46441 21.3757 3.95229 20.8636 3.95229 20.2346V18.4533C3.95229 17.8243 4.46441 17.3121 5.09344 17.3121H6.87475C7.22545 17.3121 7.51491 17.0227 7.51491 16.672C7.51491 16.3213 7.22545 16.0318 6.87475 16.0318H3.31213C2.6831 16.0318 2.17097 15.5197 2.17097 14.8907V13.1093C2.17097 12.4803 2.6831 11.9682 3.31213 11.9682H8.65606C9.00676 11.9682 9.29622 11.6787 9.29622 11.328C9.29622 10.9773 9.00676 10.6879 8.65606 10.6879H5.09344C4.46441 10.6879 3.95229 10.1757 3.95229 9.54672V7.76541C3.95229 7.13638 4.46441 6.62425 5.09344 6.62425H14.8907C16.2266 6.62425 17.3121 5.53877 17.3121 4.20278V2.42147C17.3121 1.08549 16.2266 0 14.8907 0H2.42147C1.08549 0 0 1.08549 0 2.42147V4.20278C0 5.40517 0.885089 6.62425 2.57734 6.62425H2.9336L2.8167 6.95825C2.72763 7.21988 2.67753 7.48708 2.67753 7.76541C2.67753 8.0827 2.67753 8.3499 2.67753 8.5837C2.67197 9.74155 2.67197 9.98091 2.8501 10.4374L2.95586 10.699L2.6831 10.7714C1.63101 11.0553 0.896221 12.0183 0.896221 13.1093V14.8907C0.896221 15.9817 1.63101 16.9392 2.6831 17.2286L2.95586 17.301L2.8501 17.5626C2.73876 17.8465 2.67753 18.1471 2.67753 18.4533C2.67753 18.7928 2.67753 19.0767 2.67753 19.3217C2.67197 20.396 2.67197 20.6187 2.8167 21.0417L2.9336 21.3757H2.57734C0.885089 21.3757 0 22.5948 0 23.7972V25.5785C0 26.9145 1.08549 28 2.42147 28H18.4533C23.7193 28 28 23.7193 28 18.4533C28 13.1873 23.7193 8.90656 18.4533 8.90656ZM2.42147 5.34394C1.79245 5.34394 1.28032 4.83181 1.28032 4.20278V2.42147C1.28032 1.79245 1.79245 1.28032 2.42147 1.28032H14.8907C15.5197 1.28032 16.0318 1.79245 16.0318 2.42147V4.20278C16.0318 4.83181 15.5197 5.34394 14.8907 5.34394H2.42147ZM18.4533 26.7197C13.8942 26.7197 10.1869 23.0123 10.1869 18.4533C10.1869 13.8942 13.8942 10.1869 18.4533 10.1869C23.0123 10.1869 26.7197 13.8942 26.7197 18.4533C26.7197 23.0123 23.0123 26.7197 18.4533 26.7197Z" fill="#00B4E3"/>
<path d="M18.8986 19.0934C20.4795 19.0934 21.7654 17.8076 21.7654 16.2266C21.7654 14.6457 20.4795 13.3598 18.8986 13.3598H15.7813C15.4306 13.3598 15.1412 13.6493 15.1412 14V22.9066C15.1412 23.2573 15.4306 23.5467 15.7813 23.5467C16.132 23.5467 16.4215 23.2573 16.4215 22.9066V21.7654H18.4533C18.804 21.7654 19.0934 21.4759 19.0934 21.1252C19.0934 20.7746 18.804 20.4851 18.4533 20.4851H16.4215V19.0934H18.8986ZM16.4215 14.6402H18.8986C19.7726 14.6402 20.4851 15.3527 20.4851 16.2266C20.4851 17.1006 19.7726 17.8131 18.8986 17.8131H16.4215V14.6402Z" fill="#00B4E3"/>
</svg>
