<svg width="30" height="29" viewBox="0 0 30 29" fill="none" xmlns="http://www.w3.org/2000/svg">
<path d="M8.88589 12.5602L8.8848 12.5788C8.81089 13.8395 9.53607 15.0206 10.7328 15.5869L10.7451 15.5927C11.167 15.7892 11.5128 16.1133 11.731 16.5162L11.7359 16.5249C12.3389 17.6431 13.586 18.3209 14.9156 18.2529L14.9358 18.2518C15.4179 18.2255 15.8966 18.3466 16.3046 18.5984C17.4304 19.2842 18.8595 19.2842 19.9853 18.5984C20.3933 18.3466 20.8719 18.2255 21.3541 18.2518L21.3743 18.2529C22.7016 18.3214 23.9504 17.6431 24.5548 16.5231L24.5578 16.517C24.7768 16.113 25.1234 15.7884 25.5467 15.5916L25.5565 15.5869C26.7532 15.0204 27.4787 13.8395 27.4045 12.5785L27.4034 12.561C27.3789 12.1169 27.5054 11.6774 27.764 11.3106C28.5082 10.2535 28.5082 8.85971 27.7642 7.80239C27.506 7.43588 27.3789 6.99659 27.4034 6.55252L27.4045 6.53393C27.4787 5.27291 26.7532 4.09209 25.5554 3.52532L25.5445 3.52001C25.1234 3.324 24.7784 3.00158 24.56 2.59974L24.5537 2.58778C23.9504 1.46965 22.7016 0.792125 21.3743 0.85985L21.3538 0.860913C20.8719 0.887206 20.3933 0.766097 19.9856 0.514317H19.985C18.8592 -0.171439 17.4301 -0.171439 16.3043 0.514317C15.8963 0.765831 15.4177 0.886941 14.9355 0.860647L14.9153 0.859585C13.5877 0.791062 12.3391 1.46938 11.7361 2.58725L11.7315 2.59549C11.5131 2.99918 11.167 3.32347 10.7445 3.52027L10.7331 3.52559C9.53634 4.09183 8.81089 5.27291 8.88507 6.53393L8.88616 6.55146C8.91071 6.99553 8.78416 7.43508 8.52562 7.8016C7.78135 8.85892 7.78135 10.253 8.52562 11.3101C8.78389 11.6766 8.91071 12.1161 8.88589 12.5602ZM9.44498 8.41936C9.84398 7.85365 10.0395 7.17533 10.0013 6.49011L10.0002 6.47152C9.96098 5.63597 10.4426 4.85991 11.2201 4.50482L11.2297 4.5003C11.8676 4.20284 12.3899 3.71309 12.7193 3.10383L12.7248 3.09373C13.1254 2.35061 13.9646 1.90017 14.8559 1.94638L14.8755 1.94718C15.5887 1.98622 16.2964 1.80721 16.8997 1.43485C17.6614 0.970867 18.6279 0.970867 19.3897 1.43485C19.9929 1.80668 20.7006 1.98596 21.4135 1.94744L21.4332 1.94638C22.3288 1.9007 23.1639 2.35061 23.5634 3.09161L23.5708 3.10516C23.9003 3.71362 24.422 4.20258 25.0591 4.49977L25.0683 4.50429C25.8582 4.87824 26.3376 5.65031 26.2893 6.47179L26.2882 6.49117C26.2501 7.1764 26.4459 7.85445 26.8449 8.42016C27.3271 9.10512 27.3268 10.0081 26.8443 10.6928C26.4456 11.2588 26.2501 11.9371 26.2882 12.6223L26.2893 12.6407C26.3376 13.4621 25.8582 14.2345 25.0681 14.6087L25.0599 14.6124C24.4214 14.9104 23.8986 15.4007 23.5689 16.011L23.5648 16.019C23.1639 16.7621 22.3261 17.2128 21.4335 17.1663L21.4141 17.1653C20.7009 17.1265 19.9929 17.3058 19.3894 17.6779C18.6279 18.1416 17.6614 18.1416 16.8999 17.6779C16.3512 17.3392 15.7147 17.1597 15.065 17.1602C15.002 17.1602 14.9388 17.1618 14.8755 17.1653L14.8559 17.1661C13.9763 17.2205 13.1442 16.7722 12.724 16.0177L12.7182 16.0073C12.3893 15.3991 11.8679 14.9104 11.2311 14.6132L11.2207 14.6082C10.4306 14.2342 9.95116 13.4619 9.9997 12.6407L10.0008 12.6213C10.0387 11.9361 9.84289 11.2577 9.44416 10.6923C8.96225 10.0073 8.96253 9.10432 9.44498 8.41989V8.41936Z" fill="#00B4E3"/>
<path d="M14.5409 15.1794C14.8024 15.3385 15.1469 15.2607 15.3102 15.006L21.9268 4.68356C22.0348 4.51863 22.0438 4.30988 21.95 4.13698C21.8562 3.96381 21.674 3.85332 21.4733 3.84722C21.2725 3.84111 21.0838 3.94044 20.9791 4.1075L14.3628 14.4299C14.1994 14.6849 14.279 15.0204 14.5409 15.1794Z" fill="#00B4E3"/>
<path d="M15.1338 9.58318C16.4938 9.58318 17.6006 8.35429 17.6006 6.84388C17.6006 5.33346 16.4938 4.10484 15.1338 4.10484C13.7737 4.10484 12.6672 5.33346 12.6672 6.84388C12.6672 8.35429 13.7737 9.58318 15.1338 9.58318ZM15.1338 5.1927C15.878 5.1927 16.4835 5.93343 16.4835 6.84388C16.4835 7.75432 15.878 8.49532 15.1338 8.49532C14.3898 8.49532 13.7843 7.75406 13.7843 6.84388C13.7843 5.9337 14.3898 5.1927 15.1338 5.1927Z" fill="#00B4E3"/>
<path d="M18.689 12.2694C18.689 13.7798 19.7955 15.0084 21.1555 15.0084C22.5156 15.0084 23.6224 13.7795 23.6224 12.2694C23.6224 10.7595 22.5159 9.53033 21.1558 9.53033C19.7955 9.53033 18.689 10.7587 18.689 12.2694ZM22.5053 12.2694C22.5053 13.1798 21.8998 13.9205 21.1555 13.9205C20.4116 13.9205 19.8061 13.1798 19.8061 12.2694C19.8061 11.3589 20.4116 10.6182 21.1555 10.6182C21.8998 10.6182 22.5053 11.3584 22.5053 12.2694Z" fill="#00B4E3"/>
<path d="M29.9275 21.3016C29.1879 20.0233 27.5477 19.5365 26.2018 20.1957L21.8265 22.2088C21.2224 21.1149 20.0636 20.4185 18.7883 20.3834L14.7492 20.2751C14.1097 20.2573 13.4821 20.0993 12.9135 19.8135L12.5025 19.6061C10.3982 18.5378 7.8899 18.5405 5.78773 19.613L5.81336 18.7062C5.82182 18.4058 5.57882 18.1557 5.27037 18.1474L0.8413 18.0287C0.532847 18.0205 0.276213 18.2571 0.267758 18.5575L0.00021409 28.0229C-0.00824044 28.3233 0.234758 28.5735 0.543211 28.5817L4.97228 28.7004H4.98782C5.29028 28.7001 5.53764 28.4656 5.54609 28.1714L5.55864 27.7185L6.70927 27.1186C7.1609 26.8819 7.68917 26.8256 8.18253 26.9616L15.0533 28.8396C15.0653 28.843 15.0773 28.8457 15.0896 28.8483C15.5862 28.9495 16.0924 29.0003 16.5999 29C17.6745 29.0005 18.7365 28.775 19.7131 28.3384C19.7371 28.3278 19.7603 28.3156 19.7824 28.3018L29.7445 22.0261C29.993 21.8699 30.0731 21.552 29.9275 21.3016ZM1.1323 27.509L1.36902 19.1314L4.68155 19.2201L4.44455 27.5979L1.1323 27.509ZM19.2097 27.3663C17.9963 27.8997 16.6411 28.0468 15.3369 27.787L8.48444 25.9144C7.71344 25.7019 6.88763 25.7901 6.18209 26.1595L5.59409 26.466L5.75173 20.8958C7.61472 19.6889 10.0043 19.5649 11.9887 20.5717L12.3997 20.7792C13.118 21.1404 13.9106 21.3398 14.7187 21.3624L18.7577 21.4708C19.8923 21.5024 20.8558 22.289 21.086 23.3716L15.0697 23.2104C14.7612 23.2022 14.5046 23.4388 14.4961 23.7392C14.4877 24.0396 14.7307 24.2897 15.0391 24.298L21.6786 24.4759H21.6945C21.9966 24.4757 22.244 24.2411 22.2525 23.9469C22.2593 23.7105 22.241 23.4739 22.1985 23.2412L26.6853 21.1762L26.6984 21.1701C27.335 20.8562 28.1049 20.9611 28.6282 21.4331L19.2097 27.3663Z" fill="#00B4E3"/>
</svg>
