<svg width="40" height="40" viewBox="0 0 40 40" fill="none" xmlns="http://www.w3.org/2000/svg">
<mask id="path-1-outside-1" maskUnits="userSpaceOnUse" x="0" y="0" width="40" height="40" fill="black">
<rect fill="white" width="40" height="40"/>
<path d="M36.2168 8.88203H30.3758V3.7832C30.3758 2.24687 29.1289 1 27.5926 1H12.4074C10.8711 1 9.62422 2.24687 9.62422 3.7832V8.88203H3.7832C2.24687 8.88203 1 10.1289 1 11.6652V30.5613C1 32.0977 2.24687 33.3445 3.7832 33.3445H17.2762V35.6602H16.5711C15.1609 35.6602 14.0105 36.8105 14.0105 38.2207C14.0105 38.6512 14.3594 39 14.7898 39H25.2102C25.6406 39 25.9895 38.6512 25.9895 38.2207C25.9895 36.8105 24.8391 35.6602 23.4289 35.6602H22.7238V33.3445H36.2168C37.7531 33.3445 39 32.0977 39 30.5613V11.6652C39 10.1289 37.7531 8.88203 36.2168 8.88203ZM30.3758 12.2219H35.6602V30.0047H30.3758V12.2219ZM10.7375 3.7832C10.7375 2.86289 11.4871 2.11328 12.4074 2.11328H27.6C28.5203 2.11328 29.2699 2.86289 29.2699 3.7832V30.0047H10.7375V3.7832ZM23.4289 36.7734C24.1117 36.7734 24.6832 37.2484 24.8391 37.8867H15.1609C15.3094 37.2484 15.8883 36.7734 16.5711 36.7734H23.4289ZM18.3895 35.6602V33.3445H21.618V35.6602H18.3895ZM37.8867 30.5613C37.8867 31.4816 37.1371 32.2312 36.2168 32.2312H17.8328C17.8328 32.2312 17.8328 32.2312 17.8254 32.2312C17.8254 32.2312 17.8254 32.2312 17.818 32.2312H3.7832C2.86289 32.2312 2.11328 31.4816 2.11328 30.5613V11.6652C2.11328 10.7449 2.86289 9.99531 3.7832 9.99531H9.62422V11.1086H4.00586C3.57539 11.1086 3.22656 11.4574 3.22656 11.8879V30.5613C3.22656 30.8656 3.47891 31.118 3.7832 31.118H35.9941C36.4246 31.118 36.7734 30.7691 36.7734 30.3387V11.8879C36.7734 11.4574 36.4246 11.1086 35.9941 11.1086H30.3758V9.99531H36.2168C37.1371 9.99531 37.8867 10.7449 37.8867 11.6652V30.5613ZM9.62422 12.2219V30.0047H4.33984V12.2219H9.62422Z"/>
<path d="M26.4128 21.1133H13.5878C13.2835 21.1133 13.0311 21.3582 13.0311 21.6699C13.0311 21.9742 13.2835 22.2266 13.5878 22.2266H26.4053C26.7096 22.2266 26.962 21.9742 26.962 21.6699C26.9694 21.3582 26.7171 21.1133 26.4128 21.1133Z"/>
<path d="M27.1247 11.2348C27.1247 11.1902 27.1247 11.1457 27.1173 11.1012C27.1173 11.0418 27.1099 10.9898 27.1099 10.9305C27.1099 10.923 27.1099 10.9156 27.1099 10.9156C27.1025 10.7969 27.0876 10.6781 27.0728 10.5668C27.0653 10.5074 27.0579 10.448 27.0505 10.3887C27.0357 10.2699 27.0134 10.1512 26.9911 10.0398C26.9392 9.78008 26.8724 9.52774 26.7907 9.27539C26.7833 9.26055 26.7759 9.23828 26.7759 9.22344C26.7462 9.1418 26.7165 9.06016 26.6868 8.97852C26.6794 8.96367 26.672 8.94883 26.672 8.93398C26.6349 8.8375 26.5978 8.74102 26.5532 8.65195C26.5458 8.64453 26.5458 8.62969 26.5384 8.62227C26.5013 8.54063 26.4642 8.45898 26.4271 8.37734C26.4196 8.36992 26.4196 8.35508 26.4122 8.34766C26.3974 8.31055 26.3751 8.27344 26.3603 8.24375C26.3083 8.13984 26.2564 8.04336 26.197 7.94688C26.1673 7.89492 26.1376 7.84297 26.1079 7.79844C26.0782 7.74648 26.0485 7.70195 26.0189 7.65C25.9892 7.60547 25.9595 7.56094 25.9372 7.52383C25.9001 7.47188 25.863 7.41992 25.8259 7.36797C25.7962 7.32344 25.7591 7.27148 25.722 7.22695C25.7146 7.21953 25.7071 7.20469 25.6997 7.19727C25.1431 6.4625 24.4454 5.83906 23.6513 5.36406C23.6439 5.35664 23.6364 5.35664 23.629 5.34922C23.6068 5.33437 23.5919 5.32695 23.5696 5.31953C23.5103 5.28242 23.4509 5.25273 23.3915 5.22305C23.347 5.20078 23.295 5.17109 23.2505 5.14883C23.1985 5.12656 23.154 5.09688 23.1021 5.07461C23.065 5.05234 23.0278 5.0375 22.9907 5.02266C22.961 5.00781 22.9314 4.99297 22.8943 4.97812C22.8868 4.97812 22.8868 4.9707 22.8794 4.9707C22.8126 4.94102 22.7384 4.91133 22.6716 4.88164C22.6345 4.8668 22.5974 4.85195 22.5603 4.83711C22.486 4.80742 22.4118 4.77773 22.3376 4.75547C22.3005 4.74062 22.2634 4.7332 22.2263 4.71836C22.1521 4.69609 22.0778 4.66641 21.9962 4.65156C21.9591 4.63672 21.922 4.6293 21.8849 4.62188C21.8478 4.61445 21.8107 4.59961 21.7735 4.59219C21.729 4.57734 21.6771 4.56992 21.6325 4.55508C21.5954 4.54766 21.5583 4.54023 21.5286 4.53281C21.5064 4.52539 21.4841 4.52539 21.4693 4.51797C21.447 4.51055 21.4247 4.51055 21.395 4.50312C21.3282 4.48828 21.2689 4.48086 21.2021 4.46602H21.1946C21.1575 4.45859 21.1204 4.45117 21.0833 4.45117C21.0017 4.43633 20.9275 4.42891 20.8458 4.42148C20.7642 4.41406 20.69 4.40664 20.6083 4.39922C20.5861 4.39922 20.5564 4.3918 20.5341 4.3918C20.4821 4.38437 20.4302 4.38437 20.3782 4.38437C20.3189 4.38437 20.2595 4.37695 20.2001 4.37695H20.1853C20.1259 4.37695 20.0665 4.37695 20.0146 4.37695C19.9626 4.37695 19.9107 4.37695 19.8513 4.37695C19.829 4.37695 19.8068 4.37695 19.7845 4.37695C19.74 4.37695 19.6954 4.37695 19.6435 4.38437C19.5841 4.38437 19.5321 4.3918 19.4728 4.3918C19.4653 4.3918 19.4579 4.3918 19.4579 4.3918C19.3392 4.39922 19.2204 4.41406 19.1091 4.42891C19.0497 4.43633 18.9903 4.44375 18.931 4.45117C18.879 4.45859 18.8196 4.46602 18.7677 4.48086C18.7157 4.4957 18.6564 4.50312 18.6044 4.51055C18.5599 4.51797 18.5079 4.53281 18.4634 4.54023C18.4486 4.54766 18.4263 4.54766 18.4114 4.55508C18.3669 4.5625 18.315 4.57734 18.2704 4.59219C18.2333 4.59961 18.1962 4.61445 18.1517 4.62188C18.1071 4.63672 18.0626 4.64414 18.0181 4.65898C17.9439 4.68125 17.8771 4.70352 17.8028 4.72578C17.7583 4.74063 17.7212 4.75547 17.6767 4.77031C17.6321 4.78516 17.5876 4.8 17.5357 4.82227C17.4986 4.83711 17.4614 4.85195 17.4169 4.8668C17.3724 4.88164 17.3353 4.90391 17.2907 4.91875C17.2536 4.93359 17.2165 4.94844 17.172 4.9707C17.1275 4.98555 17.0903 5.00781 17.0458 5.03008C17.0087 5.04492 16.9716 5.06719 16.9345 5.08203C16.89 5.1043 16.8454 5.12656 16.8009 5.14883C16.6821 5.2082 16.5708 5.26758 16.4521 5.33438C16.4521 5.33438 16.4521 5.33438 16.4446 5.33438C16.3927 5.36406 16.3482 5.39375 16.2962 5.42344C16.2517 5.4457 16.2146 5.47539 16.17 5.49766C16.1552 5.50508 16.1329 5.51992 16.1181 5.52734C16.0884 5.54961 16.0587 5.57188 16.0216 5.58672C15.9919 5.60898 15.9622 5.62383 15.9325 5.64609C15.9028 5.66836 15.8732 5.69063 15.836 5.71289C15.7841 5.75 15.7396 5.77969 15.695 5.8168C14.9528 6.37344 14.322 7.07852 13.847 7.88008C13.847 7.8875 13.8396 7.8875 13.8396 7.89492C13.8247 7.92461 13.8025 7.9543 13.7876 7.99141C13.7134 8.13242 13.6392 8.26602 13.565 8.41445C13.5501 8.44414 13.5353 8.47383 13.5204 8.51094C13.513 8.51836 13.513 8.52578 13.513 8.5332C13.4982 8.56289 13.4833 8.6 13.4685 8.62969C13.4685 8.63711 13.461 8.63711 13.461 8.64453C13.4314 8.71133 13.4017 8.78555 13.372 8.85234C13.3571 8.88945 13.3423 8.92656 13.3275 8.96367C13.2978 9.03789 13.2681 9.11211 13.2458 9.18633C13.231 9.22344 13.2235 9.26055 13.2087 9.29766C13.1864 9.37188 13.1642 9.44609 13.1419 9.52031C13.1345 9.55742 13.1196 9.59453 13.1122 9.63164C13.0974 9.69102 13.0825 9.74297 13.0677 9.80234C13.0232 9.97305 12.9861 10.1438 12.9564 10.3219V10.3293C12.9489 10.3664 12.9415 10.4035 12.9415 10.4406C12.9267 10.5148 12.9193 10.5965 12.9118 10.6781C12.9044 10.7598 12.897 10.834 12.8896 10.9156C12.8896 10.9379 12.8821 10.9676 12.8821 10.9898C12.8821 11.0418 12.8747 11.0938 12.8747 11.1383C12.8747 11.1977 12.8673 11.257 12.8673 11.3164V11.3313C12.8673 11.3906 12.8673 11.45 12.8673 11.5094C12.8673 15.4355 16.0661 18.6344 19.9923 18.6344C23.9185 18.6344 27.1173 15.4355 27.1173 11.5094C27.1173 11.4574 27.1173 11.4055 27.1173 11.3461C27.1247 11.2793 27.1247 11.257 27.1247 11.2348ZM19.9997 17.4766C16.6821 17.4766 13.988 14.7824 13.988 11.4648C13.988 11.4129 13.988 11.3684 13.988 11.3164C13.988 11.3016 13.988 11.2793 13.988 11.2645C13.988 11.2273 13.988 11.1902 13.9954 11.1531C13.9954 11.1012 14.0028 11.0492 14.0028 10.9973C14.0028 10.9602 14.0103 10.9305 14.0103 10.8934C14.0103 10.8785 14.0103 10.8711 14.0177 10.8563C14.0177 10.834 14.0251 10.8117 14.0251 10.7895C14.0251 10.7746 14.0251 10.7598 14.0325 10.7375C14.0325 10.7078 14.04 10.6855 14.04 10.6559C14.0474 10.5965 14.0548 10.5297 14.0696 10.4703C14.0696 10.4629 14.0696 10.4555 14.0771 10.448C14.0845 10.4184 14.0845 10.3887 14.0919 10.3664C14.1068 10.307 14.1142 10.2402 14.129 10.1809C14.129 10.1734 14.129 10.166 14.1364 10.166C14.1439 10.1363 14.1513 10.1066 14.1587 10.077C14.1735 10.0102 14.1884 9.94336 14.2107 9.88398C14.2255 9.81719 14.2478 9.75781 14.27 9.69102C14.2775 9.66133 14.2923 9.63164 14.2997 9.59453C14.3294 9.49805 14.3665 9.40899 14.3962 9.3125C14.411 9.28281 14.4185 9.2457 14.4333 9.21602C14.4704 9.12695 14.5075 9.03789 14.5521 8.94883C14.5669 8.91914 14.5818 8.88945 14.5966 8.85977C14.6114 8.83008 14.6263 8.80039 14.6411 8.76328C14.656 8.73359 14.6708 8.70391 14.6857 8.67422C14.7153 8.61484 14.745 8.55547 14.7821 8.49609C14.797 8.46641 14.8118 8.43672 14.8341 8.40703C14.8341 8.40703 14.8341 8.40703 14.8341 8.39961C15.2423 7.7168 15.7767 7.11562 16.4075 6.64062H16.415C16.4818 6.58867 16.5485 6.54414 16.6153 6.49961C16.6525 6.47734 16.6821 6.45508 16.7193 6.43281C16.8232 6.35859 16.9345 6.2918 17.0458 6.23242C17.1052 6.20273 17.1571 6.16562 17.2165 6.13594C17.2759 6.10625 17.3353 6.07656 17.3872 6.04688C17.4466 6.01719 17.506 5.99492 17.5653 5.96523C17.5802 5.95781 17.595 5.95039 17.6099 5.95039C17.736 5.89844 17.8622 5.84648 17.9884 5.80195C18.0032 5.79453 18.0181 5.78711 18.0403 5.78711C18.0997 5.76484 18.1591 5.74258 18.2185 5.72773C18.2185 5.72773 18.2185 5.72773 18.2259 5.72773C18.3224 5.69805 18.4189 5.66836 18.5079 5.64609C18.5747 5.63125 18.6415 5.61641 18.7083 5.60156C18.7232 5.60156 18.7306 5.59414 18.7454 5.59414C18.8122 5.5793 18.879 5.56445 18.9458 5.55703C18.9978 5.54961 19.0423 5.54219 19.0943 5.53477C19.1462 5.52734 19.1907 5.51992 19.2427 5.5125C19.2946 5.50508 19.3392 5.49766 19.3911 5.49766H19.3985C19.4505 5.49023 19.495 5.49023 19.547 5.48281C19.5915 5.48281 19.6435 5.47539 19.688 5.47539C19.6954 5.47539 19.7103 5.47539 19.7177 5.47539C19.7548 5.47539 19.7845 5.47539 19.8216 5.47539C19.881 5.47539 19.9478 5.47539 20.0071 5.47539C20.0591 5.47539 20.1036 5.47539 20.1556 5.47539C20.1704 5.47539 20.1927 5.47539 20.2075 5.47539C20.2446 5.47539 20.2818 5.47539 20.3114 5.48281C20.3634 5.48281 20.4153 5.49023 20.4673 5.49023C20.5044 5.49023 20.5341 5.49766 20.5712 5.49766C20.5861 5.49766 20.5935 5.49766 20.6083 5.49766C20.6306 5.49766 20.6528 5.50508 20.6751 5.50508C20.69 5.50508 20.7122 5.50508 20.7271 5.5125C20.7568 5.5125 20.779 5.51992 20.8087 5.51992C20.8681 5.52734 20.9349 5.53477 20.9943 5.54961C21.0017 5.54961 21.0091 5.54961 21.0165 5.55703L21.0982 5.57188C21.1575 5.5793 21.2169 5.59414 21.2837 5.60898C21.2911 5.60898 21.306 5.61641 21.3134 5.61641C21.3431 5.62383 21.3653 5.63125 21.395 5.63867C21.4618 5.65352 21.5286 5.66836 21.588 5.69063C21.6177 5.69805 21.6548 5.70547 21.6845 5.72031C21.7142 5.72773 21.7513 5.74258 21.781 5.75C21.8107 5.75742 21.8403 5.77227 21.8775 5.77969C21.9071 5.78711 21.9368 5.80195 21.9739 5.80938C22.0185 5.82422 22.0556 5.83906 22.1001 5.85391C22.1372 5.86875 22.1669 5.87617 22.204 5.89102C22.2263 5.89844 22.2411 5.90586 22.2634 5.91328C22.3153 5.93555 22.3599 5.95039 22.4044 5.97266C22.4489 5.99492 22.486 6.00977 22.5306 6.03203C22.5974 6.06172 22.6716 6.09883 22.7384 6.13594C22.7829 6.1582 22.8349 6.18047 22.8794 6.21016C22.9165 6.225 22.9462 6.24727 22.9833 6.26953C22.9982 6.27695 23.013 6.28438 23.0278 6.2918C23.7329 6.7 24.3489 7.24922 24.8314 7.89492C24.8314 7.89492 24.8314 7.89492 24.8388 7.90234C24.8907 7.96914 24.9353 8.03594 24.9798 8.10273C25.0021 8.13984 25.0243 8.16953 25.0466 8.20664C25.1208 8.31797 25.1876 8.42188 25.247 8.5332C25.2915 8.60742 25.3286 8.68164 25.3732 8.76328C25.4251 8.85977 25.4696 8.95625 25.5142 9.06016C25.581 9.20859 25.6403 9.36445 25.6997 9.52031C25.722 9.57227 25.7368 9.62422 25.7517 9.67617C25.7665 9.72813 25.7814 9.78008 25.7962 9.83945C25.811 9.89141 25.8259 9.94336 25.8407 10.0027C25.8556 10.0695 25.8704 10.1363 25.8853 10.2031C25.8853 10.218 25.8927 10.2254 25.8927 10.2402C25.9075 10.307 25.9224 10.3738 25.9298 10.4406C25.9372 10.4926 25.9446 10.5371 25.9521 10.5891C25.9595 10.641 25.9669 10.6855 25.9743 10.7375C25.9818 10.7895 25.9892 10.834 25.9892 10.8859V10.8934C25.9966 10.9379 25.9966 10.9898 26.004 11.0418C26.004 11.0863 26.0114 11.1383 26.0114 11.1828C26.0114 11.1902 26.0114 11.2051 26.0114 11.2125C26.0114 11.2496 26.0189 11.2793 26.0189 11.3164C26.0189 11.3758 26.0189 11.4426 26.0189 11.502C26.0114 14.7824 23.3173 17.4766 19.9997 17.4766Z"/>
<path d="M22.2042 9.29759L19.4284 12.0659C19.1315 12.3702 18.6268 12.3628 18.3299 12.0659L17.7807 11.5167C17.5655 11.3015 17.2092 11.3015 16.994 11.5167C16.7788 11.732 16.7788 12.0882 16.994 12.3034L18.226 13.5355C18.3967 13.7136 18.6342 13.8101 18.8792 13.8101C19.1241 13.8101 19.3616 13.7136 19.5323 13.5355L23.0057 10.062C23.2284 9.83938 23.2135 9.46829 22.9835 9.25306C22.7756 9.06009 22.4194 9.08235 22.2042 9.29759Z"/>
<path d="M26.4128 24.4531H13.5878C13.2835 24.4531 13.0311 24.698 13.0311 25.0098C13.0311 25.3141 13.2835 25.5664 13.5878 25.5664H26.4053C26.7096 25.5664 26.962 25.3141 26.962 25.0098C26.9694 24.698 26.7171 24.4531 26.4128 24.4531Z"/>
</mask>
<path d="M36.2168 8.88203H30.3758V3.7832C30.3758 2.24687 29.1289 1 27.5926 1H12.4074C10.8711 1 9.62422 2.24687 9.62422 3.7832V8.88203H3.7832C2.24687 8.88203 1 10.1289 1 11.6652V30.5613C1 32.0977 2.24687 33.3445 3.7832 33.3445H17.2762V35.6602H16.5711C15.1609 35.6602 14.0105 36.8105 14.0105 38.2207C14.0105 38.6512 14.3594 39 14.7898 39H25.2102C25.6406 39 25.9895 38.6512 25.9895 38.2207C25.9895 36.8105 24.8391 35.6602 23.4289 35.6602H22.7238V33.3445H36.2168C37.7531 33.3445 39 32.0977 39 30.5613V11.6652C39 10.1289 37.7531 8.88203 36.2168 8.88203ZM30.3758 12.2219H35.6602V30.0047H30.3758V12.2219ZM10.7375 3.7832C10.7375 2.86289 11.4871 2.11328 12.4074 2.11328H27.6C28.5203 2.11328 29.2699 2.86289 29.2699 3.7832V30.0047H10.7375V3.7832ZM23.4289 36.7734C24.1117 36.7734 24.6832 37.2484 24.8391 37.8867H15.1609C15.3094 37.2484 15.8883 36.7734 16.5711 36.7734H23.4289ZM18.3895 35.6602V33.3445H21.618V35.6602H18.3895ZM37.8867 30.5613C37.8867 31.4816 37.1371 32.2312 36.2168 32.2312H17.8328C17.8328 32.2312 17.8328 32.2312 17.8254 32.2312C17.8254 32.2312 17.8254 32.2312 17.818 32.2312H3.7832C2.86289 32.2312 2.11328 31.4816 2.11328 30.5613V11.6652C2.11328 10.7449 2.86289 9.99531 3.7832 9.99531H9.62422V11.1086H4.00586C3.57539 11.1086 3.22656 11.4574 3.22656 11.8879V30.5613C3.22656 30.8656 3.47891 31.118 3.7832 31.118H35.9941C36.4246 31.118 36.7734 30.7691 36.7734 30.3387V11.8879C36.7734 11.4574 36.4246 11.1086 35.9941 11.1086H30.3758V9.99531H36.2168C37.1371 9.99531 37.8867 10.7449 37.8867 11.6652V30.5613ZM9.62422 12.2219V30.0047H4.33984V12.2219H9.62422Z" fill="#00B4E3"/>
<path d="M26.4128 21.1133H13.5878C13.2835 21.1133 13.0311 21.3582 13.0311 21.6699C13.0311 21.9742 13.2835 22.2266 13.5878 22.2266H26.4053C26.7096 22.2266 26.962 21.9742 26.962 21.6699C26.9694 21.3582 26.7171 21.1133 26.4128 21.1133Z" fill="#00B4E3"/>
<path d="M27.1247 11.2348C27.1247 11.1902 27.1247 11.1457 27.1173 11.1012C27.1173 11.0418 27.1099 10.9898 27.1099 10.9305C27.1099 10.923 27.1099 10.9156 27.1099 10.9156C27.1025 10.7969 27.0876 10.6781 27.0728 10.5668C27.0653 10.5074 27.0579 10.448 27.0505 10.3887C27.0357 10.2699 27.0134 10.1512 26.9911 10.0398C26.9392 9.78008 26.8724 9.52774 26.7907 9.27539C26.7833 9.26055 26.7759 9.23828 26.7759 9.22344C26.7462 9.1418 26.7165 9.06016 26.6868 8.97852C26.6794 8.96367 26.672 8.94883 26.672 8.93398C26.6349 8.8375 26.5978 8.74102 26.5532 8.65195C26.5458 8.64453 26.5458 8.62969 26.5384 8.62227C26.5013 8.54063 26.4642 8.45898 26.4271 8.37734C26.4196 8.36992 26.4196 8.35508 26.4122 8.34766C26.3974 8.31055 26.3751 8.27344 26.3603 8.24375C26.3083 8.13984 26.2564 8.04336 26.197 7.94688C26.1673 7.89492 26.1376 7.84297 26.1079 7.79844C26.0782 7.74648 26.0485 7.70195 26.0189 7.65C25.9892 7.60547 25.9595 7.56094 25.9372 7.52383C25.9001 7.47188 25.863 7.41992 25.8259 7.36797C25.7962 7.32344 25.7591 7.27148 25.722 7.22695C25.7146 7.21953 25.7071 7.20469 25.6997 7.19727C25.1431 6.4625 24.4454 5.83906 23.6513 5.36406C23.6439 5.35664 23.6364 5.35664 23.629 5.34922C23.6068 5.33437 23.5919 5.32695 23.5696 5.31953C23.5103 5.28242 23.4509 5.25273 23.3915 5.22305C23.347 5.20078 23.295 5.17109 23.2505 5.14883C23.1985 5.12656 23.154 5.09688 23.1021 5.07461C23.065 5.05234 23.0278 5.0375 22.9907 5.02266C22.961 5.00781 22.9314 4.99297 22.8943 4.97812C22.8868 4.97812 22.8868 4.9707 22.8794 4.9707C22.8126 4.94102 22.7384 4.91133 22.6716 4.88164C22.6345 4.8668 22.5974 4.85195 22.5603 4.83711C22.486 4.80742 22.4118 4.77773 22.3376 4.75547C22.3005 4.74062 22.2634 4.7332 22.2263 4.71836C22.1521 4.69609 22.0778 4.66641 21.9962 4.65156C21.9591 4.63672 21.922 4.6293 21.8849 4.62188C21.8478 4.61445 21.8107 4.59961 21.7735 4.59219C21.729 4.57734 21.6771 4.56992 21.6325 4.55508C21.5954 4.54766 21.5583 4.54023 21.5286 4.53281C21.5064 4.52539 21.4841 4.52539 21.4693 4.51797C21.447 4.51055 21.4247 4.51055 21.395 4.50312C21.3282 4.48828 21.2689 4.48086 21.2021 4.46602H21.1946C21.1575 4.45859 21.1204 4.45117 21.0833 4.45117C21.0017 4.43633 20.9275 4.42891 20.8458 4.42148C20.7642 4.41406 20.69 4.40664 20.6083 4.39922C20.5861 4.39922 20.5564 4.3918 20.5341 4.3918C20.4821 4.38437 20.4302 4.38437 20.3782 4.38437C20.3189 4.38437 20.2595 4.37695 20.2001 4.37695H20.1853C20.1259 4.37695 20.0665 4.37695 20.0146 4.37695C19.9626 4.37695 19.9107 4.37695 19.8513 4.37695C19.829 4.37695 19.8068 4.37695 19.7845 4.37695C19.74 4.37695 19.6954 4.37695 19.6435 4.38437C19.5841 4.38437 19.5321 4.3918 19.4728 4.3918C19.4653 4.3918 19.4579 4.3918 19.4579 4.3918C19.3392 4.39922 19.2204 4.41406 19.1091 4.42891C19.0497 4.43633 18.9903 4.44375 18.931 4.45117C18.879 4.45859 18.8196 4.46602 18.7677 4.48086C18.7157 4.4957 18.6564 4.50312 18.6044 4.51055C18.5599 4.51797 18.5079 4.53281 18.4634 4.54023C18.4486 4.54766 18.4263 4.54766 18.4114 4.55508C18.3669 4.5625 18.315 4.57734 18.2704 4.59219C18.2333 4.59961 18.1962 4.61445 18.1517 4.62188C18.1071 4.63672 18.0626 4.64414 18.0181 4.65898C17.9439 4.68125 17.8771 4.70352 17.8028 4.72578C17.7583 4.74063 17.7212 4.75547 17.6767 4.77031C17.6321 4.78516 17.5876 4.8 17.5357 4.82227C17.4986 4.83711 17.4614 4.85195 17.4169 4.8668C17.3724 4.88164 17.3353 4.90391 17.2907 4.91875C17.2536 4.93359 17.2165 4.94844 17.172 4.9707C17.1275 4.98555 17.0903 5.00781 17.0458 5.03008C17.0087 5.04492 16.9716 5.06719 16.9345 5.08203C16.89 5.1043 16.8454 5.12656 16.8009 5.14883C16.6821 5.2082 16.5708 5.26758 16.4521 5.33438C16.4521 5.33438 16.4521 5.33438 16.4446 5.33438C16.3927 5.36406 16.3482 5.39375 16.2962 5.42344C16.2517 5.4457 16.2146 5.47539 16.17 5.49766C16.1552 5.50508 16.1329 5.51992 16.1181 5.52734C16.0884 5.54961 16.0587 5.57188 16.0216 5.58672C15.9919 5.60898 15.9622 5.62383 15.9325 5.64609C15.9028 5.66836 15.8732 5.69063 15.836 5.71289C15.7841 5.75 15.7396 5.77969 15.695 5.8168C14.9528 6.37344 14.322 7.07852 13.847 7.88008C13.847 7.8875 13.8396 7.8875 13.8396 7.89492C13.8247 7.92461 13.8025 7.9543 13.7876 7.99141C13.7134 8.13242 13.6392 8.26602 13.565 8.41445C13.5501 8.44414 13.5353 8.47383 13.5204 8.51094C13.513 8.51836 13.513 8.52578 13.513 8.5332C13.4982 8.56289 13.4833 8.6 13.4685 8.62969C13.4685 8.63711 13.461 8.63711 13.461 8.64453C13.4314 8.71133 13.4017 8.78555 13.372 8.85234C13.3571 8.88945 13.3423 8.92656 13.3275 8.96367C13.2978 9.03789 13.2681 9.11211 13.2458 9.18633C13.231 9.22344 13.2235 9.26055 13.2087 9.29766C13.1864 9.37188 13.1642 9.44609 13.1419 9.52031C13.1345 9.55742 13.1196 9.59453 13.1122 9.63164C13.0974 9.69102 13.0825 9.74297 13.0677 9.80234C13.0232 9.97305 12.9861 10.1438 12.9564 10.3219V10.3293C12.9489 10.3664 12.9415 10.4035 12.9415 10.4406C12.9267 10.5148 12.9193 10.5965 12.9118 10.6781C12.9044 10.7598 12.897 10.834 12.8896 10.9156C12.8896 10.9379 12.8821 10.9676 12.8821 10.9898C12.8821 11.0418 12.8747 11.0938 12.8747 11.1383C12.8747 11.1977 12.8673 11.257 12.8673 11.3164V11.3313C12.8673 11.3906 12.8673 11.45 12.8673 11.5094C12.8673 15.4355 16.0661 18.6344 19.9923 18.6344C23.9185 18.6344 27.1173 15.4355 27.1173 11.5094C27.1173 11.4574 27.1173 11.4055 27.1173 11.3461C27.1247 11.2793 27.1247 11.257 27.1247 11.2348ZM19.9997 17.4766C16.6821 17.4766 13.988 14.7824 13.988 11.4648C13.988 11.4129 13.988 11.3684 13.988 11.3164C13.988 11.3016 13.988 11.2793 13.988 11.2645C13.988 11.2273 13.988 11.1902 13.9954 11.1531C13.9954 11.1012 14.0028 11.0492 14.0028 10.9973C14.0028 10.9602 14.0103 10.9305 14.0103 10.8934C14.0103 10.8785 14.0103 10.8711 14.0177 10.8563C14.0177 10.834 14.0251 10.8117 14.0251 10.7895C14.0251 10.7746 14.0251 10.7598 14.0325 10.7375C14.0325 10.7078 14.04 10.6855 14.04 10.6559C14.0474 10.5965 14.0548 10.5297 14.0696 10.4703C14.0696 10.4629 14.0696 10.4555 14.0771 10.448C14.0845 10.4184 14.0845 10.3887 14.0919 10.3664C14.1068 10.307 14.1142 10.2402 14.129 10.1809C14.129 10.1734 14.129 10.166 14.1364 10.166C14.1439 10.1363 14.1513 10.1066 14.1587 10.077C14.1735 10.0102 14.1884 9.94336 14.2107 9.88398C14.2255 9.81719 14.2478 9.75781 14.27 9.69102C14.2775 9.66133 14.2923 9.63164 14.2997 9.59453C14.3294 9.49805 14.3665 9.40899 14.3962 9.3125C14.411 9.28281 14.4185 9.2457 14.4333 9.21602C14.4704 9.12695 14.5075 9.03789 14.5521 8.94883C14.5669 8.91914 14.5818 8.88945 14.5966 8.85977C14.6114 8.83008 14.6263 8.80039 14.6411 8.76328C14.656 8.73359 14.6708 8.70391 14.6857 8.67422C14.7153 8.61484 14.745 8.55547 14.7821 8.49609C14.797 8.46641 14.8118 8.43672 14.8341 8.40703C14.8341 8.40703 14.8341 8.40703 14.8341 8.39961C15.2423 7.7168 15.7767 7.11562 16.4075 6.64062H16.415C16.4818 6.58867 16.5485 6.54414 16.6153 6.49961C16.6525 6.47734 16.6821 6.45508 16.7193 6.43281C16.8232 6.35859 16.9345 6.2918 17.0458 6.23242C17.1052 6.20273 17.1571 6.16562 17.2165 6.13594C17.2759 6.10625 17.3353 6.07656 17.3872 6.04688C17.4466 6.01719 17.506 5.99492 17.5653 5.96523C17.5802 5.95781 17.595 5.95039 17.6099 5.95039C17.736 5.89844 17.8622 5.84648 17.9884 5.80195C18.0032 5.79453 18.0181 5.78711 18.0403 5.78711C18.0997 5.76484 18.1591 5.74258 18.2185 5.72773C18.2185 5.72773 18.2185 5.72773 18.2259 5.72773C18.3224 5.69805 18.4189 5.66836 18.5079 5.64609C18.5747 5.63125 18.6415 5.61641 18.7083 5.60156C18.7232 5.60156 18.7306 5.59414 18.7454 5.59414C18.8122 5.5793 18.879 5.56445 18.9458 5.55703C18.9978 5.54961 19.0423 5.54219 19.0943 5.53477C19.1462 5.52734 19.1907 5.51992 19.2427 5.5125C19.2946 5.50508 19.3392 5.49766 19.3911 5.49766H19.3985C19.4505 5.49023 19.495 5.49023 19.547 5.48281C19.5915 5.48281 19.6435 5.47539 19.688 5.47539C19.6954 5.47539 19.7103 5.47539 19.7177 5.47539C19.7548 5.47539 19.7845 5.47539 19.8216 5.47539C19.881 5.47539 19.9478 5.47539 20.0071 5.47539C20.0591 5.47539 20.1036 5.47539 20.1556 5.47539C20.1704 5.47539 20.1927 5.47539 20.2075 5.47539C20.2446 5.47539 20.2818 5.47539 20.3114 5.48281C20.3634 5.48281 20.4153 5.49023 20.4673 5.49023C20.5044 5.49023 20.5341 5.49766 20.5712 5.49766C20.5861 5.49766 20.5935 5.49766 20.6083 5.49766C20.6306 5.49766 20.6528 5.50508 20.6751 5.50508C20.69 5.50508 20.7122 5.50508 20.7271 5.5125C20.7568 5.5125 20.779 5.51992 20.8087 5.51992C20.8681 5.52734 20.9349 5.53477 20.9943 5.54961C21.0017 5.54961 21.0091 5.54961 21.0165 5.55703L21.0982 5.57188C21.1575 5.5793 21.2169 5.59414 21.2837 5.60898C21.2911 5.60898 21.306 5.61641 21.3134 5.61641C21.3431 5.62383 21.3653 5.63125 21.395 5.63867C21.4618 5.65352 21.5286 5.66836 21.588 5.69063C21.6177 5.69805 21.6548 5.70547 21.6845 5.72031C21.7142 5.72773 21.7513 5.74258 21.781 5.75C21.8107 5.75742 21.8403 5.77227 21.8775 5.77969C21.9071 5.78711 21.9368 5.80195 21.9739 5.80938C22.0185 5.82422 22.0556 5.83906 22.1001 5.85391C22.1372 5.86875 22.1669 5.87617 22.204 5.89102C22.2263 5.89844 22.2411 5.90586 22.2634 5.91328C22.3153 5.93555 22.3599 5.95039 22.4044 5.97266C22.4489 5.99492 22.486 6.00977 22.5306 6.03203C22.5974 6.06172 22.6716 6.09883 22.7384 6.13594C22.7829 6.1582 22.8349 6.18047 22.8794 6.21016C22.9165 6.225 22.9462 6.24727 22.9833 6.26953C22.9982 6.27695 23.013 6.28438 23.0278 6.2918C23.7329 6.7 24.3489 7.24922 24.8314 7.89492C24.8314 7.89492 24.8314 7.89492 24.8388 7.90234C24.8907 7.96914 24.9353 8.03594 24.9798 8.10273C25.0021 8.13984 25.0243 8.16953 25.0466 8.20664C25.1208 8.31797 25.1876 8.42188 25.247 8.5332C25.2915 8.60742 25.3286 8.68164 25.3732 8.76328C25.4251 8.85977 25.4696 8.95625 25.5142 9.06016C25.581 9.20859 25.6403 9.36445 25.6997 9.52031C25.722 9.57227 25.7368 9.62422 25.7517 9.67617C25.7665 9.72813 25.7814 9.78008 25.7962 9.83945C25.811 9.89141 25.8259 9.94336 25.8407 10.0027C25.8556 10.0695 25.8704 10.1363 25.8853 10.2031C25.8853 10.218 25.8927 10.2254 25.8927 10.2402C25.9075 10.307 25.9224 10.3738 25.9298 10.4406C25.9372 10.4926 25.9446 10.5371 25.9521 10.5891C25.9595 10.641 25.9669 10.6855 25.9743 10.7375C25.9818 10.7895 25.9892 10.834 25.9892 10.8859V10.8934C25.9966 10.9379 25.9966 10.9898 26.004 11.0418C26.004 11.0863 26.0114 11.1383 26.0114 11.1828C26.0114 11.1902 26.0114 11.2051 26.0114 11.2125C26.0114 11.2496 26.0189 11.2793 26.0189 11.3164C26.0189 11.3758 26.0189 11.4426 26.0189 11.502C26.0114 14.7824 23.3173 17.4766 19.9997 17.4766Z" fill="#00B4E3"/>
<path d="M22.2042 9.29759L19.4284 12.0659C19.1315 12.3702 18.6268 12.3628 18.3299 12.0659L17.7807 11.5167C17.5655 11.3015 17.2092 11.3015 16.994 11.5167C16.7788 11.732 16.7788 12.0882 16.994 12.3034L18.226 13.5355C18.3967 13.7136 18.6342 13.8101 18.8792 13.8101C19.1241 13.8101 19.3616 13.7136 19.5323 13.5355L23.0057 10.062C23.2284 9.83938 23.2135 9.46829 22.9835 9.25306C22.7756 9.06009 22.4194 9.08235 22.2042 9.29759Z" fill="#00B4E3"/>
<path d="M26.4128 24.4531H13.5878C13.2835 24.4531 13.0311 24.698 13.0311 25.0098C13.0311 25.3141 13.2835 25.5664 13.5878 25.5664H26.4053C26.7096 25.5664 26.962 25.3141 26.962 25.0098C26.9694 24.698 26.7171 24.4531 26.4128 24.4531Z" fill="#00B4E3"/>
<path d="M36.2168 8.88203H30.3758V3.7832C30.3758 2.24687 29.1289 1 27.5926 1H12.4074C10.8711 1 9.62422 2.24687 9.62422 3.7832V8.88203H3.7832C2.24687 8.88203 1 10.1289 1 11.6652V30.5613C1 32.0977 2.24687 33.3445 3.7832 33.3445H17.2762V35.6602H16.5711C15.1609 35.6602 14.0105 36.8105 14.0105 38.2207C14.0105 38.6512 14.3594 39 14.7898 39H25.2102C25.6406 39 25.9895 38.6512 25.9895 38.2207C25.9895 36.8105 24.8391 35.6602 23.4289 35.6602H22.7238V33.3445H36.2168C37.7531 33.3445 39 32.0977 39 30.5613V11.6652C39 10.1289 37.7531 8.88203 36.2168 8.88203ZM30.3758 12.2219H35.6602V30.0047H30.3758V12.2219ZM10.7375 3.7832C10.7375 2.86289 11.4871 2.11328 12.4074 2.11328H27.6C28.5203 2.11328 29.2699 2.86289 29.2699 3.7832V30.0047H10.7375V3.7832ZM23.4289 36.7734C24.1117 36.7734 24.6832 37.2484 24.8391 37.8867H15.1609C15.3094 37.2484 15.8883 36.7734 16.5711 36.7734H23.4289ZM18.3895 35.6602V33.3445H21.618V35.6602H18.3895ZM37.8867 30.5613C37.8867 31.4816 37.1371 32.2312 36.2168 32.2312H17.8328C17.8328 32.2312 17.8328 32.2312 17.8254 32.2312C17.8254 32.2312 17.8254 32.2312 17.818 32.2312H3.7832C2.86289 32.2312 2.11328 31.4816 2.11328 30.5613V11.6652C2.11328 10.7449 2.86289 9.99531 3.7832 9.99531H9.62422V11.1086H4.00586C3.57539 11.1086 3.22656 11.4574 3.22656 11.8879V30.5613C3.22656 30.8656 3.47891 31.118 3.7832 31.118H35.9941C36.4246 31.118 36.7734 30.7691 36.7734 30.3387V11.8879C36.7734 11.4574 36.4246 11.1086 35.9941 11.1086H30.3758V9.99531H36.2168C37.1371 9.99531 37.8867 10.7449 37.8867 11.6652V30.5613ZM9.62422 12.2219V30.0047H4.33984V12.2219H9.62422Z" stroke="#00B4E3" stroke-width="0.6" mask="url(#path-1-outside-1)"/>
<path d="M26.4128 21.1133H13.5878C13.2835 21.1133 13.0311 21.3582 13.0311 21.6699C13.0311 21.9742 13.2835 22.2266 13.5878 22.2266H26.4053C26.7096 22.2266 26.962 21.9742 26.962 21.6699C26.9694 21.3582 26.7171 21.1133 26.4128 21.1133Z" stroke="#00B4E3" stroke-width="0.6" mask="url(#path-1-outside-1)"/>
<path d="M27.1247 11.2348C27.1247 11.1902 27.1247 11.1457 27.1173 11.1012C27.1173 11.0418 27.1099 10.9898 27.1099 10.9305C27.1099 10.923 27.1099 10.9156 27.1099 10.9156C27.1025 10.7969 27.0876 10.6781 27.0728 10.5668C27.0653 10.5074 27.0579 10.448 27.0505 10.3887C27.0357 10.2699 27.0134 10.1512 26.9911 10.0398C26.9392 9.78008 26.8724 9.52774 26.7907 9.27539C26.7833 9.26055 26.7759 9.23828 26.7759 9.22344C26.7462 9.1418 26.7165 9.06016 26.6868 8.97852C26.6794 8.96367 26.672 8.94883 26.672 8.93398C26.6349 8.8375 26.5978 8.74102 26.5532 8.65195C26.5458 8.64453 26.5458 8.62969 26.5384 8.62227C26.5013 8.54063 26.4642 8.45898 26.4271 8.37734C26.4196 8.36992 26.4196 8.35508 26.4122 8.34766C26.3974 8.31055 26.3751 8.27344 26.3603 8.24375C26.3083 8.13984 26.2564 8.04336 26.197 7.94688C26.1673 7.89492 26.1376 7.84297 26.1079 7.79844C26.0782 7.74648 26.0485 7.70195 26.0189 7.65C25.9892 7.60547 25.9595 7.56094 25.9372 7.52383C25.9001 7.47188 25.863 7.41992 25.8259 7.36797C25.7962 7.32344 25.7591 7.27148 25.722 7.22695C25.7146 7.21953 25.7071 7.20469 25.6997 7.19727C25.1431 6.4625 24.4454 5.83906 23.6513 5.36406C23.6439 5.35664 23.6364 5.35664 23.629 5.34922C23.6068 5.33437 23.5919 5.32695 23.5696 5.31953C23.5103 5.28242 23.4509 5.25273 23.3915 5.22305C23.347 5.20078 23.295 5.17109 23.2505 5.14883C23.1985 5.12656 23.154 5.09688 23.1021 5.07461C23.065 5.05234 23.0278 5.0375 22.9907 5.02266C22.961 5.00781 22.9314 4.99297 22.8943 4.97812C22.8868 4.97812 22.8868 4.9707 22.8794 4.9707C22.8126 4.94102 22.7384 4.91133 22.6716 4.88164C22.6345 4.8668 22.5974 4.85195 22.5603 4.83711C22.486 4.80742 22.4118 4.77773 22.3376 4.75547C22.3005 4.74062 22.2634 4.7332 22.2263 4.71836C22.1521 4.69609 22.0778 4.66641 21.9962 4.65156C21.9591 4.63672 21.922 4.6293 21.8849 4.62188C21.8478 4.61445 21.8107 4.59961 21.7735 4.59219C21.729 4.57734 21.6771 4.56992 21.6325 4.55508C21.5954 4.54766 21.5583 4.54023 21.5286 4.53281C21.5064 4.52539 21.4841 4.52539 21.4693 4.51797C21.447 4.51055 21.4247 4.51055 21.395 4.50312C21.3282 4.48828 21.2689 4.48086 21.2021 4.46602H21.1946C21.1575 4.45859 21.1204 4.45117 21.0833 4.45117C21.0017 4.43633 20.9275 4.42891 20.8458 4.42148C20.7642 4.41406 20.69 4.40664 20.6083 4.39922C20.5861 4.39922 20.5564 4.3918 20.5341 4.3918C20.4821 4.38437 20.4302 4.38437 20.3782 4.38437C20.3189 4.38437 20.2595 4.37695 20.2001 4.37695H20.1853C20.1259 4.37695 20.0665 4.37695 20.0146 4.37695C19.9626 4.37695 19.9107 4.37695 19.8513 4.37695C19.829 4.37695 19.8068 4.37695 19.7845 4.37695C19.74 4.37695 19.6954 4.37695 19.6435 4.38437C19.5841 4.38437 19.5321 4.3918 19.4728 4.3918C19.4653 4.3918 19.4579 4.3918 19.4579 4.3918C19.3392 4.39922 19.2204 4.41406 19.1091 4.42891C19.0497 4.43633 18.9903 4.44375 18.931 4.45117C18.879 4.45859 18.8196 4.46602 18.7677 4.48086C18.7157 4.4957 18.6564 4.50312 18.6044 4.51055C18.5599 4.51797 18.5079 4.53281 18.4634 4.54023C18.4486 4.54766 18.4263 4.54766 18.4114 4.55508C18.3669 4.5625 18.315 4.57734 18.2704 4.59219C18.2333 4.59961 18.1962 4.61445 18.1517 4.62188C18.1071 4.63672 18.0626 4.64414 18.0181 4.65898C17.9439 4.68125 17.8771 4.70352 17.8028 4.72578C17.7583 4.74063 17.7212 4.75547 17.6767 4.77031C17.6321 4.78516 17.5876 4.8 17.5357 4.82227C17.4986 4.83711 17.4614 4.85195 17.4169 4.8668C17.3724 4.88164 17.3353 4.90391 17.2907 4.91875C17.2536 4.93359 17.2165 4.94844 17.172 4.9707C17.1275 4.98555 17.0903 5.00781 17.0458 5.03008C17.0087 5.04492 16.9716 5.06719 16.9345 5.08203C16.89 5.1043 16.8454 5.12656 16.8009 5.14883C16.6821 5.2082 16.5708 5.26758 16.4521 5.33438C16.4521 5.33438 16.4521 5.33438 16.4446 5.33438C16.3927 5.36406 16.3482 5.39375 16.2962 5.42344C16.2517 5.4457 16.2146 5.47539 16.17 5.49766C16.1552 5.50508 16.1329 5.51992 16.1181 5.52734C16.0884 5.54961 16.0587 5.57188 16.0216 5.58672C15.9919 5.60898 15.9622 5.62383 15.9325 5.64609C15.9028 5.66836 15.8732 5.69063 15.836 5.71289C15.7841 5.75 15.7396 5.77969 15.695 5.8168C14.9528 6.37344 14.322 7.07852 13.847 7.88008C13.847 7.8875 13.8396 7.8875 13.8396 7.89492C13.8247 7.92461 13.8025 7.9543 13.7876 7.99141C13.7134 8.13242 13.6392 8.26602 13.565 8.41445C13.5501 8.44414 13.5353 8.47383 13.5204 8.51094C13.513 8.51836 13.513 8.52578 13.513 8.5332C13.4982 8.56289 13.4833 8.6 13.4685 8.62969C13.4685 8.63711 13.461 8.63711 13.461 8.64453C13.4314 8.71133 13.4017 8.78555 13.372 8.85234C13.3571 8.88945 13.3423 8.92656 13.3275 8.96367C13.2978 9.03789 13.2681 9.11211 13.2458 9.18633C13.231 9.22344 13.2235 9.26055 13.2087 9.29766C13.1864 9.37188 13.1642 9.44609 13.1419 9.52031C13.1345 9.55742 13.1196 9.59453 13.1122 9.63164C13.0974 9.69102 13.0825 9.74297 13.0677 9.80234C13.0232 9.97305 12.9861 10.1438 12.9564 10.3219V10.3293C12.9489 10.3664 12.9415 10.4035 12.9415 10.4406C12.9267 10.5148 12.9193 10.5965 12.9118 10.6781C12.9044 10.7598 12.897 10.834 12.8896 10.9156C12.8896 10.9379 12.8821 10.9676 12.8821 10.9898C12.8821 11.0418 12.8747 11.0938 12.8747 11.1383C12.8747 11.1977 12.8673 11.257 12.8673 11.3164V11.3313C12.8673 11.3906 12.8673 11.45 12.8673 11.5094C12.8673 15.4355 16.0661 18.6344 19.9923 18.6344C23.9185 18.6344 27.1173 15.4355 27.1173 11.5094C27.1173 11.4574 27.1173 11.4055 27.1173 11.3461C27.1247 11.2793 27.1247 11.257 27.1247 11.2348ZM19.9997 17.4766C16.6821 17.4766 13.988 14.7824 13.988 11.4648C13.988 11.4129 13.988 11.3684 13.988 11.3164C13.988 11.3016 13.988 11.2793 13.988 11.2645C13.988 11.2273 13.988 11.1902 13.9954 11.1531C13.9954 11.1012 14.0028 11.0492 14.0028 10.9973C14.0028 10.9602 14.0103 10.9305 14.0103 10.8934C14.0103 10.8785 14.0103 10.8711 14.0177 10.8563C14.0177 10.834 14.0251 10.8117 14.0251 10.7895C14.0251 10.7746 14.0251 10.7598 14.0325 10.7375C14.0325 10.7078 14.04 10.6855 14.04 10.6559C14.0474 10.5965 14.0548 10.5297 14.0696 10.4703C14.0696 10.4629 14.0696 10.4555 14.0771 10.448C14.0845 10.4184 14.0845 10.3887 14.0919 10.3664C14.1068 10.307 14.1142 10.2402 14.129 10.1809C14.129 10.1734 14.129 10.166 14.1364 10.166C14.1439 10.1363 14.1513 10.1066 14.1587 10.077C14.1735 10.0102 14.1884 9.94336 14.2107 9.88398C14.2255 9.81719 14.2478 9.75781 14.27 9.69102C14.2775 9.66133 14.2923 9.63164 14.2997 9.59453C14.3294 9.49805 14.3665 9.40899 14.3962 9.3125C14.411 9.28281 14.4185 9.2457 14.4333 9.21602C14.4704 9.12695 14.5075 9.03789 14.5521 8.94883C14.5669 8.91914 14.5818 8.88945 14.5966 8.85977C14.6114 8.83008 14.6263 8.80039 14.6411 8.76328C14.656 8.73359 14.6708 8.70391 14.6857 8.67422C14.7153 8.61484 14.745 8.55547 14.7821 8.49609C14.797 8.46641 14.8118 8.43672 14.8341 8.40703C14.8341 8.40703 14.8341 8.40703 14.8341 8.39961C15.2423 7.7168 15.7767 7.11562 16.4075 6.64062H16.415C16.4818 6.58867 16.5485 6.54414 16.6153 6.49961C16.6525 6.47734 16.6821 6.45508 16.7193 6.43281C16.8232 6.35859 16.9345 6.2918 17.0458 6.23242C17.1052 6.20273 17.1571 6.16562 17.2165 6.13594C17.2759 6.10625 17.3353 6.07656 17.3872 6.04688C17.4466 6.01719 17.506 5.99492 17.5653 5.96523C17.5802 5.95781 17.595 5.95039 17.6099 5.95039C17.736 5.89844 17.8622 5.84648 17.9884 5.80195C18.0032 5.79453 18.0181 5.78711 18.0403 5.78711C18.0997 5.76484 18.1591 5.74258 18.2185 5.72773C18.2185 5.72773 18.2185 5.72773 18.2259 5.72773C18.3224 5.69805 18.4189 5.66836 18.5079 5.64609C18.5747 5.63125 18.6415 5.61641 18.7083 5.60156C18.7232 5.60156 18.7306 5.59414 18.7454 5.59414C18.8122 5.5793 18.879 5.56445 18.9458 5.55703C18.9978 5.54961 19.0423 5.54219 19.0943 5.53477C19.1462 5.52734 19.1907 5.51992 19.2427 5.5125C19.2946 5.50508 19.3392 5.49766 19.3911 5.49766H19.3985C19.4505 5.49023 19.495 5.49023 19.547 5.48281C19.5915 5.48281 19.6435 5.47539 19.688 5.47539C19.6954 5.47539 19.7103 5.47539 19.7177 5.47539C19.7548 5.47539 19.7845 5.47539 19.8216 5.47539C19.881 5.47539 19.9478 5.47539 20.0071 5.47539C20.0591 5.47539 20.1036 5.47539 20.1556 5.47539C20.1704 5.47539 20.1927 5.47539 20.2075 5.47539C20.2446 5.47539 20.2818 5.47539 20.3114 5.48281C20.3634 5.48281 20.4153 5.49023 20.4673 5.49023C20.5044 5.49023 20.5341 5.49766 20.5712 5.49766C20.5861 5.49766 20.5935 5.49766 20.6083 5.49766C20.6306 5.49766 20.6528 5.50508 20.6751 5.50508C20.69 5.50508 20.7122 5.50508 20.7271 5.5125C20.7568 5.5125 20.779 5.51992 20.8087 5.51992C20.8681 5.52734 20.9349 5.53477 20.9943 5.54961C21.0017 5.54961 21.0091 5.54961 21.0165 5.55703L21.0982 5.57188C21.1575 5.5793 21.2169 5.59414 21.2837 5.60898C21.2911 5.60898 21.306 5.61641 21.3134 5.61641C21.3431 5.62383 21.3653 5.63125 21.395 5.63867C21.4618 5.65352 21.5286 5.66836 21.588 5.69063C21.6177 5.69805 21.6548 5.70547 21.6845 5.72031C21.7142 5.72773 21.7513 5.74258 21.781 5.75C21.8107 5.75742 21.8403 5.77227 21.8775 5.77969C21.9071 5.78711 21.9368 5.80195 21.9739 5.80938C22.0185 5.82422 22.0556 5.83906 22.1001 5.85391C22.1372 5.86875 22.1669 5.87617 22.204 5.89102C22.2263 5.89844 22.2411 5.90586 22.2634 5.91328C22.3153 5.93555 22.3599 5.95039 22.4044 5.97266C22.4489 5.99492 22.486 6.00977 22.5306 6.03203C22.5974 6.06172 22.6716 6.09883 22.7384 6.13594C22.7829 6.1582 22.8349 6.18047 22.8794 6.21016C22.9165 6.225 22.9462 6.24727 22.9833 6.26953C22.9982 6.27695 23.013 6.28438 23.0278 6.2918C23.7329 6.7 24.3489 7.24922 24.8314 7.89492C24.8314 7.89492 24.8314 7.89492 24.8388 7.90234C24.8907 7.96914 24.9353 8.03594 24.9798 8.10273C25.0021 8.13984 25.0243 8.16953 25.0466 8.20664C25.1208 8.31797 25.1876 8.42188 25.247 8.5332C25.2915 8.60742 25.3286 8.68164 25.3732 8.76328C25.4251 8.85977 25.4696 8.95625 25.5142 9.06016C25.581 9.20859 25.6403 9.36445 25.6997 9.52031C25.722 9.57227 25.7368 9.62422 25.7517 9.67617C25.7665 9.72813 25.7814 9.78008 25.7962 9.83945C25.811 9.89141 25.8259 9.94336 25.8407 10.0027C25.8556 10.0695 25.8704 10.1363 25.8853 10.2031C25.8853 10.218 25.8927 10.2254 25.8927 10.2402C25.9075 10.307 25.9224 10.3738 25.9298 10.4406C25.9372 10.4926 25.9446 10.5371 25.9521 10.5891C25.9595 10.641 25.9669 10.6855 25.9743 10.7375C25.9818 10.7895 25.9892 10.834 25.9892 10.8859V10.8934C25.9966 10.9379 25.9966 10.9898 26.004 11.0418C26.004 11.0863 26.0114 11.1383 26.0114 11.1828C26.0114 11.1902 26.0114 11.2051 26.0114 11.2125C26.0114 11.2496 26.0189 11.2793 26.0189 11.3164C26.0189 11.3758 26.0189 11.4426 26.0189 11.502C26.0114 14.7824 23.3173 17.4766 19.9997 17.4766Z" stroke="#00B4E3" stroke-width="0.6" mask="url(#path-1-outside-1)"/>
<path d="M22.2042 9.29759L19.4284 12.0659C19.1315 12.3702 18.6268 12.3628 18.3299 12.0659L17.7807 11.5167C17.5655 11.3015 17.2092 11.3015 16.994 11.5167C16.7788 11.732 16.7788 12.0882 16.994 12.3034L18.226 13.5355C18.3967 13.7136 18.6342 13.8101 18.8792 13.8101C19.1241 13.8101 19.3616 13.7136 19.5323 13.5355L23.0057 10.062C23.2284 9.83938 23.2135 9.46829 22.9835 9.25306C22.7756 9.06009 22.4194 9.08235 22.2042 9.29759Z" stroke="#00B4E3" stroke-width="0.6" mask="url(#path-1-outside-1)"/>
<path d="M26.4128 24.4531H13.5878C13.2835 24.4531 13.0311 24.698 13.0311 25.0098C13.0311 25.3141 13.2835 25.5664 13.5878 25.5664H26.4053C26.7096 25.5664 26.962 25.3141 26.962 25.0098C26.9694 24.698 26.7171 24.4531 26.4128 24.4531Z" stroke="#00B4E3" stroke-width="0.6" mask="url(#path-1-outside-1)"/>
</svg>
