<svg width="28" height="28" viewBox="0 0 28 28" fill="none" xmlns="http://www.w3.org/2000/svg">
<path d="M14 0C6.28037 0 0 6.28037 0 14C0 21.7196 6.28037 28 14 28C21.7196 28 28 21.7196 28 14C28 6.28037 21.7196 0 14 0ZM14 26.3594C7.18501 26.3594 1.64062 20.815 1.64062 14C1.64062 7.18501 7.18501 1.64062 14 1.64062C20.815 1.64062 26.3594 7.18501 26.3594 14C26.3594 20.815 20.815 26.3594 14 26.3594Z" fill="#00B4E3"/>
<path d="M14 3.28125C8.08965 3.28125 3.28125 8.08965 3.28125 14C3.28125 19.9104 8.08965 24.7188 14 24.7188C19.9104 24.7188 24.7188 19.9104 24.7188 14C24.7188 8.08965 19.9104 3.28125 14 3.28125ZM14 23.0781C8.99429 23.0781 4.92188 19.0057 4.92188 14C4.92188 8.99429 8.99429 4.92188 14 4.92188C19.0057 4.92188 23.0781 8.99429 23.0781 14C23.0781 19.0057 19.0057 23.0781 14 23.0781Z" fill="#00B4E3"/>
<path d="M19.8391 9.32088L18.6791 8.16085L14 12.8399L9.3403 8.18021L8.18021 9.3403L12.8399 14L11.6798 15.1601L12.8399 16.3202L14 15.1601L15.1601 16.3202L16.3202 15.1601L15.1601 14L19.8391 9.32088Z" fill="#00B4E3"/>
<path d="M13.1797 6.5625H14.8203V8.20312H13.1797V6.5625Z" fill="#00B4E3"/>
<path d="M13.1797 19.7969H14.8203V21.4375H13.1797V19.7969Z" fill="#00B4E3"/>
<path d="M6.5625 13.1797H8.20312V14.8203H6.5625V13.1797Z" fill="#00B4E3"/>
<path d="M19.7969 13.1797H21.4375V14.8203H19.7969V13.1797Z" fill="#00B4E3"/>
</svg>
