<svg width="28" height="28" viewBox="0 0 28 28" fill="none" xmlns="http://www.w3.org/2000/svg">
<path d="M21.6344 10.8833C22.1648 10.8833 22.6625 10.6754 23.0398 10.3034C23.8164 9.52662 23.8164 8.26844 23.0398 7.49165L20.4969 4.94246C19.7477 4.19303 18.4352 4.19303 17.6859 4.94246C16.9094 5.71925 16.9094 6.97743 17.6859 7.75422L20.2289 10.3034C20.6062 10.6754 21.1039 10.8833 21.6344 10.8833ZM18.5883 5.8396C18.725 5.70284 18.9 5.63173 19.0914 5.63173C19.2828 5.63173 19.4633 5.70831 19.5945 5.8396L22.1375 8.38878C22.4164 8.66777 22.4164 9.12181 22.1375 9.4008C21.8695 9.66885 21.3992 9.66885 21.1258 9.4008L18.5828 6.85162C18.3094 6.57263 18.3094 6.11859 18.5883 5.8396Z" fill="#00B4E3"/>
<path d="M27.3656 7.99492L19.9883 0.615415C19.168 -0.205138 17.7352 -0.205138 16.9148 0.615415L10.8172 6.72033C10.407 7.1306 10.1828 7.67764 10.1828 8.2575C10.1828 8.83735 10.407 9.38439 10.8172 9.79467L16.9148 15.8996L16.543 16.277C16.3734 16.4466 16.1492 16.5396 15.9086 16.5396C15.668 16.5396 15.4437 16.4466 15.2742 16.277L13.4969 14.4937C13.2453 14.2475 12.8461 14.2475 12.5945 14.4937L9.09453 17.9947C8.84844 18.2409 8.84844 18.6457 9.09453 18.8973C9.22031 19.0232 9.37891 19.0833 9.54297 19.0833C9.70703 19.0833 9.87109 19.0232 9.99141 18.8973L13.043 15.8449L13.7375 16.5396L9.91484 20.3579H8.26875C7.91875 20.3579 7.63438 20.6424 7.63438 20.9925V22.2671H6.36016C6.01016 22.2671 5.72578 22.5515 5.72578 22.9016V24.1762H4.45703C4.10703 24.1762 3.82266 24.4607 3.82266 24.8108V26.4574L3.56016 26.7199H1.27422V24.4497L11.9055 13.8044C12.1516 13.5583 12.1516 13.1535 11.9055 12.9018L11.7195 12.7158C11.55 12.5463 11.457 12.322 11.457 12.0813C11.457 11.7312 11.1727 11.4467 10.8227 11.4467C10.4727 11.4467 10.1883 11.7312 10.1883 12.0867C10.1883 12.5408 10.325 12.9729 10.582 13.334L0.185938 23.7331C0.065625 23.8535 0 24.0121 0 24.1817V27.3654C0 27.7155 0.284375 28 0.634375 28H3.81719C3.98672 28 4.15078 27.9344 4.26562 27.814L4.9 27.1794C5.02031 27.0591 5.08594 26.9005 5.08594 26.7309V25.4563H6.36016C6.71016 25.4563 6.99453 25.1718 6.99453 24.8217V23.5471H8.26875C8.61875 23.5471 8.90312 23.2627 8.90312 22.9126V21.638H10.1773C10.3469 21.638 10.5109 21.5723 10.6258 21.452L14.6562 17.4203C15.0172 17.6774 15.4492 17.8142 15.9031 17.8142C16.4828 17.8142 17.0242 17.5844 17.4344 17.1796L18.2656 16.3536C18.5117 16.1075 18.5117 15.7026 18.2656 15.451L11.7195 8.89206C11.55 8.72248 11.457 8.49819 11.457 8.2575C11.457 8.0168 11.55 7.79252 11.7195 7.62294L17.8172 1.51255C18.1562 1.17339 18.7469 1.17339 19.0914 1.51255L26.4633 8.89206C26.6328 9.06164 26.7258 9.28592 26.7258 9.52662C26.7258 9.76731 26.6328 9.9916 26.4633 10.1612L20.3656 16.277C20.1961 16.4466 19.9719 16.5396 19.7312 16.5396C19.3812 16.5396 19.0969 16.8241 19.0969 17.1742C19.0969 17.5243 19.3812 17.8087 19.7312 17.8087C20.3109 17.8087 20.8578 17.5844 21.268 17.1742L27.3656 11.0693C27.7758 10.659 28 10.1119 28 9.53209C28 8.95223 27.7758 8.4052 27.3656 7.99492Z" fill="#00B4E3"/>
</svg>
