<svg width="42" height="36" viewBox="0 0 42 36" fill="none" xmlns="http://www.w3.org/2000/svg">
<mask id="path-1-outside-1" maskUnits="userSpaceOnUse" x="0" y="0" width="42" height="36" fill="black">
<rect fill="white" width="42" height="36"/>
<path fill-rule="evenodd" clip-rule="evenodd" d="M12.333 25C14.543 25 16.333 23.209 16.333 21C16.333 18.791 14.543 17 12.333 17C10.124 17 8.33301 18.791 8.33301 21C8.33594 23.208 10.125 24.9976 12.333 25ZM12.333 18.3335C13.8057 18.3335 15 19.5273 15 21C15 22.4727 13.8057 23.6665 12.333 23.6665C10.8604 23.6665 9.66699 22.4727 9.66699 21C9.66797 19.5278 10.8613 18.335 12.333 18.3335Z"/>
<path d="M19 17H33C33.3682 17 33.667 17.2983 33.667 17.6665C33.667 18.0347 33.3682 18.3335 33 18.3335H19C18.9316 18.3335 18.8662 18.3232 18.8047 18.3042C18.7725 18.2944 18.7412 18.2822 18.7109 18.2676C18.6797 18.2524 18.6494 18.2349 18.6211 18.2148C18.4473 18.0947 18.333 17.8936 18.333 17.6665C18.333 17.2983 18.6318 17 19 17Z"/>
<path d="M33 20.3335H19C18.6318 20.3335 18.333 20.6318 18.333 21C18.333 21.0859 18.3486 21.168 18.3779 21.2432C18.3975 21.2915 18.4219 21.3374 18.4512 21.3794C18.4746 21.4141 18.502 21.4463 18.5322 21.4756C18.6533 21.5938 18.8184 21.6665 19 21.6665H33C33.3682 21.6665 33.667 21.3682 33.667 21C33.667 20.6318 33.3682 20.3335 33 20.3335Z"/>
<path d="M19 23.6665H33C33.3682 23.6665 33.667 23.9653 33.667 24.3335C33.667 24.7017 33.3682 25 33 25H19C18.6318 25 18.333 24.7017 18.333 24.3335C18.333 23.9648 18.6318 23.6665 19 23.6665Z"/>
<path d="M33 27H9C8.63184 27 8.33301 27.2983 8.33301 27.6665C8.33301 28.0347 8.63184 28.3335 9 28.3335H33C33.3682 28.3335 33.667 28.0347 33.667 27.6665C33.667 27.2983 33.3682 27 33 27Z"/>
<path d="M9 30.3335H33C33.3682 30.3335 33.667 30.6318 33.667 31C33.667 31.3682 33.3682 31.6665 33 31.6665H9C8.63184 31.6665 8.33301 31.3682 8.33301 31C8.33301 30.6318 8.63184 30.3335 9 30.3335Z"/>
<path fill-rule="evenodd" clip-rule="evenodd" d="M10.333 1C9.22949 1.00098 8.33496 1.896 8.33301 3V7C7.22949 7.00098 6.33496 7.896 6.33301 9V13C5.22949 13.001 4.33496 13.896 4.33301 15V33.6665H1.66699C1.29883 33.6665 1 33.9648 1 34.3335C1 34.7017 1.29883 35 1.66699 35H40.333C40.7012 35 41 34.7017 41 34.3335C41 33.9653 40.7012 33.6665 40.333 33.6665H37.667V15C37.666 13.896 36.7705 13.001 35.667 13V9C35.666 7.896 34.7705 7.00098 33.667 7V3C33.666 1.896 32.7705 1.00098 31.667 1H10.333ZM9.66699 3C9.66699 2.63184 9.96484 2.3335 10.333 2.3335H31.667C32.0352 2.3335 32.333 2.63184 32.333 3V7H18.2656C17.9492 5.44824 16.584 4.3335 15 4.3335C13.416 4.3335 12.0508 5.44824 11.7344 7H9.66699V3ZM13.123 7C13.4014 6.20166 14.1543 5.6665 15 5.6665C15.8457 5.6665 16.5986 6.20166 16.877 7H13.123ZM7.94531 8.45752L8 8.42236C8.09766 8.36572 8.21191 8.3335 8.33301 8.3335H33.667C34.0352 8.3335 34.333 8.63184 34.333 9V13H16.2656C15.9492 11.4482 14.584 10.3335 13 10.3335C11.416 10.3335 10.0508 11.4482 9.73438 13H7.66699V9C7.66699 8.95508 7.67188 8.91113 7.68066 8.86865C7.69141 8.81152 7.70996 8.75732 7.73438 8.70703C7.7832 8.60742 7.85547 8.52148 7.94531 8.45752ZM11.3584 12.5337C11.457 12.3892 11.5732 12.2598 11.7041 12.1475C12.0566 11.8442 12.5127 11.6665 13 11.6665C13.8457 11.6665 14.5986 12.2017 14.877 13H11.123C11.1816 12.832 11.2607 12.6758 11.3584 12.5337ZM36.333 33.6665H5.66699V15C5.66699 14.6318 5.96484 14.3335 6.33301 14.3335H35.667C36.0352 14.3335 36.333 14.6318 36.333 15V33.6665Z"/>
</mask>
<path fill-rule="evenodd" clip-rule="evenodd" d="M12.333 25C14.543 25 16.333 23.209 16.333 21C16.333 18.791 14.543 17 12.333 17C10.124 17 8.33301 18.791 8.33301 21C8.33594 23.208 10.125 24.9976 12.333 25ZM12.333 18.3335C13.8057 18.3335 15 19.5273 15 21C15 22.4727 13.8057 23.6665 12.333 23.6665C10.8604 23.6665 9.66699 22.4727 9.66699 21C9.66797 19.5278 10.8613 18.335 12.333 18.3335Z" fill="#00B4E3"/>
<path d="M19 17H33C33.3682 17 33.667 17.2983 33.667 17.6665C33.667 18.0347 33.3682 18.3335 33 18.3335H19C18.9316 18.3335 18.8662 18.3232 18.8047 18.3042C18.7725 18.2944 18.7412 18.2822 18.7109 18.2676C18.6797 18.2524 18.6494 18.2349 18.6211 18.2148C18.4473 18.0947 18.333 17.8936 18.333 17.6665C18.333 17.2983 18.6318 17 19 17Z" fill="#00B4E3"/>
<path d="M33 20.3335H19C18.6318 20.3335 18.333 20.6318 18.333 21C18.333 21.0859 18.3486 21.168 18.3779 21.2432C18.3975 21.2915 18.4219 21.3374 18.4512 21.3794C18.4746 21.4141 18.502 21.4463 18.5322 21.4756C18.6533 21.5938 18.8184 21.6665 19 21.6665H33C33.3682 21.6665 33.667 21.3682 33.667 21C33.667 20.6318 33.3682 20.3335 33 20.3335Z" fill="#00B4E3"/>
<path d="M19 23.6665H33C33.3682 23.6665 33.667 23.9653 33.667 24.3335C33.667 24.7017 33.3682 25 33 25H19C18.6318 25 18.333 24.7017 18.333 24.3335C18.333 23.9648 18.6318 23.6665 19 23.6665Z" fill="#00B4E3"/>
<path d="M33 27H9C8.63184 27 8.33301 27.2983 8.33301 27.6665C8.33301 28.0347 8.63184 28.3335 9 28.3335H33C33.3682 28.3335 33.667 28.0347 33.667 27.6665C33.667 27.2983 33.3682 27 33 27Z" fill="#00B4E3"/>
<path d="M9 30.3335H33C33.3682 30.3335 33.667 30.6318 33.667 31C33.667 31.3682 33.3682 31.6665 33 31.6665H9C8.63184 31.6665 8.33301 31.3682 8.33301 31C8.33301 30.6318 8.63184 30.3335 9 30.3335Z" fill="#00B4E3"/>
<path fill-rule="evenodd" clip-rule="evenodd" d="M10.333 1C9.22949 1.00098 8.33496 1.896 8.33301 3V7C7.22949 7.00098 6.33496 7.896 6.33301 9V13C5.22949 13.001 4.33496 13.896 4.33301 15V33.6665H1.66699C1.29883 33.6665 1 33.9648 1 34.3335C1 34.7017 1.29883 35 1.66699 35H40.333C40.7012 35 41 34.7017 41 34.3335C41 33.9653 40.7012 33.6665 40.333 33.6665H37.667V15C37.666 13.896 36.7705 13.001 35.667 13V9C35.666 7.896 34.7705 7.00098 33.667 7V3C33.666 1.896 32.7705 1.00098 31.667 1H10.333ZM9.66699 3C9.66699 2.63184 9.96484 2.3335 10.333 2.3335H31.667C32.0352 2.3335 32.333 2.63184 32.333 3V7H18.2656C17.9492 5.44824 16.584 4.3335 15 4.3335C13.416 4.3335 12.0508 5.44824 11.7344 7H9.66699V3ZM13.123 7C13.4014 6.20166 14.1543 5.6665 15 5.6665C15.8457 5.6665 16.5986 6.20166 16.877 7H13.123ZM7.94531 8.45752L8 8.42236C8.09766 8.36572 8.21191 8.3335 8.33301 8.3335H33.667C34.0352 8.3335 34.333 8.63184 34.333 9V13H16.2656C15.9492 11.4482 14.584 10.3335 13 10.3335C11.416 10.3335 10.0508 11.4482 9.73438 13H7.66699V9C7.66699 8.95508 7.67188 8.91113 7.68066 8.86865C7.69141 8.81152 7.70996 8.75732 7.73438 8.70703C7.7832 8.60742 7.85547 8.52148 7.94531 8.45752ZM11.3584 12.5337C11.457 12.3892 11.5732 12.2598 11.7041 12.1475C12.0566 11.8442 12.5127 11.6665 13 11.6665C13.8457 11.6665 14.5986 12.2017 14.877 13H11.123C11.1816 12.832 11.2607 12.6758 11.3584 12.5337ZM36.333 33.6665H5.66699V15C5.66699 14.6318 5.96484 14.3335 6.33301 14.3335H35.667C36.0352 14.3335 36.333 14.6318 36.333 15V33.6665Z" fill="#00B4E3"/>
<path fill-rule="evenodd" clip-rule="evenodd" d="M12.333 25C14.543 25 16.333 23.209 16.333 21C16.333 18.791 14.543 17 12.333 17C10.124 17 8.33301 18.791 8.33301 21C8.33594 23.208 10.125 24.9976 12.333 25ZM12.333 18.3335C13.8057 18.3335 15 19.5273 15 21C15 22.4727 13.8057 23.6665 12.333 23.6665C10.8604 23.6665 9.66699 22.4727 9.66699 21C9.66797 19.5278 10.8613 18.335 12.333 18.3335Z" stroke="#00B4E3" stroke-width="0.4" mask="url(#path-1-outside-1)"/>
<path d="M19 17H33C33.3682 17 33.667 17.2983 33.667 17.6665C33.667 18.0347 33.3682 18.3335 33 18.3335H19C18.9316 18.3335 18.8662 18.3232 18.8047 18.3042C18.7725 18.2944 18.7412 18.2822 18.7109 18.2676C18.6797 18.2524 18.6494 18.2349 18.6211 18.2148C18.4473 18.0947 18.333 17.8936 18.333 17.6665C18.333 17.2983 18.6318 17 19 17Z" stroke="#00B4E3" stroke-width="0.4" mask="url(#path-1-outside-1)"/>
<path d="M33 20.3335H19C18.6318 20.3335 18.333 20.6318 18.333 21C18.333 21.0859 18.3486 21.168 18.3779 21.2432C18.3975 21.2915 18.4219 21.3374 18.4512 21.3794C18.4746 21.4141 18.502 21.4463 18.5322 21.4756C18.6533 21.5938 18.8184 21.6665 19 21.6665H33C33.3682 21.6665 33.667 21.3682 33.667 21C33.667 20.6318 33.3682 20.3335 33 20.3335Z" stroke="#00B4E3" stroke-width="0.4" mask="url(#path-1-outside-1)"/>
<path d="M19 23.6665H33C33.3682 23.6665 33.667 23.9653 33.667 24.3335C33.667 24.7017 33.3682 25 33 25H19C18.6318 25 18.333 24.7017 18.333 24.3335C18.333 23.9648 18.6318 23.6665 19 23.6665Z" stroke="#00B4E3" stroke-width="0.4" mask="url(#path-1-outside-1)"/>
<path d="M33 27H9C8.63184 27 8.33301 27.2983 8.33301 27.6665C8.33301 28.0347 8.63184 28.3335 9 28.3335H33C33.3682 28.3335 33.667 28.0347 33.667 27.6665C33.667 27.2983 33.3682 27 33 27Z" stroke="#00B4E3" stroke-width="0.4" mask="url(#path-1-outside-1)"/>
<path d="M9 30.3335H33C33.3682 30.3335 33.667 30.6318 33.667 31C33.667 31.3682 33.3682 31.6665 33 31.6665H9C8.63184 31.6665 8.33301 31.3682 8.33301 31C8.33301 30.6318 8.63184 30.3335 9 30.3335Z" stroke="#00B4E3" stroke-width="0.4" mask="url(#path-1-outside-1)"/>
<path fill-rule="evenodd" clip-rule="evenodd" d="M10.333 1C9.22949 1.00098 8.33496 1.896 8.33301 3V7C7.22949 7.00098 6.33496 7.896 6.33301 9V13C5.22949 13.001 4.33496 13.896 4.33301 15V33.6665H1.66699C1.29883 33.6665 1 33.9648 1 34.3335C1 34.7017 1.29883 35 1.66699 35H40.333C40.7012 35 41 34.7017 41 34.3335C41 33.9653 40.7012 33.6665 40.333 33.6665H37.667V15C37.666 13.896 36.7705 13.001 35.667 13V9C35.666 7.896 34.7705 7.00098 33.667 7V3C33.666 1.896 32.7705 1.00098 31.667 1H10.333ZM9.66699 3C9.66699 2.63184 9.96484 2.3335 10.333 2.3335H31.667C32.0352 2.3335 32.333 2.63184 32.333 3V7H18.2656C17.9492 5.44824 16.584 4.3335 15 4.3335C13.416 4.3335 12.0508 5.44824 11.7344 7H9.66699V3ZM13.123 7C13.4014 6.20166 14.1543 5.6665 15 5.6665C15.8457 5.6665 16.5986 6.20166 16.877 7H13.123ZM7.94531 8.45752L8 8.42236C8.09766 8.36572 8.21191 8.3335 8.33301 8.3335H33.667C34.0352 8.3335 34.333 8.63184 34.333 9V13H16.2656C15.9492 11.4482 14.584 10.3335 13 10.3335C11.416 10.3335 10.0508 11.4482 9.73438 13H7.66699V9C7.66699 8.95508 7.67188 8.91113 7.68066 8.86865C7.69141 8.81152 7.70996 8.75732 7.73438 8.70703C7.7832 8.60742 7.85547 8.52148 7.94531 8.45752ZM11.3584 12.5337C11.457 12.3892 11.5732 12.2598 11.7041 12.1475C12.0566 11.8442 12.5127 11.6665 13 11.6665C13.8457 11.6665 14.5986 12.2017 14.877 13H11.123C11.1816 12.832 11.2607 12.6758 11.3584 12.5337ZM36.333 33.6665H5.66699V15C5.66699 14.6318 5.96484 14.3335 6.33301 14.3335H35.667C36.0352 14.3335 36.333 14.6318 36.333 15V33.6665Z" stroke="#00B4E3" stroke-width="0.4" mask="url(#path-1-outside-1)"/>
</svg>
